<svg viewBox="0 0 1102 370" xmlns="http://www.w3.org/2000/svg" fill-rule="evenodd" clip-rule="evenodd" stroke-linejoin="round" stroke-miterlimit="1.414"><g fill-rule="nonzero"><path d="M0 185c0-21.666 3.92-43.083 11.75-64.25C19.59 99.584 31 80.667 46 64c15-16.666 33.34-30.166 55-40.5C122.67 13.167 147.34 8 175 8c32.67 0 60.92 7.167 84.75 21.5 23.84 14.334 41.59 33 53.25 56L260 122c-4.66-10-10.33-18.416-17-25.25-6.66-6.833-13.83-12.25-21.5-16.25-7.66-4-15.66-6.916-24-8.75C189.17 69.917 181 69 173 69c-17.33 0-32.41 3.5-45.25 10.5-12.83 7-23.5 16.084-32 27.25-8.5 11.167-14.91 23.834-19.25 38C72.17 158.917 70 173 70 187c0 15.667 2.5 30.75 7.5 45.25s12.09 27.25 21.25 38.25c9.17 11.004 20.17 19.834 33 26.504 12.84 6.66 26.92 10 42.25 10 8 0 16.34-1 25-3 8.67-2 16.92-5.17 24.75-9.5 7.84-4.34 15.09-9.92 21.75-16.75 6.67-6.837 12-15.087 16-24.754l56.5 32.504c-5.66 13.33-13.75 25.08-24.25 35.25-10.5 10.16-22.33 18.75-35.5 25.75-13.16 7-27.25 12.33-42.25 16-15 3.66-29.66 5.5-44 5.5-25.33 0-48.5-5.34-69.5-16-21-10.67-39.08-24.59-54.25-41.75-15.16-17.17-27-36.67-35.5-58.504C4.25 229.917 0 207.667 0 185zM601.5 365.004h-67V218c0-20.666-3.83-35.916-11.5-45.75-7.66-9.833-18.5-14.75-32.5-14.75-6 0-12.33 1.334-19 4-6.66 2.667-13 6.417-19 11.25-6 4.834-11.5 10.584-16.5 17.25-5 6.667-8.66 14-11 22v153.004h-67V0h67v151.5c9.67-17 22.75-30.083 39.25-39.25C480.75 103.084 499 98.5 519 98.5c17 0 30.84 2.917 41.5 8.75 10.67 5.834 19 13.584 25 23.25 6 9.667 10.17 20.667 12.5 33 2.34 12.334 3.5 25 3.5 38v163.504zM731.5 370.004c-12.66 0-24.5-2.09-35.5-6.25-11-4.17-20.5-10-28.5-17.5s-14.25-16.25-18.75-26.25-6.75-21-6.75-33c0-12.34 2.75-23.754 8.25-34.254 5.5-10.5 13.17-19.416 23-26.75 9.84-7.333 21.59-13.083 35.25-17.25 13.67-4.166 28.67-6.25 45-6.25 11.67 0 23.09 1 34.25 3 11.17 2 21.09 4.834 29.75 8.5v-15c0-17.333-4.91-30.666-14.75-40-9.83-9.333-24.41-14-43.75-14-14 0-27.66 2.5-41 7.5-13.33 5-27 12.334-41 22L656.5 132c33.67-22.333 70-33.5 109-33.5 37.67 0 66.92 9.25 87.75 27.75 20.84 18.5 31.25 45.25 31.25 80.25v81.504c0 7 1.25 12 3.75 15s6.59 4.66 12.25 5v57c-11.33 2.33-21.16 3.5-29.5 3.5-12.66 0-22.41-2.84-29.25-8.5-6.83-5.67-11.08-13.17-12.75-22.5l-1.5-14.5c-11.66 15.33-25.83 27-42.5 35-16.66 8-34.5 12-53.5 12zm19-49c11.34 0 22.09-2 32.25-6 10.17-4 18.09-9.34 23.75-16 7.34-5.67 11-12 11-19V250c-8-3-16.66-5.416-26-7.25-9.33-1.833-18.33-2.75-27-2.75-17.33 0-31.5 3.917-42.5 11.75-11 7.834-16.5 17.75-16.5 29.754 0 11.33 4.34 20.75 13 28.25 8.67 7.5 19.34 11.25 32 11.25zM1102 351.504c-9 4-20 8-33 12s-26.66 6-41 6c-9.33 0-18.08-1.17-26.25-3.5-8.16-2.34-15.33-6.09-21.5-11.25-6.16-5.17-11.08-11.84-14.75-20-3.66-8.17-5.5-18.09-5.5-29.75V154.5h-34.5V103H960V18h67v85h55v51.5h-55v128.004c0 9.33 2.42 15.91 7.25 19.75 4.84 3.83 10.75 5.75 17.75 5.75s13.84-1.17 20.5-3.5c6.67-2.34 12-4.34 16-6l13.5 53z"/></g></svg>