<svg viewBox="0 0 1013 180" xmlns="http://www.w3.org/2000/svg" fill-rule="evenodd" clip-rule="evenodd" stroke-linejoin="round" stroke-miterlimit="1.414"><g fill-rule="nonzero"><path d="M46.78 140.575v-70h19.6V44h-19.6v-2.204c0-8.014 4.6-11.821 10.2-11.821 3.4 0 6.4.601 8.2 2.004l6-22.983c-5-2.597-12.2-3.796-20.6-3.796C31.39 5.2 16 17.787 16 41.796V44H0v26.575h16v70h30.78zm47.81-105.2c9.79 0 17.79-7.994 17.79-17.787S104.38 0 94.59 0 77 7.795 77 17.588c0 9.793 7.8 17.787 17.59 17.787zm15.39 105.2V44H79.2v96.575h30.78zM228.58 140.575v-68.4c0-17.787-10-30.575-31.78-30.575-16.41 0-27.82 7.393-33.62 14.187V44H132.4v96.575h30.78V78.191c3.6-4.416 9.6-9.416 18.81-9.416 9.61 0 15.81 4.2 15.81 16v55.8h30.78zM291.19 179.775c24.01 0 55.39-8.391 55.39-47.594V44H315.8v11.4c-7.8-9.604-17.81-13.8-28.62-13.8-24.19 0-42.38 16.785-42.38 48.588 0 32.602 18.79 48.787 42.38 48.787 11.01 0 20.62-4.596 28.62-14.187v7.393c0 18.412-14.41 22.819-24.61 22.819-11.21 0-21.81-3.205-29.4-11.217L248.4 165.39c12.39 10.189 26.18 14.385 42.79 14.385zm6.2-67.975c-12.21 0-21.21-7.404-21.21-21.612 0-14.009 9-21.413 21.21-21.413 6.4 0 14.61 3.402 18.41 8.605v25.815c-3.8 5.203-12.01 8.605-18.41 8.605zM415.39 142.975c14.81 0 30.8-4.196 40.39-12.787l-13.39-20.201c-5.59 5.208-16.79 8.213-23.6 8.213-14.01 0-22.01-7.211-24.21-15.825h68.8v-6.992c0-32.804-20.79-53.783-49.39-53.783-30.21 0-51.19 22.577-51.19 50.587 0 31.408 22.78 50.788 52.59 50.788zM434 81.4h-39.82c1.2-7.012 6.4-15.025 19.81-15.025 14.21 0 19.21 8.214 20.01 15.025zM509.38 140.575v-61.6c4-5.4 14.6-8.8 22.6-8.8 3.2 0 5.8.2 7.6.8V41.4c-11.4 0-23.8 6.594-30.2 14.388V44H478.6v96.575h30.78zM612.99 142.975c24.2 0 42.39-17.983 42.39-50.787 0-32.604-18.19-50.588-42.39-50.588-11 0-21.01 4.396-28.61 13.588V44H553.6v133.375h30.78v-48.187c8 9.591 17.81 13.787 28.61 13.787zm-10.2-27.175c-6.61 0-14.61-3.8-18.41-8.8V77.6c3.8-5.223 11.8-8.825 18.41-8.825 12.01 0 21.21 9.005 21.21 23.413 0 14.607-9.2 23.612-21.21 23.612zM759.18 140.575V80.2c0-30.008-21.79-38.6-44.99-38.6-14.81 0-31.4 4.396-43.79 14.986l11.39 21.41c7.79-6.613 17.39-10.421 27-10.421 12.41 0 19.61 5.812 19.61 14.223v9.588C722.6 84.195 711.19 80 698.38 80c-14.8 0-33.18 7.791-33.18 31.175 0 21.613 18.38 31.8 33.18 31.8 12.41 0 24.02-4.794 30.02-11.985v9.585h30.78zM711.19 122.8c-8.01 0-15.41-3.604-15.41-11.212 0-7.609 7.4-11.213 15.41-11.213 6.8 0 14.01 2.203 17.21 6.808v8.609c-3.2 4.605-10.41 7.008-17.21 7.008zM796.99 35.375c9.79 0 17.79-7.994 17.79-17.787S806.78 0 796.99 0 779.4 7.795 779.4 17.588c0 9.793 7.8 17.787 17.59 17.787zm15.39 105.2V44H781.6v96.575h30.78zM930.98 140.575v-68.4c0-17.787-10-30.575-31.78-30.575-16.41 0-27.82 7.393-33.62 14.187V44H834.8v96.575h30.78V78.191c3.6-4.416 9.6-9.416 18.81-9.416 9.61 0 15.81 4.2 15.81 16v55.8h30.78zM989.98 142.975c11.4 0 19-2.797 22.8-6.394l-6-23.182c-1 1.2-4.4 2.401-7.8 2.401-5.2 0-8.4-4.202-8.4-9.805v-35.42h19.6V44h-19.6V17.6H959.8V44h-16v26.575h16v44.024c0 18.585 10.59 28.376 30.18 28.376z"/></g></svg>