<svg viewBox="0 0 1263 262" xmlns="http://www.w3.org/2000/svg" fill-rule="evenodd" clip-rule="evenodd" stroke-linejoin="round" stroke-miterlimit="1.414"><path d="M171.882.258c2.919-.761 5.875.38 8.793.64 3.029.535 6.708.397 8.771 3.1 2.548 2.824 2.416 7.966-1.092 9.962-3.315 2.245-7.392 1.054-11.016.502-2.615-.48-5.604-.347-7.723-2.212-2.173-1.908-3.596-5.108-2.576-7.96.745-2.123 2.775-3.43 4.843-4.032zM143.182 3.53c2.08-1.424 4.446-2.974 7.1-2.522 4.092.508 8.003 4.628 6.872 8.904-.64 2.449-3.16 3.508-4.942 4.992-2.979 2.46-5.461 6.14-5.042 10.16.331 3.167 2.543 5.732 4.96 7.618.815 2.113 2.316 4.501 1.152 6.769-1.655 2.94-5.505 3.762-8.605 3.138-2.262-.413-3.922-2.123-5.5-3.662-3.95-3.989-6.807-9.328-6.862-15.038-.298-8.103 4.297-15.836 10.867-20.36zM32.892 36.82c11.368-1.799 23.08-.723 34.14 2.338 9.73 2.648 18.964 6.818 27.883 11.48 10.012 5.212 19.693 11.043 29.242 17.06 9.145 5.594 18.606 11.557 29.467 12.92 5.466.938 11.523-.26 15.567-4.248 1.842-1.445 1.848-4.015 1.803-6.145-.855-5.24-4.644-9.432-8.748-12.527-1.793-1.346-4.093-2.631-4.44-5.07-.585-3.574 2.31-6.928 5.686-7.689 2.323-.65 4.8.105 6.714 1.479 6.145 4.17 11.043 10.204 13.724 17.138 1.986 5.24 2.609 11.253.38 16.521-2.245 5.836-7.612 9.813-13.227 12.141-7.409 3.09-15.766 3.029-23.477 1.175-11.981-2.863-22.881-8.897-33.235-15.39-16.168-9.979-32.452-20.481-50.936-25.617-9.764-2.708-20.123-3.944-30.157-2.057-4.695 1.235-9.34 3-13.184 6.023-3.21 2.317-5.323 6.062-5.649 10.006-.193 2.714.613 5.39 1.837 7.79C12.51 77.66 9.575 82.2 8.587 87.313 4.627 83.183 1.56 78.07.501 72.4c-1.628-8.252.783-17.277 6.547-23.444 6.625-7.243 16.334-10.751 25.844-12.136z" fill-rule="nonzero"/><path d="M31.562 76.139c5.748-4.215 12.93-6.327 20.03-6.173 7.882.21 15.985 2.653 21.827 8.136 3.74 3.536 6.503 8.06 8.114 12.941 3.707 9.841 6.67 19.952 10.398 29.782 6.371.767 12.814.828 19.224 1.081 8.644.133 17.288.635 25.937.381 4.91-.552 9.88.116 14.645 1.307 6.741 1.86 12.285 6.846 15.55 12.947 2.03 3.183 2.714 6.917 3.895 10.447 2.096 8.17 5.323 15.992 7.42 24.161 2.647 8.77 4.324 17.922 3.844 27.112-.618 7.778-2.218 15.567-5.627 22.633-4.644 10.067-12.207 18.562-20.983 25.242-6.592 5.246-13.978 9.549-21.982 12.24-8.043 2.46-16.62 3.636-24.966 2.201-10.988-1.781-21.232-6.354-31.492-10.458-17.983-7.166-35.932-14.414-53.91-21.585-4.799-2.019-9.3-4.876-12.896-8.666-4.838-5.34-8.148-12.24-8.479-19.505-.43-5.836 1.081-11.722 3.988-16.775 4.965-8.897 14.442-15.098 24.592-16.035 1.98-.16 3.955-.47 5.946-.557-4.805-15.495-9.03-31.172-13.68-46.722-2.13-7.48-4.943-15.115-3.922-23.025.838-8.423 5.643-16.256 12.527-21.11m16.582 11.595c-4.695 1.048-8.848 4.777-9.77 9.576-.457 5.317 1.832 10.32 3.272 15.324 6.415 22.29 12.985 44.543 19.306 66.861 1.98 6.757 3.702 13.592 5.87 20.294-8.832-3.034-16.51-8.6-25.11-12.169-4.165-1.92-9.328-3.502-13.658-1.208-5.809 2.985-7.695 11.618-3.426 16.632 2.554 3.194 6.686 4.258 10.316 5.731 22.566 8.953 45.133 17.917 67.628 27.051 6.586 2.361 13.752 3.266 20.691 2.185 7.028-1.401 13.46-4.871 19.141-9.152 7.557-5.505 14.083-12.808 17.393-21.662 3.16-8.29 3.1-17.524.948-26.058-1.61-6.173-3.227-12.362-5.422-18.352-1.898-5.23-3.37-10.591-5.075-15.881-.866-2.93-3.04-5.61-5.99-6.587-3.238-.998-6.664-.309-9.985-.358-13.983.132-27.967-.144-41.94-.513-5.223-.177-10.452-.028-15.665-.337-4.705-14.49-10.459-28.623-15.065-43.147-.573-1.688-1.688-3.095-2.714-4.529l-.265-.033c-.17-.171-.524-.508-.7-.679l-.06-.231c-.657-.453-1.303-.921-1.959-1.363a9.82 9.82 0 0 0-4.082-1.175l.044-.32c-1.241.033-2.482.061-3.723.1z" fill-rule="nonzero"/><g fill-rule="nonzero"><path d="M296.06 219.17v-70h19.6v-26.575h-19.6v-2.204c0-8.014 4.6-11.821 10.2-11.821 3.4 0 6.4.601 8.2 2.004l6-22.983c-5-2.597-12.2-3.796-20.6-3.796-19.19 0-34.58 12.587-34.58 36.596v2.204h-16v26.575h16v70h30.78zm47.81-105.2c9.79 0 17.79-7.994 17.79-17.787s-8-17.588-17.79-17.588-17.59 7.795-17.59 17.588c0 9.793 7.8 17.787 17.59 17.787zm15.39 105.2v-96.575h-30.78v96.575h30.78zM477.86 219.17v-68.4c0-17.787-10-30.575-31.78-30.575-16.41 0-27.82 7.393-33.62 14.187v-11.787h-30.78v96.575h30.78v-62.384c3.6-4.416 9.6-9.416 18.81-9.416 9.61 0 15.81 4.2 15.81 16v55.8h30.78zM540.47 258.37c24.01 0 55.39-8.391 55.39-47.594v-88.181h-30.78v11.4c-7.8-9.604-17.81-13.8-28.62-13.8-24.19 0-42.38 16.785-42.38 48.588 0 32.602 18.79 48.787 42.38 48.787 11.01 0 20.62-4.596 28.62-14.187v7.393c0 18.412-14.41 22.819-24.61 22.819-11.21 0-21.81-3.205-29.4-11.217l-13.39 21.607c12.39 10.189 26.18 14.385 42.79 14.385zm6.2-67.975c-12.21 0-21.21-7.404-21.21-21.612 0-14.009 9-21.413 21.21-21.413 6.4 0 14.61 3.402 18.41 8.605v25.815c-3.8 5.203-12.01 8.605-18.41 8.605zM664.67 221.57c14.81 0 30.8-4.196 40.39-12.787l-13.39-20.201c-5.59 5.208-16.79 8.213-23.6 8.213-14.01 0-22.01-7.211-24.21-15.825h68.8v-6.992c0-32.804-20.79-53.783-49.39-53.783-30.21 0-51.19 22.577-51.19 50.587 0 31.408 22.78 50.788 52.59 50.788zm18.61-61.575h-39.82c1.2-7.012 6.4-15.025 19.81-15.025 14.21 0 19.21 8.214 20.01 15.025zM758.66 219.17v-61.6c4-5.4 14.6-8.8 22.6-8.8 3.2 0 5.8.2 7.6.8v-29.575c-11.4 0-23.8 6.594-30.2 14.388v-11.788h-30.78v96.575h30.78zM862.27 221.57c24.2 0 42.39-17.983 42.39-50.787 0-32.604-18.19-50.588-42.39-50.588-11 0-21.01 4.396-28.61 13.588v-11.188h-30.78V255.97h30.78v-48.187c8 9.591 17.81 13.787 28.61 13.787zm-10.2-27.175c-6.61 0-14.61-3.8-18.41-8.8v-29.4c3.8-5.223 11.8-8.825 18.41-8.825 12.01 0 21.21 9.005 21.21 23.413 0 14.607-9.2 23.612-21.21 23.612zM1008.46 219.17v-60.375c0-30.008-21.79-38.6-44.99-38.6-14.81 0-31.4 4.396-43.79 14.986l11.39 21.41c7.79-6.613 17.39-10.421 27-10.421 12.41 0 19.61 5.812 19.61 14.223v9.588c-5.8-7.191-17.21-11.386-30.02-11.386-14.8 0-33.18 7.791-33.18 31.175 0 21.613 18.38 31.8 33.18 31.8 12.41 0 24.02-4.794 30.02-11.985v9.585h30.78zm-47.99-17.775c-8.01 0-15.41-3.604-15.41-11.212 0-7.609 7.4-11.213 15.41-11.213 6.8 0 14.01 2.203 17.21 6.808v8.609c-3.2 4.605-10.41 7.008-17.21 7.008zM1046.27 113.97c9.79 0 17.79-7.994 17.79-17.787s-8-17.588-17.79-17.588-17.59 7.795-17.59 17.588c0 9.793 7.8 17.787 17.59 17.787zm15.39 105.2v-96.575h-30.78v96.575h30.78zM1180.26 219.17v-68.4c0-17.787-10-30.575-31.78-30.575-16.41 0-27.82 7.393-33.62 14.187v-11.787h-30.78v96.575h30.78v-62.384c3.6-4.416 9.6-9.416 18.81-9.416 9.61 0 15.81 4.2 15.81 16v55.8h30.78zM1239.26 221.57c11.4 0 19-2.797 22.8-6.394l-6-23.182c-1 1.2-4.4 2.401-7.8 2.401-5.2 0-8.4-4.202-8.4-9.805v-35.42h19.6v-26.575h-19.6v-26.4h-30.78v26.4h-16v26.575h16v44.024c0 18.585 10.59 28.376 30.18 28.376z"/></g></svg>