<svg viewBox="0 0 1818 440" xmlns="http://www.w3.org/2000/svg" fill-rule="evenodd" clip-rule="evenodd" stroke-linejoin="round" stroke-miterlimit="1.414"><path d="M144.663.134c-9.805.782-15.39 6.446-17.93 15.391-2.109 7.422-2.578 14.961-1.836 22.656 3.79 38.633 7.188 77.305 11.328 115.9 2.15 19.686 4.297 39.413 9.22 58.631 2.382 9.22 9.452 12.422 18.671 11.914 8.828-.468 12.891-5.312 14.414-13.593 2.305-12.149.977-24.336 1.875-40.782-2.344-42.929-4.805-90.078-7.656-137.226-.469-7.5-1.758-15.078-5.625-21.992-4.96-8.867-12.774-11.719-22.46-10.899zm93.906 25.47c-8.359.702-14.726 7.03-17.5 18.75-2.226 9.647-3.28 19.53-4.414 29.374-4.844 43.164-11.133 86.211-12.695 131.68 0 .703.078 3.36 0 6.015-.39 9.844 3.984 15.977 14.101 17.93 11.485 2.188 15.43-5.273 17.54-13.906 9.18-36.68 13.827-74.14 19.18-111.485 2.616-18.086 6.952-35.976 7.147-54.336.157-14.296-7.109-22.773-19.648-24.023a19.66 19.66 0 0 0-3.71 0zM59.702 30.29a25.45 25.45 0 0 0-4.102.468c-12.382 2.54-17.85 9.961-17.85 27.5.272 1.758.78 6.72 1.874 11.485 6.523 27.851 12.97 55.742 19.804 83.515 5.821 23.672 13.047 47.032 21.446 70 3.594 9.883 12.344 14.414 22.031 12.227 10.04-2.227 12.383-9.336 11.875-18.203-.195-3.438-.547-6.836-.977-10.235-4.492-33.242-11.093-66.132-17.968-98.945-4.297-20.469-6.328-41.523-14.024-61.25-4.218-10.898-12.695-16.758-22.109-16.562zm251.914 57.421c-8.125-.546-12.969 5.08-16.563 11.954-2.5 4.726-4.492 9.804-5.625 14.96-8.28 36.797-18.476 73.165-25.742 110.196-1.992 9.961 0 16.72 9.766 20 10.625 3.554 14.492-3.985 17.93-11.68 11.718-26.289 19.765-53.71 26.836-81.445 3.671-14.336 10.117-28.008 11.718-42.852.821-10.859-4.14-17.695-14.648-20.469-1.289-.35-2.5-.585-3.672-.664zM5.718 186.814c-5.235.625-6.485 4.531-5.313 11.758 6.211 38.554 6.172 77.5 7.148 116.406 1.33 52.852 31.133 93.633 81.875 111.055 40.391 13.828 82.071 17.031 124.22 11.133 29.14-4.102 57.616-18.946 77.773-41.172 46.132-50.82 26.328-126.68-38.985-148.516-21.523-7.227-47.187-8.672-73.32-8.906-9.18 0-18.28.976-29.023 2.461-31.055 4.218-59.297 15.547-81.329 39.062-7.773 8.281-7.617 17.344-.39 24.336 8.164 7.93 15.234 4.531 22.344-1.758 8.398-7.382 18.71-13.75 29.882-16.953 2.578-.78 5.508-1.836 7.852 0 3.008 2.344.312 5-.547 7.227-4.766 12.187-5.039 24.453-1.836 37.031 8.32 32.344 34.727 50.117 70.391 44.844 27.265-4.024 48.515-33.125 46.797-62.188-.43-7.656-3.204-14.14-8.868-19.297-3.125-2.85-7.03-3.476-10.859-1.796-3.437 1.523-3.359 4.531-2.773 7.851 1.523 8.984-2.539 12.266-11.563 12.266-8.906 0-13.242-5.977-12.226-14.532.976-8.085 6.64-12.617 14.218-15.039 29.102-9.218 63.321 13.711 65.157 43.555 2.07 34.57-21.407 63.633-59.532 73.008-26.6 6.523-53.476 4.492-79.843-.39-53.047-9.805-88.946-36.212-87.54-101.094.586-26.329-.117-52.696-4.609-78.75-3.047-17.618-14.453-27.735-32.539-31.133-2.656-.547-4.844-.664-6.562-.469z" fill-rule="nonzero"/><text x="680.082" y="271.234" font-family="'Roboto-Light','Roboto'" font-weight="300" font-size="400" transform="translate(-351.47 20.077) scale(1.19133)">i<tspan x="749.73px 949.457px 1132px 1333.67px 1520.32px 1706.37px" y="271.234px 271.234px 271.234px 271.234px 271.234px 271.234px">nspect</tspan></text></svg>