<svg viewBox="0 0 891 104" xmlns="http://www.w3.org/2000/svg" fill-rule="evenodd" clip-rule="evenodd" stroke-linejoin="round" stroke-miterlimit="1.414"><path d="M77.075 9.634H56.939C54.916 4.046 49.617 0 43.355 0 37.092 0 31.793 4.046 29.77 9.634H9.634C4.335 9.634 0 13.97 0 19.269v67.44c0 5.299 4.335 9.634 9.634 9.634h67.441c5.299 0 9.634-4.335 9.634-9.634v-67.44c0-5.299-4.335-9.635-9.634-9.635zm-33.72 0a4.832 4.832 0 0 1 4.817 4.818 4.832 4.832 0 0 1-4.817 4.817 4.832 4.832 0 0 1-4.818-4.817 4.832 4.832 0 0 1 4.818-4.818zm0 19.269a14.432 14.432 0 0 1 14.451 14.452 14.432 14.432 0 0 1-14.451 14.451 14.432 14.432 0 0 1-14.452-14.451 14.432 14.432 0 0 1 14.452-14.452zm28.903 57.806H14.452v-6.744c0-9.634 19.268-14.933 28.903-14.933 9.634 0 28.903 5.299 28.903 14.933v6.744zM149.517 11.8l18.261 51.562L185.943 11.8h19.238v71.094h-14.697V63.46l1.464-33.545-19.189 52.979H162.7l-19.14-52.93 1.465 33.496v19.434h-14.649V11.8h19.141zM247.661 82.894c-.651-1.27-1.123-2.849-1.416-4.737-3.418 3.809-7.861 5.713-13.33 5.713-5.176 0-9.464-1.497-12.866-4.492-3.402-2.995-5.103-6.771-5.103-11.328 0-5.599 2.076-9.896 6.226-12.891 4.15-2.995 10.148-4.508 17.993-4.541h6.494v-3.027c0-2.442-.626-4.395-1.88-5.86-1.253-1.464-3.23-2.197-5.932-2.197-2.376 0-4.24.57-5.591 1.709-1.351 1.139-2.026 2.702-2.026 4.688h-14.112c0-3.06.944-5.892 2.832-8.496 1.888-2.605 4.558-4.647 8.008-6.128 3.451-1.481 7.324-2.222 11.621-2.222 6.511 0 11.678 1.636 15.503 4.907 3.825 3.272 5.737 7.87 5.737 13.794v22.901c.033 5.013.733 8.805 2.1 11.376v.831h-14.258zm-11.67-9.815c2.084 0 4.004-.464 5.762-1.392 1.758-.927 3.06-2.172 3.906-3.735V58.87h-5.273c-7.064 0-10.824 2.442-11.279 7.324l-.049.83c0 1.758.618 3.207 1.855 4.346 1.237 1.139 2.93 1.709 5.078 1.709zM289.849 61.702l-5.078 5.078v16.114h-14.112v-75h14.112v41.552l2.734-3.515 13.525-15.869h16.944l-19.092 22.021 20.752 30.811h-16.211l-13.574-21.192zM338.97 82.894h-14.16V30.062h14.16v52.832zM323.98 16.39c0-2.116.708-3.858 2.124-5.225 1.416-1.367 3.344-2.051 5.786-2.051 2.409 0 4.329.684 5.762 2.051 1.432 1.367 2.148 3.109 2.148 5.225 0 2.148-.724 3.906-2.173 5.273-1.448 1.367-3.361 2.051-5.737 2.051s-4.289-.684-5.737-2.051c-1.449-1.367-2.173-3.125-2.173-5.273zM358.599 15.071l-1.416 19.727h-8.936V7.894h10.352v7.177zM390.874 68.294c0-1.725-.854-3.084-2.563-4.077-1.709-.993-4.452-1.88-8.228-2.661-12.565-2.637-18.847-7.976-18.847-16.016 0-4.687 1.945-8.602 5.834-11.743 3.89-3.141 8.977-4.712 15.259-4.712 6.706 0 12.069 1.579 16.089 4.736 4.02 3.158 6.03 7.259 6.03 12.305h-14.111c0-2.018-.651-3.687-1.953-5.005s-3.337-1.977-6.104-1.977c-2.376 0-4.215.537-5.517 1.611-1.302 1.074-1.953 2.441-1.953 4.101 0 1.563.74 2.824 2.221 3.785 1.482.96 3.98 1.79 7.496 2.49 3.515.7 6.477 1.489 8.886 2.368 7.455 2.734 11.182 7.471 11.182 14.209 0 4.818-2.067 8.716-6.201 11.694-4.134 2.979-9.473 4.468-16.016 4.468-4.427 0-8.358-.789-11.792-2.368-3.434-1.579-6.128-3.744-8.081-6.494-1.953-2.751-2.93-5.721-2.93-8.911h13.379c.13 2.506 1.058 4.427 2.783 5.761 1.726 1.335 4.037 2.002 6.934 2.002 2.702 0 4.745-.512 6.128-1.538 1.383-1.025 2.075-2.368 2.075-4.028zM497.319 82.894h-14.648l-28.516-46.778v46.778h-14.648V11.8h14.648l28.565 46.875V11.8h14.599v71.094zM539.8 82.894c-.651-1.27-1.123-2.849-1.416-4.737-3.418 3.809-7.861 5.713-13.33 5.713-5.176 0-9.465-1.497-12.866-4.492-3.402-2.995-5.103-6.771-5.103-11.328 0-5.599 2.075-9.896 6.226-12.891 4.15-2.995 10.148-4.508 17.993-4.541h6.494v-3.027c0-2.442-.627-4.395-1.88-5.86-1.253-1.464-3.231-2.197-5.932-2.197-2.377 0-4.24.57-5.591 1.709-1.351 1.139-2.027 2.702-2.027 4.688h-14.111c0-3.06.944-5.892 2.832-8.496 1.888-2.605 4.557-4.647 8.008-6.128 3.45-1.481 7.324-2.222 11.621-2.222 6.51 0 11.678 1.636 15.503 4.907 3.825 3.272 5.737 7.87 5.737 13.794v22.901c.033 5.013.733 8.805 2.1 11.376v.831H539.8zm-11.67-9.815c2.083 0 4.004-.464 5.762-1.392 1.758-.927 3.06-2.172 3.906-3.735V58.87h-5.273c-7.064 0-10.824 2.442-11.28 7.324l-.049.83c0 1.758.619 3.207 1.856 4.346 1.237 1.139 2.93 1.709 5.078 1.709zM576.03 30.062l.44 5.908c3.743-4.59 8.805-6.885 15.185-6.885 6.804 0 11.475 2.686 14.014 8.057 3.711-5.371 9.001-8.057 15.869-8.057 5.729 0 9.994 1.668 12.793 5.005 2.8 3.336 4.199 8.358 4.199 15.063v33.741h-14.16V49.202c0-2.995-.586-5.184-1.758-6.567-1.171-1.384-3.238-2.075-6.201-2.075-4.231 0-7.161 2.018-8.789 6.054l.049 36.28H593.56V49.251c0-3.06-.602-5.273-1.807-6.641-1.204-1.367-3.255-2.05-6.152-2.05-4.004 0-6.901 1.66-8.692 4.98v37.354h-14.111V30.062h13.232zM673.687 83.87c-7.748 0-14.055-2.376-18.921-7.129-4.867-4.752-7.3-11.084-7.3-18.994V56.38c0-5.306 1.025-10.051 3.076-14.234 2.051-4.182 4.956-7.405 8.716-9.667 3.76-2.263 8.048-3.394 12.866-3.394 7.227 0 12.915 2.279 17.066 6.836 4.15 4.557 6.225 11.019 6.225 19.385v5.761h-33.642c.455 3.451 1.831 6.218 4.126 8.301 2.295 2.083 5.2 3.125 8.715 3.125 5.437 0 9.685-1.969 12.745-5.908l6.933 7.764c-2.116 2.994-4.98 5.33-8.594 7.006-3.613 1.677-7.617 2.515-12.011 2.515zm-1.612-43.408c-2.799 0-5.07.948-6.811 2.845-1.742 1.896-2.857 4.61-3.345 8.141h19.629V50.32c-.065-3.139-.911-5.567-2.539-7.283-1.628-1.717-3.939-2.575-6.934-2.575zM720.318 17.073v12.989h9.033v10.351h-9.033V66.78c0 1.953.374 3.353 1.123 4.199.748.847 2.181 1.27 4.296 1.27 1.563 0 2.946-.114 4.151-.342v10.694a29.06 29.06 0 0 1-8.545 1.269c-9.896 0-14.941-4.997-15.137-14.99V40.413h-7.715V30.062h7.715V17.073h14.112zM767.827 82.894c-.651-1.27-1.123-2.849-1.416-4.737-3.418 3.809-7.861 5.713-13.33 5.713-5.176 0-9.464-1.497-12.866-4.492-3.402-2.995-5.103-6.771-5.103-11.328 0-5.599 2.076-9.896 6.226-12.891 4.15-2.995 10.148-4.508 17.993-4.541h6.494v-3.027c0-2.442-.626-4.395-1.88-5.86-1.253-1.464-3.23-2.197-5.932-2.197-2.376 0-4.24.57-5.591 1.709-1.351 1.139-2.026 2.702-2.026 4.688h-14.112c0-3.06.944-5.892 2.832-8.496 1.888-2.605 4.558-4.647 8.008-6.128 3.451-1.481 7.324-2.222 11.621-2.222 6.511 0 11.678 1.636 15.503 4.907 3.825 3.272 5.738 7.87 5.738 13.794v22.901c.032 5.013.732 8.805 2.099 11.376v.831h-14.258zm-11.67-9.815c2.084 0 4.004-.464 5.762-1.392 1.758-.927 3.06-2.172 3.906-3.735V58.87h-5.273c-7.064 0-10.824 2.442-11.279 7.324l-.049.83c0 1.758.618 3.207 1.855 4.346 1.237 1.139 2.93 1.709 5.078 1.709zM788.775 56.087c0-8.106 1.928-14.632 5.786-19.58 3.857-4.948 9.057-7.422 15.6-7.422 5.795 0 10.303 1.986 13.526 5.957l.586-4.98h12.793v51.074c0 4.622-1.05 8.642-3.15 12.06-2.099 3.418-5.054 6.022-8.862 7.813-3.809 1.79-8.268 2.685-13.379 2.685-3.874 0-7.65-.773-11.328-2.319-3.679-1.546-6.462-3.54-8.35-5.981l6.25-8.594c3.516 3.939 7.78 5.908 12.793 5.908 3.744 0 6.657-1.001 8.74-3.003 2.084-2.002 3.125-4.842 3.125-8.52v-2.832c-3.255 3.678-7.535 5.517-12.841 5.517-6.348 0-11.483-2.482-15.406-7.446-3.922-4.964-5.883-11.548-5.883-19.751v-.586zm14.111 1.05c0 4.793.96 8.551 2.881 11.273 1.92 2.722 4.557 4.083 7.91 4.083 4.297 0 7.373-1.614 9.228-4.841V45.401c-1.888-3.228-4.931-4.841-9.13-4.841-3.386 0-6.047 1.385-7.984 4.156-1.937 2.772-2.905 6.912-2.905 12.421zM876.519 68.294c0-1.725-.855-3.084-2.564-4.077-1.709-.993-4.451-1.88-8.227-2.661-12.565-2.637-18.848-7.976-18.848-16.016 0-4.687 1.945-8.602 5.835-11.743 3.89-3.141 8.976-4.712 15.259-4.712 6.706 0 12.068 1.579 16.089 4.736 4.02 3.158 6.03 7.259 6.03 12.305h-14.111c0-2.018-.651-3.687-1.954-5.005-1.302-1.318-3.336-1.977-6.103-1.977-2.376 0-4.216.537-5.518 1.611-1.302 1.074-1.953 2.441-1.953 4.101 0 1.563.741 2.824 2.222 3.785 1.481.96 3.979 1.79 7.495 2.49 3.516.7 6.478 1.489 8.887 2.368 7.454 2.734 11.181 7.471 11.181 14.209 0 4.818-2.067 8.716-6.201 11.694-4.134 2.979-9.472 4.468-16.015 4.468-4.427 0-8.358-.789-11.792-2.368-3.435-1.579-6.128-3.744-8.081-6.494-1.954-2.751-2.93-5.721-2.93-8.911h13.379c.13 2.506 1.058 4.427 2.783 5.761 1.725 1.335 4.036 2.002 6.934 2.002 2.701 0 4.744-.512 6.128-1.538 1.383-1.025 2.075-2.368 2.075-4.028z" fill-rule="nonzero"/></svg>