<svg viewBox="0 0 927 282" xmlns="http://www.w3.org/2000/svg" fill-rule="evenodd" clip-rule="evenodd" stroke-linejoin="round" stroke-miterlimit="1.414"><path d="M161.987 0c37.122.139 74.58 10.459 104.417 30.697 25.048 16.99 44.534 41.133 52.481 68.663 7.947 27.546 3.783 57.796-10.986 82.947-18.325 31.213-51.573 54.381-88.886 65.663-35.48 10.724-74.934 11.09-110.477 1.318a239.34 239.34 0 0 1-2.16-.608c-15.467 11.677-32.54 22.105-51.682 28.158-8.7 2.75-17.835 4.494-27.07 4.553l-.19.001-17.065.022c6.486-6.195 13.68-11.985 18.153-19.38 8.89-14.671 11.167-32.326 12.147-48.837C19.296 194.23 4.227 168.432.78 141.037c-3.393-26.938 4.482-54.82 21.074-77.398 20.475-27.86 52.925-47.714 88.56-57.114C126.807 2.2 143.87.063 160.944 0h1.043zm-.998 13.152c-43.372.162-87.008 15.33-116.138 44.9C29.465 73.677 18.688 93.265 15.45 114.13c-3.102 20.03.726 40.87 10.633 59.045 6.595 12.103 15.74 22.997 26.562 32.278l2.703 2.306-.154 3.518c-.889 18.865-3.574 38.291-12.882 55.099l-.072.125c21.582-4.8 40.769-16.97 57.497-29.896l3.53-2.739 4.263 1.324c45.695 14.04 97.722 9.511 138.418-12.867 25.855-14.216 47.247-36.143 56.872-62.27 9.725-26.375 6.722-56.246-8.364-81.11-19.532-32.194-56.391-54.206-96.416-62.21-11.848-2.37-23.95-3.536-36.097-3.581h-.953zm.672 97.35c9.253.088 18.134 4.743 23.378 11.766 8.7 11.65 6.913 29.137-4.645 38.75-7.856 6.539-19.867 8.656-29.855 4.75-13.354-5.227-20.839-20.225-17.41-33.608 2.93-11.407 13.908-21.045 26.99-21.63.517-.022 1.025-.03 1.542-.029zm-66.143 0c9.18.087 17.971 4.626 23.215 11.503 8.89 11.668 7.203 29.432-4.564 39.12-7.874 6.485-19.84 8.527-29.764 4.643-13.345-5.22-20.848-20.225-17.418-33.608 2.93-11.404 13.861-21.044 26.988-21.63.518-.022 1.026-.03 1.543-.029zm132.186 0c9.398.088 18.398 4.793 23.66 11.892 8.636 11.66 6.776 29.088-4.782 38.639-7.892 6.526-19.949 8.658-29.964 4.734-13.245-5.191-20.793-19.98-17.527-33.28 2.921-11.93 14.533-21.855 28.223-21.986h.39zm-.29 13.151c-9.58.092-16.956 10.601-14.026 20.236 2.178 7.187 10.714 12.993 19.215 9.877 7.357-2.7 11.34-11.132 9.407-18.596-1.56-6.034-7.185-11.36-14.215-11.515-.127-.002-.254-.002-.381-.002zm-132.178 0c-4 .038-7.847 1.862-10.478 4.664-6.196 6.617-5.515 18.064 2.078 23.588 5.543 4.027 14.451 3.31 19.314-2.111 6.005-6.696 5.08-18.018-2.504-23.45-2.34-1.67-5.253-2.662-8.228-2.69h-.182zm66.134 0c-3.991.038-7.847 1.862-10.469 4.664-6.196 6.617-5.524 18.064 2.078 23.588 5.634 4.098 14.714 3.21 19.532-2.396 5.679-6.623 4.78-17.428-2.404-22.896-2.44-1.855-5.534-2.97-8.737-2.96z" fill-rule="nonzero"/><g fill-rule="nonzero"><path d="M516.231 177.953c0-8.692-3.491-15.674-10.473-20.948-6.983-5.273-17.505-9.399-31.568-12.378-14.062-2.978-24.975-6.396-32.739-10.254-7.764-3.857-13.525-8.569-17.285-14.135-3.76-5.567-5.64-12.305-5.64-20.215 0-12.5 5.225-22.827 15.674-30.982 10.449-8.154 23.828-12.231 40.137-12.231 17.675 0 31.86 4.37 42.553 13.11 10.694 8.74 16.04 20.142 16.04 34.204h-17.578c0-9.277-3.882-16.992-11.645-23.144-7.764-6.153-17.554-9.229-29.37-9.229-11.524 0-20.777 2.564-27.759 7.691-6.983 5.127-10.474 11.792-10.474 19.995 0 7.91 2.905 14.038 8.716 18.384 5.811 4.345 16.406 8.325 31.787 11.938 15.381 3.613 26.904 7.471 34.57 11.572 7.666 4.102 13.355 9.033 17.066 14.795 3.711 5.762 5.566 12.744 5.566 20.947 0 13.38-5.395 24.07-16.186 32.08-10.791 8.01-24.878 12.01-42.261 12.01-18.457 0-33.423-4.47-44.897-13.4-11.475-8.94-17.212-20.24-17.212-33.91h17.578c.683 10.25 5.005 18.24 12.964 23.95 7.959 5.71 18.481 8.57 31.567 8.57 12.207 0 22.07-2.69 29.59-8.06 7.519-5.37 11.279-12.16 11.279-20.36zM592.843 218.233h-17.579V59.739h17.579v158.494zm-20.655-204.27c0-3.3 1.074-6.091 3.223-8.371 2.148-2.281 5.078-3.421 8.789-3.421 3.711 0 6.665 1.14 8.862 3.421 2.197 2.28 3.296 5.07 3.296 8.37 0 3.3-1.099 6.066-3.296 8.298s-5.151 3.349-8.862 3.349c-3.711 0-6.641-1.117-8.789-3.349-2.149-2.232-3.223-4.998-3.223-8.297zM633.419 137.523c0-24.805 5.493-44.458 16.479-58.96 10.986-14.502 25.903-21.753 44.751-21.753 21.582 0 37.988 8.594 49.219 25.781l.879-22.852h16.406v155.274c0 20.41-5.713 36.57-17.139 48.49-11.425 11.91-26.904 17.87-46.435 17.87-11.035 0-21.558-2.47-31.568-7.4-10.009-4.93-17.895-11.5-23.657-19.7l9.815-10.55c12.402 15.23 27.148 22.85 44.238 22.85 14.648 0 26.074-4.32 34.277-12.96s12.451-20.63 12.744-35.96v-19.92c-11.23 15.62-27.587 23.43-49.072 23.43-18.359 0-33.105-7.32-44.238-21.97-11.133-14.65-16.699-34.424-16.699-59.327v-2.343zm17.724 3.076c0 20.215 4.053 36.154 12.158 47.824 8.106 11.67 19.532 17.51 34.278 17.51 21.582 0 36.865-9.67 45.849-29.01v-73.678c-4.101-10.156-10.009-17.895-17.724-23.217-7.715-5.323-16.992-7.984-27.832-7.984-14.746 0-26.221 5.786-34.424 17.359-8.203 11.572-12.305 28.637-12.305 51.196zM823.56 59.739l.58 27.1c5.96-9.766 13.38-17.212 22.27-22.339 8.88-5.127 18.7-7.69 29.44-7.69 16.99 0 29.64 4.785 37.94 14.355 8.3 9.571 12.5 23.926 12.6 43.067v104.001h-17.43V114.085c-.1-14.16-3.11-24.707-9.01-31.64-5.91-6.934-15.36-10.401-28.35-10.401-10.84 0-20.43 3.394-28.78 10.181-8.35 6.787-14.53 15.942-18.53 27.466v108.542h-17.43V59.739h16.7z"/></g></svg>