<?xml version="1.0" encoding="UTF-8" standalone="no"?>
<!DOCTYPE svg PUBLIC "-//W3C//DTD SVG 1.1//EN" "http://www.w3.org/Graphics/SVG/1.1/DTD/svg11.dtd">
<svg width="100%" height="100%" viewBox="0 0 1844 609" version="1.1" xmlns="http://www.w3.org/2000/svg" xmlns:xlink="http://www.w3.org/1999/xlink" xml:space="preserve" xmlns:serif="http://www.serif.com/" style="fill-rule:evenodd;clip-rule:evenodd;stroke-linejoin:round;stroke-miterlimit:1.41421;">
    <g id="_-000000ff" serif:id="#000000ff" transform="matrix(1,0,0,1,-85.3473,-76.1342)">
        <path d="M961.16,96.16C970.67,83.89 986.23,78.06 1001.25,76.45C1019.35,75.12 1039.02,77.72 1053.54,89.48C1063.89,97.66 1069.19,111.04 1068.81,124.06C1063.24,124.8 1057.6,124.24 1052,124.38C1047.06,124.25 1042.08,124.83 1037.19,124.02C1036.16,119.86 1035.72,115.39 1033.19,111.78C1029.27,105.67 1021.94,102.92 1015.01,102.14C1006.73,101.11 997.54,101.49 990.53,106.53C984.82,110.59 983.01,118.85 985.92,125.1C987.74,128.65 991.64,130.36 995.13,131.87C1011.91,138.28 1030.06,140.25 1046.66,147.21C1055.4,150.65 1063.71,156.18 1068.65,164.35C1074.04,173.12 1074.71,183.99 1073.11,193.93C1070.94,206.95 1062.27,218.49 1050.64,224.61C1035.84,232.42 1018.56,234.37 1002.07,232.93C986.48,231.62 970.72,225.71 959.85,214.13C951.26,205.17 947.01,192.35 947.85,180.05C953.88,179.61 959.95,179.99 966,179.87C970.47,179.97 974.99,179.5 979.43,180.27C979.99,185.21 980.58,190.35 983.39,194.61C988.61,202.9 998.56,206.82 1007.99,207.56C1017.47,208.16 1027.71,207.26 1035.75,201.73C1043.09,196.64 1044.21,184.59 1037.42,178.58C1030.68,172.36 1021.39,170.41 1012.81,168.1C998.59,164.4 983.69,161.79 970.94,154.11C963.63,149.54 957.36,142.81 954.64,134.51C950.63,121.7 952.57,106.73 961.16,96.16Z" style="fill-rule:nonzero;"/>
        <path d="M1663.21,88.49C1672.72,88.41 1682.24,88.39 1691.76,88.5C1692.65,89.78 1692.29,91.47 1692.46,92.95C1692.45,102.22 1692.31,111.49 1692.44,120.75C1699.57,121.77 1706.82,120.73 1714,121.25C1714.54,127.78 1714.44,134.38 1714.07,140.92C1706.86,141.54 1699.62,140.64 1692.43,141.31C1692.38,159.55 1692.43,177.8 1692.41,196.05C1692.45,199.74 1692.96,204.5 1696.83,206.18C1702.31,208.46 1708.35,207.1 1714.08,207.07C1714.41,214.7 1714.54,222.39 1714.01,230C1704.29,231.27 1694.37,231.56 1684.65,230.2C1677.82,229.03 1670.47,226.53 1666.48,220.47C1663.02,215.37 1662.54,208.98 1662.57,202.99C1662.59,182.43 1662.61,161.87 1662.58,141.31C1656.67,140.69 1650.72,141.48 1644.81,140.93C1644.38,134.39 1644.23,127.76 1644.89,121.23C1650.77,120.8 1656.71,121.71 1662.56,120.75C1662.69,111.48 1662.54,102.21 1662.54,92.95C1662.63,91.46 1662.4,89.82 1663.21,88.49Z" style="fill-rule:nonzero;"/>
        <path d="M1467.95,88.8C1474.27,88.16 1480.65,88.71 1487,88.53C1490.53,88.62 1494.17,88.1 1497.65,89.02C1497.98,99.66 1497.27,110.33 1497.93,120.96C1505.12,121.6 1512.35,120.71 1519.54,121.35C1519.61,127.81 1519.6,134.27 1519.56,140.73C1512.39,141.67 1505.13,140.68 1497.94,141.2C1497.33,156.78 1497.88,172.4 1497.68,188C1497.82,193.02 1497.09,198.28 1498.96,203.07C1499.8,205.23 1501.99,206.44 1504.17,206.9C1509.23,208.11 1514.44,207 1519.58,207.23C1519.55,214.74 1519.65,222.26 1519.52,229.77C1510.22,231.47 1500.6,231.39 1491.23,230.4C1484.6,229.32 1477.43,227.43 1472.94,222.08C1469.03,217.33 1467.92,210.99 1467.8,205.01C1467.65,183.76 1467.92,162.5 1467.68,141.26C1461.78,140.72 1455.84,141.48 1449.95,140.92C1449.58,134.38 1449.48,127.78 1450.02,121.25C1455.89,120.81 1461.81,121.63 1467.67,120.85C1468.08,110.17 1467.4,99.47 1467.95,88.8Z" style="fill-rule:nonzero;"/>
        <path d="M1127.45,125.46C1134.94,119.6 1144.75,117.65 1154.08,118.21C1166.43,118.42 1178.64,123.92 1186.68,133.35C1196.99,144.89 1200.67,160.86 1200.67,176C1200.83,191.38 1196.64,207.49 1185.96,218.97C1178.42,227.4 1167.33,232.31 1156.07,232.67C1146.94,233.28 1137.44,231.43 1129.86,226.13C1126.06,223.6 1123.37,219.84 1120.06,216.77C1119.53,231.02 1120.35,245.32 1119.68,259.56C1109.91,259.59 1100.12,259.61 1090.35,259.55C1089.9,230.05 1090.3,200.51 1090.16,171C1090.26,154.43 1089.97,137.85 1090.29,121.3C1099.55,121.01 1108.84,121.12 1118.11,121.24C1118.83,125.79 1118.24,130.43 1118.45,135.02C1121.45,131.83 1123.85,128.05 1127.45,125.46M1138.33,141.34C1133.04,142.51 1128.26,145.73 1125.26,150.24C1120.26,157.43 1119.17,166.46 1118.86,174.98C1118.99,183.59 1119.98,192.73 1124.97,200.02C1133.41,213.65 1156.72,213.86 1165.02,199.99C1170.79,190.84 1171.23,179.56 1170.51,169.09C1169.64,161.03 1167.11,152.64 1161.11,146.9C1155.22,141.13 1146.18,139.53 1138.33,141.34Z" style="fill-rule:nonzero;"/>
        <path d="M1227.11,136.09C1243.09,117.5 1272.33,112.95 1293.82,124.16C1308.86,132.04 1318.15,148.23 1320.49,164.7C1321.22,170.61 1322.13,176.72 1320.9,182.61C1294.97,182.94 1269,182.27 1243.08,182.93C1242.79,192.37 1246.7,202.99 1255.57,207.42C1264.58,211.47 1275.64,211.27 1284.23,206.23C1288.38,204.13 1290.92,200.18 1293.47,196.48C1301.94,195.87 1310.49,196.26 1318.99,196.29C1315.67,209.7 1306.43,221.94 1293.71,227.72C1283.22,232.63 1271.24,233.54 1259.86,232.12C1247.66,230.3 1235.5,225.16 1227.2,215.79C1217.27,204.76 1212.77,189.65 1213.12,174.97C1212.99,160.89 1217.92,146.79 1227.11,136.09M1257.28,142.34C1248.64,145.51 1243.36,154.71 1243.09,163.64C1259.08,163.84 1275.1,163.79 1291.09,163.67C1290.36,155.35 1286.51,146.1 1278.35,142.63C1271.7,139.93 1264.02,140.01 1257.28,142.34Z" style="fill-rule:nonzero;"/>
        <path d="M1363.44,124.47C1375.2,118.11 1389.09,117.2 1402.14,118.86C1415.23,120.64 1428.03,127.34 1435.49,138.48C1439.51,144.59 1441.84,151.82 1442.15,159.12C1436.11,159.69 1430.04,159.22 1424,159.37C1420.42,159.29 1416.77,159.75 1413.28,158.92C1411.65,153.71 1410.04,147.96 1405.27,144.71C1396.12,138.51 1382.19,139.17 1374.59,147.59C1368.1,154.71 1365.78,164.63 1365.58,174.03C1365.26,183.76 1367,194.06 1372.99,202C1381.84,214.07 1403.58,212.93 1410.49,199.42C1412.43,195.98 1412.98,192.02 1414.34,188.36C1423.8,188.08 1433.29,188.15 1442.75,188.34C1441.38,202.17 1434.57,215.94 1422.83,223.81C1411.64,231.53 1397.54,233.64 1384.23,232.48C1370.82,231.39 1357.79,225.31 1348.96,215.05C1336.59,201.4 1333.79,181.61 1336.72,163.96C1338.92,147.65 1348.71,132.19 1363.44,124.47Z" style="fill-rule:nonzero;"/>
        <path d="M1545.02,129.04C1555.72,120.71 1569.73,118.19 1583,118.18C1593.48,118.06 1604.19,119.04 1613.97,123.06C1620.87,125.91 1627.09,131.25 1629.56,138.46C1631.97,145.03 1631.26,152.14 1631.35,159C1631.4,176.53 1631.22,194.07 1631.44,211.6C1631.42,217.8 1632.77,223.87 1634.74,229.72C1626.81,229.91 1618.89,229.64 1610.97,229.82C1608.85,229.75 1606.66,230.02 1604.65,229.3C1603.63,226.29 1603.32,223.11 1602.66,220.02C1599.23,222.09 1596.3,224.91 1592.74,226.76C1582.85,232.09 1571.28,233.42 1560.22,232.47C1551.64,231.66 1542.96,228.43 1537.02,221.99C1531.67,216.44 1529.21,208.64 1529.22,201.04C1528.96,193.31 1531,185.17 1536.32,179.35C1541.14,173.86 1548.16,171.01 1555.07,169.14C1567.45,165.68 1580.56,166.31 1592.96,162.86C1596.5,161.92 1600.02,159.58 1601.02,155.86C1602.2,150.78 1601.02,144.6 1596.6,141.4C1591.75,138.06 1585.57,138.06 1579.93,138.23C1574.83,138.38 1569.32,139.9 1566.06,144.07C1563.7,146.99 1563.28,150.84 1562.16,154.3C1554.46,155.01 1546.69,154.29 1538.97,154.61C1536.87,154.43 1534.47,155.1 1532.61,153.97C1533.05,144.43 1537.36,134.93 1545.02,129.04M1583.97,181.78C1577.05,182.73 1569.63,183.6 1563.82,187.8C1558.81,191.56 1558.23,198.71 1559.85,204.31C1562.06,210.34 1569.08,212.51 1574.94,212.69C1582.8,213.19 1591.77,211.4 1596.79,204.79C1602.51,196.99 1601.54,186.77 1601.26,177.65C1595.63,179.56 1589.92,181.32 1583.97,181.78Z" style="fill-rule:nonzero;"/>
        <path d="M1773.42,118.52C1788.95,116.99 1805.8,119.65 1818.07,129.93C1825.98,136.44 1831.79,145.36 1834.78,155.14C1837.81,164.78 1837.94,175.06 1837.06,185.05C1835.49,200.06 1827.58,214.48 1815.04,223.07C1800.45,233.32 1781.24,234.69 1764.27,230.72C1748.88,227.1 1735.87,215.51 1729.92,200.94C1724.97,189.35 1724.36,176.34 1725.98,163.96C1727.8,150.54 1734.61,137.72 1745.43,129.43C1753.41,123.11 1763.33,119.5 1773.42,118.52M1775.32,141.2C1768.38,142.31 1762.53,147.22 1759.43,153.41C1754.83,162.49 1754.71,173 1755.4,182.93C1756.27,190.72 1758.7,198.9 1764.63,204.38C1770.52,209.86 1779.26,211.03 1786.95,209.75C1793.8,208.69 1799.86,204.13 1802.98,197.98C1807.62,188.92 1808.36,178.38 1807.41,168.4C1806.61,160.75 1804.35,152.8 1798.76,147.24C1792.78,141.14 1783.43,139.69 1775.32,141.2Z" style="fill-rule:nonzero;"/>
        <path d="M1897.68,125.7C1905.79,119.82 1916.77,116.1 1926.6,119.3C1926.8,128.42 1926.79,137.57 1926.59,146.69C1917.4,145.68 1907.27,144.81 1899.14,150.12C1890.12,155.74 1887,166.99 1886.68,177.01C1886.47,194.55 1886.73,212.09 1886.58,229.63C1876.73,229.91 1866.86,229.8 1857.02,229.69C1856.19,221.16 1856.91,212.56 1856.68,204C1856.68,184 1856.68,164 1856.68,144C1856.88,136.42 1856.24,128.81 1856.98,121.25C1866.27,121.08 1875.58,121.05 1884.87,121.27C1885.59,127.84 1884.9,134.46 1885.2,141.05C1888.53,135.33 1892.12,129.54 1897.68,125.7Z" style="fill-rule:nonzero;"/>
        <path d="M245.1,264.81C252.73,264.03 260.31,262.54 268.01,262.59C279.27,262.63 290.61,262.02 301.76,263.92C330.66,267.02 358.96,277.39 382.39,294.71C389.08,299.18 394.19,305.5 400.01,310.98C411.69,321.97 419.58,336.17 426.69,350.36C432.01,359.85 434.92,370.39 438.01,380.75C439.06,384.38 439.94,388.12 439.79,391.94C434.91,392.87 429.92,392.21 425,392.4C421.75,392.27 418.34,392.88 415.21,391.8C412.77,378.53 409.18,365.22 402.53,353.38C398.35,346.99 394.56,340.29 389.64,334.41C382.09,324.99 372.91,317.03 363.31,309.77C338,292.14 306.8,283.2 276,284.39C245.28,283.72 213.63,291.25 188.44,309.37C177.01,316.61 166.56,325.39 157.72,335.63C151.16,344.11 144.34,352.42 138.49,361.4C132.72,372.33 127.11,383.39 122.9,395.03C116.94,411.78 113.29,429.3 111.51,446.96C111.63,455.01 110.03,462.95 110.38,471C110.23,483.47 110.65,495.94 111.94,508.35C114.5,527.27 119.34,545.9 126.74,563.52C135.08,581.43 145.57,598.48 158.96,613.07C165.2,619.16 171.05,625.69 177.95,631.07C186.05,638.35 195.67,643.57 205.28,648.54C213.66,652.59 222.39,655.96 231.43,658.21C237.19,659.55 243.08,660.25 248.88,661.41C255.15,662.81 261.63,662.42 267.96,663.39C292.15,664.5 317.08,660.32 338.5,648.64C350.12,643.35 360.59,635.69 369.63,626.7C375.94,621.66 380.81,615.17 386.48,609.47C390.27,605.51 392.84,600.6 396.24,596.32C400.51,590.81 403.22,584.35 406.21,578.11C414.98,559.41 420.04,539.08 421.65,518.51C429.94,518.29 438.26,518.34 446.55,518.48C446.6,519.64 446.59,520.81 446.54,521.99C444.09,545.11 438.02,567.97 427.63,588.82C417.02,609.66 402.64,628.55 385.42,644.36C373.41,654.9 360.21,664.31 345.45,670.59C332.17,676.59 318.08,680.75 303.7,683.05C291.94,685.33 279.9,684.52 268,684.62C254.97,684.84 242.04,682.66 229.35,679.95C210.3,675.91 192.37,667.86 175.44,658.43C166.65,652.04 157.68,645.76 149.93,638.08C140.56,628.7 130.71,619.52 123.87,608C119.08,601.63 114.53,595.03 111.29,587.7C108.98,582.24 105.91,577.16 103.33,571.83C88.26,536.74 83.89,497.93 85.75,460.05C86.64,454.72 86.24,449.32 86.64,443.96C88.75,424.48 92.9,405.18 99.52,386.72C104.1,374.75 108.63,362.59 115.85,351.9C123.88,339.51 131.68,326.72 142.56,316.57C149.71,309.32 157.42,302.67 165.45,296.41C188.8,279.43 216.57,268.85 245.1,264.81Z" style="fill-rule:nonzero;"/>
        <path d="M832.78,398.68C846.28,387.73 862.99,381.11 880.13,378.71C889.02,378.27 897.95,378.35 906.85,378.68C918.02,380.05 929.35,382.25 939.37,387.62C950.07,392.48 959.77,399.89 966.49,409.61C970.03,414.45 973.79,419.25 975.88,424.96C977.99,429.47 978.5,434.6 980.96,438.96C983.75,435.5 985.06,431.16 987.58,427.53C991.85,421.49 995.05,414.71 1000.21,409.32C1005.54,401.96 1012.92,396.48 1020.38,391.43C1036.88,382.11 1056.11,377.93 1075,378.51C1085.43,378.26 1095.86,380.01 1105.86,382.93C1115.54,386.12 1125.42,389.94 1132.98,397.04C1136.56,400.44 1140.05,403.95 1143.55,407.46C1147,410.83 1149.09,415.23 1151.69,419.23C1158,428.88 1160.95,440.25 1163.09,451.46C1165.08,461.86 1164.61,472.47 1164.71,483C1164.63,547.18 1164.86,611.36 1164.6,675.53C1157.55,675.64 1150.49,675.65 1143.46,675.53C1143.27,616.36 1143.43,557.18 1143.38,498C1143.06,484.51 1144.35,470.88 1141.91,457.52C1140.86,447.22 1137.32,437.33 1132.76,428.09C1121.93,410.27 1102.01,397.93 1081.04,397.29C1070.67,397.23 1060.1,396.59 1049.97,399.24C1035.35,402.76 1021.37,410 1011.01,421.01C1004.84,426.7 1000.95,434.25 996.12,441C987.6,456.22 983.97,473.7 982.58,490.94C982.33,551.63 982.56,612.33 982.46,673.03C982.29,673.65 981.94,674.89 981.77,675.51C975.28,675.63 968.75,675.75 962.27,675.45L961.55,674.94C961.19,615.31 961.5,555.64 961.4,496C961.2,479.48 962.48,462.64 958.25,446.48C954.97,433.15 947.21,421.08 936.9,412.09C924.01,401.88 907.42,396.5 891,397.17C879.45,396.7 868.14,399.97 857.6,404.43C844.67,409.82 833.37,418.84 824.74,429.83C811.69,444.55 803.93,463.55 801.47,482.97C799.86,494.25 800.58,505.65 800.42,517C800.43,566.33 800.4,615.66 800.44,665C800.35,668.5 800.84,672.11 799.87,675.53C792.77,675.63 785.65,675.71 778.56,675.46C778.57,579.63 778.59,483.81 778.55,387.98C778.57,386.92 778.65,385.86 778.81,384.82C785.7,384.39 792.62,384.65 799.52,384.64C800.16,385.36 800.47,386.21 800.46,387.2C800.79,405.25 800.08,423.35 800.78,441.39C802.7,440.81 803.6,439.11 804.14,437.33C809.46,421.94 819.34,408.01 832.78,398.68Z" style="fill-rule:nonzero;"/>
        <path d="M537.98,394.09C559.95,382.34 585.26,377.95 610,378.51C624,378.14 638.02,379.87 651.64,383.09C665.71,386.47 679.34,393.01 689.49,403.5C702.81,415.74 709.46,434.09 709.41,451.97C709.39,511.65 709.42,571.33 709.39,631.01C709.37,637.8 710.74,644.77 714.28,650.65C716.13,653.86 719.64,655.84 723.23,656.44C729.93,657.35 736.66,656.31 743.33,655.67C743.8,661.44 744,667.33 743.22,673.08C731.72,676.59 719.05,676.46 707.65,672.63C702.96,670.67 697.59,668.82 694.83,664.24C689.05,654.95 687.24,643.78 687.52,633C687.39,627.96 688.1,622.84 687.03,617.87C684.11,620.73 683.22,624.86 681.26,628.32C679.04,632.32 676.96,636.47 673.97,639.96C667.99,646.6 662.44,653.86 654.81,658.73C648.47,662.78 642.07,666.77 635.36,670.17C624.85,674.36 614.15,678.29 602.97,680.2C579.79,684.31 555.69,682.63 533.11,676.14C518.44,671.65 503.91,663.8 495.14,650.8C486.6,639.72 482.79,625.77 481.46,612.04C481.41,600.75 480.39,589.22 483.41,578.2C485.06,572.04 486.8,565.72 490.4,560.37C494.05,555.08 497.01,549.21 501.89,544.89C517.13,529.21 538.98,523.09 559.69,518.43C570.62,515.51 582.01,515.25 593.16,513.65C605.59,513.34 618,512.27 630.37,511.06C642.62,509.19 655.13,507.97 666.8,503.59C675.39,500.26 682.12,492.91 684.93,484.18C688.06,472.91 689.3,461.12 688.14,449.46C686.44,441.3 684.37,433.08 680.3,425.73C677.65,420.9 673.31,417.37 669.54,413.47C665.23,409.01 659.46,406.48 653.82,404.16C645.29,400.56 636.06,399.14 626.99,397.64C615.02,397.05 603.01,397.01 591.04,397.57C581.56,398.63 572.17,400.9 563.32,404.49C555.01,407.81 547.66,413.11 540.99,418.99C535.98,423.35 531.76,428.62 528.58,434.44C522.42,446.83 519.07,460.48 518.12,474.25C510.94,474.85 503.69,474.47 496.49,474.49C496.05,468.21 497.15,461.98 498.15,455.81C500.1,444.45 503.61,433.26 509.27,423.19C513.29,416.48 518.5,410.55 523.92,404.95C527.97,400.57 533.18,397.55 537.98,394.09M682.9,514.91C678.32,519.17 672.26,521.3 666.42,523.17C650.6,527.33 634.18,527.95 617.98,529.5C608.68,529.97 599.45,531.3 590.16,531.7C573.57,533.82 556.83,536.35 541.16,542.43C536.15,545.01 530.95,547.29 526.13,550.21C521.62,553.95 517.58,558.26 513.64,562.59C505.85,574.09 502.32,588.18 502.58,601.99C502.92,617.99 508.24,634.63 520.47,645.52C533.2,658.13 551.61,662.44 568.94,663.54C580.97,663.5 593.2,664.46 605.03,661.76C613.29,660.06 621.76,658.4 629.25,654.34C633.2,652.32 637.21,650.42 641.03,648.14C666.37,632.93 683.48,605.35 686.6,576.04C688.1,562.41 687.22,548.67 687.46,535C687.26,527.31 687.89,519.59 687.14,511.93C685.52,512.6 684.18,513.74 682.9,514.91Z" style="fill-rule:nonzero;"/>
        <path d="M1293.75,388.02C1305.61,383.17 1318.18,379.94 1330.98,378.95C1352.12,377.58 1373.93,378.39 1393.83,386.39C1402.69,389.42 1410.23,395.05 1418.08,399.98C1424.67,404.2 1430,410 1435.46,415.54C1439.22,419.82 1442.14,424.76 1445.88,429.06C1456.99,446.03 1464.14,465.31 1468.64,485.02C1471.61,500.9 1472.4,517.16 1471.29,533.26C1401.87,533.54 1332.43,533.3 1263,533.38C1254.25,533.6 1245.47,532.93 1236.76,533.7C1236.22,538.76 1236.54,543.87 1237.15,548.91C1238.78,571.9 1244.09,595.07 1255.84,615.12C1259.38,620.79 1262.68,626.73 1267.48,631.48C1272.63,636.66 1277.55,642.24 1283.82,646.11C1288.78,649.13 1293.47,652.67 1298.83,654.99C1309.25,659.86 1320.65,662.29 1332.04,663.44C1342.94,663.73 1353.93,664.1 1364.72,662.29C1385.72,659.15 1406.12,649.36 1420.4,633.43C1425.34,628.09 1428.76,621.61 1432.59,615.48C1438.28,605.06 1443.09,594.06 1445.81,582.48C1446.45,580.73 1446.56,577.68 1448.98,577.59C1455.44,577.4 1461.95,577.26 1468.41,577.75C1465.46,595.74 1458.45,612.91 1449.9,628.96C1446.17,634.47 1442.59,640.16 1438.03,645.03C1432.37,650.34 1427.48,656.59 1420.8,660.71C1403.94,671.79 1384.38,678.75 1364.3,680.78C1350.83,682.83 1337.01,683.16 1323.55,680.91C1314.16,679.72 1304.67,678.47 1295.83,674.94C1287.34,672.12 1279.63,667.56 1272.14,662.78C1262.92,656.55 1255.15,648.53 1247.56,640.48C1242.75,634.16 1238.51,627.4 1234.42,620.59C1225.37,603.89 1219.86,585.4 1217.02,566.67C1215.2,551.91 1213.7,537.02 1214.89,522.14C1215.68,515.85 1215.2,509.46 1216.29,503.2C1218.39,489.17 1221.24,475.11 1226.75,461.98C1229.07,456.23 1230.93,450.26 1234.02,444.85C1238.27,437.04 1243.81,430.06 1248.8,422.73C1261.1,408.17 1276.36,395.98 1293.75,388.02M1309.46,402.67C1302,405.2 1295.47,409.7 1288.72,413.64C1281.18,417.83 1275.41,424.39 1269.48,430.51C1261.44,438.98 1256.1,449.45 1250.68,459.68C1242.59,476.76 1238.21,495.64 1237.41,514.49C1308.12,514.63 1378.85,514.58 1449.56,514.52C1449.94,500.52 1446.85,486.69 1442.83,473.36C1439.89,464.62 1436.9,455.81 1432.16,447.85C1428.84,441.74 1424.42,436.34 1420.21,430.85C1407.94,415.14 1390.15,403.95 1370.76,399.43C1360.76,396.62 1350.27,397.22 1340,397.21C1329.58,397.06 1319.27,399.29 1309.46,402.67Z" style="fill-rule:nonzero;"/>
        <path d="M1742.84,385.02C1764.11,377.92 1786.84,378.13 1809,378.73C1829.46,379.79 1850.58,384.28 1867.3,396.74C1871.16,400.18 1874.8,403.86 1878.41,407.57C1884.95,415.69 1889.58,425.33 1891.8,435.53C1894.08,443.49 1893.42,451.83 1893.52,460C1893.52,517.68 1893.5,575.37 1893.52,633.05C1893.86,639.46 1894.55,646.78 1899.48,651.47C1901.7,653.63 1904.28,655.68 1907.4,656.34C1914.33,657.47 1921.33,656.24 1928.27,655.69C1928.74,661.44 1928.86,667.29 1928.21,673.04C1917.23,676.6 1905.17,676.32 1894.12,673.23C1885.14,671.29 1877.4,664.26 1874.71,655.47C1871.1,643.4 1872.94,630.64 1872.46,618.25C1872.01,618.35 1871.11,618.54 1870.66,618.64C1867.87,625.99 1864.26,633.06 1859.18,639.11C1854.47,645.68 1849.03,651.79 1842.37,656.43C1825.6,670.12 1804.71,678.62 1783.17,680.68C1769.69,682.99 1755.87,682.94 1742.36,680.99C1726.54,679.4 1710.83,675.04 1697.08,666.93C1687.95,661.15 1680.59,652.92 1675.45,643.46C1670.53,636 1668.5,627.17 1666.85,618.52C1665.3,602.76 1664.65,586.22 1670.32,571.14C1674.01,562.98 1677.54,554.39 1683.98,547.95C1689.7,542.26 1695.16,535.94 1702.72,532.64C1721.06,522.8 1741.73,518.44 1762.21,515.83C1774.78,513.95 1787.5,513.52 1800.14,512.28C1815.17,510.55 1830.36,509.22 1845.01,505.21C1851.81,503.05 1859.45,501.03 1863.86,494.92C1868.7,487.65 1871.14,478.98 1871.85,470.33C1874.07,453.68 1872.07,435.7 1862.36,421.59C1856.77,415.14 1849.86,409.81 1842.35,405.78C1821.74,395.88 1798.3,396.77 1776.04,397.55C1767.35,398.53 1758.69,400.39 1750.57,403.68C1741.49,407.11 1732.62,411.81 1725.93,418.96C1722.84,422.2 1719.32,425.07 1716.9,428.87C1710.38,438.67 1706.6,450.02 1704.32,461.49C1703.39,465.76 1703.67,470.21 1702.43,474.41C1695.44,474.67 1688.43,474.53 1681.44,474.5C1680.82,463.69 1683.11,452.97 1685.87,442.59C1690.01,429.33 1696.65,416.47 1706.95,406.95C1710.45,403.41 1713.8,399.6 1718.21,397.13C1726.1,392.51 1734,387.65 1742.84,385.02M1864.06,517.22C1856,522.19 1846.53,523.94 1837.35,525.59C1825.62,527.35 1813.83,528.6 1802.02,529.52C1793.3,529.47 1784.72,531.27 1776.03,531.62C1758.35,533.79 1740.52,536.54 1723.87,543.11C1711.65,548.03 1700.68,556.68 1694.64,568.56C1688.75,580.75 1686.47,594.55 1687.71,608.01C1689.4,622.41 1694.61,637.35 1706.05,646.9C1721.36,660.03 1742.38,663.81 1762,663.64C1782.46,664.15 1803.72,661.04 1821.65,650.63C1829.73,646.02 1837.64,640.87 1844.02,634.02C1850.4,627.75 1854.9,619.98 1859.44,612.36C1865.19,602.41 1867.99,591.17 1870.82,580.14C1873.15,566.89 1872.32,553.39 1872.46,540C1872.4,530.36 1872.56,520.72 1872.42,511.08C1869.41,512.82 1867.1,515.53 1864.06,517.22Z" style="fill-rule:nonzero;"/>
        <path d="M1595.97,395.12C1614.75,386.5 1635.67,382.23 1656.33,383.66C1656.66,390.6 1656.46,397.57 1656.46,404.52C1650,404.82 1643.51,403.99 1637.08,404.82C1617.06,407.05 1597.29,414.71 1582.01,427.99C1575.28,434.65 1568.07,440.97 1562.94,449.02C1551.43,464.64 1545.06,483.71 1543.53,502.97C1543.19,512.98 1543.35,522.99 1543.32,533C1543.32,576.67 1543.3,620.33 1543.32,664C1543.24,667.84 1543.7,671.76 1542.82,675.54C1535.72,675.62 1528.61,675.69 1521.53,675.49C1521.51,590.33 1521.53,505.16 1521.52,420C1521.69,408.25 1521.19,396.48 1521.74,384.75C1528.89,384.53 1536.07,384.48 1543.23,384.77C1543.68,404.5 1543.31,424.27 1543.38,444.01C1543.75,445.5 1542.69,448.29 1544.82,448.71C1547.79,442.73 1549.7,436.19 1553.61,430.68C1559,422.26 1565.91,414.84 1574.13,409.12C1580.81,403.57 1588.49,399.47 1595.97,395.12Z" style="fill-rule:nonzero;"/>
    </g>
</svg>
