<svg viewBox="0 0 322 111" xmlns="http://www.w3.org/2000/svg" fill-rule="evenodd" clip-rule="evenodd" stroke-linejoin="round" stroke-miterlimit="1.414"><g fill-rule="nonzero"><path d="M64.24 2.992C67.64 1.311 71.38.396 75.145.036c1.842-.05 3.688-.046 5.532 0 2.478.27 4.951.705 7.319 1.508 1.644.513 3.194 1.277 4.737 2.033 1.242.648 2.41 1.422 3.584 2.181 1.913 1.433 3.795 2.942 5.355 4.764 2.095 2.31 3.818 4.942 5.177 7.746 1.472 2.936 2.359 6.14 2.81 9.386.106 1.078.298 2.153.279 3.24-.009 26.327.003 52.655-.006 78.983-12.99-.045-25.982.004-38.972-.025.036-7.586-.031-15.173.032-22.757a8.25 8.25 0 0 0-1.289-.111c-3.42.007-6.84.002-10.262.002-2.33.087-4.653-.608-6.66-1.775-2.304-1.235-4.171-3.21-5.382-5.519-1.058-1.871-1.546-4.009-1.652-6.141V64.14c-1.642-.066-3.286-.002-4.928-.035-2.256-.144-4.236-2.202-4.18-4.486-.081-1.096.411-2.102.825-3.082.83-1.888 1.583-3.807 2.367-5.713.53-1.343 1.158-2.643 1.673-3.991.72-1.682 1.347-3.404 2.106-5.07.597-1.47 1.181-2.944 1.809-4.401.15-.381.343-.764.333-1.185.011-1.911-.015-3.822.01-5.732.079-.871.227-1.736.275-2.611.637-4.727 2.352-9.302 4.945-13.304 1.344-2.08 2.967-3.96 4.721-5.7 2.458-2.449 5.402-4.375 8.539-5.838m10.272 6.42c-3.612.54-7.115 1.91-10.061 4.085-2.948 2.23-5.518 5.054-7.093 8.424a23.382 23.382 0 0 0-2.214 7.5c-.007.717-.111 1.427-.166 2.14-.03 2.125-.002 4.25-.011 6.374.001.771-.43 1.444-.692 2.145-1.2 2.965-2.472 5.901-3.688 8.86-.815 1.974-1.577 3.972-2.457 5.92.541.069 1.086.13 1.635.117 1.73-.024 3.462.017 5.193-.02.018 5.659.004 11.319.009 16.978-.024 1.127-.049 2.318.523 3.332.754 1.6 2.493 2.586 4.24 2.576 6.821.008 13.643-.006 20.465.007-.008 7.62.01 15.243-.008 22.865 6.842-.004 13.686.03 20.529-.016-.008-23.367.007-46.734-.008-70.1-.27-4.618-1.995-9.147-4.918-12.739-1.646-2.006-3.538-3.855-5.759-5.217-4.59-2.817-10.177-4.113-15.519-3.232zM4.776 50.547c.425-.016.808.195 1.192.349 1.652.7 3.321 1.354 4.966 2.07.661.291 1.366.485 1.995.847.054.674-.345 1.268-.554 1.884a51.07 51.07 0 0 0-2.979 13.01c.025.836-.195 1.654-.165 2.49-.003 1.704-.028 3.41.022 5.114.164.93.114 1.879.29 2.805.519 4.405 1.608 8.754 3.282 12.866.097.293.252.768-.167.868-2.265.985-4.591 1.822-6.841 2.84-.408.174-.821.389-1.276.379-.442-.736-.647-1.585-.973-2.375a59.7 59.7 0 0 1-3.275-14.13c-.05-1.424-.332-2.831-.288-4.257.004-1.664-.01-3.326.01-4.99.224-2.347.327-4.713.808-7.027.258-1.245.46-2.5.75-3.735.677-2.573 1.366-5.153 2.364-7.623.197-.456.316-.952.603-1.363l.236-.022zM21.445 57.325c2.59.973 5.113 2.12 7.684 3.143.272.114.554.22.788.407-.028.604-.37 1.13-.547 1.696-.943 2.725-1.595 5.574-1.73 8.457-.229 1.76-.094 3.544.053 5.305.237 3.211 1.158 6.332 2.268 9.342-1.372.637-2.791 1.16-4.19 1.738-1.44.601-2.87 1.231-4.333 1.782-1.55-3.98-2.691-8.155-2.981-12.427-.24-1.649-.126-3.32-.145-4.98a41.563 41.563 0 0 1 2.7-13.26c.158-.398.31-.795.433-1.203z"/></g><g fill-rule="nonzero"><path d="M200.685 44.424h-23.537v65.275h-9.598V44.424h-23.494v-7.946h56.629v7.946zM262.948 44.424H239.41v65.275h-9.609V44.424h-23.483v-7.946h56.629v7.946zM312.025 91.193c0-1.71-.258-3.219-.775-4.525-.517-1.308-1.444-2.507-2.769-3.596-1.325-1.09-3.102-2.113-5.353-3.068-2.252-.956-5.096-1.937-8.553-2.942-3.62-1.04-6.895-2.221-9.825-3.546-2.94-1.324-5.44-2.85-7.497-4.576-2.057-1.727-3.64-3.696-4.75-5.91-1.11-2.212-1.66-4.744-1.66-7.593 0-2.85.593-5.49 1.778-7.92 1.196-2.43 2.876-4.543 5.063-6.337 2.176-1.793 4.794-3.194 7.842-4.2 3.049-1.005 6.453-1.508 10.212-1.508 4.126 0 7.788.62 11.01 1.86 3.22 1.241 5.924 2.884 8.121 4.929 2.198 2.045 3.867 4.409 5.01 7.091 1.13 2.682 1.701 5.448 1.701 8.298h-9.705c0-2.045-.324-3.94-.98-5.683a11.804 11.804 0 0 0-2.995-4.526c-1.336-1.274-3.016-2.263-5.02-2.967-2.014-.704-4.395-1.056-7.142-1.056-2.585 0-4.837.301-6.743.904-1.907.605-3.49 1.434-4.73 2.49a10.031 10.031 0 0 0-2.768 3.746c-.603 1.443-.894 3.019-.894 4.728 0 1.543.323 2.95.98 4.224.647 1.274 1.66 2.447 3.038 3.52 1.379 1.073 3.146 2.063 5.31 2.968 2.155.905 4.751 1.776 7.768 2.616 4.158 1.173 7.745 2.472 10.76 3.897 3.017 1.424 5.505 3.042 7.466 4.853 1.96 1.81 3.425 3.838 4.373 6.085.96 2.246 1.433 4.793 1.433 7.644 0 2.984-.603 5.682-1.81 8.096-1.206 2.414-2.919 4.476-5.149 6.186s-4.912 3.025-8.046 3.947c-3.135.922-6.636 1.384-10.492 1.384-2.241 0-4.492-.21-6.733-.628a33.179 33.179 0 0 1-6.463-1.887 28.29 28.29 0 0 1-5.731-3.118 21.84 21.84 0 0 1-4.6-4.325 19.078 19.078 0 0 1-3.07-5.532c-.743-2.044-1.11-4.291-1.11-6.739h9.706c0 2.516.496 4.669 1.487 6.462a13.083 13.083 0 0 0 3.975 4.452c1.659 1.173 3.565 2.037 5.73 2.59 2.166.553 4.428.83 6.809.83 5.106 0 9.005-1.04 11.72-3.119 2.714-2.079 4.071-4.912 4.071-8.499z"/></g></svg>