<svg viewBox="0 0 48 48" xmlns="http://www.w3.org/2000/svg"><path transform="scale(0.10666)" fill="#fff" d="M220.07 0h20.37c15 1.64 27.92 9.68 40.81 16.82 11.49 5.88 23.81 9.92 35.37 15.62 8.22 4.15 16.6 10.37 18.87 19.79 2.69 13.08-6.78 24.75-5.48 37.78 1.07 8.99 5.15 17.36 10.15 24.81 7.81 11.18 19.43 20.46 22.34 34.42 2.87 15.61.18 31.78 3.6 47.37 2.02 13.18 7.46 25.93 6.53 39.47-.33 8.93-5.21 16.68-9.24 24.36-4.83 8.69-8.09 18.52-7.87 28.56-.6 15.54 8.17 30.08 5.91 45.71-2.28 14.59-11.23 28.29-24.21 35.54-7.47 4.63-17.02 7.16-21.8 15.14-5.74 9.07-2.23 20.63-6.93 30.07-4.68 9.89-14.76 15.7-24.66 19.32-18.59 6.26-37.56 11.59-56.85 15.22h-19.39c-10.55-1.59-21.19-3.75-30.66-8.87-15.09-8.23-27.85-20.05-40.11-31.95-11.52-12.12-25.98-22.13-33.45-37.56-7.96-14.95-7.44-32.73-14.99-47.83-6.41-13.99-17.81-25.02-23.92-39.19-4.96-10.23-6.11-22.78-1.24-33.26 4.02-8.65 11.58-15.07 15.51-23.77 7.05-14.47 2.08-30.66-.42-45.59-2.18-9.65 1.41-19.71 7.45-27.24 7.7-9.78 17.42-18.5 21.6-30.55 3.61-10.08 2.72-20.93 4.75-31.31 2.01-13.14 8.43-24.96 14.11-36.79 6.2-12.36 12.28-25.75 23.82-34.07C170.17 6.75 195.99 4.1 220.07 0m-13.63 62.78c-13.62 2.44-28.98 6.29-37.01 18.65-7.37 11.04-6.5 24.93-6.52 37.59.15 12.54-3.49 25.03-10.27 35.57-8.83 13.7-24.9 22.01-29.92 38.27-10.94 32.56-6.99 70.05 10.76 99.53 6.36 11.02 15.05 20.92 18.73 33.31 4.42 12.9 2.85 27.39 9.52 39.6 5.88 11.87 18.49 18.93 31.27 20.78 20.71 3.24 43.34 4.73 62.4-5.61 10.42-5.37 15.81-16.26 23.47-24.58 6.67-8.29 15.99-13.86 25.35-18.63 5.28-2.75 10.79-5.93 13.95-11.16 3.75-6.64 1.99-14.54.55-21.58-2.77-11.95-2.71-24.36-1.57-36.5-.29-18.55 2.42-37.02 7.21-54.92 5.12-23.44 5.25-50.17-8.7-70.74-10.43-16.86-24.02-31.42-35.54-47.5-7.62-9.63-15.35-19.71-26.27-25.8-14.29-8.16-31.5-8.83-47.41-6.28z"/></svg>