<svg viewBox="0 0 48 48" xmlns="http://www.w3.org/2000/svg"><path transform="scale(0.10666)" fill="#fff" d="M219.79 0h13.22c20.33 3.43 38.1 14.63 57.81 20.13 10.83 3.22 22.75 5.67 30.87 14.18 7.41 6.71 10.02 16.68 13.38 25.72 4.36 12.05 12.22 22.3 18.5 33.36 5.84 10.11 9.59 21.3 15.78 31.24 3.12 5.45 7.1 10.41 9.58 16.22 4.98 11.47 5.01 24.95.23 36.49-3.07 8-8.5 15.09-10.03 23.65-2.55 12.2-.73 24.72.6 36.95 1.02 9.63 4.38 19.33 2.23 29.05-2.53 10.76-11.22 18.43-15.49 28.38-9.65 18.28 4.22 41.13-9.13 58.04-7.29 7.76-17.36 12.51-24.04 20.94-8.31 9.73-13.32 21.6-19.17 32.84-4.93 9.02-12.66 16.31-21.5 21.45-19.09 11.37-40.92 16.8-62.46 21.36h-15.15c-14.72-1.31-26.89-10.01-37.8-19.24-11.38-9.76-26.94-12.86-38.03-22.94-9.82-9.47-10.02-23.79-12.46-36.3-3.68-18.73-10.94-36.55-19.86-53.36-5.93-10.95-8.37-23.22-10.94-35.27-2.87-13.14-16.99-19.1-21.53-31.4-6.97-15.76-1.78-33-2.9-49.5-.26-12.02-3.69-24.95 2.35-36.17 6.53-11.85 19.37-17.94 28.16-27.8 14.14-12.81 18.75-31.98 27.88-48.07 9.31-16.56 6.84-37.36 17.88-53.18 5.97-9.1 17-12.19 26.83-15.15C183.63 15.98 200.11 3.71 219.79 0m-15.58 62.03c-7.78 1.03-14.6 5.73-19.55 11.65-9.71 11.91-16.43 25.86-23.55 39.38-5.33 11.06-11.16 22.44-11.79 34.94-1.06 6.91.24 14.03-1.74 20.84-3.32 13.38-15.75 22.45-18.05 36.21-2.64 13.21 5.42 25.11 9.17 37.25 3.41 8.82 4.74 18.29 4.22 27.72.25 11.17-7.23 20.46-8.86 31.23-1.38 8.26 1.53 16.36 4.77 23.82 7.62 15.03 20.69 26.04 31.27 38.85 5.69 5.95 11.15 12.37 18.27 16.69 11.58 7.57 26.14 9.1 39.59 7.19 12.01-1.28 24.28-4.33 34.11-11.66 14.62-11.64 24.92-27.74 34.28-43.67 6.7-11.5 9.68-24.52 13.98-36.98 5.12-15.41 19.44-25.82 23.5-41.73 3.99-15.77 1.09-32.44-3.73-47.71-4.04-11.88-13.61-20.37-21-30.11-7.42-9.91-11.74-23.25-7.55-35.38 2.4-8.05 8.42-14.41 10.87-22.43 2.53-6.85-1.45-14.58-7.35-18.3-8.46-5.51-18.08-8.93-26.66-14.24-9.34-5.56-17.66-12.97-27.86-17-14.75-5.02-30.79-7.82-46.34-6.56z"/></svg>