<svg viewBox="0 0 48 48" xmlns="http://www.w3.org/2000/svg"><path transform="scale(0.10666)" fill="#fff" d="M220.46 0h12.96c19.96 3.79 38.18 13.29 57.56 19.07 11.43 3.24 23.11 7.57 31.43 16.44 7.12 7.67 10.06 17.92 14.85 27 5.99 12.54 16.08 22.64 21.56 35.46 5.19 11.79 7.19 24.71 12.79 36.34 3.95 8.36 7.84 17.22 7.26 26.7.82 11.57-6.86 20.97-10.93 31.15-7.81 20.9.79 42.71 2.85 63.79 1.34 18.78-19.01 30.32-18.47 48.99-1.27 14.23 7 28.61 1.18 42.5-7.06 14.56-25.79 16.45-35.14 28.93-12.43 14.27-13.57 35.9-29.45 47.52-19.46 14.04-42.94 21.46-66.25 26.11h-15.43c-6.48-1.15-12.98-2.51-18.98-5.28-12.33-5.63-21.23-16.56-33.43-22.41-10-5.54-22.19-8.29-29.45-17.76-7.15-8.88-6.21-20.95-8.35-31.54-3.76-18.97-11.42-36.92-20.01-54.17-3.92-7.73-6.87-16.01-8.04-24.63-1.27-7.78-1.07-16.44-6.25-22.9-5.84-7.19-14.21-12.53-17.63-21.49-6.11-14.28-1.76-29.9-2.41-44.82.66-11.28-2.88-22.64-.19-33.8 1.74-7.67 6.7-14.08 12.11-19.57 11.97-10.68 24.59-21.12 33.14-34.91 7.68-13.79 16.38-27.66 18.68-43.57 2.68-14.76 4.98-31.37 16.58-42.08 8.05-6.83 18.92-8.07 28.54-11.54C188.17 13.79 203.02 3.48 220.46 0m-20.08 62.67c-10.31 2.48-17.98 10.63-23.44 19.3-9.03 14.4-15.5 30.18-22.13 45.77-3.79 9.35-6.86 19.15-7.19 29.31-.25 8.59-2.42 17.22-6.99 24.54-4.75 8.28-10.66 16.6-11.05 26.48-.67 8.1 2.44 15.78 5.08 23.27 5.09 13.25 8.71 27.65 6.48 41.9-1.8 11.99-10.68 22.27-9.34 34.84 1.9 16.9 12.15 31.5 23.67 43.44 9.66 9.98 17.68 21.88 29.61 29.4 11 7.12 24.77 8.78 37.55 6.93 13.66-1.4 28.18-4.05 38.88-13.32 13.93-12.68 24.46-28.5 35.11-43.9 7.01-10.25 9.56-22.52 12.72-34.3 4.24-15.22 18.55-24.78 23.61-39.59 3.51-10.21 2.73-21.29.73-31.71-2.24-13.13-5.8-26.61-14.9-36.79-10.16-11.15-21.42-24.49-19.13-40.71 1.09-12.18 11.39-20.77 13.6-32.49 1.14-9.09-6.72-15.6-13.99-19.29-11.09-5.57-22.04-11.54-32.06-18.9-9.58-6.98-20.97-11.14-32.69-12.62-11.26-1.49-22.86-4.38-34.13-1.56z"/></svg>