<svg viewBox="0 0 48 48" xmlns="http://www.w3.org/2000/svg"><path transform="scale(0.10666)" fill="#fff" d="M214.04 0h17.09c8.52 1.6 17.08 3.44 24.98 7.14 15.52 6.54 26.27 20.91 42.28 26.49 7.21 2.7 14.81 5.18 20.6 10.5 5.43 5.34 8.52 12.44 11.51 19.32 6.3 14.35 15.75 26.94 23.69 40.37 5.53 9.48 12.12 18.36 20 26.01 6.55 6.33 11.05 14.97 11.38 24.16.71 14.63-8.32 27.47-8.79 41.97-.03 8.03-.11 16.08.04 24.11 1.33 11.83-.47 23.9 2.22 35.61.99 8.12 3.92 17.22-.77 24.76-5.45 7.66-15.1 10.55-21.19 17.57-7.42 8.4-10.06 20.02-9.48 31-.48 9.38 2.79 18.54 1.98 27.92-.73 7.34-5.61 13.18-9.82 18.89-6.79 8.89-13.1 18.12-20.04 26.9-11.46 14.77-27.23 25.52-43.33 34.67-14.87 8.51-32.27 9.46-48.71 12.61H208.5c-5.56-1.2-11.2-2.48-16.25-5.19-9.48-5.18-16.38-14.02-25.95-19.05-10.99-6.14-24.58-5-35.28-11.82-11.56-7.44-18.31-20.43-21.4-33.5-2.18-9.65-4.73-19.27-8.96-28.25-8.58-18.91-13.39-39.19-20.17-58.75-3.54-10.99-12.93-19.12-15.23-30.58-2.58-17.57.98-35.27 1.86-52.84.31-13.37-4.93-28 2.73-40.24 7.98-12.04 22.12-18.86 28.77-31.97 6.48-11.86 6.14-25.71 8.99-38.59 2.26-10.97 7.18-21.12 11.13-31.54 6.27-16.16 17.39-30.7 32.68-39.23C171.44 17.32 191.18 4.37 214.04 0m-7.65 62.72c-9.74 2.82-15.78 11.61-20.91 19.74-7.55 12.47-15.98 24.43-26.01 35.04-9.04 8.93-17.05 19.49-19.65 32.2-4.42 22.72-13.1 44.88-13.32 68.23-.1 18.84 15.83 34.07 13.13 53.11-2.65 11.52-12.86 20.49-12.29 32.97.35 18.28 14.79 32.15 29.07 41.57A195.517 195.517 0 0 1 189 370.01c7.33 6.97 15.46 13.66 25.36 16.48 16.25 4.19 33.42 1.36 49.06-3.95 9.12-3.51 18.43-7.64 25.18-14.94 11.25-10.55 14.31-26.36 18.3-40.59 3.04-11.42 7.52-22.37 11.48-33.48 6.14-16.04 9.42-32.96 14.89-49.21 3.43-9.8 5.77-20.45 3.47-30.78-4.27-21.38-21.07-37.25-27.05-58-3.58-9.76-2.86-20.36-1.47-30.47.95-7.63-2.31-15.25-7.88-20.41-8.61-7.93-18.72-13.97-28.15-20.85-11.21-7.7-22.43-16.22-35.93-19.39-9.69-2.34-20.03-4.35-29.87-1.7z"/></svg>