<svg viewBox="0 0 48 48" xmlns="http://www.w3.org/2000/svg"><path transform="scale(0.10666)" fill="#fff" d="M208.96 0h20.72c8.55 1.68 17.25 2.64 25.68 4.93 16.4 4.09 31.15 12.64 45.63 21.07 8.84 5.12 17.46 11.1 23.73 19.29 6.43 8.5 8.78 19.18 10.31 29.51 2.73 14.43 4.99 29.26 11.68 42.5 4.35 9.17 10.33 17.55 13.64 27.2 4.14 12.3 5.02 25.39 8.39 37.91 3.3 16.31 9.18 32.77 7.15 49.61-1.61 14.67-15.51 22.92-21.1 35.72-11.12 23.45 6.96 47.77 1.78 71.7-3.7 14.95-14.56 26.48-23.87 38.22-5.44 6.72-8.16 15.03-11.09 23.04-4.73 13.17-14.27 24.63-26.49 31.49-13.97 7.78-30.33 8.31-45.45 12.56-7.76 2.27-15.75 3.5-23.63 5.25h-22.89c-11.66-1.49-23.4-5.78-31.23-14.94-12.23-14.39-25.49-27.87-39.42-40.6-8.15-8.04-15.33-17.17-20.12-27.64-10.66-22.51-24.18-43.84-30.92-68.03-4.92-17.42-15.82-34.91-11-53.56 4.44-13.6 9.14-27.73 7.25-42.24-.19-10.03-3.31-19.89-2.21-29.95 1.35-7.79 7.37-13.48 13.17-18.31 7.9-7.36 14.25-16.59 17.32-27.01 3.83-11.29 3.27-23.37 4.97-35.02 2.17-12.81 10.13-23.35 16.49-34.33 6.9-11.75 12.99-24.42 23.41-33.56C166.75 10.14 188.53 4.95 208.96 0m14.47 61.55c-11.47.51-22.55 5.25-31.32 12.57-12.21 10.25-22.83 22.67-30.37 36.76-6.56 11.87-7.06 26.08-14.1 37.74-4.98 9.31-13.52 15.79-20.48 23.5-8.38 9.15-15.2 20.32-16.63 32.87-2.57 14.76 3.49 28.94 7.41 42.86 3.16 10.2 1.77 21 .25 31.36-2.14 14.05 2.49 28.97 12.45 39.15 4.71 4.99 10.49 8.81 15.3 13.69 7.39 7.08 11.35 16.72 16.87 25.15 10.69 17.5 29.79 29.56 50.25 31.31 12.2.3 23.88-3.87 35.5-7.04 6.63-1.93 13.44-3.81 19.26-7.66 9.19-6.95 14.24-17.67 22.18-25.81 6.89-7.36 15.84-13.18 20.39-22.45 4.25-9.24.26-19.2-1.56-28.5-3.86-20.51-5.7-42.68 3.3-62.18 5.22-13.85 20.5-22.95 20.27-38.87-.77-18.13-9.98-34.38-18.01-50.17-4.83-9.7-10.02-19.65-18.48-26.72-8.9-7.77-20.16-13.1-26.89-23.15-5.26-6.97-6.98-15.87-12.05-22.93-7.95-9.78-21.64-11.93-33.54-11.48z"/></svg>