<svg viewBox="0 0 48 48" xmlns="http://www.w3.org/2000/svg"><path transform="scale(0.10666)" fill="#fff" d="M216.52 0h15.25c11.22 1.9 22.18 5.42 31.99 11.26 8.07 4.47 15.26 10.38 23.6 14.38 8.51 4.58 18.52 5.26 26.97 10 8.03 4.48 12.8 12.9 15.61 21.38 6.45 19.05 18.59 35.3 28.39 52.66 7.49 13.99 24.45 21.68 27.28 38.33 4.6 19.99-9.36 37.51-10.03 57.05-1.1 18.13-1.53 36.48 1.64 54.44.91 7.27 1.87 15.57-2.95 21.76-6.1 8.14-15.4 13.68-19.87 23.09-7.02 13.88-4.53 29.81-4.73 44.74.02 8.33-4.83 15.48-9.94 21.63-10.84 13.31-19.5 28.25-30.76 41.21-10.54 10.49-22.97 19.04-36.24 25.68-15.44 7.61-32.8 9.25-49.48 12.39h-17.09c-16.77-1.33-27.85-14.65-41.04-23.18-10.66-6.5-23.96-7.33-34-15.01-11.7-8.66-17.92-22.81-19.77-36.95-2.92-21.53-14.21-40.46-21.54-60.6-3.44-8.74-5.67-17.93-9.49-26.53-4.53-10.43-12.99-18.91-15.64-30.19-4.9-17.23-.54-35.05-1.05-52.56.04-11.81-3.69-24.64 2.87-35.48 8.14-12.72 23.44-18.72 31.36-31.69 9.51-15.38 7.55-34.59 15.4-50.63 8.66-17.58 13.23-38.1 28.14-51.82 6.57-6.23 14.9-10.06 22.88-14.12 16.88-8.26 33.5-17.87 52.24-21.24m-5.06 61.58c-7.69.35-14.79 4.38-19.57 10.32-9.07 10.82-15.65 23.47-24.3 34.62-8.07 11.8-19.6 22.03-22.56 36.61-1.88 11.62-3.11 23.46-7.39 34.52-5.01 13.85-12.57 28-9.65 43.22 3.36 16.9 16.27 31.19 15.4 49.05-.71 12.57-12.13 21.36-12.5 34.02.15 11.73 6.52 22.47 14.27 30.89 10.24 9.91 22.92 16.91 32.95 27.08 7.05 5.95 12.98 13.22 20.85 18.18 10.5 7.79 24.28 9.44 36.96 7.96 23.14-2.26 47.19-13.35 58.48-34.66 6.43-11.9 9.6-25.18 14.19-37.83 8.92-25.83 20.61-50.84 26.53-77.62 3.44-16.49-.6-34.06-10.28-47.76-9.9-14.62-21.1-30.58-19.9-49.12-.24-8.5 4.65-16.29 3.97-24.79-1.2-10.09-10.72-15.78-18.61-20.56-12.18-6.86-23.25-15.44-34.89-23.12-13.02-8.15-28.75-11.29-43.95-11.01z"/></svg>