<svg viewBox="0 0 48 48" xmlns="http://www.w3.org/2000/svg"><path transform="scale(0.10666)" fill="#fff" d="M219.21 0h13.43c19.59 3.12 36.52 14.05 55.06 20.34 11.67 3.5 24.68 5.31 33.85 14.11 6.19 5.94 9.32 14.14 11.83 22.15 5.25 18.25 18.03 32.86 25.9 49.9 4.72 10.48 12.08 19.36 18.4 28.85 6.7 10.13 7.5 23.01 5.16 34.65-2.48 12.12-11.08 22.09-12.52 34.53-1.93 16.55.21 33.24 2.63 49.64 1.27 7.89.89 16.47-3.52 23.39-5.27 8.53-12.35 16.25-14.96 26.18-4.35 14.23.94 29.62-4.11 43.68-3.37 9.28-12.54 14.1-18.87 21.07-11.73 10.76-18.03 25.66-26.02 39.09-8.48 14.07-23.16 22.75-37.83 29.17-15.42 6.25-31.73 9.85-47.97 13.25h-15.51c-22.09-1.83-35.1-21.84-54.47-29.79-7.51-3.3-15.21-6.93-20.84-13.08-7.55-7.28-9.9-18.04-11.38-28.02-2.74-19.1-8.97-37.63-17.92-54.71-4.74-9.05-9-18.44-11.44-28.4-2.07-8.23-3.75-17.03-9.42-23.68-5.5-6.58-12.01-12.72-14.87-21.03-6.08-14.85-1.86-30.85-2.34-46.28-.31-13.35-4.34-28.18 3.43-40.24 7.81-11.8 21.72-17.48 30.27-28.61 7.78-8.57 11.66-19.67 15.71-30.29 3.04-8.3 7.67-15.88 11.27-23.93 6.07-14.7 6.09-31.84 15.83-44.98 5.87-8.69 16.44-11.91 25.85-15.16 18.91-6.17 35.63-18.09 55.37-21.8m-10.76 61.55c-9.45.35-18.13 5.81-23.69 13.27-9.6 12.56-16.86 26.67-24.63 40.37-3.62 7.02-7.52 14.01-9.46 21.73-3.65 13.26.88 28.05-6.5 40.38-6.92 11.95-18.13 23.74-15.02 38.77 4.47 18.73 16.98 35.89 14.5 56-.55 10.16-6.99 18.57-9.01 28.33-1.98 13.82 5.05 27.02 13.59 37.35 7.14 8.17 14.83 15.83 22.17 23.84 8.81 10.77 19.55 20.86 33.23 24.82 15.11 4.03 31.25 1.82 45.96-2.81 20.75-7.25 33.82-26.47 44.33-44.68 8.41-14.19 12.38-30.38 18.26-45.65 5.31-13.4 16.34-23.72 20.66-37.58 5.07-16.39 2.95-34.21-2.47-50.23-5.08-14.36-18.37-23.5-24.87-37.05-4.78-9.08-6.79-20.21-2.91-29.98 3.04-9.22 11.41-17.01 9.72-27.42-1.9-8.31-10.12-12.55-17.14-16.03-11.3-4.77-21.62-11.49-31.57-18.6-15.75-11.67-36.08-14.47-55.15-14.83z"/></svg>