<svg viewBox="0 0 48 48" xmlns="http://www.w3.org/2000/svg"><path transform="scale(0.10666)" fill="#fff" d="M206.93 0h22.26c6.61 1.84 13.47 2.59 20.04 4.64 14.26 4.08 26.79 12.53 37.88 22.18 10.95 9.55 24.58 15.79 34.31 26.75 5.28 6.25 9.33 13.41 13.82 20.22 9.02 13.53 19.81 25.84 28 39.93 5.49 9.32 10.64 19.37 11.12 30.4-.04 11.11-7.62 20.68-7.06 31.88-.52 11.49 4.15 22.22 7.35 33.02 5.1 15.92 6.15 32.73 10.11 48.92 1.36 7.82 4.91 16.68.21 24.05-5.04 6.77-14.42 5.76-21.59 8.47-10.92 3.41-17.9 14.45-18.96 25.47-2.58 15.79 5.74 31.11 3.03 46.89-1.85 7.45-6.9 13.47-10.76 19.94-5.81 8.85-10.31 18.59-17.11 26.77-18.13 20.8-44.44 33.65-71.58 37.49-5.63 1.04-11.45 1.16-16.91 2.98H209.5c-7-1.71-14.04-4.09-19.58-8.87-7.82-5.83-13.38-14.62-22.59-18.51-9.71-4.01-20.39-.64-30.42-2.84-8.79-1.41-16.11-7.71-20.34-15.34-5.77-10.63-6.91-22.98-12.05-33.87-4.41-10.07-11.79-18.7-14.89-29.37-5.04-17.35-5.72-35.91-13.34-52.5-2.76-6.9-7.84-13.04-8.36-20.7-.14-6 3.49-11.05 5.93-16.26 5.93-11.36 8.62-24.13 9.68-36.81.69-12.05-5.64-23.02-6.2-34.89-1.07-13.21 7.15-24.41 11.46-36.31 6.1-15.87 8.01-32.96 13.79-48.94 5.49-15 6.65-32.21 17.5-44.74 14.74-17.04 37.63-22.6 55.3-35.7C184.71 7.23 195.46 2.38 206.93 0m-.52 62.71c-5.94 1.51-11.21 4.93-15.76 8.94-10.92 10.42-14.89 25.86-25.43 36.6-10.21 11.07-23.37 19.89-30.4 33.62-7.04 14.6-9.29 31.06-8.94 47.14.01 14.37-1.5 28.67-2.36 43-1 17.78 4.92 35.34 2.2 53.1-1.36 11.13-3.26 23.38 2.5 33.65 4.69 7.76 12.06 13.34 18.81 19.2 13.09 11.66 26.47 23.02 40.37 33.71 9.25 7.36 19.47 14.54 31.56 15.85 26.52 3.87 56.53-2.96 74.41-24.09 7.67-9.79 10.6-22.13 14.5-33.7 4.53-15.78 10.91-30.96 15.48-46.74 2.92-10.81 4.86-21.98 9.53-32.23 4.9-10.54 11.75-21.79 8.22-33.87-5.82-21.63-20.16-40.87-21-63.85-.16-11.67 1.38-24.82-6.66-34.49-9.9-12.04-19.85-24.18-31.41-34.7-12.22-10.8-27.94-16.73-43.85-19.45-10.41-1.89-21.28-4.5-31.77-1.69z"/></svg>