<svg viewBox="0 0 48 48" xmlns="http://www.w3.org/2000/svg"><path transform="scale(0.10666)" fill="#fff" d="M202.64 0h14.93c16.7 4.48 34.22 4.82 50.88 9.45 20.96 7.31 38.17 22.07 55.07 35.97 14.5 11.47 24.12 28.42 27.98 46.39 3.52 16.76 5.06 34.14 11.67 50.1 9.3 23 18.24 46.98 18.61 72.09.28 22.37-13.95 41.28-16.83 63.02-1.06 13.16 1.34 26.71-2.56 39.57-5.46 19.95-23.68 33.1-29.73 52.8-3.26 9.39-2.37 19.94-7.55 28.69-6.56 11.35-16.14 20.54-25.57 29.5-11.11 9.9-26.11 13.28-40.47 15.15-13.3 1.91-26.72 3.74-39.69 7.27h-19.9c-23.66-4.45-35.88-27.06-53.17-41.29-16.09-12.02-19.3-33.1-29.73-49.17-6.42-11.29-16.51-19.82-23.48-30.7-9.29-14.66-4.54-32.58-5.42-48.84.93-14.12-5.82-26.9-9.21-40.21-2.51-11.78-.58-23.87-1.09-35.79.57-11.06-1.81-22.03-1.05-33.08.85-9.96 7.71-17.76 12.82-25.86 10.17-16.85 16.62-35.59 22.72-54.21 3.15-9.38 6.15-19.01 11.82-27.23 8.2-12.77 22.74-19.12 32.81-30.12C170.62 20.9 183.87 5.56 202.64 0m25.79 61.53c-9.37.34-19.2 2.11-26.68 8.17-9.04 7.25-15.85 17.11-25.81 23.27-10.24 6.38-23.5 6.88-32.43 15.54-9.53 9.5-13.65 23.34-14.1 36.51-.56 12.5 4.7 24.65 2.66 37.14-1.62 10.52-7.61 19.62-10.18 29.86-2.54 9.17-.97 18.74.06 28.02 1.99 15.65-.36 31.34-1.93 46.91-.06 9.41 2.27 19.25 8.5 26.57 4.89 6.74 12.15 11.11 17.97 16.95 8.55 7.83 13.21 18.68 20.25 27.71 10 13.53 24.43 23.66 40.39 28.87 10.84 3.42 22.15.18 32.47-3.47 13.7-4.96 28.72-8.89 38.8-20.18 13.48-14.93 32.72-24.12 43.42-41.6 3.97-5.96 6.01-13.51 4.02-20.54-3.3-9.94-13.56-15.62-16.46-25.79-2.8-8.37.59-17.51 6.15-23.93 8.48-9.79 19.87-17.47 25.17-29.69 3.56-7.8 3.82-16.96.41-24.85-4.48-11.1-15.05-18.2-19.95-29.06-6.22-11.74-6.79-25.26-10.11-37.88C308.31 117.56 296.71 111 288 103c-9.25-8.67-9.99-22.45-18.35-31.65-11.01-10.13-27.2-9.78-41.22-9.82z"/></svg>