<svg viewBox="0 0 48 48" xmlns="http://www.w3.org/2000/svg"><path transform="scale(0.10666)" fill="#fff" d="M202.83 0h15.42c20.79 6.03 43.82 3.9 63.15 14.71 17.32 9.96 32.72 23 46.69 37.21 5.69 6.1 10.62 12.99 14.14 20.56 9.22 20.36 8.91 43.46 17.45 64.06 10.82 25.28 20.14 51.82 21.69 79.49-.21 9.94-2.03 19.97-6.26 29.02-4.99 10.91-11.4 21.56-12.89 33.69-1.8 13.06 1.78 26.28-1.25 39.24-3.34 18.95-19.51 31.78-25.66 49.55-4.1 10.55-2.47 22.9-9.24 32.48-7.86 11.53-17.54 21.97-28.57 30.53-8.96 6.83-20.18 9.35-31.09 11.05-15.17 2.25-30.4 4.6-45.25 8.41h-20.39c-6.6-1.68-13.32-3.72-18.72-8.05-11.07-9.04-18.34-21.61-28.36-31.67-4.81-5.54-10.8-9.85-16.16-14.81-10.76-10.77-15.99-25.39-23.94-38.09-6.32-10.73-15.57-19.46-21.38-30.51-7.26-14.9-4.61-31.94-6.37-47.9-.36-9.27-2.8-18.27-5.74-27.01-5.19-14.8-2.11-30.66-2.72-45.96.63-12.44-2.95-24.64-2.33-37.07.19-7 4.95-12.63 9.15-17.79 13.61-16.25 19.85-36.94 26.39-56.71 4.28-13.3 9.67-27 20.18-36.66 5.72-5.96 11.96-11.38 18.1-16.9C164.16 24.37 180.78 6.91 202.83 0m25.58 61.59c-7.59.25-15.34 1.88-21.87 5.91-12 7.01-19.57 19.4-31.31 26.77-10.57 7.39-24.78 9.24-33.12 19.83-11.31 14.46-10.83 33.67-12.51 51.01-1.49 16.24-14.64 28.49-16.27 44.69-2.49 14.52 5.88 27.87 6.56 42.16 2.63 18.14-6.73 37.17 1.55 54.66 6.44 14.06 21.28 20.67 31.88 30.98 10.91 12.44 19.54 27.1 33.18 36.93 10.32 7.3 22.12 15.89 35.5 13.57 12.14-2.27 23.5-7.39 35.35-10.75 9.71-2.66 18.58-8.26 24.67-16.34 11.28-13.73 27.81-22.43 37.23-37.77 3.85-5.71 5.95-12.93 4.47-19.77-2.61-10.65-12.86-17.32-15.31-28.06-2.59-8.61.01-17.91 4.88-25.2 5.61-8.85 14.37-14.97 20.77-23.16 7.58-8.23 10.39-20.85 6.12-31.32-5.08-14.63-21.44-21.34-26.73-35.9-5.07-11.3-3.65-24.54-9.93-35.37-5.25-9.21-15.38-14.04-21.24-22.78-6.14-7.68-7.15-17.85-11.5-26.41-8.64-14.24-27.73-13.71-42.37-13.68z"/></svg>