<svg viewBox="0 0 48 48" xmlns="http://www.w3.org/2000/svg"><path transform="scale(0.10666)" fill="#fff" d="M219.93 0h13.56c19.13 3.58 36.44 12.96 54.95 18.59 11.96 3.51 24.88 6.84 33.69 16.29 7.96 7.83 10.36 19.09 15.25 28.76 4.69 10.17 11.88 18.87 17.37 28.59 7.59 13.5 10.7 28.99 18.52 42.38 5.68 10.03 8.85 21.98 6.5 33.45-1.86 11.89-11.16 21.02-12.88 32.96-3.04 17.73 1.92 35.48 4.4 52.98 3.52 19.92-17.88 31.93-18.62 50.96-1.52 14.34 5.82 29.31-.53 43.1-6.45 11.7-20.61 15.26-29.52 24.56-9.68 9.73-14.14 22.97-20.1 35.01-4.37 9.12-12.14 16.13-20.74 21.21-18.35 10.83-39.09 16.67-59.76 21.16h-16.39c-5.44-1.32-11.04-2.2-16.18-4.49-13.24-5.58-22.53-17.36-35.51-23.41-9.69-5.36-21.39-8.43-28.27-17.72-6.95-9.24-6.41-21.36-8.64-32.17-3.76-17.9-10.5-35.05-18.79-51.31-4.22-8.17-7.71-16.8-9.23-25.91-1.3-6.76-1.45-13.95-4.8-20.12-4.08-7.34-11.68-11.74-16.32-18.64-7.91-11.81-7.16-26.71-5.76-40.22 1.58-14.77-2.59-29.57-.3-44.28 3.01-13.48 15.32-21.26 24.76-30.1 10.9-9.06 19.44-20.73 25.6-33.45 5.15-10.73 11.81-21.05 13.83-32.97 3.02-14.14 4.24-29.74 13.92-41.26 9.45-10.74 24.91-10.93 37.18-16.66C191.31 11.34 204.69 3.16 219.93 0m-19.54 62.69c-10.54 2.64-18.03 11.27-23.54 20.13-9.25 15.15-16.5 31.42-23.34 47.77-4.37 10.62-5.32 22.16-5.86 33.52-1.29 16.21-16.8 26.8-18.18 42.96-1.15 10.58 3.88 20.26 7.35 29.91 4.45 12.36 7.37 25.92 4.39 38.97-1.83 9-7.36 16.87-8.48 26.06-1.14 10.62 3.34 20.77 8.45 29.8 8.35 13.59 20.38 24.32 30.51 36.51 10.68 12.56 26.57 20.94 43.31 20.25 17.58-.93 36.98-3.44 50.09-16.45 12.27-12.02 22.01-26.43 31.22-40.87 7.08-10.68 9.65-23.38 13.31-35.44 4.31-14.42 17.56-23.67 22.84-37.59 4.24-10.89 3.47-22.95 1.5-34.25-1.95-9.31-3.84-18.89-8.78-27.17-5.26-8.85-13.47-15.42-18.85-24.19-6.49-9.55-9.19-22.17-4.64-33.11 3.4-9.72 12.88-17.54 11.48-28.59-1.99-10.01-12.4-14.34-20.57-18.44-11.36-5.12-21.4-12.53-31.8-19.26-11.29-7.22-24.81-8.97-37.81-10.66-7.48-.96-15.22-1.95-22.6.14z"/></svg>