<svg viewBox="0 0 48 48" xmlns="http://www.w3.org/2000/svg"><path transform="scale(0.10666)" fill="#fff" d="M207.46 0h23.34c6.58 2.14 13.6 2.59 20.09 5.07 13.86 4.31 25.33 13.54 36.04 22.99 9.73 8.97 22.46 13.85 32.06 22.96 7.15 7.51 11.83 16.89 17.63 25.39 7.69 11.87 16.7 22.84 24.03 34.96 6.77 10.83 14.67 21.71 16.63 34.64 1.35 9.15-3.29 17.6-5.17 26.31-2.17 11.57.39 23.27 3.42 34.44 4.33 15.13 3.98 31.07 7.44 46.37 1.39 9.39 6.54 19.97 1.05 28.88-7.57 8.48-21.39 5.41-29.11 13.89-11.42 10-11.97 26.67-9.59 40.57 1.49 9.98 6 20.55 1.75 30.44-5.58 11.31-13.56 21.25-20.35 31.85-10.74 16.23-26.81 28.06-43.67 37.31-15.01 9.07-32.79 10.45-49.47 13.93h-24.37c-4.91-1.75-10.15-2.76-14.59-5.6-10.46-6.02-16.99-17.36-28.42-21.86-9.05-3.57-18.91-.77-28.22-2.89-9.07-1.29-16.71-7.61-21.33-15.3-5.27-9.12-6.94-19.68-10.61-29.45-4.25-12.07-12.68-22.25-16.14-34.65-5.36-18.89-6.24-39.4-16.34-56.71-4.54-7.25-9.84-15.61-6.47-24.5 7.2-18.31 13.13-38.26 9.75-58.09-1.78-9.21-4.47-18.96-1.19-28.17 3.66-9.96 11.34-17.7 15.96-27.16 5.56-10.08 7.73-21.51 9.49-32.75 2.23-14.38 6.66-28.27 10.49-42.27 3.21-11.82 10.28-22.54 20.15-29.83 14.59-11 31.75-17.85 46.69-28.33 8.7-6.24 18.86-9.58 29.03-12.44m5.96 61.58c-7.64.63-15.1 3.87-20.42 9.45-9.62 9.01-13.7 22.02-21.77 32.2-6.52 8.43-14.99 15.02-22.55 22.45-16.54 15.28-20.98 38.97-22.17 60.48.14 16.63-2.69 33.18-1.59 49.82.69 10.09 3.77 19.89 3.92 30.02.66 15-8.72 28.98-5.64 44.08 1.35 8.36 6.41 15.59 12.54 21.21 16.19 14.07 34.85 24.9 51.29 38.67 8.17 6.6 16.53 13.63 26.95 16.27 15.63 4.03 32.22 2.41 47.68-1.68 13.34-4.26 27.21-10.5 35.28-22.51 7.24-11.44 8.66-25.21 12.57-37.91 3.76-13.99 10-27.18 13.83-41.15 3.55-11.8 4.91-24.29 10.19-35.54 4.86-10.18 9.94-21.45 6.66-32.95-5.95-21.52-19.7-40.26-23.73-62.42-2.3-10.97.37-22.94-5.26-33.13-6.91-11.71-17.16-20.88-26.79-30.3-19.32-17.13-45.13-27.21-70.99-27.06z"/></svg>