<svg viewBox="0 0 48 48" xmlns="http://www.w3.org/2000/svg"><path transform="scale(0.10666)" fill="#fff" d="M207.1 0h19.35c11.09 1.62 22.18 3.84 32.66 7.93 13.05 4.95 24.21 13.55 35.68 21.3 7.42 5.22 15.4 9.7 22.2 15.75 11.05 9.56 14.48 24.51 23.2 35.82 12.32 16.79 28.27 32.73 31.31 54.27 2.33 15.03-10.16 27.12-9.78 41.9.49 10.94 5.04 21.09 8.98 31.13 6.98 17.01 10.12 35.23 13.65 53.18.87 7.92 2.5 18.54-5.48 23.47-9.43 5.07-21.71 6.47-27.66 16.52-10.94 19.1 3.89 41.63-4.9 61.22-3.69 7.6-9.74 13.71-13.78 21.11-5.17 8.2-6.99 17.93-11.74 26.33-5.11 9.62-14.35 16.1-23.75 21.1-23.15 11.9-49.37 14.59-74.64 18.97h-13.83c-16.62-1.42-26.23-16.08-38.85-24.78-12.81-8.06-29.79-1.48-42.24-10.58-13.5-9.34-14.8-27.02-21.25-40.82-4.77-11.45-13.52-20.93-16.71-33.08-4.46-16.67-5.64-34.13-11.57-50.43-3-8.89-8-18.94-2.82-28.03 9.54-16.71 17.12-35.7 15.1-55.29-1.33-13.89-10.96-25.18-12.81-38.92-1.42-14.01 1.41-28.04 5.2-41.47 4.64-16.32 16.44-29.35 21.47-45.5 3.88-12.25 8.04-25.26 17.78-34.23 13.27-13.82 32.93-17.83 48.09-28.94C180.93 9.43 192.97 1.68 207.1 0m-2.67 62.79c-12.46 3.38-22.71 12.41-29.57 23.11-5.42 9.06-10.41 18.53-17.67 26.3-8.38 10.31-18.85 19.21-24.5 31.49-7.34 13.91-6.73 30.1-7.01 45.36.04 16.11-3.26 31.94-4.62 47.94-1.2 14.62 1.91 29.29 7.29 42.84 4.77 11.98 8 24.72 15.19 35.6 10.38 16.18 17.29 35.04 31.98 48.06 12.21 11.29 26.29 22.76 43.51 24.3 17.15 1.86 36.89.98 50.12-11.57 18.95-17.58 37.81-37.59 44.71-63.21 4.6-15.54 9.57-30.97 13.46-46.7 2.39-11.24 9.79-20.52 12.79-31.55 2.64-9.91-.63-20.12-4.6-29.2-5.54-12.97-12.36-26.09-12.29-40.55-.51-10.42 4.06-20.6 1.88-31.01-2.01-8.76-9.2-14.72-14.91-21.13-11.16-11.93-18.61-27.33-32.26-36.88-10.8-7.91-24.3-10.65-37.39-11.77-11.96-1.15-24.18-4.55-36.11-1.43z"/></svg>