<svg viewBox="0 0 48 48" xmlns="http://www.w3.org/2000/svg"><path transform="scale(0.10666)" fill="#fff" d="M206.1 0h23.58c8.19 1.92 16.56 3.14 24.52 5.98 15.54 5.01 28.83 14.73 42.62 23.17 10.08 6.25 21.12 11.96 28.09 21.92 5.04 7.59 6.89 16.75 11.28 24.68 6.66 12.25 17.09 21.86 24.45 33.65 6.35 10.08 11.73 21.86 10.01 34.08-1.91 10.95-9.31 20.3-10.08 31.53-1.08 12.74 5.02 24.42 9.51 35.94 6.5 15.28 9.84 31.65 12.46 47.98.27 7.33 1.84 15.58-2.56 22.05-5.76 7.47-16.11 8.77-22.57 15.44-4.86 4.47-7.43 11.03-7.7 17.56-.55 13.11 2.84 26.28.41 39.32-3.05 13.76-16.49 21.3-22.05 33.74-4.75 9.6-4.24 21.32-11.1 29.95-8.78 10.96-22.38 16.33-35.41 20.39-19.08 6.19-39.21 7.97-58.61 12.62h-16.23c-3.54-1.09-7.14-2.05-10.57-3.46-11.9-5.33-19.22-17.27-31.19-22.46-11.48-5.14-25.35-2.58-35.98-10.02-11.56-7.86-15.3-22.21-20.61-34.36-3.3-8.25-8.1-15.73-12.59-23.35-9.45-16.37-8.74-35.92-13.71-53.7-2.33-11.8-9.12-23.13-6.58-35.48 9.14-20.38 20.28-42.22 15.54-65.29-2.88-14.24-14.39-25.12-16.12-39.72-2.37-16.93.58-34.93 9.73-49.54 5.38-8.27 11.85-15.91 16.16-24.85 5.93-13.59 9.73-28.69 20.24-39.71 13.77-15.42 35.41-19.08 51.16-31.82C182.06 8.17 193.52 2.31 206.1 0m-1.69 62.7c-17.49 4.47-30.68 18.31-38.78 33.9-8.58 16.88-22.93 29.83-32.14 46.26-8.83 16-6.6 34.71-7.92 52.21-1.27 21.13-8.96 42.23-4.31 63.44 3.15 16.75 15.69 29.24 22.85 44.22 7.65 12.66 12.32 26.75 17.7 40.44 6.33 15.52 19.14 27.16 32.95 36.08 13.99 9.48 31.86 10.59 48.14 8.29 9.75-.91 18.97-6.01 24.82-13.88 11.56-14.65 26.53-26.19 38.1-40.83 6.77-8.84 8.65-20.04 11.43-30.53 4.01-13.43 7.39-27.04 11.34-40.49 3.32-11.31 11.17-21.35 11.13-33.53-.74-21.27-17.4-38.69-16.49-60.28-.91-10.09 4.03-19.75 2.68-29.81-.8-7.88-6.38-14.02-11.47-19.63-14.16-13.44-20.94-33.36-37.49-44.49-14.03-9.82-31.75-9.39-48.02-11.45-8.13-.85-16.48-2.15-24.52.08z"/></svg>