<svg viewBox="0 0 48 48" xmlns="http://www.w3.org/2000/svg"><path transform="scale(0.10666)" fill="#fff" d="M211.63 0h20.25c28.03 2.7 53.08 16.29 76.91 30.3 8.42 5.21 16.68 11.71 20.86 20.95 5.92 12.71 3.9 27.17 7.41 40.48 2.19 14.34 9.03 27.31 16.78 39.36 6.47 9.81 9.17 21.44 10.74 32.93 2.76 19.47 9.26 38.27 11 57.89 1.02 9.81-1.64 19.97-8.12 27.52-7.14 8.35-14.55 17.46-15.94 28.75-3.77 20.85 9.9 40.47 5.7 61.32-3.79 15.83-15.57 27.83-26.59 39.1-9.4 10.06-9.41 24.91-17.09 35.97-8.39 12.7-22.09 21.02-36.85 24.14-16.89 3.43-33.46 8.26-50.42 11.29h-22.5c-6.67-1.2-13.57-2.09-19.71-5.17-9.01-4.06-15.19-12.08-21.96-18.96-13.01-15.29-29.64-27.15-41.65-43.33-9.32-12.93-14.24-28.31-21.78-42.23-9.65-17.85-16.74-36.9-24.2-55.73-4.63-11.47-9.29-24.07-6.17-36.56 2.86-10.05 8.48-19.34 9.4-29.92 1.98-13.08-1.29-26.1-2.08-39.12-.33-8.26 4.54-15.55 10.54-20.76 11.5-9.74 20.47-23.15 22.72-38.25 2.16-9.89.65-20.15 2.98-30.01 2.46-12.51 10.46-22.76 16.32-33.79 6.7-12.65 13.53-25.95 25.15-34.83C170.01 8.3 191.43 4.28 211.63 0m10.82 61.53c-28.75 1.56-50.68 25.92-60.83 51.12-3.94 10.53-5 21.97-9.85 32.2-7.85 17.81-27.56 26.63-35.32 44.54-8.87 17.66-4.69 38.08 1.12 55.97 6.92 18.66-3.67 39.2 4.78 57.48 4.07 10.91 13.24 18.57 21.48 26.29 9.87 9.63 13.56 23.41 21.74 34.26 11.28 16.09 31.06 24.87 50.41 25.17 14.12-.7 27.65-5.23 41.03-9.45 8.87-2.89 15.69-9.66 20.96-17.12 6.03-8.49 13.22-16.08 21.11-22.86 4.71-4 9.29-8.46 12-14.09 3.33-8.06.55-16.75-1.02-24.86-3.2-13.83-3.2-28.11-2.88-42.22.78-15.95 7.85-30.85 17.46-43.35 7.14-8.8 8.05-20.82 5.59-31.52-4.56-19.8-14.19-38.12-25.42-54.91-8.69-13.12-24.11-19.12-34.02-31.04-7.43-8.06-9.22-19.99-17.74-27.22-8.34-7.11-20-8.71-30.6-8.39z"/></svg>