<svg viewBox="0 0 48 48" xmlns="http://www.w3.org/2000/svg"><path transform="scale(0.10666)" fill="#fff" d="M206.95 0h23.03c13.69 2.29 27.35 5.76 39.63 12.41 12.19 6.68 23.89 14.19 36.01 20.99 8.63 4.86 17.22 10.85 21.98 19.8 4.12 8.98 5.4 19.11 10.56 27.65 10.97 17.35 28.28 31.66 32.03 52.83 3.34 17.31-12.62 31.1-10.48 48.35 1.75 14.58 9.39 27.53 13.96 41.31 3.72 11.36 6.02 23.13 7.65 34.96.83 7.8 1.05 16.5-3.82 23.14-6.84 8.27-18.86 11.32-23.28 21.81-6.58 16.55 2.76 34.88-3.57 51.55-4.79 13.77-19.96 20.18-25.24 33.63-3.82 8.59-2.04 18.73-6.99 26.94-5.37 8.84-14.9 14.11-24.31 17.7-23.46 8.89-48.66 11.29-72.95 16.93h-14.69c-14.75-2.28-24.85-13.79-36.3-22.12-12.45-8.88-29.49-6.04-41.61-15.52-10.8-8.43-15.16-21.94-21.25-33.67-5.86-12.52-15.13-23.57-17.83-37.43-2.88-14.72-4.2-29.78-8.54-44.2-2.01-7.63-5.33-15.06-5.59-23.05.01-8.86 5.62-16.16 8.66-24.13 5.9-15 10.69-31.32 7.85-47.56-2.61-14.78-15.26-25.14-18.26-39.79-3.54-16.36-1.29-34.55 8.32-48.56 3.85-6.04 8.8-11.26 12.99-17.04 10.61-14.43 13.22-33.26 25.12-46.9 13.36-16.82 35.91-20.75 52.11-33.91C182.27 7.97 194.02 2.02 206.95 0m-2.55 62.72c-13.79 3.72-26.4 12.34-34.58 24.1-5.49 7.78-9.26 16.59-14.34 24.63-9.19 15.24-22.67 28.46-26.67 46.35-3.09 13.52-1.61 27.58-3.76 41.25-1.67 15.68-6.38 31.05-5.67 46.95-.57 12.98 4.92 25.56 13.36 35.23 11.68 13.51 20.53 29.45 25.66 46.57 3.44 11.57 6.61 23.79 14.63 33.18 10.49 12.04 24.08 22.34 39.86 26.05 11.89 2.05 24.32 2.33 36.03-.89 7.7-1.98 13.78-7.68 18.16-14.1 6.25-8.93 13.86-16.83 22.3-23.7 7.45-7.15 16.58-13.03 21.5-22.4 4.62-9.62 5.42-20.45 8.44-30.58 3.38-11.46 6.05-23.11 9.52-34.53 3.52-11.47 11.02-22.28 9.58-34.78-2.18-19.5-15.89-36.07-15.78-56.05-.7-11.1 4.86-21.87 2.41-32.97-2.19-8.96-9.64-15.04-15.17-21.96-11.03-12.48-16.85-29.27-30.33-39.59-10.84-8.8-25.14-10.8-38.61-11.78-12.14-.67-24.49-3.97-36.54-.98z"/></svg>