<svg viewBox="0 0 48 48" xmlns="http://www.w3.org/2000/svg"><path transform="scale(0.10666)" fill="#fff" d="M211.95 0h26.19c21.29 2.99 38.07 17.34 57.41 25.45 12.23 6.06 27.36 9.81 34.88 22.19 7.25 12.47-2.31 26.9 3.02 39.81 5.09 12.64 15.84 21.64 23.69 32.46 5.82 7.81 11.51 16.97 10.42 27.15-1.38 12.39-9.44 23.2-9.08 35.94.49 20.2 13.52 37.23 16.03 57.03 2.31 13.1.94 26.88-4.38 39.1-3.17 7.91-7.91 15.3-9.17 23.86-1.48 11.68 1.12 23.52-.89 35.16-1.49 11.1-7.18 21.99-16.56 28.39-8.8 6.61-20.97 9.25-27.05 19.04-6.03 10.19 3.89 21.87-1.76 32.08-5.1 9.11-15.6 13.01-25.04 15.97-22.31 6.32-45.27 10.12-67.59 16.37h-16.13c-17.05-3.81-30.81-15.01-45.99-22.93-7.88-4.39-16.1-8.28-23.28-13.79-11.33-9.26-21.21-20.09-31.65-30.3-6.01-5.9-11.98-12.46-14.37-20.73-5.03-16.21.26-33.65-5.2-49.82-3.15-12.06-11.21-22.24-13.8-34.45-1.99-10.68 5.92-19.13 10.48-27.92 7.2-14.43 11.49-31 9.34-47.14-1.94-14.49-14.53-23.88-19.3-37.16-5.65-15.74-4.15-34.69 6.62-47.96 7.6-9.35 17.57-16.76 23.59-27.4 8.96-15.84 15.76-33.22 28.06-46.94 6.69-7.6 15.4-12.96 24.13-17.89 13.29-7.48 25.29-17.77 40.26-21.84 5.57-1.85 11.56-1.85 17.12-3.73m2.49 61.54c-10.07.54-19.82 3.55-28.95 7.69-9.4 3.8-18.29 10.23-22.7 19.6-5.71 12.4-5.55 26.42-10.06 39.19-4.3 13.84-14.26 24.9-19.84 38.13-3.99 8.66-5.22 18.2-7.55 27.36-3.12 15.08-7.45 30.05-8.17 45.52-2 14.87 4.03 30.59 16.34 39.46 18.4 14.29 27.55 37.03 31.31 59.42 1.89 11.28 3.18 23.96 12.07 32.2 13.75 13.17 33.46 18.37 52.11 18.45 11.15-.39 23.62-2.33 31.3-11.28 6.34-7.99 11.3-17.12 19.04-23.95 9.58-9.87 23.11-13.99 33.99-22 8.96-7.4 6.75-20.05 7.33-30.31 2.03-21.32 9.06-41.83 11.69-63.05 1.64-16.64-6.04-31.96-8.94-47.97-2.31-11.51-.92-23.3-1.09-34.94-.07-11.48-6.72-21.19-13.5-29.88-10.37-13.25-14.45-30.1-24.48-43.54-7.96-10.34-20.72-15.65-33.37-17.25-12.1-1.64-24.31-3.13-36.53-2.85z"/></svg>