<svg viewBox="0 0 48 48" xmlns="http://www.w3.org/2000/svg"><path transform="scale(0.10666)" fill="#fff" d="M218.13 0h21.83c19.53 2.19 35.28 14.61 52.93 21.96 11.81 5.57 25 9.25 34.66 18.47 4.98 4.4 8.08 10.89 8.06 17.56.12 8.57-3.83 16.48-4.56 24.94-1.28 11.31 3.27 22.37 9.29 31.71 6.63 10.28 16.62 18.5 20.58 30.4 4.93 15 2.36 31.09 5.34 46.43 2.16 15.49 8.5 30.63 6.33 46.5-1.54 9.83-8.31 17.49-12.61 26.14-3.96 7.65-6.05 16.26-5.63 24.88-.66 14.07 6.98 26.97 6.58 41.01.24 13.78-7.07 26.82-17.32 35.68-7.83 7.5-19.65 9.83-26.1 18.9-6.95 10.29-2.97 24.26-10.54 34.35-10.66 14.6-29.44 18.4-45.82 22.97-10.94 3.18-22.01 5.86-33.17 8.1h-21.75c-8.63-1.63-17.57-2.76-25.49-6.82-15.27-7.44-27.57-19.6-39.83-31.09-11.66-11.99-25.3-22.58-33.64-37.37-8.85-15.57-10.08-34.02-17.98-49.98-6.05-13.34-16.19-24.26-22.45-37.48-5.44-10.22-8.33-22.61-4.52-33.89 3.84-11.91 14.72-20.15 17.53-32.51 3.69-13.91-1.29-27.95-2.23-41.85-.76-10.24 5.51-19.09 12.3-26.06 7.01-7.86 14.45-15.89 17.89-26.06 4.93-13.03 2.14-27.36 5.76-40.67 2.32-9.67 7.39-18.28 11.51-27.22 7.13-14.8 14.31-31.1 28.92-40.01C172.91 6.09 196.37 4.46 218.13 0m-9.7 62.66c-13.05 2.32-27.14 6.13-35.84 16.88-9.42 11.22-9.29 26.67-9.85 40.51-.34 18.25-8.51 36.37-22.57 48.12-6.59 6.19-13.32 12.66-17.06 21.06-6.75 14.88-7.49 31.68-6.28 47.74 2.65 20.08 5.47 40.79 15.26 58.86 5.56 10.54 14.28 19.28 18.39 30.61 5.04 13.26 4.3 28.52 12.44 40.61 6.51 11.01 18.84 17.19 31.12 19.23 15.06 2.42 30.71 3.59 45.65-.29 10.83-2.64 21.95-7.29 28.83-16.48 7.02-8.86 13.55-18.44 23.06-24.89 8.51-6.49 19.89-9.82 25.6-19.46 3.99-8.67.04-18.11-1.29-26.93-.99-8.36-1.94-16.81-.84-25.2-.36-18.43 1.2-37.14 7.56-54.57 6.69-18.48 7.39-39.02 1.74-57.84-8.8-24.48-27.46-43.45-44.13-62.76-8.79-9.85-15.9-21.67-27.41-28.68-13.17-8.09-29.46-8.92-44.38-6.52z"/></svg>