<svg viewBox="0 0 48 48" xmlns="http://www.w3.org/2000/svg"><path transform="scale(0.10666)" fill="#fff" d="M221.41 0h11.71c16.28 2.7 31.35 9.76 46.95 14.85 13.87 5.22 29.08 9.4 39.63 20.45 9.21 8.72 13.4 21.08 21.04 30.98 6.48 9.15 14.96 17.02 19.37 27.51 6.53 14.07 4.71 30.13 9.3 44.74 2.52 8.28 6.1 16.66 5.14 25.51-.97 10.17-7.58 18.53-10.19 28.23-4.33 14.11-2 29.07 1.07 43.18 1.98 8.5 4.67 17.25 2.93 26.05-3.13 12.57-14.02 21.55-16.74 34.31-4.78 18.23 12.29 35.3 4.49 53.35-7.33 15.56-27.34 15.88-38.42 27.53-9.16 9.33-12.75 22.19-18.22 33.7-3.87 7.44-10.15 13.42-17.06 18.03-16.53 10.52-34.99 18.04-54.28 21.58h-16.62c-7.94-1.01-15.81-2.94-23.1-6.29-12.18-6.07-21.42-16.7-33.85-22.38-9.58-5.2-21.28-6.7-29.3-14.54-6.44-6.06-7.61-15.4-7.96-23.78-1.1-18.72-8.99-36.03-16.16-53.07-5.53-11.44-11.52-23.07-12.73-35.93-1.1-6.95-.13-14.37-3.28-20.87-3.16-7.21-10.45-11.22-14.74-17.61-7.27-10.1-7.79-23.25-6.65-35.2 1.35-12.09 1.06-24.26-.01-36.36-.56-8.78 1.06-17.92 5.98-25.35 8.85-13.51 22.17-23.15 32.35-35.55 11.12-13.09 18.97-29 22.19-45.9 2.84-15.19 6.56-31.12 16.86-43.15 7.01-7.97 17.7-10.59 27.48-13.47C186.82 15.27 202.56 3.43 221.41 0m-18.08 62.07c-8.75 1.36-16.41 6.51-22.24 13-10 11.83-15.25 26.6-21.17 40.69-3.53 8.82-7.72 17.38-10.56 26.47-3.01 8.9-3.39 18.39-5.26 27.55-3.71 14.44-14.84 26.77-14.14 42.31 1.28 15.74 9.54 30.07 10.06 45.96 2.01 11.76-2.02 23.39-7.22 33.78-6.39 12.97-2.42 28.1 4.43 40.01 6.13 11.67 16.44 20.18 24.91 30.02 6.29 6.37 12.13 13.33 19.63 18.36 10.62 7.5 24.33 9.5 37.01 7.68 11.73-1.27 23.82-2.98 34.31-8.74 11.14-6.61 18.97-17.19 27.08-27.01 7.96-11.02 18.3-20.55 23.73-33.23 3.66-8.53 4.09-17.98 7.27-26.66 4.62-13.42 17.03-22.49 21.18-36.14 3.58-11.05 1.35-22.8-.56-33.94-2.37-10.43-4.76-21.15-10.63-30.27-5.84-8.8-13.87-16.19-17.97-26.08-3.98-8.51-4.15-18.65-.59-27.33 2.87-8.66 10.1-15.98 9.76-25.56-.85-9.14-9.29-14.65-16.57-18.78-12.03-6.21-22.77-14.54-34.22-21.69-10.6-6.59-23.22-7.9-35.3-9.63-7.63-.59-15.32-2.38-22.94-.77z"/></svg>