<svg viewBox="0 0 48 48" xmlns="http://www.w3.org/2000/svg"><path transform="scale(0.10666)" fill="#fff" d="M203.34 0h14.12c21.4 5.77 45 3.76 64.71 15.07 15.02 8.67 28.36 19.95 40.79 31.96 10.51 10.22 18.89 22.82 22.86 37.03 4.61 16.48 6.06 33.81 12.49 49.78 4.96 12.71 10.8 25.13 14.27 38.37 5.34 18.71 10.7 38.32 7.29 57.89-2.64 16.5-14.79 29.44-18.06 45.74-2.92 14.99 1.97 30.4-1.87 45.32-3.71 17.54-18.49 29.75-24.09 46.5-4.17 10.63-2.61 23.05-9.51 32.69-7.94 11.12-17.13 21.56-28.01 29.92-9 6.79-20.19 9.51-31.13 11.18-15.42 2.27-30.82 4.85-45.95 8.55h-19.62c-8.08-1.68-16.14-4.58-22.13-10.48-10.65-10.47-18.34-23.56-29.14-33.9-5.63-5.35-12.23-9.68-17.29-15.64-9.62-11.1-14.6-25.2-22.86-37.2-6.38-9.96-15.35-18.35-19.57-29.59-5.98-17.43-3-36.3-6.58-54.18-1.6-10.15-6.61-19.58-6.88-29.96-.52-18.66 1.67-37.47-1.67-55.98-1.78-9.64-2.06-20.63 5.39-28.11 14.82-15.68 22.1-36.44 28.3-56.67 4.84-16.29 12.02-32.61 25.22-43.88C155.98 34.84 174.09 8.48 203.34 0m25.08 61.58c-7.8.42-15.81 2.01-22.43 6.37-10.84 6.92-18.54 17.59-28.79 25.25-11.28 8.75-27.33 10.89-35.79 23.21-9.97 14.29-9.11 32.43-12.3 48.84-2.18 12.18-10.25 22-14.67 33.32-3.2 8.89-3.67 18.76-1.21 27.9 2.7 10.72 7.08 21.24 6.66 32.51.08 17.22-6.97 36.12 3.25 51.85 7.51 12.2 21.27 18.03 31.27 27.73 9.76 10.94 17.23 24.02 29.05 33.03 9.56 7.58 20.04 15.69 32.59 16.94 11.51.1 21.9-5.52 32.77-8.49 7.61-2.62 15.75-4.16 22.58-8.63 6.85-4.38 11.29-11.38 16.93-17.07 6.82-7.22 14.96-13.01 21.73-20.28 7.43-7.32 14.02-17.22 13.14-28.08-1.17-8.13-6.95-14.32-11.18-21.01-6.16-9.73-6.58-22.78-.83-32.79 6.19-12.28 18.5-19.68 26.01-30.97 6.92-10.62 5.37-25.26-2.39-35.02-7.11-8.85-17.45-15.18-22.03-25.96-4.72-9.72-4.32-20.89-8.18-30.86-4.58-11.94-16.99-17.81-23.86-28.14-6.71-8.62-6.28-20.51-12.8-29.16-9.79-10.87-26.04-10.51-39.52-10.49z"/></svg>