<svg viewBox="0 0 48 48" xmlns="http://www.w3.org/2000/svg"><path transform="scale(0.10666)" fill="#fff" d="M211.41 0h17.12c13.01 1.81 26.21 4.92 37.34 12.18 10.21 6.19 18.07 15.43 28.15 21.78 7.34 4.79 15.67 7.97 22.49 13.54 8.05 6.73 12.3 16.57 17.69 25.32 9.12 14.74 19.53 28.64 28.66 43.38 6.48 9.9 15.11 18.99 17.79 30.84 2.41 9.27-1.56 18.46-4.26 27.19-3.37 10.42-1.96 21.56.03 32.1 2.62 13.19 2.35 26.71 4.06 40 1.18 10.4 5.64 20.63 3.8 31.2-2.45 8.27-11.82 9.98-18.8 12.72-10.31 3.62-17.29 13.42-19.38 23.89-3.18 12.87.75 25.88 3.01 38.54 1.35 7.4-1.02 15.01-5.52 20.92-11.93 16.75-22.74 35.01-39.49 47.52-14.06 10.55-29.19 20.74-46.66 24.45-8.56 2.25-17.48 2.44-26.08 4.43h-20.19c-6.23-1.19-12.62-2.61-18-6.12-9.03-5.45-15.31-14.5-24.72-19.4-12.13-6.61-27.21-1.49-39.14-8.75-12.24-7.05-17.48-21.13-20.97-34.05-2.79-10.36-7.38-20.05-12.49-29.43-9.71-20.48-9.66-44.13-19.62-64.52-3.24-6.83-8.89-12.49-10.64-20-1.6-9.81 2.73-19.16 4.26-28.69 1.69-10.6 3.97-21.28 3.29-32.06-.47-10.59-4.42-21.38-.86-31.81 3.42-10.19 12.28-17.03 18.32-25.58 9-11.35 11.75-25.91 13.31-39.94 2.31-16.83 7.36-33.25 13.68-48.98 10.18-21.77 33.49-31.41 52.86-43.16C182.99 9.41 196.47 2.3 211.41 0m2.04 61.59c-6.88.57-13.72 3.24-18.48 8.38-8.81 8.04-13.06 19.51-19.9 29.05-10.54 16.54-29.72 26.16-37.59 44.59-5.93 15.48-9.52 31.9-10.19 48.48-1.05 14.56-3.15 29.32-.54 43.85 1.38 9.12 5.24 17.75 5.88 27 1.42 14.2-9.65 25.94-9.17 40.06-.72 12.7 6.86 24.37 16.49 31.99 10.09 8.95 22.11 15.21 33.05 22.98 12.57 8.33 22.69 20.26 36.55 26.59 15.98 6.14 33.8 4.36 50.08.33 14.06-4.1 29.14-10.02 37.4-22.88 6.04-9.37 7.92-20.59 10.48-31.24 4.41-19.48 13.63-37.5 17.99-57 2.1-9.3 4.04-18.7 7.73-27.53 3.7-9.18 8.1-18.8 6.59-28.95-4.84-26.02-24.7-46.7-27.9-73.2-1.33-8.33.4-17.1-2.73-25.12-3.37-8.6-10.17-15.18-16.81-21.34-21.56-19.72-48.63-37.01-78.93-36.04z"/></svg>