<svg viewBox="0 0 48 48" xmlns="http://www.w3.org/2000/svg"><path transform="scale(0.10666)" fill="#fff" d="M212.86 0h22.07c24.55 2.76 46.05 15.33 67.61 26.36 13.54 6.83 28.56 16.53 30.84 32.89.93 13.68-.07 27.73 4.09 41.02 3.89 16.52 17.04 28.53 22.83 44.16 4.24 13.83 4.56 28.48 8.03 42.5 2.9 15.78 8.41 31.62 6.08 47.84-2.8 13.9-16.08 22.08-20.56 35.19-7.97 20.36 3.81 40.72 4.91 61.06.08 11.53-5.31 22.41-12.58 31.1-6.21 8.11-15.34 13.39-21.44 21.59-4.51 6.21-5.58 13.97-7.88 21.1-3.65 11.58-12.11 21.53-22.92 27.04-13.03 7.15-28.07 8.67-42.18 12.63-7.77 2.31-15.8 3.5-23.64 5.52h-25.09c-12.41-1.7-24.92-5.95-33.66-15.34-15.28-16.08-32.43-30.3-46.85-47.2-10.7-12.61-15.74-28.6-22.63-43.36-9.34-19.96-19.11-39.72-28.02-59.88-4.16-9.43-7.48-19.72-6.39-30.15 1.62-11.89 9.95-21.49 12.08-33.25 3.19-14.59-1.55-29.25-1.15-43.88.35-9.84 8.55-16.22 14.91-22.61 11.13-10.82 18.7-25.59 19.19-41.26.31-12.83.56-26.19 6.73-37.81 6.62-11.83 12.71-23.95 19.36-35.76 6.83-12.16 17.83-21.66 30.55-27.26C181.7 5.92 197.47 3.36 212.86 0m-.44 62.7c-24.77 4.74-44.08 25.9-50.14 49.85-2.96 11.19-4.05 22.97-9.12 33.53-7.12 16.16-24.3 24.13-32.99 39.16-5.73 9.82-8.08 21.45-7.54 32.75.4 15.05 7.44 28.97 7.95 43.98-.22 15.18-2.55 31.6 6.23 45.13 6.44 11.26 18.02 18.5 23.88 30.19 6.41 13 11.33 27.55 22.89 37.08 15.62 12.91 37.61 16.54 57.14 12.49 10.84-2.61 21.93-5.05 31.84-10.36 10.05-5.85 15.1-16.8 22.88-25 7.51-8.88 18.49-14.28 25.15-23.92 6.05-9.36 1.39-20.58-.1-30.57-3.01-22.1-4.37-45.7 4.78-66.63 3.87-9.21 10.9-16.82 13.81-26.46 4.33-17.35-1.87-35.21-8.93-50.98-7.56-14.37-15.71-29.11-28.68-39.35-8.71-6.85-18.08-13.34-24.25-22.76-5.34-8.12-9.06-18.06-17.83-23.22-11.01-6.54-24.63-7.28-36.97-4.91z"/></svg>