<svg viewBox="0 0 48 48" xmlns="http://www.w3.org/2000/svg"><path transform="scale(0.10666)" fill="#fff" d="M212.37 0h18.45c10.96 2.06 22.1 4.55 31.76 10.41 10.92 6.04 19.22 15.79 30.14 21.81 7.56 4.33 16.23 6.57 23.27 11.82 6.85 5.16 10.66 13.1 14.4 20.58 6.68 14.06 16.07 26.55 24.2 39.75 5.13 8.34 10.6 16.55 17.4 23.63 6.58 7.14 12.43 15.94 12.47 26 .43 9.23-3.56 17.75-6.07 26.4-3.39 11.58-1.65 23.74-.84 35.54.2 15.08.38 30.28 3.63 45.09 1.52 6.88 2.61 15.05-2.23 20.91-6.16 6.59-15.75 8.49-21.92 15.09-10.42 10.3-11.86 26.27-9.79 40.05 1.44 10.69 5.42 22.74-1.8 32.31-12.96 17.78-24.75 36.98-42.11 50.9-13.96 10.44-28.67 20.94-45.96 24.85-8.74 2.42-17.93 2.47-26.65 4.86h-21.79c-4.59-1.25-9.34-2.16-13.65-4.25-11.69-5.37-19.05-17.13-31.12-21.87-10.21-4.4-21.99-2.89-31.88-8.19-9.26-4.51-15.36-13.42-19.34-22.63-4.86-11.93-6.61-24.93-12.44-36.51-10.31-20.39-13.32-43.38-21.38-64.57-3.45-9.9-12.35-17.27-13.91-27.89-1.16-16.29 2.53-32.36 3.59-48.55 1.91-14.19-4.81-29 1.15-42.7 5.76-11.36 17.32-18.07 24.64-28.25 8.33-11.51 9.6-26.05 11.42-39.68 2.18-15.03 7.97-29.25 13.84-43.16 6.77-14.93 19.36-26.49 33.52-34.36 18.88-10.65 37.37-23.15 59-27.39m-3.12 62.09c-6.88 1.25-12.79 5.64-17.11 10.98-7.42 9.5-12.46 20.61-20.02 29.99-10.42 14.27-26.75 24.37-32.57 41.75-7.19 23.8-12.31 48.38-13.62 73.23.17 14.99 7.69 28.26 11.31 42.45 3.24 14.31-9.43 25.04-11.28 38.47-2.14 12.21 3.95 24.26 12.31 32.8 11.65 12.59 27.99 19.11 41.03 29.97 11.99 9.15 22.23 22.08 37.73 25.28 22.76 4.24 46.97-1.39 66.58-13.41 14.22-8.97 19.25-25.93 22.75-41.39 4.25-19.16 12.98-36.9 18-55.82 2.63-9.15 4.26-18.57 7.49-27.54 3.51-10.55 8.31-21.44 6.24-32.81-3.54-21.93-19.82-38.69-26.42-59.49-4.37-11.06-3.14-22.97-3.13-34.55-1.04-13.26-13.11-21.31-22.62-28.86-16.1-11.53-32.09-24.7-51.79-29.34-8.16-1.57-16.59-3.29-24.88-1.71z"/></svg>