<svg viewBox="0 0 48 48" xmlns="http://www.w3.org/2000/svg"><path transform="scale(0.10666)" fill="#fff" d="M207.83 0h26.74c22.45 3.28 41.38 16.16 61.03 26.46 11.11 6.05 23.96 10.67 31.59 21.35 7.67 11.46 3.15 26.65 10.61 38.27 10.27 16.36 26.76 29.39 31.27 48.96 3.44 17.44-12.55 31.56-10.32 48.95 2.03 17.07 11.88 31.82 15.91 48.36 3.26 13.35 6.05 27.59 2.56 41.17-2.86 10.81-12.91 17.16-17.99 26.68-4.02 8.71-3.47 18.48-2.73 27.78.9 11.8-.59 24.7-8.6 34-7.69 8.98-20.02 13.24-25.92 23.85-5.62 9.69.89 21.74-4.85 31.37-5.85 9.45-16.79 13.93-26.95 17.13-22.65 6.67-46.21 9.61-68.99 15.67h-15.76c-13.86-3.15-24.65-12.59-36.06-20.39-12.39-8.19-28.17-9.64-39.71-19.3-9.1-7.76-15.35-18.16-22.08-27.9C101.44 372.68 94 363.4 91 352.08c-3.43-13.7-2.74-28.04-6.13-41.75-2.22-10.51-6.78-20.34-9.16-30.79-2.52-12.68 6.87-23.09 10.42-34.53 5.62-16.49 10.69-35.43 3.11-52.12-4.69-9.73-12.93-17.4-16.59-27.7-5.04-14.38-4.56-31.1 2.96-44.54 5.99-10.97 16.43-18.5 23.12-28.97 9.31-15.1 14.27-33.05 27.13-45.82 8.92-9.82 21.4-14.94 32.73-21.31 10.67-5.77 19.58-14.41 30.76-19.29 5.9-2.6 12.38-3.28 18.48-5.26m4.6 61.56c-14.36 1.16-27.72 8.11-38.71 17.13-10.94 9.8-14.92 24.43-20.66 37.42-6.1 14.14-16.52 26.05-21.51 40.71-3.93 10.99-3.71 22.81-5.52 34.21-2.02 15.39-6.45 30.38-7.64 45.88-1.53 12.21.44 25.54 8.31 35.37 5.62 6.7 12.7 12.07 17.96 19.09 9.5 12.44 14.99 27.43 18.28 42.61 2.4 10.75 5 22.08 12.47 30.58 17.9 21.48 49.26 29.52 75.51 20.39 11.78-4.97 15.87-18.14 24.4-26.66 9.09-10.21 21.31-16.65 31.94-25 6.87-5.32 9.27-14.12 10.1-22.39 1.42-13.59 5.49-26.66 8.71-39.88 2.48-13.24 9.16-25.43 10.06-38.98.07-17.95-10.73-33.41-13.38-50.83-1.93-11.4.36-22.85 1.31-34.21-.17-14.35-12.39-23.49-19.34-34.73-9-13.44-14.43-30.24-28.51-39.5-12.4-8.43-27.92-8.59-42.29-10.08-7.16-.4-14.31-1.6-21.49-1.13z"/></svg>