<svg viewBox="0 0 48 48" xmlns="http://www.w3.org/2000/svg"><path transform="scale(0.10666)" fill="#fff" d="M211.9 0h17.72c11.44 1.93 23.05 4.41 33.16 10.38 10.22 5.7 18.23 14.4 27.69 21.15 8.37 5.98 18.47 9.06 26.48 15.57 5.58 4.6 9.05 11.09 12.55 17.28 8.83 16.73 20.53 31.68 30.41 47.77 7.37 12.2 19.34 22.21 22.06 36.78 2.35 11.56-4.29 22.05-6.23 33.11-1.87 8.58.04 17.32 1.09 25.88 1.71 10.91 1.69 21.99 2.69 32.97.54 9.86 3.41 19.38 4.68 29.13.72 5.37-1.22 11.19-5.78 14.35-6.83 4.53-15.49 5.76-21.65 11.41-9.13 8.3-12.11 21.29-11.21 33.21-.16 13.62 8.84 28.29.21 40.93-13.52 19.6-26.46 40.62-46.43 54.39-13.42 9.53-27.82 18.72-44.28 21.69-7.64 1.79-15.55 2.05-23.15 4h-21.26c-6.77-1.41-13.78-3.05-19.47-7.2-9.15-6.09-15.88-15.68-26.43-19.61-9.54-3.75-20.19-1.83-29.78-5.31-9.7-3.34-16.96-11.57-21.08-20.74-5.48-12.6-7.53-26.49-14.3-38.57-11.77-20.64-12.49-45.13-21.3-66.86-3.13-8.3-9.76-14.75-12.5-23.21-1.35-5.56-.62-11.38.53-16.91 2.59-12.73 4.6-25.58 5.73-38.52.42-12.36-4.05-24.81-.99-37.06 4.28-13.11 17.11-20.53 23.74-32.22 10.45-16.51 7.99-36.97 13.8-55.01 4.54-13.71 7.75-28.54 17.32-39.82 12.69-15.51 31.72-23.28 48.31-33.69C185.74 7.92 198.37 2.28 211.9 0m1.53 61.58c-16.54.64-25.65 16.24-32.85 29.03-7.69 14.39-20.17 25.08-31.5 36.47-13.55 14.14-16.83 34.41-20.13 52.93-1.72 19.52-5.91 39.53-.94 58.92 2.15 8.68 5.75 17.06 6.36 26.08-.34 11.8-8.38 21.48-9.99 32.99-2.15 10.9 2.05 22.24 9.23 30.44 11.15 12.7 26.59 20.19 40.22 29.76 9.61 6.58 17.85 14.92 27.34 21.65 9.94 7.31 22.74 9.05 34.77 8.63 18.68-1.19 37.9-6.03 52.96-17.6 11.95-9.72 15.09-25.62 18.41-39.82 3.7-16.82 10.98-32.5 15.92-48.94 3.62-12.77 5.4-26.09 10.76-38.32 3.97-9.26 6.92-19.41 4.88-29.52-5.5-24.19-23.72-43.53-27.66-68.23-2.13-9.83 1.01-20.35-3.38-29.76-5.02-10.18-14.27-17.27-22.68-24.53-20.33-16.46-44.6-31.31-71.72-30.18z"/></svg>