<svg viewBox="0 0 48 48" xmlns="http://www.w3.org/2000/svg"><path transform="scale(0.10666)" fill="#fff" d="M215.92 0h17.28c17.47 3.03 32.8 12.09 47.72 21.16 11.76 7.61 27.19 6.69 38.16 15.72 6.96 5.57 10.03 14.22 12.67 22.41 4.81 14.63 13.77 27.29 21.33 40.56 4.86 8.25 9.34 17.01 16.49 23.57 5.16 5.21 10.7 10.44 13.59 17.34 4.5 10.14 3.86 21.75.74 32.18-2.89 10.07-7.89 19.56-9.03 30.09-1.74 18.79-1.66 37.84 1.39 56.49.9 7 1.26 14.75-2.93 20.85-5.69 8.19-14.12 14.36-18.3 23.63-6.46 13.76-4.45 29.4-5.33 44.11-.5 8.66-6.36 15.51-11.64 21.88-10.05 11.91-17.88 25.46-27.2 37.93-11.24 13.49-26.22 23.55-42.15 30.71-14.13 6.41-29.81 7.55-44.65 11.37h-20.19c-16.01-2.35-26.99-14.61-39.83-23.05-11.01-6.8-24.76-8.49-34.58-17.35-10.53-9.22-15.16-23.13-16.9-36.63-2.54-20.57-13.1-38.75-20.92-57.59-4.82-11.15-7.22-23.27-13.03-34.01-2.95-5.55-6.97-10.44-10.06-15.91-6.38-11.29-7.51-24.71-6.94-37.42 1.55-13.31 1.29-26.76-.03-40.08-.53-8.5 1.47-17.57 7.41-23.97 8.98-9.72 21.67-15.72 28.83-27.17 7.63-11.9 8.41-26.4 12.59-39.58 2.58-8.54 7.49-16.1 10.61-24.43 4.31-11.13 8.08-22.74 15.4-32.34 5.8-8.23 14.91-13.18 23.85-17.28C178.65 15.05 196.16 4.54 215.92 0M204.4 62.69c-9.74 2.84-15.83 11.51-21.17 19.52-9.47 14.45-19.27 28.68-29.27 42.76-7.95 10.64-8.22 24.18-9.61 36.8-2.2 18.2-16.36 32.68-16.72 51.25.76 19.91 17.19 35.71 16.26 55.97.82 11.63-8.6 20.17-10.97 30.97-1.96 11.27 3.1 22.45 10.03 31.08 6.95 9.4 17.33 15.31 25.71 23.27 9.38 7.6 16.68 17.53 26.68 24.41 11.26 8.8 26.36 11.2 40.24 9.14 20.53-2.12 41.34-11.72 53.08-29.25 12.29-17.5 16.29-38.97 24.57-58.37 7.41-21.71 19.94-41.94 22.25-65.15 1.52-12.34-.71-25.14-6.25-36.3-5.67-10.39-14.07-19.07-19.06-29.86-5.27-10.32-8.66-22.53-5.1-33.96 1.99-8.14 7.31-16.77 3.13-25.12-5.56-10.07-17.32-13.71-26.48-19.64-14.37-8.31-26.51-20.9-43.03-25.1-11.13-2.6-22.95-5.27-34.29-2.42z"/></svg>