<svg viewBox="0 0 48 48" xmlns="http://www.w3.org/2000/svg"><path transform="scale(0.10666)" fill="#fff" d="M205.85 0h22.21c10.76 2.02 21.63 3.93 31.79 8.21 16.37 6.52 30.03 17.96 44.93 27.1 6.98 4.43 14.02 9.27 18.8 16.15 5.86 7.97 8.67 17.65 14.07 25.9C349.62 95.3 367.09 110.81 371 133c3.78 16.2-10.69 29.11-9.6 45.04.32 10.97 5.34 21.07 9.16 31.16 7.06 17.08 10.43 35.38 13.54 53.51 1.27 7.48 1.3 16.91-5.63 21.73-9.11 5.44-21.43 7.15-26.89 17.35-9.86 17.81 2.77 38.44-3.76 56.96-3.49 10.04-12.28 16.89-16.86 26.35-5.94 10.21-6.71 22.96-14.82 31.96-11.05 12.7-27.53 18.42-43.18 23.1-16.28 4.68-33.22 6.25-49.7 9.84h-15.97c-14.24-2.15-23.99-13.23-34.21-22.19-13.29-11.34-33.06-3.52-46.57-14.3-11.33-9.01-13.72-24.08-19.11-36.68-3.58-9.29-9.56-17.34-14.12-26.13-7-14.95-7.18-31.84-11.4-47.6-1.94-8.9-5.77-17.24-7.8-26.1-1.7-6.56.58-13.37 4.05-18.93 8.91-16.54 15.31-35.7 12.16-54.65-2.67-14.47-13.57-26.29-14.03-41.34-.42-18.07 3.04-36.74 12.5-52.36 4.85-8.51 10.81-16.47 14.05-25.8 4.68-13.05 8.59-27.28 19.1-37.02 11.59-12.32 28.52-16.69 42.53-25.38 10.01-5.88 18.46-14.61 29.72-18.21 3.81-1.4 7.83-2.06 11.69-3.31m1.43 62.09c-9.58 1.93-18.34 7.13-25.3 13.9-9.78 9.76-14.43 23.22-23.28 33.69-8.46 11.18-19.32 20.68-25.68 33.34-7.74 14.41-7.08 31.2-7.28 47.04-.28 26.15-10.48 52.83-1.33 78.54 7.02 17.97 15.23 35.52 24.72 52.34 6.44 12.1 11.29 25.2 20.01 35.95 11.06 11.97 23.83 23.27 39.4 28.81 14.05 3.81 29.21 3.85 43.29.15 13.93-3.85 21.88-16.79 32.1-25.93 11.48-12.83 24.07-25.9 28.9-42.91 4.61-16.43 9.92-32.65 13.99-49.22 2.31-9.46 6.8-18.16 11.02-26.86 4.1-8.98 3.29-19.32-.11-28.38-5.42-15.28-14.73-29.81-14.51-46.55-.57-11.08 4.95-21.98 1.8-32.95-2.92-9.12-10.87-15.09-16.81-22.17-9.03-10.39-15.42-23.08-26.14-31.97-10.65-9.54-25.05-13.56-39.05-14.51-11.88-1.02-23.81-4.14-35.74-2.31z"/></svg>