<svg viewBox="0 0 48 48" xmlns="http://www.w3.org/2000/svg"><path transform="scale(0.10666)" fill="#fff" d="M219.63 0h22.57c19.48 2.86 34.43 16.73 52.49 23.38 11.98 5.19 25.53 8.38 34.97 17.97 5.23 4.88 7.82 12.59 6.06 19.59-1.43 8.21-6.1 15.6-6.48 24.03-.94 10.72 4.64 20.66 10.82 28.98 7.67 10.56 18.87 19.06 22.63 32.05 4 12.79-.92 25.96-.04 38.97.33 15.85 6.98 30.52 9.45 45.99 1.71 10.18-1.55 20.33-5.79 29.48-4.61 9.91-7.95 20.57-8.42 31.55-.12 10.51 3.63 20.54 4.72 30.91 2.07 19.42-9.08 39.7-26.86 47.93-7.97 3.9-17.45 6.54-22.49 14.47-6.51 10.15 0 23.33-6.51 33.47-5.7 8.52-15.45 12.97-24.84 16.18-18.2 6.07-36.78 10.99-55.52 15.05h-18.75c-30.53-4.04-55.77-23.6-76.7-44.95-10.89-11.42-25.58-19.71-32.73-34.29-8.01-15.69-3.83-34.45-11.71-50.17-6.48-12.99-17.38-23.32-23.01-36.8-3.45-8.26-4.66-17.96-.98-26.35 4.56-11.65 16.19-18.85 20.09-30.87 4.82-13.65 1.81-28.36-2.61-41.66-3.55-10.13-4.4-21.75.39-31.63 4.79-12.03 15.85-19.78 22.09-30.88 5.15-9.73 5.98-20.91 8.87-31.37 3.7-14.53 10.85-27.79 17.53-41.1 6.32-12.62 15.1-24.48 27.85-31.15C175.55 6.69 198.06 3.61 219.63 0m-14.17 62.76c-10.36 1.69-20.95 4.09-29.87 9.88-8.1 5.21-12.79 14.79-13.19 24.28-.5 13.31 1.74 26.88-2.01 39.91-3.67 15.95-15.96 27.39-26.71 38.82-7.27 8.64-10.73 19.68-13.17 30.51-3.62 16.96-5.61 34.76-1.53 51.83 3.23 12.8 12.12 22.95 19.56 33.5 9.55 13.12 17.73 27.98 19.21 44.42 1.29 12.34.41 26.19 9 36.25 10.44 12.61 27.99 14.41 43.25 15.52 17.72 2.12 38.05.9 51.81-11.86 8.85-9.52 15.25-21.42 26.11-28.98 9.05-7.21 21.18-9.32 29.78-17.16 5.76-5.53 5.53-14.16 4.15-21.43-2.12-10.25-3.45-20.81-1.8-31.23 1.04-24.04 3.56-47.97 5.32-71.96.53-18.85 2.87-38.97-5.83-56.48-7.05-13.46-17.64-24.6-25.58-37.5-8.29-12.72-14.85-27.46-27.73-36.35-17.2-12.88-40.08-15.13-60.77-11.97z"/></svg>