<svg viewBox="0 0 48 48" xmlns="http://www.w3.org/2000/svg"><path transform="scale(0.10666)" fill="#fff" d="M213.4 0h21.14c12.07 1.16 23.7 5.19 34.02 11.53 14.34 8.54 29.7 15.1 44.71 22.33 8.66 4.26 17.71 11 19.31 21.17 1.5 11.47-3.14 23.91 2.79 34.64 9.25 17.67 28.55 29.73 32.35 50.25 2.01 15.25-10.01 27.95-9.26 43.09.53 17.96 11.15 33.36 15.09 50.54 3.46 15.17 3.91 31.81-2.81 46.19-3.25 7.75-8.58 14.68-10.13 23.08-2.06 9.63-.14 19.47-.65 29.2.04 12.89-5.19 26.41-15.92 34.07-8.68 7.07-21.25 9.73-26.94 20.1-5.22 9.78 3.59 20.75-1.36 30.57-5.41 10.44-17.48 14.59-28.07 17.67-22.45 5.68-45.15 10.3-67.7 15.57h-11.89c-12.56-1.59-23.48-8.41-33.85-15.19-10.74-6.99-22.62-11.94-33.59-18.54-10.67-6.72-18.74-16.56-27.61-25.34-6.87-8.16-15.66-14.96-20.18-24.87-5.95-12.34-3.95-26.38-4.95-39.58-.69-12.05-5.08-23.45-10.3-34.19-2.91-6.84-6.35-14.21-4.88-21.82 2.51-9.16 9.05-16.48 12.24-25.37 5.5-14.01 9.46-29.54 6.31-44.57-2.66-13.11-13.99-21.81-18.77-33.97-4.86-12.41-5.35-26.77 0-39.11 4.53-10.69 13.45-18.47 21.34-26.65 14.86-16.83 19.9-40.08 35.48-56.45 9.23-10.71 22.43-16.41 34.15-23.82 9.5-5.95 18.58-13.04 29.46-16.34 6.64-2.21 13.65-2.8 20.47-4.19m-4.18 62.04c-14.07 2.32-28.06 7.85-39.02 17.12-12.36 11.94-12.19 30.22-17.52 45.48-4.59 15.44-16.02 27.61-21.07 42.84-3.3 9.44-4.66 19.38-6.78 29.12-3.5 16.62-8.31 33.27-7.46 50.42-.48 13.23 7.36 25.21 17.66 32.88 15.04 12.28 23.72 30.47 27.93 49.1 3.34 12.59 3.12 26.83 11.57 37.48 16.62 18.87 44.25 25.23 68.34 20.55 9.19-1.56 17.01-7.5 21.74-15.42 8.01-13.03 19.17-24.19 32.94-31.04 7.08-4.23 15.81-7.44 19.7-15.27 4.32-10.49 1.8-22.15 4.27-33.01 3.25-18.59 9-36.7 11.55-55.4 1.83-21.09-11.57-39.88-11-60.89-.55-9.88 1.47-19.9-.62-29.66-2.54-12.01-12.33-20.3-18.07-30.69-8.49-14.02-12.87-31.34-26.44-41.65-11-8.43-25.34-9.75-38.65-11.2-9.67-.48-19.4-2.28-29.07-.76z"/></svg>