<svg viewBox="0 0 48 48" xmlns="http://www.w3.org/2000/svg"><path transform="scale(0.10666)" fill="#fff" d="M204.46 0h16.86c20.3 4.53 42.21 4.4 60.76 14.88 11.25 6.35 21.87 13.87 31.36 22.66 13.52 12.59 22.83 29.28 27.9 46.95 3.33 11.3 5.12 23.02 9.12 34.13 2.69 8.25 6.63 16.02 9.74 24.11 6.53 15.31 9.56 31.76 14.02 47.73 3.89 17.35 8.56 36.91-.25 53.55-7.73 12.27-18.21 23.97-18.78 39.26-.16 15.88 4.92 31.83 1.54 47.68-3.17 14.07-12.89 25.25-18.54 38.25-4.99 10.86-5.68 23.43-12.73 33.39-7.98 11.65-17.44 22.85-29.68 30.18-13.2 7.94-29.06 7.67-43.67 11.03-9.15 2.29-18.42 4.07-27.6 6.2h-21.16c-7.78-1.68-16.14-3.48-22-9.28-12-11.47-20.1-26.38-32.42-37.58-9.02-8.3-19.93-14.82-26.68-25.33-7.22-11.29-12.85-23.54-20.42-34.62-6.92-10.1-12.99-21.12-14.86-33.39-2.61-15.58-4.63-31.33-9.03-46.55-3.16-10.12-3.34-20.89-1.9-31.32 2.26-15.2 2.19-30.78-.62-45.9-1.2-8.33-4.27-17.93 1.22-25.41 5.71-7.21 13.6-12.57 18.31-20.61 8.89-13.82 11.18-30.36 15.09-45.99 2.7-11.45 9.28-21.42 16.27-30.69 9.55-12.36 18.88-24.98 29.87-36.13C169.89 14.65 186.47 4.87 204.46 0m13.96 62.76c-16.93 3.47-27.27 18.41-39.76 28.88-8.28 8.13-18.12 14.47-26.48 22.5-9.72 10.08-10.44 24.77-16.03 36.99-5.1 12.75-14.62 22.94-21.29 34.8-5.43 9.59-7.96 20.87-6.71 31.85 1.98 15.8 12.27 29.92 10.58 46.29-1.72 15.21-5.73 31.71 2.39 45.86 6.66 13.66 21.79 18.83 32.37 28.59 7.24 7.84 12.96 16.95 20.15 24.84 9.32 9.76 20.4 18.14 32.9 23.35 12.54 4.91 25.24-1.63 37.28-4.88 10.22-3.57 21.93-4.2 30.49-11.47 7.06-6.41 11.38-15.2 18.13-21.91 8.49-9.15 19.93-16.98 22.85-29.87 2.77-17.16-11.17-31.48-10.25-48.57-1.11-12.43 2.77-24.88 9.93-35 6.29-10.18 18.49-16.21 21.65-28.35 2.23-9.85-1.99-19.81-7.47-27.83-6.95-8.86-14.91-17.31-19.07-27.96-2.79-6.41-4.2-13.35-7.33-19.63-7.46-14.12-24.32-20.09-31.23-34.66-5.42-9.53-3.96-23.43-14.66-29.43-11.63-6.07-25.71-6.83-38.44-4.39z"/></svg>