<svg viewBox="0 0 48 48" xmlns="http://www.w3.org/2000/svg"><path transform="scale(0.10666)" fill="#fff" d="M211.89 0h22.32c18.6 2.4 36.17 9.22 52.52 18.22 13.94 7.54 29.52 13.65 39.81 26.26 6.88 8.57 7.5 19.96 7.84 30.48-.1 11.64 2.39 23.22 6.58 34.05 4.72 11.85 13.67 21.4 18.51 33.19 4.54 11.72 4.71 24.47 7.43 36.63 3.21 18.53 10.19 36.91 7.62 55.97-2.98 14.73-17.84 23.01-21.57 37.47-6.03 18.41 3.29 36.62 5.38 54.8 1.72 14.87-6.27 28.7-15.95 39.31-5.72 6.6-13.68 11.21-17.98 19.02-4.5 7.45-5.29 16.34-8.93 24.16-4.28 9.09-11.37 16.83-20.12 21.79-11.98 6.95-25.95 8.54-39.11 12.01-9.61 2.59-19.34 4.67-29.08 6.64h-24.29c-7.31-1.52-14.89-2.65-21.49-6.39-11.84-6.4-19.24-18.14-29.35-26.62-14.89-15.53-32.7-29.32-41.41-49.61-10.12-23.83-22.37-46.67-32.41-70.54-5.61-13.01-12.8-26.27-12.06-40.88-.1-10.87 7.11-19.75 9.98-29.85 3.98-12.48 2.18-25.7.52-38.41-.69-6.85-1.34-14.44 2.6-20.51 2.89-4.29 6.4-8.17 10.34-11.53 8.48-7.99 15.49-17.95 18.52-29.32 4.36-14.31.5-29.89 6.1-43.96 4.95-12.5 12.65-23.65 18.62-35.65 6.5-13.31 16.61-25.15 29.84-32.11C177.96 6.57 195.23 3.81 211.89 0m3.41 62.24c-21.52 3.38-39.34 19.29-48.53 38.58-8.35 15.52-7.12 34.39-16.51 49.48-6.25 10.8-17 17.65-24.99 26.98-8.31 9.88-13.31 22.76-12.94 35.73-1.09 19.49 10.24 37.39 8.14 56.97-1.8 12.48-1.31 26 5.42 37.05 4.14 7.61 10.78 13.27 16.65 19.48 12.26 12.47 14.82 31.29 27.43 43.51 11.55 12.81 29.2 18.23 46.02 18.54 13.95-.48 27.42-4.75 40.53-9.22 15.15-4.78 21.42-20.46 31.99-30.83 9.52-9.92 25.85-17.51 24.75-33.56-4.76-26.44-9.87-54.75.1-80.66 4.22-11.97 14.37-21.11 16.9-33.74 2.22-17.26-3.86-34.22-11.38-49.48-6.21-11.63-12.58-23.55-22.33-32.65-8.74-8.62-20.41-14.16-27.51-24.44-6.54-8.52-9.47-20.09-19.01-26.04-10.18-6.47-23.05-7.42-34.73-5.7z"/></svg>