<svg viewBox="0 0 48 48" xmlns="http://www.w3.org/2000/svg"><path transform="scale(0.10666)" fill="#fff" d="M218.77 0h23.73c11.36 2.01 21.73 7.07 31.43 13.13 13.92 8.4 29.59 13.05 44.22 19.94 8.6 4.38 17.29 11.64 18.09 21.96.53 10.48-6.27 19.55-6.85 29.88-.96 11.48 5 22.12 11.81 30.88 7.2 9.46 16.86 17.45 20.86 29.01 5.1 15.02-1.13 30.81 1.55 46.13 1.42 19.04 13.17 37.5 7.18 56.79-4.61 13.67-13.13 26.37-13.18 41.28-.8 10.49 2.56 20.56 4.43 30.74 3.72 20.55-7.9 42.84-26.96 51.42-7.43 3.87-16.26 6.44-21.25 13.65-4.8 7.85-3.11 17.48-4.21 26.19-1.09 7.1-6.2 12.83-12.01 16.66-10.49 6.83-22.84 9.74-34.7 13.23-11.4 3.63-23.14 6.04-34.68 9.11H205.7c-7.42-2-15.02-3.41-22.15-6.37-21.7-8.94-39.03-25.47-55.57-41.62-10.09-10.18-22.89-18.44-29.09-31.84-7.4-15.41-4.46-33.58-12.04-48.91-6.56-13.6-18.29-24.11-23.69-38.34-4.15-9.66-4.26-21.41 1.14-30.62 3.65-6.77 9.75-11.74 13.72-18.28 6.13-9.37 7.53-21.15 5.69-32.02-1.57-12.83-8.59-25.11-5.8-38.29 2.71-12.94 12.39-22.48 20.56-32.22 11.89-14.61 9.77-34.6 16.45-51.36 5.96-14.83 13-29.29 21.4-42.89 13.53-19.88 37.7-28.82 60.38-33.27 7.27-1.82 14.92-1.69 22.07-3.97M205.5 62.79c-14.12 2.41-30.57 5.98-38.39 19.36-8.62 14.99-2.17 32.79-5.33 48.93-2.24 15.14-11.26 28.21-22.23 38.48-9.55 8.43-15.7 20.2-18.29 32.59-4.93 19.86-6.8 41.23-.62 61.03 5.81 15.38 17.43 27.49 25.5 41.61 7.4 12.01 11.57 26.02 11.68 40.15.51 11.23 3.34 23.32 12.26 30.94 10.66 9.27 25.38 10.87 38.92 11.81 15.03 1.82 31.03 1.1 44.72-5.97 14.53-7.95 20.16-25.16 33.62-34.43 9.03-7.24 20.87-9.81 29.69-17.27 6.74-6.34 5.85-16.37 3.79-24.54-3.95-17.02-.46-34.33-.28-51.51 1.78-29.97 8.78-59.99 4.25-90.04-3.93-20.2-19.36-34.89-30.23-51.5-7.92-11.34-14.03-24.15-24.47-33.52-16.79-16.42-42.26-19.77-64.59-16.12z"/></svg>