<svg viewBox="0 0 48 48" xmlns="http://www.w3.org/2000/svg"><path transform="scale(0.10666)" fill="#fff" d="M217.76 0h23.61c13.03 1.73 24.25 8.7 35.31 15.28 14.74 8.86 31.89 12.62 46.65 21.39 7.31 4.31 13.18 12.4 12.19 21.21-1.24 11.3-8.51 21.74-5.72 33.46 5.42 20.84 26.91 31.98 34.06 51.87 4.47 16-5.73 31.58-2.89 47.69 1.43 17.61 12.06 33.25 11.87 51.09.13 16.47-9.11 30.99-11.51 47.02-2.74 13.03 2.18 25.92 2.11 38.94-.71 16.75-9.59 33.93-25.02 41.53-8.86 4.84-20.34 6.89-25.98 16.07-6.28 10.23 2.21 22.79-3.76 33.05-5.84 9.24-16.81 13.08-26.7 16.28A962.781 962.781 0 0 1 224.34 450h-16.55c-22.88-4.2-43.35-16.29-61.68-30.14-11.19-9.07-20.86-19.85-32.27-28.66-8.46-6.51-17.59-13.38-21.35-23.82-5.46-13.78-1.03-28.93-4.6-43.03-4.57-18.6-22.3-31.07-25.04-50.35-1.17-10.85 6.02-19.82 12.81-27.39 15.39-16.98 16.14-43.67 5.07-63.12-8.7-15.05-9.64-34.49-.81-49.68 6.08-10.27 16.52-17.16 21.96-27.88 6.7-12.76 10.55-26.83 17.47-39.49 6.93-13.7 13.96-28.08 26.15-37.95 10.53-7.96 22.16-14.56 34.37-19.59 12.08-5.08 25.21-6.25 37.89-8.9m-12.31 62.67c-12.07 2.36-24.96 4.99-34.65 13.09-8.87 7.68-10.71 20.14-10.22 31.25.85 13.78.17 28.41-6.81 40.71-6.45 12.73-18.89 21.23-24.81 34.29-4.47 10.22-6.92 21.19-9.25 32.06-2.81 14.26-5.11 29.23-1.31 43.52 2.78 9.96 10.11 17.65 17.1 24.9 16.05 16.22 25.58 38.58 26.57 61.33.53 7.97.23 16.47 4.46 23.59 6.8 11.52 20.34 16.51 32.95 18.36 16.83 2.72 35 5.22 51.08-2.05 11.38-4.88 16.75-16.74 24.73-25.39 6.47-8.5 15.68-14.44 25.34-18.75 7.88-3.67 17.92-6.47 21.49-15.29 3.96-11.14-1.57-22.84-.48-34.24 1.59-17 3.96-33.93 4.89-51 1.68-13.36-1.5-26.68-1.48-40.07-1.76-15.15.72-30.76-3.47-45.62-5.24-16.25-18.95-27.64-26.1-42.9-7.03-13.77-12.88-29.8-27.05-37.9-18.82-10.8-41.81-12.57-62.98-9.89z"/></svg>