<svg viewBox="0 0 48 48" xmlns="http://www.w3.org/2000/svg"><path transform="scale(0.10666)" fill="#fff" d="M216.72 0h16.71c16.79 3.07 31.69 11.57 46.74 19.13 12.06 6.7 27.04 6.1 38.25 14.53 7.55 5.46 11.31 14.43 13.77 23.11 5.54 18.42 17.52 33.77 26.26 50.66 4.86 9.17 11.96 16.71 18.67 24.49 11.02 13.52 10.22 32.89 3.89 48.3-4.47 10.41-9.16 21.2-8.66 32.79-1.59 17.36 1.55 34.68 2.65 51.99 1.37 15.67-14.42 24.3-19.43 37.68-7.37 16.16-.65 34.94-7.98 51.05-5.41 9.25-14.3 15.77-20.19 24.68-7.92 10.35-13.61 22.17-21.51 32.52-11.35 13.44-26.92 22.76-43.25 28.88-13.06 4.78-27.02 6.52-40.34 10.19h-18.81c-4.79-1.48-9.78-2.32-14.35-4.46-10.67-5.01-18.39-14.42-28.74-19.95-11.76-6.7-26.26-9.83-34.73-21.22-10.54-13.09-9.5-30.78-14.05-46.16-5.48-21.46-18.8-39.81-24.8-61.08-2.6-9.43-6.1-18.89-12.51-26.45-6.31-7.48-11.23-16.37-12.61-26.17-2.91-13.41.97-27.03-.17-40.52.14-11.69-3.53-24.26 2.34-35.16 8.03-14.4 25.41-20 34.02-33.99 7.88-11.5 9.46-25.72 14.61-38.41 2.92-7.77 7.75-14.65 10.32-22.57 4.84-13.65 7.66-29.09 18.48-39.57 5.89-6.21 14.12-9.12 21.82-12.36 18.04-6.92 34.66-17.44 53.6-21.93m-7.29 61.58c-12.56.28-21.47 10.38-27.68 20.21-10.06 15.39-20.28 30.74-29.06 46.9-7.39 13.05-2.95 28.58-7.55 42.34-3.98 13.35-15.82 23.59-16.63 37.99-1.24 12.19 5.38 22.99 9.87 33.81 4.79 11.73 8.43 25.17 4.06 37.59-2.96 8.51-8.89 16.22-8.66 25.62 1.14 15.01 10.51 28.01 21.6 37.58 11.03 9.61 20.49 20.84 31.15 30.79 10.61 9.71 25.02 14.99 39.41 14.08 15.35-.69 31.14-4.54 43.48-14.08 11.1-8.08 18.92-19.73 25.37-31.65 11.19-23.17 16.62-48.86 30-71.03 14.79-25.34 15.58-60.54-3.93-83.66-10.12-12.45-20.2-27.34-18.6-44.18.55-11.4 10.95-20.69 8.45-32.4-3.6-11.11-15.93-14.82-25.17-19.99-11.07-5.5-20.41-13.75-30.97-20.07-13.71-7.42-29.73-9.85-45.14-9.85z"/></svg>