<svg viewBox="0 0 48 48" xmlns="http://www.w3.org/2000/svg"><path transform="scale(0.10666)" fill="#fff" d="M213.36 0h23.6c24.41 3.1 45.17 16.9 67.09 26.91 11.17 5.73 23.58 12.46 28.28 24.88 4.17 10.74.4 22.13 1.19 33.2.7 15.82 8.05 30.47 17.52 42.86 7.37 9.16 11.48 20.45 12.64 32.09 1.74 16.61 5.03 32.99 8.63 49.29 1.76 9.51 3.83 19.55.83 29.04-3.12 10.41-12.07 17.5-16.74 27.1-4.75 8.88-5.5 19.3-4.24 29.13 1.5 12.35 6.93 23.97 7.26 36.5-.02 13.88-7.62 26.64-17.49 35.94-6.05 5.99-14.09 9.9-19.05 16.97-6.9 9.71-5.61 22.74-12.45 32.5-8.42 13.54-24.14 19.7-38.97 23.25-14.29 3.37-28.44 7.32-42.81 10.34h-25.5c-6.69-1.52-13.61-2.39-19.87-5.35-12.03-5.1-20.09-15.84-29.76-24.13-12.13-12.21-25.35-23.51-35.76-37.29-9.99-13.99-14.49-30.86-21.61-46.31-7.37-15.83-15.43-31.32-23.55-46.77-5.04-10.63-9.92-22.18-8.58-34.2 1.22-13.24 11.81-23.05 14.04-35.99 3.01-13.58-1.24-27.26-1.38-40.89.11-7.64 4.22-14.59 9.74-19.64 9.72-9.16 18.66-19.89 22.41-32.95 3.94-13.08.87-27.04 4.42-40.18 3.12-12.07 10.43-22.37 15.66-33.53 6.44-12.71 13.5-26.09 25.88-33.98C171.98 6.67 193.51 4.82 213.36 0m7.07 61.56c-19.83 1.16-40.24 11-49.89 29-11.02 17.87-7.4 40.46-17.66 58.62-7.14 14.27-22.57 21.55-30.69 35.07-7.43 11.92-9.45 26.52-8.01 40.31 1.12 12.99 6.08 25.34 6.65 38.41.34 14.36-.39 29.8 7.59 42.48 6.48 11.2 17.66 19.11 22.48 31.37 5.35 13.46 10.03 28.2 21.51 37.85 8.77 7.73 20.25 11.53 31.7 12.89 17.75 2.93 35.85-1.5 52.31-8.01 16.2-6.5 21.97-24.8 35.47-34.67 7.43-6.81 17.83-11.32 21.69-21.25 3.21-7.69-.23-15.81-1.37-23.55-2.61-12.18-2.09-24.7-2.19-37.08.02-10.94 1.78-21.93 5.86-32.11 4.18-11.41 12.87-21.14 13.75-33.68 1.57-17.02-3.46-34.18-11.58-49.05-6.98-12.82-15.04-25.4-26.24-34.96-8.46-7.17-17.38-14.08-23.82-23.23-4.63-6.31-8.06-13.65-14.06-18.86-9.14-7.85-21.78-10.09-33.5-9.55z"/></svg>