<svg viewBox="0 0 48 48" xmlns="http://www.w3.org/2000/svg"><path transform="scale(0.10666)" fill="#fff" d="M219.9 0h13.16c32.11 8.27 65.48 20.31 87.67 46.2 9.64 10.1 20.71 18.67 31.22 27.83 8.35 7.33 14.35 17.7 14.96 28.94 1.19 6.99-.57 13.98-.57 20.99-1.76 11.48 2.12 22.7 3.02 34.06-.41 13.38-8.37 24.91-10.45 37.95-3.13 13.71-.24 27.89 3.76 41.1 2.48 8.05 4.83 16.92 1.67 25.13-4.44 11.77-14.28 21.67-14.66 34.82-.02 14.87 12.38 25.69 14.37 40.04 1.46 8.85-2.77 17.87-9.45 23.59-12.4 10.76-30.06 13.36-41.57 25.37-10.8 9.92-14.48 24.95-24.39 35.57-13.47 13.7-30.3 25.1-49.53 28.41h-17.77c-9.56-1.83-19.4-2.99-28.37-7.04-11.26-4.65-19.84-13.65-30.24-19.76-8.74-5.43-18.92-7.64-28.72-10.3-7.14-1.97-14.71-5.76-17.57-13.06-3.29-9.24-1.86-19.27-3.85-28.76-5.23-22.64-17.58-42.82-24.67-64.83-3.57-10.77-1.98-22.21-3.07-33.27-1.62-12.27-12.84-20.17-15.52-32.05-4.37-17.06-.29-34.67.7-51.9.78-25.3 15.26-47.11 27.98-68.02 7.47-11.76 11.71-25.13 15.59-38.4 5.14-17.73 16.02-33.18 28.34-46.66 9.05-9.78 21.82-14.32 34-18.79C190.6 11.46 204.42 3.46 219.9 0m-9.46 61.56c-20.12.73-36.14 16.62-43.74 34.26-5.57 13.44-11.15 26.91-16.11 40.6-4.79 12.85-5.03 26.77-9.04 39.82-3.44 10.99-8.96 21.34-10.76 32.81-4.13 22.73 11.49 43.72 8.42 66.43-1.97 11.63-11.72 20.43-12.14 32.46-.96 18.43 11.16 34.09 24.48 45.47 12.87 10.49 23.15 24.64 38.75 31.39 15.05 6.27 31.83 3.42 47.16-.22 21.09-5.72 34.39-24.28 49.37-38.75 7.72-7.63 16.71-14.81 20.69-25.27 3.7-10.48 2.9-21.95 6.81-32.38 3.7-12.85 13.98-22.96 16.04-36.39 1.51-17.25-3.47-34.13-7.09-50.82-3.77-17.67-18.99-30.72-20.75-49-1.3-12.1 5.75-23.08 5.68-35.02-.93-11.85-12.25-17.91-20.36-24.76-11.9-8.82-22.2-20.5-36.52-25.51-13.25-3.69-27.16-5.18-40.89-5.12z"/></svg>