<svg viewBox="0 0 48 48" xmlns="http://www.w3.org/2000/svg"><path transform="scale(0.10666)" fill="#fff" d="M213.71 0h26.77c21.22 3.56 37.55 18.74 57.4 25.95 12.45 5.84 28.57 9.54 34.79 23.2 5.48 13.02-5.43 26.23-1.14 39.47 6.65 20.68 29.12 32.02 34.45 53.36 2.92 14.62-7.47 27.52-6.93 42.02.51 23.62 17.48 43.92 15.13 67.97-.93 14.07-6.95 26.95-11.02 40.25-4.42 14.36 1.2 29.32-1.47 43.86-1.97 12.39-8.42 24.58-19.35 31.25-9.21 6.12-21.62 8.24-27.97 18.05-4.86 8.35.16 17.85-.03 26.66-1.79 11.25-13.16 17.1-22.93 20.36-22.36 7.15-45.6 11.16-68.13 17.6h-16.82c-10.63-2.54-20.69-6.88-30.13-12.34-12.68-7.54-26.05-14.12-37.59-23.42-6.31-4.97-11.63-11.03-17.75-16.21-9.28-9.08-20.95-16.04-28-27.19-9.2-16.42-1.35-35.75-6.4-53.11-3.63-15.25-16.33-26.67-18.82-42.28-.9-9.05 5.29-16.56 10.26-23.44 10.62-14.51 14.53-33.3 11.95-50.97-2.95-14.54-15.64-24.67-18.54-39.26-2.07-11.19-1.89-23.51 3.74-33.71 4.78-9.69 13.5-16.45 20.59-24.32 8.21-9.35 12.63-21.12 18.35-31.99 8.56-16.63 18.18-34.02 34.77-43.87 15.59-9.16 30.43-20.65 48.44-24.58 5.38-1.53 11.11-1.41 16.38-3.31m1.72 61.54c-13.72.86-27.2 4.95-39.28 11.47-7.43 3.96-12.78 11.11-15.02 19.17-3.84 13.8-1.92 28.6-6.72 42.21-3.63 11.29-11.29 20.5-17.79 30.2-9.62 14.83-12.21 32.66-16.39 49.5-2.64 14.02-5.58 28.64-2.04 42.78 2.72 9.67 9.6 17.49 17.3 23.64 17.07 14.64 25.62 36.73 28.91 58.48 1.13 10.6 1.42 22.29 8.74 30.81 8.98 10.1 22.56 14.21 35.38 16.86 14.71 2.48 30.81 3.51 44.42-3.7 8.78-5.23 13.48-14.68 19.8-22.33 6.75-8.68 15.64-15.63 25.66-20.13 7.99-4.24 18.21-7.02 22.16-16.03 2.85-7.8 1.36-16.32 1.12-24.41 1.01-20.91 6.94-41.22 8.7-62.06 1.1-20.07-7.84-38.98-7.74-59-.27-11.68 1.16-23.96-3.79-34.93-5.4-11.99-15.6-21.04-20.79-33.16-6.6-13.84-11.74-30.01-25.52-38.51-17.16-9.91-37.82-10.46-57.11-10.86z"/></svg>