<svg viewBox="0 0 48 48" xmlns="http://www.w3.org/2000/svg"><path transform="scale(0.10666)" fill="#fff" d="M205.77 0h23.72c11.55 2.87 23.56 4.61 34.24 10.22 13.37 6.25 24.04 16.69 36.12 24.92 7.74 5.44 16.03 10.47 22.01 17.95 6.52 8.36 11.34 17.87 17.63 26.39 12.93 18.15 29.83 35.5 33.2 58.41 2.16 13.55-8.39 24.77-8.05 38.11.57 14.67 7.71 27.91 11.6 41.82 3.63 13.93 5.75 28.18 8.94 42.21 1.36 7.22 3.56 15.76-.84 22.32-5.54 6.54-15.07 5.38-22.29 8.77-11.29 4.04-17.46 16.4-17.39 27.87-.8 14.06 5.14 27.77 2.77 41.83-2.04 8.43-7.85 15.15-12.09 22.51-7.25 11.67-11.94 25.24-22.38 34.64-16.62 15.03-38.1 24.02-60.05 27.76-7.83 1.87-16.02 1.88-23.72 4.27h-20.91c-4.12-1.26-8.32-2.35-12.1-4.45-11.19-5.61-17.46-17.74-28.99-22.8-9.59-4.18-20.27-.71-30.2-3.12-8.99-1.49-16.51-8.01-20.5-16.04-4.89-9.15-6.12-19.64-10.08-29.14-4.9-12.6-14.53-22.95-17.74-36.27-4.07-16.53-5.4-33.82-12.18-49.61-2.48-6.75-7.12-13.12-6.5-20.63 0-5.7 3.71-10.32 6.17-15.17 7.21-13.3 11.11-28.58 10.3-43.74-.59-10.37-6.15-19.56-7.63-29.75-2.08-10.95 2.13-21.64 5.28-31.94 3.66-10.5 5.78-21.44 9.21-32 4.08-13.32 10.48-25.84 13.71-39.43 2.85-11.77 8.15-23.36 17.55-31.33 14.83-12.95 34.6-17.92 50.11-29.89C183.85 7.56 194.42 2.5 205.77 0m3.39 62.03c-10.68 1.65-19.98 8.34-26.28 16.92-4.77 6.16-7.76 13.43-12.08 19.88-10.34 16.31-28.3 26.39-37.19 43.78-7.58 15.26-8.11 32.7-8.05 49.39.46 20.76-5.02 41.37-2.25 62.12 1.06 10.97 3.65 21.81 3.46 32.89-.1 7.54-.14 15.24 1.81 22.59 2.26 8.28 8.34 14.67 14.4 20.42 11.6 12.38 22.78 25.26 36.1 35.86 10.75 8.76 21.87 18.23 35.83 21.12 22.07 3.91 46.66.98 64.45-13.66 16.46-11.3 23.66-30.73 30.13-48.73 5.92-17.76 12.54-35.34 16.81-53.6 1.79-8.09 4.62-15.93 8.33-23.33 4.24-7.46 8.05-15.88 7.33-24.67-2.1-17.31-13.21-31.69-17.28-48.46-3.97-12.12-2.31-24.97-1.96-37.46-.03-9.93-6.72-17.85-13.24-24.6-6.53-7.13-12.36-14.87-18.79-22.08-11.25-13.46-27.63-22.03-44.84-24.9-12.13-1.65-24.38-5.31-36.69-3.48z"/></svg>