<svg viewBox="0 0 48 48" xmlns="http://www.w3.org/2000/svg"><path transform="scale(0.10666)" fill="#fff" d="M217.54 0h15.79c18.42 3.18 34.3 13.4 51.4 20.24 11.71 4.68 25.43 5.08 35.31 13.68 11.14 8.93 11.72 24.17 18 36.05 6.56 13.14 14.88 25.32 21.56 38.41 4.43 8.55 10.59 15.94 16.68 23.32 9.78 12.06 10.74 29.17 5.93 43.47-2.69 8.74-7.88 16.54-9.77 25.56-2.68 13.77-1.63 27.95-.32 41.82.7 8.79 3.26 17.55 2 26.41-2.48 12.54-13.76 20.49-18.25 32.12-6.39 14.88-1.27 31.61-5.95 46.85-2.87 8.62-10.42 14.22-16.44 20.55-10.8 10.8-17.58 24.65-25.5 37.51-9.1 14.72-24.29 24.32-39.86 31.03-14.89 6.53-31.1 8.94-46.73 12.98h-17.92c-21.28-2.22-33.66-21.68-52.56-29.15-9.77-4.31-20.4-9.01-26.16-18.53-9.28-13.88-7.73-31.46-13.04-46.78-5.79-21.19-19.26-39.3-24.67-60.6-2.02-7.37-4.16-14.94-8.86-21.12-5.2-6.83-11.5-13.17-14.31-21.48-4.04-10.97-3.93-22.89-2.65-34.36 1.31-12.38-1.3-24.69-.9-37.06.17-7.68 3.49-15.25 9.01-20.58 7.21-7.56 16.64-12.59 23.65-20.36 8.97-9.41 13.16-21.97 16.94-34.12 3.64-12.02 11.49-22.26 14.77-34.42 3.63-12.39 6.23-25.79 14.8-35.92 8.21-9.53 21.05-12.09 32.11-16.85C186.83 12.23 201.26 3.68 217.54 0m-15.16 62.67c-13.03 3.7-19.76 16.46-26.76 26.93-8.14 13.65-17.02 26.96-23.53 41.5-6.56 14.33-.37 31.11-7.98 45.13-6.56 12.84-18.59 25.01-15.14 40.7 4.42 18.18 16.8 34.58 15.22 54.07-.46 8.73-4.79 16.41-8.06 24.31-3.9 10.01-1.15 21.32 4.11 30.29 5.21 9.75 13.48 17.26 21.35 24.81 11.05 10.64 19.86 23.97 33.58 31.52 18.09 10.16 40.55 7.35 59.22.32 17.34-7.16 29.34-22.69 38.3-38.58 10.6-18.21 14.84-39.16 23.92-58.05 5.05-9.23 11.3-17.88 15.02-27.79 6.24-17.39 4.97-36.9-1.51-54.03-5.25-12.87-16.72-21.75-22.91-34.06-4.36-8.18-7.33-17.7-5.41-27 1.6-12.12 14.92-23.06 8.07-35.61-5.83-8.81-16.6-11.67-25.31-16.69-15.21-7.82-27.52-21.26-44.71-25.02-12.22-2.52-25.06-5.58-37.47-2.75z"/></svg>