<svg viewBox="0 0 48 48" xmlns="http://www.w3.org/2000/svg"><path transform="scale(0.10666)" fill="#fff" d="M218.94 0h22.46c20.55 2.73 36.4 17.23 55.51 23.93 13.56 5.95 30.44 10.23 37.5 24.66 6.25 15.24-8.09 29.51-4.14 44.91 2.81 14.34 12.87 25.43 22.01 36.2 6.9 7.75 11.42 17.76 11.54 28.24.13 15-.74 30.26 3.03 44.94 2.88 14.22 9.11 29.12 3.76 43.55-4.68 11.85-12.49 22.63-13.95 35.61-3.18 15.99 5.08 31.15 5.59 46.97-.61 17.74-11.43 34.98-27.64 42.51-7.2 3.73-15.63 6.79-20.01 14.1-5.58 9.52-1.64 21.45-6.81 31.11-6.07 11.15-18.57 16.27-30.01 20.07-16.72 4.93-33.46 9.96-50.61 13.2h-20.32c-10.96-1.97-22.03-4.41-31.82-9.94-20.06-11.56-36.17-28.48-52.68-44.42-9.8-8.36-18.96-18.37-23.02-30.85-4.46-12.15-4.89-25.36-9.48-37.47-6.16-15.54-18.81-27.28-25.63-42.46-4.03-8.52-5.52-18.52-2.91-27.67 3.55-13.33 16.81-21.31 20.09-34.78 4.31-15.89-2.14-31.69-3.76-47.4-.4-18.29 16.1-29.35 24.99-43.36 6.25-9.79 7.3-21.65 8.28-32.93 2.22-19.28 12.25-36.22 20.65-53.31 5.58-11.33 14.05-21.42 25.22-27.56C175.44 6.14 197.84 4.12 218.94 0m-12.46 62.74c-13.24 2.35-28.21 5.64-36.66 17.09-7.97 10.66-6.97 24.6-6.9 37.17.42 14.35-3.61 29.02-12.36 40.51-5.52 7.74-13.32 13.44-19.3 20.78-10.97 14.05-13.24 32.49-14.51 49.69-.37 18.85 2.68 38.33 12.56 54.71 6.86 13.21 16.92 24.6 22.36 38.58 4 9.76 4.17 20.45 5.84 30.73 1.62 12.46 9.41 24.16 20.89 29.56 12.33 5.89 26.3 5.81 39.63 6.93 17.44.34 37.28-3.3 48.78-17.68 7.56-9.37 14.12-20.03 24.77-26.28 8.56-6.26 20.1-8.7 26.64-17.46 6.82-11.25-.78-24.06-.82-36-.03-21.73.59-43.6 4.47-65.03 4.85-22.09 8.24-45.52 1.72-67.63-6.3-17.75-19.28-31.84-30.28-46.76-11.99-15.41-21.84-33.94-39.88-43.19-14.36-7.48-31.22-8.18-46.95-5.72z"/></svg>