<svg viewBox="0 0 48 48" xmlns="http://www.w3.org/2000/svg"><path transform="scale(0.10666)" fill="#fff" d="M215.78 0h17.66c16.7 3.03 31.5 11.43 46.14 19.54 12.14 7.15 27.39 6.65 38.85 15.1 7.95 5.84 11.34 15.53 14.14 24.57 4.56 14.82 13.88 27.4 21.24 40.86 5.29 9.69 11.12 19.27 19.25 26.88 8.33 8.03 13.61 19.33 12.85 31.05.56 17.42-11.25 31.94-12.49 49.02-1.55 16.62-.83 33.4 1.64 49.89 1.15 7.49 1.68 15.79-2.6 22.46-5.41 8.52-13.6 15.15-17.4 24.71-6.99 15.79-1.38 33.81-7.14 49.81-5.28 10.22-14.61 17.56-20.81 27.2-9.07 12.27-15.5 26.69-27.09 36.96-15.04 13.2-33.43 22.64-53.08 26.64-7.82 2.13-16 2.77-23.7 5.31h-19.68c-5.22-1.54-10.63-2.67-15.48-5.22-10.46-5.42-18.14-14.92-28.8-20.02-9.54-5.18-20.73-7.57-28.89-15.09-8.13-7.05-12.9-17.24-14.87-27.68-1.9-10.61-3.31-21.4-7.15-31.53-5.43-16.08-14.75-30.5-20.01-46.63-2.58-6.9-4.15-14.17-7.43-20.8-4.57-9.98-13.29-17.61-16.61-28.24-5.07-14.07-2.8-29.23-2.2-43.79.74-13.86-4.32-28.63 2.09-41.73 7.68-13.51 23.61-19.1 32.39-31.68 10.94-14.96 10.26-34.76 19.34-50.64 8.23-14.45 10.49-31.51 19.61-45.51 5.48-8.64 14.52-14.23 23.85-17.92C178.3 15.9 195.94 5.18 215.78 0m-11.41 62.49c-8.38 2.06-14.45 8.75-19.28 15.5-8.89 12.6-16.76 25.88-25.47 38.59-4.93 7.53-10.12 15.29-11.66 24.33-1.15 8.01-.96 16.17-2.41 24.14-2.81 17.44-18.37 30.65-17.6 49 2.24 19.24 16.96 35.06 16.48 54.95.71 13.87-12.18 24.08-10.95 37.99 1.42 15.79 12.23 28.75 24.11 38.36 13.14 10.46 23.22 24.32 36.89 34.15 10.18 7.33 23.12 9.93 35.48 8.82 17.83-1.27 36.14-7.47 48.63-20.73 14.25-13.48 20.99-32.49 27.34-50.55 5.84-16.1 11.83-32.18 19.88-47.33 11.54-22.95 14.67-52.41.36-74.87-10.16-14.52-23.15-29.09-23.56-47.83-1.01-12.64 10.42-23.24 7.26-35.9-4.4-11.18-17.12-14.62-26.48-20.44-14.35-7.47-25.79-20.15-41.67-24.64-12.05-3.2-24.93-6.1-37.35-3.54z"/></svg>