<svg viewBox="0 0 48 48" xmlns="http://www.w3.org/2000/svg"><path transform="scale(0.10666)" fill="#fff" d="M210.21 0h25.43c23.87 3.07 42.84 18.83 64.38 28 10.31 5.39 22.56 9.59 28.88 20.04 7.34 11.67.35 26.38 6.83 38.35 9.31 18.22 28.83 30.78 32.72 51.82 2.27 16.26-11.62 29.52-9.95 45.78 1.62 18.95 13.25 35.11 16.58 53.68 2.83 13.34 3.96 27.86-1.96 40.55-4.6 10.38-14.01 18.85-14.52 30.8-.77 17.64 3.52 38.44-9.94 52.6-8.18 9.48-21.58 12.73-28.84 23.16-3.91 6.44-2.33 14.22-1.39 21.23.88 6.55-1.94 13.22-6.94 17.45-8.09 6.9-18.53 10.01-28.65 12.53-20.55 5.21-41.52 8.63-62.01 14.01h-14.75c-13.18-2.7-24.08-10.76-35.03-18.05-12.27-8.38-27.33-11.72-38.97-21.09-10.58-9.12-19-20.34-27.88-31.03-6.78-8.24-12.82-17.55-14.47-28.3-2.21-15.61-.9-31.83-6.39-46.89-3.74-12.93-13.63-26.46-6.9-40.12 9.99-18.36 18.05-39.04 15.92-60.32-1.11-10.13-7.34-18.44-13.2-26.37-11.22-14.8-13.9-35.86-5.99-52.76 3.52-7.92 9.58-14.27 15.62-20.33 20.18-18.84 23.68-49.75 46.39-66.52 8.46-6.63 18.46-10.8 27.45-16.61 9.97-6.15 19.07-14.12 30.48-17.57 5.51-2.1 11.5-2.26 17.1-4.04m3.22 61.55c-15.99 1.42-31.9 8.23-43.51 19.39-10.12 10.24-12.07 25.07-16.86 38.03-4.58 13.24-13.13 24.55-18.91 37.23-3.52 7.87-5.4 16.38-6.52 24.91-2.86 23.33-11.63 46.07-9.81 69.85 1 11.74 8.05 22.03 17.08 29.22 14.12 11.51 22.57 28.49 26.99 45.88 3.08 11.23 3.91 23.23 9.33 33.71 11.17 18.67 33.65 28.21 54.79 28.76 12.06.03 26.13-1.1 34.43-11.06 5.75-7.26 10.17-15.63 17.03-22 7.51-8.21 17.49-13.4 26.85-19.16 7.51-4.2 13.39-11.44 13.86-20.31.81-19.17 6.2-37.62 10.65-56.16 2.54-10.12 6.45-20.21 5.6-30.83-1.08-15.23-8.91-28.86-11.53-43.78-2.65-12.8.46-25.71-.28-38.61-1.43-12.01-10.88-20.37-17.08-30.03-10.85-16.37-16.15-38.89-35.9-47.24-17.72-7.07-37.42-6.95-56.21-7.8z"/></svg>