<svg viewBox="0 0 48 48" xmlns="http://www.w3.org/2000/svg"><path transform="scale(0.10666)" fill="#fff" d="M202.74 0h16.78c15.12 4.1 30.96 4.48 46.15 8.25 13.58 3.34 25.03 11.84 36.1 20 17.52 14.28 34.75 31.03 41.65 53.19 5.18 17.51 7.22 35.89 14.25 52.85 5.33 12.43 10.57 24.93 13.97 38.05 5.24 19.26 11.33 39.31 7.71 59.43-2.87 15.63-15.32 27.26-18.96 42.64-3.85 16.66 2.24 33.91-1.81 50.58-4.16 16.91-17.98 29.28-22.79 45.91-3.01 9.94-2.62 21.17-9.07 29.84-8.99 12.42-19.22 24.44-32.37 32.61-15.18 8.64-33.28 7.75-49.82 11.91-7.03 1.82-14.37 2.39-21.25 4.74h-21.79c-6.9-1.91-14.2-3.8-19.58-8.83-11.62-10.58-19.01-24.87-30.35-35.74-5.74-6-12.98-10.27-18.77-16.23-10.56-10.52-15.54-24.96-23.9-37.06-6.04-9.66-14.16-18.15-18.2-28.96-5.04-14.49-4.2-30.12-6.44-45.12-1.07-9.47-4.1-18.53-6.34-27.75-3.3-13.96.25-28.2-.52-42.31.72-12.82-2.98-25.31-3.57-38.02.01-12.06 11.76-18.44 17.44-27.75 14.77-21.1 15.5-48.32 28.86-70.08 7.39-12.27 18.6-21.42 28.16-31.88C162.99 23.01 180.81 7.1 202.74 0m16.71 62.68c-18.64 3.5-28.9 21.03-43.28 31.51-11.14 8.97-26.86 12.47-34.54 25.4-9.21 16.06-7.52 35.72-15.9 52.14-6.6 12.81-16.34 25.11-16.07 40.26-.89 14.13 7.39 26.52 9.03 40.25 2.32 12.62-2.13 25.13-1.97 37.76 0 9.85 3.44 19.75 10.04 27.13 8.33 9.27 20.43 13.99 28.99 23.03 7.38 8.05 13.52 17.15 21.01 25.11 9.56 8.69 19.79 17.21 32 21.83 11.24 4.01 22.57-1.61 33.19-4.91 9.19-3.32 19.09-4.73 27.83-9.25 7.7-4.11 12.28-11.84 18.05-18.07 6.9-8.43 16.24-14.48 23.18-22.86 5.82-6.6 10.5-15.01 9.88-24.07-1.07-11.48-10.87-19.49-13.3-30.55-4.44-14.39 1.95-29.52 11.56-40.26 6.46-7.9 15.97-13.53 19.68-23.45 4.24-11.48-.36-24.37-8.57-32.85-6.64-6.73-14.63-12.62-18.68-21.45-4.47-8.47-4.73-18.28-7.8-27.22-5.37-14.57-21.35-21.2-27.89-35.06-5.11-9.68-4.06-23.27-14.43-29.56-12.64-6.91-28.1-6.98-42.01-4.86z"/></svg>