<svg viewBox="0 0 48 48" xmlns="http://www.w3.org/2000/svg"><path transform="scale(0.10666)" fill="#fff" d="M220.88 0h12.67c9.85 1.83 19.26 5.32 28.68 8.66 16.82 6.23 34.11 12.45 48.26 23.82 10.97 8.38 18.31 20.36 28.08 29.95 4.94 5.08 10.37 9.65 15.2 14.85 7.7 7.46 12.28 17.99 12.63 28.69.46 13.85-2.18 27.93 1.92 41.49 3.54 11.39.79 23.35-4.1 33.87-6.54 15.93-6.99 33.88-2.19 50.34 2.34 9.9 7.05 20.34 3.3 30.51-4.42 11.95-14.6 21.59-15.58 34.81-.87 12.53 7.45 22.78 11.13 34.15 3.29 9.12 1.26 20.1-5.73 26.97-9.74 10.13-24.49 12.32-35.56 20.51-9.66 6.73-15.24 17.59-19.85 28.1-3.84 8.55-10.08 15.84-17.47 21.53-13.67 10.42-29.19 18.96-46.34 21.75h-18.54c-10.84-1.99-22.07-3.87-31.62-9.76-11.34-6.94-20.93-16.8-33.61-21.47-9.62-4.19-21.01-4.65-29.32-11.54-7.1-5.9-7.72-15.74-7.83-24.28-.4-16.68-7.68-31.95-13.83-47.12-5.22-12.69-12.4-24.91-14.15-38.74-1.31-8.25-.26-16.74-2.19-24.91-2.48-9.45-11.28-15.25-14.92-24.12-5.77-12.97-3.57-27.5-2.56-41.17.98-15.54-1.22-32.14 6.11-46.51 6.53-14 16.37-26.02 25.76-38.16 9.09-11.58 14.65-25.49 18.19-39.67 4.28-17.73 12.95-34.43 25.11-48.01 10.33-10.97 25.75-13.34 38.96-19.19C194.42 9.76 206.95 2.88 220.88 0m-11.43 61.54c-18.97.61-33.57 15.66-40.98 32-5.97 13.84-11.39 27.91-17.26 41.8-5.08 12.01-5.73 25.18-8.91 37.7-3.2 11.87-9.86 22.68-11.52 34.99-2.59 22.22 11.22 42.73 8.24 64.97-1.52 12.15-11.44 21.59-11.6 34.08-.39 17.89 10.63 33.57 23.27 45.22 13.74 11.57 24.48 27.83 42.19 33.78 15.3 4.87 31.66 1.46 46.85-2.2 21.09-5.91 33.49-25.3 48.1-40.04 5.91-7.07 13.46-13 17.38-21.56 4.83-10.14 4.09-21.76 7.88-32.21 3.42-10.35 10.63-18.8 15.32-28.53 8.01-18.24.63-38.2-3.13-56.55-3.58-17.33-17.94-29.65-22.51-46.51-1.32-7.63-1.11-15.75 1.74-23.04 2.5-7.54 6.37-15.26 4.59-23.43-2.24-7.66-9.03-12.53-15.29-16.82-13.21-8.4-24.32-20.03-38.61-26.67-14.54-5.34-30.38-6.63-45.75-6.98z"/></svg>