<svg viewBox="0 0 48 48" xmlns="http://www.w3.org/2000/svg"><path transform="scale(0.10666)" fill="#fff" d="M217.69 0h24.81c15.2 2.34 27.51 11.87 40.87 18.62 13.39 7.08 28.58 10.36 41.31 18.7 6.91 4.38 12.14 12.35 11.1 20.78-1.21 11.64-9.47 22.45-6.03 34.48 5.04 20.37 25.52 31.46 33.22 50.37 5.04 13.85-2.33 27.98-1.57 42.05-.37 18.08 9.64 34.14 11.17 51.91 1.31 17.88-9.84 33.31-12.23 50.61-2.81 13.76 3.23 27.17 2.99 40.9-.7 14.44-7.56 28.99-19.35 37.59-9.63 7.51-23.76 8.44-31.17 18.82-6.94 10.13 1.08 22.82-4.71 33.23-4.87 8.42-14.28 12.57-23.04 15.75-19.29 6.41-39.12 11.12-58.77 16.19h-19.63c-18.13-3.81-35.2-11.69-50.23-22.47-14.65-9.72-26.08-23.28-39.66-34.3-7.93-6.64-16.94-12.92-21.56-22.49-8.07-15.43-2.01-33.61-8.36-49.49-5.19-13.33-16.05-23.38-21.93-36.34-2.82-6.71-4.56-14.36-2.24-21.48 2.39-9.34 10.11-15.64 15.64-23.09 8.36-11.07 10.25-25.9 7.86-39.28-1.87-11.01-8.29-20.6-10.47-31.53-2.1-12.96 1.25-26.91 9.73-37.04 3.89-5.1 8.81-9.31 12.5-14.55 5.39-7.43 8.25-16.24 11.14-24.85 3.45-10.69 7.91-21.04 12.89-31.1 7-12.78 13.4-26.77 25.44-35.67 15.73-11.74 34.15-20 53.55-23.26C206.5 1.8 212.32 1.93 217.69 0m-1.27 61.59c-15.64 1.22-32.3 4-45.09 13.73-10.46 8.73-10.46 23.27-9.87 35.71 1.38 16.55-2.32 34.16-13.29 47.05-4.35 5.64-9.8 10.32-14 16.09-7.35 9.18-10.24 20.88-13.01 32.07-3.65 16.75-7 34.45-2.55 51.37 2.7 10.76 10.53 18.98 17.69 27.03 14.43 16.26 24.1 37.34 24.41 59.29.17 10.12 1.2 21.17 8.38 28.99 10.69 11.43 27.29 13.15 41.99 14.61 15.85 1.99 33.8 1.77 46.92-8.61 11.46-10.19 18-25.23 31.48-33.33 9.86-7.26 23.77-8.55 31.38-18.79 6.12-10.88-.31-23.24.3-34.8.7-22.7 4.69-45.24 4.47-68-.25-15.33-.73-30.66-.56-46-.67-10.2-.91-20.92-5.83-30.17-4.85-10.62-13.15-19.05-19.33-28.83-8.31-11.99-12.77-26.39-22.46-37.45-15.23-16.72-39.49-20.52-61.03-19.96z"/></svg>