<svg viewBox="0 0 48 48" xmlns="http://www.w3.org/2000/svg"><path transform="scale(0.10666)" fill="#fff" d="M207.17 0h24.32c7.87 1.79 15.92 3.03 23.5 5.92 14.1 4.92 26.45 13.5 39.45 20.66 10.86 6.45 23.23 11.53 31 21.98 6.1 8.19 6.05 18.89 10.01 28.01 4.65 11.5 14.03 19.98 21.11 29.91 7.06 9.83 13.73 20.99 13.82 33.46-.36 12.93-9.89 23.33-10.91 36.11-1.15 12.19 4.32 23.51 8.78 34.49 6.82 16 11.3 33.04 12.56 50.4.3 6.29.16 13-3.16 18.58-5.59 9.35-17.63 12.83-22.15 23.07-7.06 17.08 2.97 36.24-4.72 53.26-5.88 12.85-20.74 18.83-26.26 31.95-3.85 8.55-1.49 18.55-5.77 26.97-4.33 8.31-12.73 13.45-21.11 16.99-24.3 9.69-50.69 11.76-75.84 18.24h-15.64c-14.07-2.45-24.21-12.86-35.18-20.99-11.89-8.89-28.03-7.62-40.21-15.82-11.17-7.63-16.37-20.63-22.69-32.04-4.56-9.61-10.95-18.23-15.16-28.01-4.71-11.52-4.99-24.12-7.34-36.2-1.66-12.7-6.47-24.67-9.43-37.07-2.33-9.32 2.54-18.14 6.41-26.27 7.08-16.1 12.15-33.85 9.47-51.56-1.82-9.21-7.35-16.97-12.38-24.67-10.2-15.82-10.98-36.63-3.93-53.84 5.36-12.77 16.75-21.5 23.49-33.41 7.42-13.04 11.17-28.18 21.07-39.77 8.83-11.54 22.5-17.5 35.16-23.79 11.37-5.54 20.68-14.39 31.81-20.35 6.18-3.39 13.24-4.25 19.92-6.21m.98 62.03c-20.88 3.62-38.55 18.83-47.01 38.04-7.26 16.89-19.92 30.61-28.06 46.98-7.82 15.89-5.14 34.01-7.97 50.97-2.31 20.56-9.87 41.51-4.25 62.15 3.95 15.53 18.28 24.72 25.8 38.21 8.7 13.69 12.75 29.45 17.19 44.85 4.55 16.09 17.46 28.17 31.3 36.68 13.82 8.6 30.95 9.96 46.73 7.63 7.94-.92 15.87-4.43 20.91-10.79 4.53-5.77 8.27-12.19 13.54-17.37 12.5-14.78 34.62-22.67 38.66-43.42 3.13-17.59 8.35-34.7 12.88-51.96 3.26-12.69 11.57-24.46 9.74-38.08-1.84-18.1-13.76-33.58-15.12-51.83-1.42-11.83 4.21-23.25 2.49-35.04-2.8-12.2-13.89-19.63-20.22-29.83-7.94-11.29-13.66-24.55-24.59-33.45-9.59-7.94-22.17-10.83-34.33-11.66-12.54-.79-25.13-3.71-37.69-2.08z"/></svg>