<svg viewBox="0 0 48 48" xmlns="http://www.w3.org/2000/svg"><path transform="scale(0.10666)" fill="#fff" d="M203.02 0h13.71c17.34 4.38 35.44 4.75 52.65 9.6 21.42 7.85 38.89 23.34 55.69 38.28 12.34 10.93 20.74 25.88 24.42 41.89 2.42 10.92 3.99 22.01 6.6 32.89 4 16.86 12.89 32.04 17.33 48.77 5.99 19.92 11.35 41.42 5.68 62.05-4.94 17.64-16.35 33.53-16.19 52.47.94 14.33 1.36 29.58-5.34 42.75-6.75 13.19-17.7 23.95-22.94 37.98-3 7.61-3.26 15.9-5.25 23.76-2.44 9.04-8.77 16.23-14.78 23.13-8.83 10.32-19.28 20.22-32.52 24.37-20.39 5.9-41.95 6.38-62.42 12.06h-18.69c-17.02-2.16-28.64-15.58-38.75-28.12-6.89-8.12-14.72-15.37-22.61-22.49-12.03-12.1-16.45-29.18-25.93-43.02-7.77-13.01-20.97-22.83-24.77-38.06-3.82-16.52.02-33.7-3.35-50.3-1.87-11.88-8.33-22.74-8.37-34.96-.39-14.7 1.13-29.46-.6-44.11-.66-8.07-2.53-16.43.05-24.35 2.9-8.62 9.82-14.92 14.27-22.67 10.29-17.26 16.1-36.65 22.48-55.57 4.07-11.73 9.77-23.33 19.18-31.7 8.65-7.36 17.55-14.44 25.29-22.79C171.13 19.18 184.79 5.03 203.02 0m25.41 61.56c-7.41.32-14.98 1.6-21.51 5.28-13.34 7.59-21.14 22.08-34.99 28.95-10.01 5.26-22.28 7.12-29.87 16.25-10.08 12.11-12.47 28.75-12.02 44.02 1.21 7.14.48 14.39-.81 21.46-2.59 11.12-10.36 20.33-12.22 31.67-3.41 15.44 4.27 30.38 4.43 45.8.61 16.38-6.05 33.26.1 49.2 5.2 13.95 19.13 21.15 29.39 30.88 9.39 10.11 15.52 22.86 25.74 32.25 9.3 8.66 20.1 16.14 32.29 20.02 12.44 3.71 24.73-2.26 36.39-5.98 8.61-3.19 17.79-5.33 25.48-10.55 6.03-4.2 10.71-9.95 16-14.98 9.24-9.8 21.38-16.54 29.58-27.36 5.53-6.79 10.44-15.35 8.94-24.44-1.61-9.36-9.89-15.23-14.1-23.29-4.71-8.1-3.94-18.72 1.01-26.54 6.33-9.76 15.55-17.12 23.06-25.9 7.55-9.2 9.88-22.6 4.79-33.5-4.99-11.57-16.93-18.13-22.22-29.54-6.51-11.67-5.87-25.54-10.38-37.84-4.79-12.8-18.78-18.1-25.65-29.42-5.76-8.73-6.32-20.3-14.11-27.77-10.86-9.01-25.98-8.73-39.32-8.67z"/></svg>