<svg viewBox="0 0 48 48" xmlns="http://www.w3.org/2000/svg"><path transform="scale(0.10666)" fill="#fff" d="M221.41 0h12c23.41 5.54 46.28 14.04 67.74 24.93 20.27 10.29 30.01 31.87 46.3 46.62 9.21 8.55 17.26 19.48 18.22 32.42 1.76 10.02-.86 20.11.7 30.14.44 8.8 4.55 17.02 4.33 25.89.23 9.83-5.16 18.47-7.87 27.64-5.29 14.83-3.89 31.07.28 45.97 2.17 9.23 6.25 18.91 2.94 28.38-4.39 12.43-15.34 22.24-16.16 35.97-.94 15.15 11.1 27.14 11.59 42.04.08 7.4-3.32 14.69-8.97 19.47-11.88 9.88-28.96 11.7-39.16 23.88-8.52 9.17-11.28 21.79-18.04 32.05-8.31 11.27-20.61 18.6-32.75 25.07-9.18 4.85-19.19 7.83-29.4 9.53h-16.85c-10.17-1.61-20.61-3.47-29.62-8.73-11.73-6.73-21.22-17.14-34.08-21.94-10.31-4.65-22.89-5.36-31.07-13.9-8.41-10.18-4.58-24.17-7.67-36.06-4-16.4-11.35-31.75-18.1-47.16-4.5-9.51-8.37-19.61-8.73-30.25-.92-6.55.09-13.37-2.16-19.72-3.06-9.14-11.87-14.68-15.63-23.46-6.23-13.42-3.51-28.52-2.47-42.7 1.49-14.1-2.18-29.06 3.73-42.47 10.05-23.91 33.19-39.2 42.97-63.24 5.54-12.7 6.72-26.79 12.45-39.43 5.02-11.15 10.92-22.51 20.61-30.33 7.52-6.29 17.31-8.42 26.3-11.74C189.31 13.28 204.12 3.22 221.41 0m-19.06 62.38c-18.45 4.19-29.99 21.11-36.51 37.71-4.87 12.6-10.28 24.97-15.36 37.49-4.55 11.42-5.13 23.83-8.2 35.64-3.32 12.11-10.6 23.03-11.7 35.75-1.36 20.55 10.46 39.38 8.88 59.99-.19 14.42-12.5 25.47-11.83 40.02 1.11 18.51 13.02 34.08 26.4 45.97 13.61 12.93 25.97 30.09 45.93 32.92 16.14 1.63 32.95-.94 48.01-6.98 14.38-6.79 24.03-19.98 34.41-31.5 7.94-9.73 18.24-17.93 23.22-29.78 4.14-10.48 3.62-22.21 8.3-32.53 5.6-12.62 16.84-22.78 18.38-37.08 1.32-16.02-3.24-31.82-7.15-47.2-4.08-15.68-17.45-26.58-22.22-41.93-2.5-8.14-1.72-17.02 1.27-24.92 2.65-8.01 8.01-15.99 5.64-24.77-3.1-9.27-12.27-14.02-19.81-19.21-9.5-6-17.95-13.49-27.42-19.51-12.5-7.78-27.52-8.83-41.77-10.4-6.13-.8-12.4-.94-18.47.32z"/></svg>