<svg viewBox="0 0 48 48" xmlns="http://www.w3.org/2000/svg"><path transform="scale(0.10666)" fill="#fff" d="M206.46 0h14.89c20.69 3.76 42.72 4.64 61.42 15.28 12.21 6.96 24.02 14.9 33.99 24.87 16.19 16.68 23.15 39.7 27.93 61.87 4.61 21.15 17.24 39.49 21.65 60.7 4.69 21.88 13.39 43.57 11.79 66.27-1.12 18.31-19.23 28.93-22.97 46.31-4.24 18.74 5.05 37.55 1.53 56.38-2.28 13.11-10.73 23.78-16.85 35.24-6.88 12.18-8.55 26.68-16.61 38.28-9.2 13.53-21.08 26.56-37.05 31.81-12 3.86-24.74 4.35-36.92 7.48-8.52 2.26-17.16 3.96-25.83 5.51h-18.94c-10.23-1.31-20.7-4.85-27.56-12.95-9.19-10.81-17.42-22.47-27.57-32.44-8.85-8.44-19.28-15.32-26.68-25.21-6.53-9.19-10.98-19.63-16.86-29.22-5.1-8.67-11.05-16.91-14.85-26.28-5.02-12.08-6.05-25.26-8.81-37.93-2.45-12.35-7.27-24.25-7.99-36.91-.1-10.45 2.74-20.65 3.28-31.05 1.36-15.17-1.96-30.09-3.87-45.03-.9-11.58 10.24-17.91 16.91-25.53 13.35-14.29 15.64-34.53 19.41-52.85 2.5-11.77 9.21-21.97 16.27-31.49 12.36-17.52 24.58-36.19 43.27-47.63C181.04 8.79 193.15 2.43 206.46 0m14.86 62.05c-14.24 1.66-25.09 11.88-34.76 21.55-10.63 10.69-22.26 20.35-32.57 31.36-7.47 8.37-8.81 19.92-12.95 29.96-5.06 13.27-14.94 23.71-22.83 35.26-6.63 9.59-10.68 21.12-10.33 32.84-.06 16.44 11 30.53 10.96 46.96.43 9.44-2.97 18.57-2.41 28.02-.66 11.56 3.73 23.41 12.11 31.47 6.71 7.18 16.2 10.89 23.13 17.84 5.43 5.04 9.12 11.53 13.7 17.28 8.46 11.89 19.74 21.64 32.56 28.59 8.51 5.01 18.84 6.87 28.39 3.86 12.86-3.74 25.82-7.19 38.61-11.14 12.28-3.99 17.09-16.91 25.37-25.57 8.83-10.74 22.91-19.11 24.08-34.35-.27-14.21-8.54-26.82-9.3-41-2.7-16.35 2.67-33.24 12.72-46.19 4.91-6.76 12.5-11.4 16.07-19.15 3.33-7.48 2.1-16.23-1.04-23.56-4.97-11.99-14.59-21.25-19.98-33.01-4.83-9.24-6.72-20.12-13.82-28.09-9.32-10.28-23-16.7-29.19-29.69-5.01-8.52-4.03-20.24-12.48-26.68-10.37-7.12-23.89-7.83-36.04-6.56z"/></svg>