<svg viewBox="0 0 48 48" xmlns="http://www.w3.org/2000/svg"><path transform="scale(0.10666)" fill="#fff" d="M207.63 0h21.95c6.78 1.94 13.9 2.47 20.58 4.84 14.13 4.25 26.13 13.25 36.98 22.96 9.86 8.77 22.14 14.28 31.8 23.27 8.34 8.98 13.84 20.09 21.01 29.95 11.18 15.72 23.13 31.09 31.53 48.55 3.95 8.06 5.75 17.52 3.3 26.3-2.04 7.28-5.25 14.43-5.13 22.13-.43 13.39 5.13 25.89 7.83 38.78 2.7 13.76 3.58 27.82 6.97 41.46 1.52 7.76 4.78 16.95-.1 24.12-6.78 7.47-18.27 5.18-26.23 10.73-12.45 7.79-15.74 24.21-13.68 37.83.85 10.08 5.06 19.84 3.93 30.07-1.22 8.18-6.69 14.72-10.95 21.52-7.36 11.11-13.88 23.02-23.51 32.4-15.41 13.74-33.57 25.04-53.77 29.99-9.09 2.56-18.69 2.55-27.74 5.1h-22.97c-5.95-1.85-12.19-3.38-17.24-7.23-10.48-7.14-17.68-19.9-31.18-21.81-11.86-1.22-25.47 1.74-35.55-6.38-11.11-8.31-14-22.52-17.75-35.04-3.32-11.69-10.74-21.51-15.74-32.43-7.16-18.4-6.94-38.88-15.08-57-3.18-7.82-9.37-14.46-10.29-23.12.12-6.6 3.54-12.4 5.95-18.35 4.29-10.04 6.25-20.87 7.58-31.65 1.43-12.31-4.52-23.85-4.81-36.02.12-12.7 8.86-22.7 14.24-33.55 8.43-15.88 9.25-34.19 14.06-51.23 4.88-14.45 6.29-30.47 15.33-43.2 13.43-18.45 36.57-24.84 54.64-37.44C183.82 8.17 195.23 2.54 207.63 0m5.81 61.56c-9.9.61-19.13 6.01-25.07 13.85-6.93 8.45-10.85 18.87-17.47 27.53-9.04 10.92-20.62 19.41-29.68 30.3-12.64 17.07-14.81 39.2-15.37 59.76.29 18.39-3.26 36.84-.4 55.18 1.69 10.38 3.44 21.07 1.19 31.52-1.81 10.27-5.38 20.75-2.93 31.22 1.7 9.47 8.47 16.89 15.68 22.76 14.88 12.17 30.6 23.23 45.59 35.25 10.28 8.41 21.41 17.24 35.13 18.62 24.52 3.19 51.74-1.96 70.46-18.98 10.27-9.6 13.49-23.89 16.87-36.98 4.17-16.57 11.17-32.22 15.93-48.61 2.86-9.26 4.13-18.95 7.46-28.07 3.3-9.74 9.75-18.48 10.63-28.95.77-9.44-2.96-18.4-6.78-26.81-7.57-18.04-17.69-36-17.49-56.13.33-9.91-1.31-20.44-7.92-28.24-14-17.28-29.38-34.86-50.38-43.65-14.34-5.92-29.9-9.64-45.45-9.57z"/></svg>