<svg viewBox="0 0 48 48" xmlns="http://www.w3.org/2000/svg"><path transform="scale(0.10666)" fill="#fff" d="M203.99 0h17.19c20.26 4.93 42.33 4.23 60.89 14.88 21.01 12.06 40.7 28.19 51.99 50.06 9.33 16.41 10.79 35.59 16.6 53.26 4.74 14.53 12.21 28.07 16.2 42.87 5.61 23.52 15.55 47.46 11.38 71.99-3.44 16.85-19.52 28-21.61 45.37-2.29 17.59 4.34 35.49-.05 53.01-3.46 14.02-13.82 24.84-18.86 38.19-4.21 9.73-4.51 20.85-10.22 29.97-7.1 11.48-16.41 21.6-26.9 30.03-15.07 11.59-34.91 10.73-52.56 15.03-7.66 2.03-15.54 3.11-23.14 5.34h-22.2c-6.43-1.7-13.24-2.93-18.63-7.11-9.48-7.3-15.34-17.99-23.11-26.9-7.63-9.99-17.39-17.96-27.12-25.79-13-10.6-18.72-26.77-27.57-40.48-5.8-9.39-12.94-18.15-16.38-28.79-3.96-11.99-4.36-24.74-6.68-37.08-1.65-11.45-5.57-22.42-7.34-33.83-1.62-12.03 1.82-23.95 1.68-35.98 1.04-14.53-2.85-28.71-4.15-43.05-.47-11.82 11.12-17.86 17.47-26.09 13.86-17.05 14.82-39.91 22.21-59.77 4.13-10.13 11.06-18.75 17.7-27.33 10.63-12.93 21.01-26.26 33.84-37.13C176.47 11.7 189.57 3.95 203.99 0m23.44 61.53c-9.97.38-19.8 4.03-27.37 10.58-11.05 9.21-20.44 20.32-32.21 28.69-7.93 6.27-17.48 11.36-22.38 20.61-5.82 10.89-7.04 23.52-12.32 34.64-7.53 16.97-22.66 30.52-24.79 49.75-3.71 20.13 11.99 37.27 10.42 57.24-1.05 13.4-4.86 27.23-.45 40.44 3.65 12.13 13.84 20.71 24.44 26.84 7.85 4.51 14.14 11.13 19.51 18.34 11.1 15.79 25.76 29.48 43.4 37.58 9.81 4.61 20.63 1.18 30.27-2.05 10.41-3.65 21.36-5.59 31.65-9.6 8.71-3.55 13.42-12.05 19.05-19.01 6.56-8.66 15.09-15.53 22.31-23.6 5.55-6.34 9-15.09 7.42-23.56-1.34-7.99-5.63-15.05-8.13-22.68-3.81-10.72-4.49-22.77-1.11-33.68 3.96-12.85 13.01-23.23 22.81-32.06 7.98-7.15 9.71-19.08 5.98-28.81-4.61-13.83-18.16-21.85-24.13-34.9-5.06-9.06-5.63-19.98-11.44-28.68-6.47-9.71-17.31-15.33-24.16-24.73-9.44-10.08-5.93-27.11-17.78-35.31-9.21-5.57-20.5-6.13-30.99-6.04z"/></svg>