<svg viewBox="0 0 48 48" xmlns="http://www.w3.org/2000/svg"><path transform="scale(0.10666)" fill="#fff" d="M204.44 0h25.36c11.46 3.02 23.44 4.68 34.12 10.19 13.9 6.3 25.2 16.79 37.89 25.03 8.62 5.81 17.44 11.95 23.16 20.84 5.27 8.38 9.94 17.14 15.8 25.13 12.23 16.62 27.5 32.61 31.09 53.72 3.15 15.3-10.01 27.89-8.81 43.04 1.8 16.76 10.96 31.5 14.48 47.83 3.01 13.69 6.24 27.35 8.43 41.2 1.06 5.57.54 12.09-3.52 16.39-6.94 5.67-16.76 5.02-24.13 9.92-4.57 3.17-8.64 7.44-10.49 12.78-7.96 20.28 7.92 43.23-4.21 62.53-8.37 11.61-14.74 24.41-20.66 37.39-5.61 10.68-15.29 18.48-25.72 24.19-18.13 10.49-38.99 14.73-59.5 17.65-3.4.56-6.98.58-10.11 2.17h-20.51c-6.88-2.19-13.92-4.7-19.19-9.87-7.31-5.73-12.86-13.86-21.73-17.41-8.04-3.3-16.85-1.41-25.22-2.76-9.3-.62-18.14-6.11-22.77-14.21-6.1-10.35-7.53-22.59-12.58-33.39-4.8-11.22-13.38-20.65-16.41-32.66-4.55-17.35-5.78-35.58-12.81-52.26-2.39-6.72-6.34-13.65-4.7-21 2.3-8.22 8.29-14.74 10.96-22.82 4.44-12.58 7.9-26.22 5.33-39.57-2.16-11.3-8.88-21.34-9.68-32.96-.86-13.73 4.01-26.88 6.96-40.08 2.9-13.09 9.06-25.04 14.61-37.12 6.54-13.62 7.67-29.64 17.23-41.8 14.73-18.99 39.96-23.29 58.09-37.84C183.88 7.47 193.88 2.87 204.44 0m.97 62.67c-15.77 3.95-26.36 17.43-33.38 31.28-10.3 20.31-32.39 31.84-40.89 53.27-7.72 18.7-4.37 39.26-6.3 58.84-.33 8.38-2.11 16.63-2.46 25.01-1.96 15.41.49 30.96 4.28 45.91 2.47 10.02 2.83 20.48 5.97 30.33 4.61 12.07 14.4 21 21.53 31.53 10.92 16.15 25.55 29.49 41.67 40.33 8.93 5.92 19.54 8.96 30.22 9.19 16.56 1 34.42-1.79 47.35-12.99 19.29-14.17 31.26-35.87 38.86-58.12 4.64-15.12 10.11-30.02 13.63-45.47 2.33-10.08 6.35-19.64 11.28-28.71 5.05-8.96 5.68-20.01 2.23-29.64-5.27-15.49-14.7-29.74-16.14-46.38-2.35-11.87 3.56-23.93.14-35.69-2.26-8.04-8.95-13.47-14.09-19.63-10.25-10.79-17.75-24.16-29.78-33.24-10.96-8.71-24.89-12.69-38.65-14-11.73-1.3-23.72-4.82-35.47-1.82z"/></svg>