<svg viewBox="0 0 48 48" xmlns="http://www.w3.org/2000/svg"><path transform="scale(0.10666)" fill="#fff" d="M212.46 0h20.38c7.28 2.04 14.84 3.24 21.75 6.49 15.74 6.19 26.8 20.34 42.85 25.89 7.49 2.8 15.56 5.04 21.63 10.52 7.33 6.91 9.84 17.03 14.32 25.72 5.35 11.24 12.66 21.35 18.95 32.04 5.06 8.38 10.02 17.02 17.15 23.85 6.11 5.91 12.37 12.32 14.93 20.65 3.77 12.13-.17 24.64-4.34 36.08-4.82 13.74-3.44 28.48-3.64 42.76-.2 12.56.57 25.16 2.85 37.52.86 6.26 1.63 13.23-1.88 18.87-5.96 8.43-16.74 11.89-22.23 20.78-9.46 13.61-7.67 31.2-5.7 46.75 1.42 8.48-1.75 16.97-7.18 23.42-13.3 16.59-23.73 35.95-40.86 49.08-14.64 11.16-30.6 21.76-49.03 25.16-7.84 2.04-16.15 1.9-23.83 4.42h-22.42c-7.61-2.06-15.21-4.74-21.42-9.75-6.3-5.07-12.18-10.82-19.44-14.55-10.44-5.7-23.1-5.38-33.27-11.69-10.84-6.83-17.86-18.5-21.1-30.68-4.22-25.22-17.39-47.52-24.07-72.02-3.34-9.79-5.71-20.1-11.26-28.95-4.7-7.39-10.04-14.89-10.96-23.88-1.61-15.82.31-31.67 1.5-47.46.58-13.65-4.63-28.67 2.73-41.24 8.25-11.92 22.3-18.64 29.41-31.51 8.76-15.6 6.34-34.44 13.12-50.72 5.07-11.63 8.8-23.9 15.49-34.75 6.33-10.66 15.56-19.53 26.41-25.53C172.28 16.71 191.27 5.48 212.46 0m-3.33 62.03c-8.53 1.25-15.27 7.41-19.82 14.39-9.66 14.74-19.06 29.78-31.26 42.62-8.6 8.77-15.33 19.54-17.45 31.79-3.55 20.28-11.41 39.63-13.77 60.13-1.47 13.87 5.01 26.59 10.27 38.94 3.54 7.94 5.57 17.19 2.45 25.6-3.42 8.92-10.77 16.55-11.07 26.52-.97 12.3 5.82 23.81 14.42 32.07 7.52 8.12 17.46 13.25 26.29 19.7 11.58 7.93 20.84 18.69 32.23 26.83 13.71 9.48 31.51 9.03 47.18 5.84 14.55-3.45 29.49-8.87 40.05-19.91 9.79-10.24 13.5-24.27 17.22-37.53 3.89-14.47 9.67-28.32 14.69-42.41 4.57-14.17 8.48-28.54 12.89-42.77 2.19-7.72 4.48-15.67 3.81-23.78-2.16-28.68-29.36-48.1-30.78-77.05-1.02-9.58 3.71-19.13.81-28.57-1.77-5.52-6.23-9.55-10.47-13.25-10.5-7.93-21.74-14.82-32.37-22.57-15.66-11.85-35.6-18.91-55.32-16.59z"/></svg>