<svg viewBox="0 0 48 48" xmlns="http://www.w3.org/2000/svg"><path transform="scale(0.10666)" fill="#fff" d="M217.71 0h23.71c10.36 1.81 20.1 5.97 28.9 11.66 12.35 7.74 25.91 13.18 39.46 18.42 11.4 4.48 25.39 11.94 25.69 25.92-.49 12.16-8.87 23.39-5.33 35.79 5.48 18.01 22.3 28.87 31.27 44.8 5.64 9.51 3.81 21.18 1.18 31.34-3.1 11.72-2.91 24.26.75 35.83 3.4 12.67 9.78 24.83 9.54 38.24.6 17.52-9.45 32.96-11.58 50.05-1.69 10.73 1.4 21.35 1.98 32.04.81 17.78-7.96 36.72-24.19 45.05-9.2 5.09-21.3 7.17-26.86 17.04-5.83 10.19 2.99 22.1-2.99 32.23-5.57 9.04-16.18 12.96-25.83 16.03-19.5 5.92-39.34 10.7-59.13 15.56h-16.75c-20.35-3.92-38.72-14.27-55.62-25.88-11.82-7.99-21.35-18.7-32.19-27.87-8.32-7.26-17.99-13.28-24.44-22.44-7.12-10.88-6.16-24.41-6.12-36.81.39-11.21-3.47-22.2-9.8-31.35-6.95-10.94-16.68-21.83-15.84-35.68.6-10.77 9.39-18.03 15.28-26.18 9.09-12.03 11.31-28 8.99-42.61-2.36-13.08-11.91-23.51-14.07-36.64-1.45-10.52-.2-21.64 4.86-31.09 4.45-7.87 11.3-13.92 17.24-20.61 10.15-12.28 13.88-28.14 21.04-42.08 8.4-16.82 17.09-34.89 33.37-45.51 14.52-9.44 30.02-18.19 47.2-21.62 6.68-1.65 13.64-1.8 20.28-3.63m-12.26 62.67c-11.52 2.08-23.29 5.04-33.04 11.78-9.08 6.75-12.5 18.65-11.85 29.55.46 17-.23 35.45-10.96 49.58-6.03 8.56-14.17 15.6-19.01 25.01-5.02 9.51-7.26 20.14-9.71 30.52-3.49 16.05-6.82 33.1-2.23 49.27 2.7 9.8 10.45 16.69 16.96 24.01 15.76 14.93 24.44 36.21 26.77 57.55.37 10.86.26 23.06 7.87 31.75 8.64 9.83 22.15 12.88 34.53 14.88 17.16 2.55 36.59 4.28 51.6-6.22 11.79-9.91 17.96-25.28 31.25-33.66 9.18-6.81 21.02-8.99 29.88-16.19 6.4-5.09 6.7-14.01 5.52-21.44-3.23-20.78 2.31-41.38 3.47-62.08 2.52-16.53-.62-33.04-1.79-49.52-1.72-16.83 1.56-34.74-5.62-50.63-4.93-10.8-13.61-19.23-19.49-29.45-7.12-11.47-10.92-24.85-19.55-35.41-7.48-9.2-18.69-14.56-30.09-17.06-14.55-3.22-29.72-4.63-44.51-2.24z"/></svg>