<svg viewBox="0 0 48 48" xmlns="http://www.w3.org/2000/svg"><path transform="scale(0.10666)" fill="#fff" d="M203.11 0h17c14.32 3.35 29.11 4.29 43.44 7.65 14.38 3.24 26.75 11.76 38.35 20.48 14.35 11.31 27.29 25 35.19 41.65 7.69 15.67 8.97 33.39 14.52 49.79 3.91 12.8 10.33 24.66 14.34 37.43 4.31 13.4 7.58 27.11 10.98 40.76 2.92 14.64 5.13 30.68-1.61 44.63-5.6 10.95-14.21 20.5-17.17 32.7-3.93 17.15 3.27 34.7-.52 51.91-2.93 15.79-14.76 27.69-20.27 42.43-4.05 10.33-3.97 22.18-10.53 31.5-7.89 11.44-17.2 22.22-28.62 30.26-15.03 10.36-34.07 9.37-51.14 13.62-7.64 2.09-15.54 2.98-23.14 5.19h-21.2c-9.85-1.75-19.55-5.82-25.83-13.93-11.92-14.92-22.85-31.15-38.71-42.31-11.71-8.32-18.72-21.09-25.3-33.49-8.2-15.71-21.98-28.85-24.97-46.95-3.1-18.59-4.31-37.56-9.85-55.68-5.36-17.27.88-35.06-.6-52.62.22-12.51-4.24-24.59-3.89-37.07.87-9.1 9.4-14.16 14.75-20.62 13.1-15.03 16.76-35.21 21.92-53.84 4.25-14.74 13.39-27.45 23.49-38.76 10.48-11.8 20.21-24.41 32.37-34.58 11.31-8.39 23.39-16.09 37-20.15m19.12 62.08c-19.44 2.31-30.89 19.72-44.96 31.18-8.7 7.86-19.52 12.94-28.05 21-12.28 12.76-10.96 32.04-19.09 46.99-5.59 12.55-15.41 22.87-19.51 36.12-3.41 10.16-2.78 21.31.3 31.47 2.82 8.35 6.59 16.51 7.51 25.37 1.83 12.02-2.54 23.79-2.01 35.79-.33 10.23 3.45 20.6 10.54 28.02 8.34 9.34 20.87 13.5 29.18 22.89 8.77 9.89 15.81 21.4 26.22 29.75 8.29 6.79 17.12 13.59 27.42 16.9 10.18 2.93 20.31-1.66 29.92-4.62 9.78-3.54 20.33-4.82 29.75-9.36 10.05-5.14 14.5-16.22 22.43-23.7 7.44-7.93 16.45-14.56 22.07-24.04 4.87-7.97 5.14-18.43.97-26.74-4.41-9.56-9.52-19.31-9.63-30.09-.99-16.27 7.92-31.46 19.6-42.13 6.76-6.3 14.14-13.89 13.71-23.87.44-14.46-10.4-25.33-19.76-34.91-9.02-9.02-11.45-21.89-15.1-33.59-5.46-16.37-24.09-22.8-30.85-38.43-4.67-9.58-3.74-22.85-14.04-28.9-11.07-5.91-24.38-6.36-36.62-5.1z"/></svg>