<svg viewBox="0 0 48 48" xmlns="http://www.w3.org/2000/svg"><path transform="scale(0.10666)" fill="#fff" d="M221.25 0h12.61c14.94 2.91 28.98 8.92 43.28 13.92 14.03 5.35 28.4 11.07 39.66 21.33 8.7 8.16 14.46 18.79 22.25 27.74 7.13 8.85 16.54 15.96 21.77 26.27 9.04 17.43 1.98 37.78 8.02 55.99 3.6 10.51 3.45 22.13-1.55 32.17-7.53 15.75-9.54 33.93-5.01 50.84 1.76 10.61 7.25 21.07 4.72 32.02-3.72 13.18-15.4 23.02-16.84 37.04-1.97 15.97 11.6 28.84 10.43 44.69-.33 7.03-4.12 13.63-9.65 17.9-10.86 8.46-25.8 10.33-35.4 20.65-8.59 8.38-12.09 20.1-17.38 30.53-7.6 14.36-22.63 22.33-36.55 29.43-9.11 4.95-19.21 7.54-29.33 9.48h-17.47c-7.78-1.45-15.77-2.57-23.03-5.88-14.36-6.19-24.65-19.03-39.34-24.65-10.62-4.73-23.91-5.68-31.5-15.48-6.43-9.22-4.23-21.13-6.09-31.62-4.61-22.78-16.61-43.04-24.54-64.65-4.23-10.73-2.19-22.47-4.71-33.51-2.38-9.41-11.49-14.62-15.74-23-7.19-12.87-4.62-28.15-3.78-42.16 1.71-14.85-2.54-30.37 3.16-44.67 7.04-16.21 20.12-28.54 31.34-41.83 10.04-11.78 16.79-26.15 19.94-41.28 3.67-17.25 10.15-34.42 22.11-47.68 7.17-7.3 17.19-10.45 26.69-13.45C187.16 14.75 202.8 3.58 221.25 0m-16.97 62.04c-12.42 1.86-22.76 10.5-29.41 20.8-8.37 12.99-12.65 28.01-18.96 42.01-5.61 12.11-9.91 24.89-11.33 38.22-1.86 17.46-14.29 32.01-14.43 49.82 1.28 18.7 10.59 36.18 9.48 55.19-.02 15.92-14.95 28.6-11.12 44.98 3.64 24.51 24.46 40.17 40.54 56.88 9.91 10.93 23.89 18.86 38.96 18.61 13.52-.61 27.36-2.19 39.93-7.51 17.36-8.15 27.69-25.11 40.44-38.62 6.21-7.19 13.19-14.13 16.85-23.07 3.46-8.24 3.59-17.33 6.18-25.81 4.01-15.37 18.36-25.82 20.94-41.72 1.78-16.64-2.43-33.16-6.92-49.05-4.61-16.78-20.36-27.96-23.72-45.23-2.38-11.22 2.21-22.13 6.79-32.11 3.42-7.12 3.15-16.43-2.64-22.25-6.96-6.65-15.69-11-23.45-16.61-8.16-5.46-15.58-12.14-24.46-16.45-8.91-4.71-19.13-5.66-28.93-7.17-8.22-.71-16.51-2.4-24.74-.91z"/></svg>