<svg viewBox="0 0 48 48" xmlns="http://www.w3.org/2000/svg"><path transform="scale(0.10666)" fill="#fff" d="M202.74 0h14.62c21.29 6.04 44.9 3.89 64.55 15.24 15.71 8.64 29.5 20.24 43.01 31.9 10.25 8.89 18.06 20.51 22.57 33.3 4.83 13.76 5.87 28.42 9.28 42.53 3.24 15.28 11.02 29.02 15.6 43.87 5.7 19.04 11.8 39.07 8.28 59.11-3.06 18.84-15.07 35.08-16.56 54.29-1.01 13.04 1.42 26.48-2.7 39.17-5.26 16.78-19.39 28.65-26.18 44.67-3.74 7.91-4.34 16.73-6.09 25.17-2.44 10.64-10.27 18.7-17.16 26.71-9.38 10.68-20.96 20.32-35.16 23.46-19.07 4.34-38.76 5.49-57.67 10.58H200.4c-18.41-2.59-30.17-17.75-41.65-30.73-7.43-8.87-17.71-15.04-24.18-24.74-8.9-14.41-14.25-30.9-24.77-44.33-8.27-10.93-19.55-20.82-21.71-35.08-1.92-14.45.42-29.16-1.35-43.63-1-8.49-3.99-16.54-6.69-24.59-5.03-14.47-1.97-29.95-2.66-44.9.64-15.23-6.13-32.29 3.91-45.79 14.81-19.01 23.03-41.93 30.32-64.61 4.48-14.03 10.18-28.52 21.81-38.21 10.4-8.53 20.92-16.96 30.06-26.89 11.85-10.38 23.6-22.25 39.25-26.5m25.68 61.56c-7.73.15-15.57 1.72-22.35 5.55-12.21 7.1-19.33 20.4-31.85 27.07-10.49 6.05-23.83 7.22-32.15 16.79-11 13.11-13.97 31.44-11.61 48.02.19 5.68 1.57 11.37.53 17.03-1.12 14.88-12.94 26.78-12.52 41.97-.71 12.48 4.06 24.52 3.29 37.01.9 14.45-4.14 28.8-1.33 43.19 2.41 13.53 13.71 22.44 23.72 30.62 11.04 8.3 16.58 21.39 25.37 31.67 8.37 10.28 19.24 18.44 31.3 23.91 8.33 4.28 18.16 5.29 27.17 2.68 18.22-6.57 39.48-9.85 52.54-25.54 11.8-12.95 27.98-21.33 38.28-35.72 4.51-6.27 8.63-13.92 7.08-21.9-2.03-11.81-14.44-18.06-17.01-29.69-2.9-11.51 4.23-22.51 12.57-29.78 11.02-10.64 24.34-23.66 21.45-40.51-1.8-16.27-18.01-24.63-24.06-38.85-8.12-15.01-4.33-34.48-16.05-47.8-6.88-7.08-16.18-12.04-20.93-21.06-5.7-9.35-6.69-22.18-16.83-28.29-10.91-6.53-24.28-6.48-36.61-6.37z"/></svg>