<svg viewBox="0 0 48 48" xmlns="http://www.w3.org/2000/svg"><path transform="scale(0.10666)" fill="#fff" d="M221.21 0h11.77c13.78 1.91 26.43 7.94 39.5 12.34 12.77 5.06 26.42 8.06 38.5 14.75 11.24 6.18 18.07 17.48 23.16 28.84 6.64 15.28 19.75 26.65 25.93 42.16 3.52 8.79 5.11 18.17 7.25 27.35 2.91 12 9.98 22.94 10.12 35.59.11 10.41-5.89 19.29-10 28.43-6.07 14.24-3.84 30.14-1.03 44.86 1.82 10.08 5.45 20.53 2.41 30.74-4.14 12.01-14.78 21.05-16.71 33.96-3.58 16.65 9.67 33.14 2.25 49.41-6.25 12.57-21.46 15.03-31.56 23.33-11.6 8.99-15.83 23.68-21.66 36.48-5.35 11.84-16.42 19.65-27.74 25.22A174.264 174.264 0 0 1 224.48 450h-15.35c-7.78-1.04-15.54-2.91-22.54-6.54-11.74-6.23-20.86-16.41-32.93-22.09-9.91-5.21-21.99-7.64-29.21-16.86-6.68-8.72-5.81-20.25-7.51-30.53-4.06-21.5-13.79-41.28-22.91-60.96-5.08-10.6-5.3-22.48-7.11-33.85-2.27-12.16-15.57-17.01-20.36-27.76-6.88-13.87-3.42-29.64-2.99-44.4.63-14.14-4.29-29.04 1.8-42.55 6.19-12.57 18.06-20.69 27.52-30.58 13.56-12.67 23.23-29.07 29.7-46.35 5.18-17 5.17-36.06 15.86-51.02 6.06-9.15 17.06-12.38 27.09-15.05C184.92 16.44 201.38 3.68 221.21 0m-20.84 62.67c-15.74 3.95-24.72 18.93-31.25 32.59-6.86 14.8-13.54 29.74-18.94 45.15-3.43 9.6-2.78 19.98-5.29 29.78-2.99 11.56-11.71 20.68-14.33 32.38-2.22 8.19-.24 16.73 2.58 24.51 5.15 14.8 10.12 30.65 7.21 46.44-1.74 11.59-10.4 21.37-9.52 33.49 1.25 18.98 13.59 34.71 26.31 47.88 10.64 10.92 19.93 24.44 34.74 30.06 12.31 5.23 26.05 3.69 38.89 1.68 8.98-1.66 18.23-3.73 25.83-9.05 7.91-5.29 14.04-12.7 19.9-20.08 7.92-10.45 16.33-20.59 23.25-31.75 6-9.81 7.09-21.46 10.61-32.19 4.59-13.91 17.77-22.8 22.3-36.74 5.34-16.3.47-33.65-3.77-49.63-4.56-18.59-23.84-28.78-28.33-47.37-3-10.64.93-21.73 6.55-30.78 3.61-6.02 7.74-13.19 5.02-20.37-3.13-8.87-12.54-12.53-20.1-16.76-17.41-8.43-31.56-23.73-51.37-26.75-13.3-1.64-26.93-5.58-40.29-2.49z"/></svg>