<svg viewBox="0 0 48 48" xmlns="http://www.w3.org/2000/svg"><path transform="scale(0.10666)" fill="#fff" d="M206.1 0h19.47c20.52 3.88 42.21 5.8 60.34 17.17 13.13 7.69 26.22 16.07 36.12 27.83 14.5 18.7 17.06 43.01 23.79 64.98 4.3 14.05 12.75 26.41 16.76 40.56 2.69 9.19 4.52 18.6 6.74 27.9 4.05 17.56 10.26 35.39 7.75 53.64-2.32 16.15-18.34 25.33-22.53 40.71-4.67 14.59.74 29.65 2.12 44.31 1.82 10.7-.01 21.96-5.21 31.5-7.04 13.19-16.56 25.14-21.35 39.47-6.22 18.56-18.56 35.58-35.77 45.3-14.35 7.35-30.91 7.21-46.18 11.49-7.33 2.16-14.91 3.17-22.27 5.14h-22.73c-6.47-1.49-13.23-2.64-18.95-6.23-8.11-4.72-13.09-12.94-19.08-19.87-9.47-11.82-20.37-22.36-31.92-32.14-9.47-7.86-16.06-18.51-21.33-29.5-6.2-12.62-14.42-24.13-20.3-36.91-6.6-14.89-8.2-31.29-12.86-46.79-2.78-10.5-7.03-21.1-5.86-32.16 1.69-12.12 5.39-24.05 4.84-36.4.55-12.5-3.15-24.65-3.55-37.06-.36-8.26 6.32-13.92 11.76-19.06 7.7-6.75 13.76-15.37 17.11-25.07 4.64-11.97 4.92-24.95 7.75-37.35 2.83-11.88 10.45-21.66 17.03-31.66 7.61-11.21 14.38-23.26 24.37-32.61C167 13.07 186.56 5.15 206.1 0m19.33 61.52c-18.31.22-32.11 13.61-43.88 26.04-8.93 9.07-18.46 17.73-25.73 28.26-6.11 9.03-7.46 20.15-12.06 29.88-7.35 16.13-22.6 26.94-30.06 43-3.92 7.43-5.63 15.93-5.22 24.31-.55 17.47 11.82 32.43 10.79 49.97-.79 10.01-3.76 19.91-2.55 30.01 1.06 11.39 6.82 22.35 15.77 29.51 6.98 6.02 15.76 10.05 21.28 17.68 5.36 6.46 9.33 13.92 14.67 20.38 9.36 12.06 22.42 21.12 36.73 26.27 12.82 4.45 25.85-1.13 38.19-4.47 9.16-3.06 19.19-4.07 27.37-9.57 8.23-6.28 12.56-16.04 19.64-23.4 7.27-8.73 17.84-15.32 21.56-26.59 3.61-11.26-2.64-22.21-4.51-33.17-5.09-19.73-4.12-42.08 7.89-59.23 5.61-9.97 17.58-16.3 19.04-28.44 1.57-16.16-8.95-29.6-16.23-43.01-5.73-9.37-8.86-20.07-14.69-29.38-8.54-13.47-25.53-18.55-33.54-32.49-5.85-8.52-5.43-20.37-13.34-27.57-8.5-7.19-20.45-8.06-31.12-7.99z"/></svg>