<svg viewBox="0 0 48 48" xmlns="http://www.w3.org/2000/svg"><path transform="scale(0.10666)" fill="#fff" d="M217.4 0h21.81c14.89 1.16 27.28 9.83 39.88 16.88 14.19 8.15 30.5 11.9 44.32 20.68 5.99 3.78 11.2 9.95 11.31 17.34.97 11.77-7.6 22.62-4.25 34.44 5.57 20.52 26.81 31.55 33.94 51.23 5.05 14.73-5.13 28.72-4.83 43.42-.25 21.37 14.24 39.65 13.97 61.01.18 16.8-8.3 31.85-11.46 48.01-2.44 13.35 2.11 26.72.55 40.12-1.67 14.96-10.29 29.61-24.07 36.37-9.01 4.93-20.95 7.19-25.91 17.21-5.22 9.99 3.6 21.28-1.86 31.21-4.66 8.67-14.64 12.36-23.4 15.49-21.51 6.25-43.26 11.68-65.12 16.59h-14.06c-14.66-2.39-27.97-9.27-40.71-16.58-17.63-9.25-32.66-22.31-46.91-36.03-9.13-8.88-21.4-14.95-27.6-26.53-7.63-14.19-2.77-30.71-5.03-45.91-1.86-12.65-9.82-23-16.29-33.62-4.08-7.05-7.81-15.36-5.71-23.65 2.96-10.74 12.54-17.66 17.26-27.49 6.3-12.97 8.63-28.28 4.85-42.33-2.79-10.15-10-18.26-13.63-28.05-4.15-11.73-4.04-25.05.81-36.55 6.23-14.6 21.39-22.62 28.28-36.82 9.86-19.44 17.75-40.23 31.68-57.29 7.3-8.99 17.58-14.71 27.34-20.63C178.87 7.5 198.04 2.26 217.4 0m-1.97 61.6c-14.44 1.15-29.15 4.65-41.61 12.23-9.74 6.27-13.95 18.02-14.12 29.18-.21 13.35-.24 27.26-5.97 39.63-4.72 10.67-13.28 18.86-19.6 28.51-5.54 8.23-7.98 17.99-10.56 27.44-4.55 21.77-12.83 46.31-1.52 67.34 5.73 9.97 15.9 16.15 22.72 25.24 11.61 15.49 17.92 34.62 19.15 53.85.78 7.94.87 16.55 5.81 23.27 7.69 10.82 21.12 15.23 33.6 17.63 15.6 2.91 32.52 4.66 47.44-2.01 12.91-6.22 17.97-20.73 28.2-29.95 8.1-9.04 19.68-13.42 30.36-18.52 5.68-2.52 11.49-6.67 12.9-13.1 2.24-11.03-1.43-22.27.12-33.44 2.51-18.94 5.85-37.84 6.78-56.94-1.05-15.73-5.04-31.12-5.66-46.9-.57-10.83.47-21.86-2.09-32.5-3.91-15.17-16.64-25.61-23.33-39.39-7.01-13.52-11.53-29.48-24.33-38.92-16.97-11.42-38.46-12.63-58.29-12.65z"/></svg>