<svg viewBox="0 0 529 332" xmlns="http://www.w3.org/2000/svg" xmlns:serif="http://www.serif.com/" fill-rule="evenodd" clip-rule="evenodd" stroke-linejoin="round" stroke-miterlimit="1.414"><path d="M172.82 267.912c.88.073 1.021.166 1.39.334 3.135 1.43 1.96 6.622 1.282 10.753-.663 4.12-1.742 9.019 2.032 9.528 3.96.535 6.026-6.277 6.223-10.988-.299-2.005-.25-4.012-.107-6.01 0 0 .646-2.907 2.756-3.487 2.2-.605 4.651 1.162 4.746 3.616 0 1.745.06 3.49.107 5.233 0 0 .282 2.63.328 4.762.289 13.105-.773 26.224-5.167 38.378-.324.872-.449 1.104-.723 1.625-4.293 8.152-16.425 13.17-23.1 6.848-3.637-3.443-4.614-10.9-.085-11.804 2.342-.467 4.344 1.682 4.503 4.233.134 1.807 1.47 3.051 4.066 2.614 4.027-.678 7.471-3.58 8.8-7.543 2.284-6.816 3.478-13.992 3.964-21.191 0 0 .878-.701-.816.162-5.147 2.618-12.493.507-14.701-5.045-2.255-5.67.546-12.48.583-18.296 0 0 .83-3.742 3.92-3.722zm197.942-38.419c4.388.068 8.29 3.257 10.54 7.185 4.028-5.309 13.21-6.835 18.934-5.6 4.726 1.02 7.779 7.048 9.842 11.066 6.309 12.322 3.293 27.531 3.18 38.965-.09 5.933-2.535 11.63-2.557 17.592 0 0-.225 1.842-1.216 2.753-1.928 1.766-5.753.72-6.233-2.15-.045-.272-.038-.342-.053-.617v-2.047c.053-1.202.233-1.472.293-1.902.735-5.287 2.183-10.357 2.288-15.782.262-11.567 2.64-23.738-2.438-33.506-1.343-2.58-2.791-5.303-4.877-7.036 0 0-2.858-.24-4.943.007-3.128.373-6.084 1.56-7.374 5.042-.488 1.328-.833 2.708-1.095 4.1 0 0 .247 2.04.24 3.587-.008 1.657-.165 3.308-.18 4.964l-.008 1.945c-.135 1.015-.3 1.28-.615 1.759-1.53 2.312-5.836 1.866-6.706-.963-.286-.915-.203-1.124-.263-1.579-.375-3.1-.533-6.234-.12-9.333 0 0-.953-6.8-4.463-9.967-1.343-1.21-3.526-1.32-5.214.315-6.001 5.81-7.33 15.437-7.742 24.56-.33 7.42.203 14.87 1.073 22.222.428 3.318 1.98 6.447 2.055 9.825 0 0-.42 3.22-2.813 3.839-2.363.609-4.486-1.507-4.718-4.15-.323-3.293-1.733-6.318-2.116-9.89-1.628-15.332-2.715-31.326 4.471-45.305 2.566-4.987 6.407-9.682 12.415-9.895.135-.003.278-.005.413-.004zm-311.083 5.706c2.003.019 3.902.6 5.712 1.585 0 0 3.168.96 3.33 3.523.137 2.17-1.83 4.18-4.211 3.966-2.051-.184-3.591-1.773-5.885-1.514-12.916 1.455-19.745 20.469-19.785 33.902-.002.49-.005.979-.006 1.469 0 .548 0 1.096.01 1.644.008.446.022.893.046 1.338.155 2.884.894 5.785 3.36 7.897 4.099 3.511 9.733 5.322 15.059 4.749 1.65-.178 3.278-.686 4.868-1.254 0 0 1.63-1.132 3.25-.75 1.536.361 2.749 1.774 2.878 3.34.132 1.592.052.796-.213 1.61 0 0-.955 1.9-2.932 2.69-9.59 3.83-20.927 1.62-28.356-5.188-4.774-4.376-5.493-11.412-5.464-18.337l.01-.594c.315-11.36 4.156-22.958 11.013-31.227 4.109-4.956 10.145-8.605 16.751-8.842.189-.005.376-.008.565-.007zm98.152-17.635a3.95 3.95 0 0 1 3.424 3.737c0 20.704 1.978 40.724.027 60.796-.287 3.03-.661 6.175.238 8.996l.637 1.672c1.312 1.944 1.435 4.359-.363 6.413-2.029 2.32-6.516.946-7.19-2.966-.203-1.179-.268-2.955-.268-2.955a29.586 29.586 0 0 1-.107-.34c-1.732-5.885-.173-12.218.133-18.576.569-11.81-.15-23.722-.2-35.415-.035-4.185-.39-8.337-.409-12.497v-5.128s.873-3.877 4.078-3.737zm-24.847 43.094c-.625-12.602-1.289-25.195-1.337-37.8 0 0 .181-5.052 4.073-4.884a3.964 3.964 0 0 1 3.427 3.734c.009 12.828.687 25.69 1.328 38.596 1.762-.093 3.53-.17 5.3-.175 0 0 5.254 1.371 3.75 5.14-1.07 2.68-4.986 2.408-8.69 2.469.406 8.69.732 17.403.766 26.141 0 0-.22 4.57-3.419 4.852-1.847.163-3.698-1.247-4.023-3.082-.248-1.4-.06-1.923-.064-2.84-.058-8.256-.37-16.5-.752-24.738-2.315.085-4.637.098-6.985-.115-2.636-.24-5.785-2.087-5.311-5.074.287-1.813 2.02-3.229 3.938-3.155 1.514.13 2.033.757 2.033.757 1.968.186 3.959.218 5.966.174zm73.388 7.73c5.35.13 9.712 5.6 10.885 10.08.555 2.119.51 4.328.495 6.499-.015.903-.03.979-.06 1.41-.218 2.787-1.15 5.544-1.167 8.233 0 0-.605 3.022-2.788 3.6-2.456.653-4.86-1.55-4.686-4.551.258-4.455 2.04-8.889.961-13.239-.685-2.765-2.847-5.103-5.327-4.016-.414.171-.986.088-1.135.639-1.162 4.407.177 9.03.62 13.039 0 0 2.272 4.771-1.73 6.034-1.799.567-3.868-.34-4.847-2.059-1.303-2.288-.774-5.13-1.369-7.52-1.641-6.765-.606-15.447 4.924-16.892 1.12-.294.697-.194.859-.27 0 0 2.241-.928 4.028-.986.168-.002.168-.002.337-.002zm232.985-3.642c.637.044.81.107 1.148.233 2.31.862 2.723 4.09 3.135 6.774.803 5.137-.465 10.883 2.258 15.44.435.723.848.574 1.268.668 2.543.562 3.9 4.29 1.823 6.336-1.636 1.607-4.569 1.222-6.662-.095 0 0-.69.891-1.44 1.524-5.589 4.705-15.28 2.257-18.161-5.701-3.136-8.678 1.125-19.883 8.589-23.5 1.658-.807 3.578-1.088 5.424-.83 0 0 1.493-.868 2.618-.849zm25.055-36.767c.248 1.43.51 3.315.54 5.101.06 8.349 0 16.703.195 25.06 2.37-.962 4.951-1.62 7.322-.537 7.351 3.36 8.477 17.373-.833 20.222-.795.242-1.935.462-1.935.462 3.758 3.543 7.366 6.976 10.847 11.31 2.183 2.7 1.74 1.81 2.018 2.162 1.628 2.066.27 5.8-2.61 6.059-1.83.162-.578.383-2.153-.438-2.694-1.404-4.179-4.629-6.377-7.203-1.688-1.943-3.788-3.588-5.731-5.373l-.233-.217c0 2.917.023 5.814.45 8.806 0 0 .09 3-2.025 4.049-2.873 1.424-5.536-1.712-6.241-6.133-.713-4.452-1.14-8.956-1.53-13.455-.39-4.477-.368-9.12 1.642-13.134l.03-.06c-.232-10.524-.165-21.016-.337-31.505-.053-1.57-.233-3.14-.413-4.704l-.052-1.542c.105-.541-.616.035.742-1.71 1.178-1.506 1.74-1.448 3.12-1.445.421.035.594-.006 1.441.354 0 0 .885.31 1.65 1.512 0 0 .233.96.473 2.358 0 .017-.007.036-.007.048l.007-.047v-.001c.008-.049.015-.093 0 .001zm27.786 35.751c.645.069.825.14 1.163.282 2.88 1.214 2.288 5.812 2.43 9.639.158 4.075.368 8.154.375 12.24v8.19c-.09 3.31-5.52 5.18-7.164 1.55-.21-.464-.315-.732-.337-1.55 0-8.821-.48-17.712-.51-26.313 0 0 .547-4.22 4.043-4.038zm-407.004 3.771c.589.04.75.093 1.065.201 1.158.399 2.221 1.975 2.221 1.975.566.169.711.257.994.433 2.599 1.614 1.779 6.108 1.77 10.056-.014 2.914-.55 6.092.6 8.527.45.955 2.396.919 2.396.919 2.833.216 4.654 4.055 2.543 6.31-2.411 2.573-7.77 1.021-10.312-1.86-.642-.73-.92-2.158-1.54-1.801-5.099 2.852-12.598-.622-13.95-6.73-1.849-8.346 5.22-17.858 13.905-18.032l.308.002zm23.776-2.455c.699.053.906.134 1.29.298 3.107 1.33 2.312 6.56 2.301 10.646-.025 4.714-.827 9.448-.845 14.099v2.859c-.082 3.234-5.128 5.247-7.03 1.82a3.767 3.767 0 0 1-.428-1.252c-.488-3.186.38-7.537.633-11.62.249-4.016.162-8.044.145-12.07 0 0-.024-4.876 3.934-4.78zm180.28 2.27c3.315.06 6.33 2.746 7.944 5.767 2.805 5.275 1.673 11.81 2.055 17.219 0 0 .945 2.956-.697 4.53-.9.857-2.634 1.054-2.866 1.036-1.268-.101-2.408-1.034-2.61-1.259-2.761-3.051-1.26-8.195-1.283-11.112a32.591 32.591 0 0 0-.06-1.712c-.023-.44-.06-.88-.113-1.318-.247-2.175-.855-4.49-2.67-5.64 0 0-4.021-.636-4.749 1.844-1.05 3.63.435 8.225 2.55 10.36 0 0 1.898 3.302.03 5.24-3.495 3.622-10.322-4.028-10.337-13.49-.007-5.1 3.181-10.66 8.875-11.229 1.342-.134 2.46-.249 3.93-.237zm-25.438-2.544c2.273.105 4.223 1.872 4.366 4.189 0 0 1.395 1.483 1.695 2.996.84 4.268 1.305 8.684 1.11 12.57 0 0-.382.06.555.203 2.656.401 4.134 4.19 2.176 6.276-1.298 1.387-3.571 1.386-5.566.776 0 0-1.56 1.496-3.181 2.153-7.224 2.921-16.676-3.102-16.894-11.139-.225-8.026 5.956-15.355 13.353-17.65.773-.24 1.185-.392 2.386-.374zm50.508-30.781c2.055.298 3.316 1.673 3.353 4.585.21 12.475 3.961 24.714 4.081 37.39.045 4.43 1.035 9.12-.885 13.13-2.566 5.362-11.515 6.198-15.468.86-4.681-6.319-3.099-16.855 1.995-20.62 1.823-1.35 3.93-2.411 6.166-2.728-1.177-9.495-3.353-18.828-3.398-28.566-.007-1.71 1.05-4.064 3.878-4.07l.278.019zm120.633 39.068c-.622.138-.945.51-1.32.853-4.448 4.019-6.414 12.202-2.25 15.87 1.687 1.485 4.86 1.051 5.288-1.14.39-1.975.3-4.028.195-6.066 0 0-.315-4.347-.9-8.07-.105-.742.09-.276-.413-.768-.255-.249-.51-.696-.6-.679zm45.265 17.319c.773.158.33.068.33.068-1.058-.223-.48-.086-.33-.068zm-217.952-17.484c-1.125.555-2.693 1.556-2.693 1.556-3.36 3.467-6.294 9.23-1.56 11.816 1.673.915 3.916 1.467 4.83.065 0 0-.15-.763-.262-1.322-.51-2.583-.292-5.238-.262-7.846 0 0 .337-4.461-.053-4.27zm51.416 1.463c-.735.323-1.748.954-1.748.954-1.725 2.994-2.168 7.21-.712 9.853.592 1.088 2.895.662 2.895.662 1.358-3.049.203-7.585.113-10.942l-.008-.368s-.442-.202-.54-.159zm-229.96.861c-3.906 1.298-7.127 7.053-4.97 9.663 1.469 1.777 4.257-.195 4.554-4.291.253-3.465.416-3.057.438-4.803 0 0 .082-.602-.023-.569zm385.776-10.682c-1.515.54-3.045 1.088-4.133 2.249 0 0 .015 2.018.045 4.235 0 0-.803.56.968.234 1.695-.3 3.863-.213 4.305-2.34.346-1.618-.037-3.632-1.147-4.384 0 0-.023 0-.038.006zm-158.104 6.492l.008.153c0-.122-.008-.27-.008-.153zm-197.603-11.175c-.01.418-.108.876-.317 1.377-.634 1.518-2.259 2.497-3.949 2.447-3.805-.113-6.516-3.461-9.599-5.415-1.004-.648-1.226-.827-1.794-1.272-6.57-5.145-9.92-14.716-6.319-22.158 1.77-3.654 5.93-5.859 10.087-5.828 2.511.04 5.105.868 7.186 2.35.57-.397 1.162-.74 1.75-1.016a14.001 14.001 0 0 1 5.667-1.3h.318c6.208.104 11.876 5.49 10.603 12.417-1.022 5.557-5.459 9.679-8.849 13.834-1.93 2.288-2.303 2.338-3.116 3.074-.553.5-1.108.998-1.668 1.49zm374.979-37.535c3.203-3.88 8.462-5.951 13.563-5.927 5.033.063 10 3.267 11.23 8.33 2.055 8.48-5.972 16.826-11.718 23.414-3.045 3.366-7.216 7.512-10.69 6.823a4.09 4.09 0 0 1-4.388-1.187l-.24-.271c-4.531-4.894-10.457-8.662-13.48-14.634-2.349-4.657-2.799-10.424-.72-15.205 1.372-3.168 4.83-5.166 8.371-5.156 3.076.054 6.084 1.408 8.072 3.813zm-383.96 15.005c-1.918-1.557-5.738-1.214-6.548 1.652-1.86 6.574 4.66 12.577 9.792 15.932 1.794-1.46 3.487-2.861 4.927-4.63.056-.07.113-.138.17-.207 2.633-3.165 6.068-6.143 6.864-9.817.6-2.772-3.532-4.825-6.672-2.744-.047.03-.092.067-.136.108.052.292.09.59.115.894.245 3.054-3.508 5.862-6.097 3.709-1.331-.533-2.414-1.718-2.51-3.436a6.125 6.125 0 0 1 .095-1.46zm385.753 9.41a4.187 4.187 0 0 1 1.74.034c4.839-3.75 9.302-8.534 12.408-13.722 1.493-2.493 2.805-5.976.802-8.08-1.402-1.48-3.758-1.205-5.506-.823-3.21.703-5.866 2.617-6.946 6.328 0 0 1.388 5.727-3.293 5.7-1.966-.012-3.811-1.48-4.276-3.573-.053-.27-.098-.542-.128-.814-.217-.697-.307-1.373-.495-1.697-1.29-2.17-2.888-5.466-5.356-3.825-.57.38-.593 1.328-.743 2.184-.99 5.595 3.353 10.821 7.27 14.346 1.447 1.303 3.12 2.612 4.523 3.941z" fill="#999" fill-rule="nonzero" serif:id="caitlyn and maki"/><path d="M696.135 108.672c.878.071 1.118.164 1.58.347 1.863.742 3.084 2.239 3.15 4.644.002 8.793.069 17.509 1.376 26.3.452 3.145.715 6.267 1.09 9.444.173 1.468.662-.142.186 2.819-.141.878-1.024 2.289-1.024 2.289-2.025 2.421-2.338 1.735-3.308 1.854-2.415.297-2.98-.301-4.182-1.463l-.867-1.195c-.316-.633-.128.108-.435-1.143-1.24-5.068-1.425-10.672-1.986-15.725-.852-7.676-.848-15.435-.85-23.177 0 0 .78-4.886 4.999-5.001l.271.007zM524.052 50c3.598.322 5.854 4.465 3.983 7.69-.709 1.009-.021 11.698-.734 19.696-1.033 11.96-.343 24.033 0 35.973 0 0-.349.784.403.406 5.352-2.634 11.394-3.377 16.664.419 12.172 8.766 10.32 32.12-4.004 40.428-5.597 3.246-13.6 1.278-18.082-3.19 0 0-5.318-.739-5.505-5.012 0-8.329-2.158-16.762.682-23.126.034-15.833-1.56-31.449-.05-47.546.592-6.304-.126-12.65.683-19.138.349-2.792 1.662-5.998 4.864-6.537.361-.061.729-.064 1.096-.063zm-56.219 4.811a5.261 5.261 0 0 1 4.368 4.957c.013 27.239.772 54.565.681 82.051-.03 3.204-.351 6.405-.679 9.603 0 0-1.007 4.053-4.005 4.663-2.612.532-5.475-1.409-5.926-4.059-.063-.37-.056-.466-.071-.84v-2.729c.059-1.409.059-1.102.419-1.999.714-8.67.274-17.663.261-26.54-.049-19.741-.65-39.469-.68-59.172 0 0-.128-2.85 1.388-4.434 1.072-1.119 2.624-1.639 4.244-1.501zm265.26 56.375c3.852.059 8.544 2.618 7.128 7.329-.866 2.884-4.653 4.521-7.417 2.813-.944-.582-1.903-.014-2.914.14-2.101.321-4.204.74-6.175 1.503 0 0-4.045 3.554-4.621 7.023-.974 5.87 1.644 12.948 3.245 16.92 0 0 2.178 1.562 2.383 3.82.36 3.973-5.02 7.308-8.983 3.942-3.985-3.387-4.19-9.437-5.212-13.61-1.386-5.759-2.384-11.963.116-17.121 1.41-2.909 3.554-5.387 5.74-7.809 1.132-1.254 9.327-4.987 16.71-4.95zm-131.586 18.408c-.731-4.846-1.023-9.687.294-14.364 2.584-9.172 14.012-15.302 22.174-15.439.893-.015 1.786-.038 2.681-.038.609.003 1.217.013 1.824.042.405.02.809.046 1.213.084 3.475.319 7.588 1.895 8.308 5.832.781 4.269-5.196 8.938-8.872 4.163-6.504-.783-12.851 1.311-16.81 6.481-1.878 2.453-1.608 6.296-1.056 10.216 5.074-.816 10.038-2.294 15.197-2.212 4.903.275 7.476 9.721-.586 10.005-4.383.185-8.711 1.283-13.082 2.026.625 3.591 1.368 7.171 2.381 10.727.276.951.7 1.328.886 1.944.335 1.113.44 1.783-.123 3.42 0 0-.065.484-.859 1.488l-1.439 1.19c-1.267.662-.756.423-1.766.581l-1.772-.08c-1.573-.398-.942-.207-1.87-.852l-.538-.454c-.22-.224-.048.102-.665-.783-2.939-4.217-3.123-10.308-3.976-15.262a290.23 290.23 0 0 0-.548-3.007c-1.153-.975-2.033-2.401-1.548-4.398a4.44 4.44 0 0 1 .552-1.31zm-197.105-43.11c-.05-7.48-.174-14.958-.188-22.423 0 0-.109-2.711 1.318-4.264 1.021-1.11 2.509-1.663 4.091-1.599 2.506.311 4.483 2.431 4.59 4.98.005 8.071.113 16.091.138 24.102 1.997.135 3.963.23 5.794.236 0 0 4.571.9 4.955 4.465.348 3.233-2.688 5.632-6.606 5.509a66.21 66.21 0 0 1-4.168-.278c-.076 8.036-.313 16.082-.899 24.181-.419 6.049-.573 12.125-.578 18.197l.025 9.237c.129 2.99-.028 2.323-.185 2.93-.883 3.409-5.994 4.883-8.524 2.128-.882-.961-1.316-2.154-1.316-3.59 0 0-1.141-2.981 0-5.035 0-14.23 1.179-28.493 1.473-42.488.045-2.178.073-4.357.088-6.537a47.802 47.802 0 0 0-2.449-.082c-3.51-.025-7.664 1.002-10.239-2.317-2.273-2.929-.634-8.232 3.807-8.366l.221.003c1.156.067 2.247.844 3.051.823 1.533-.056 3.46.035 5.601.188zm413 20.604c.481.004.961.013 1.441.034.417.019.833.044 1.248.081 2.443.217 5.057.84 6.397 3.358.474.89.193.296.424 1.131 0 0 .494 3.147-1.422 4.94-1.619 1.516-4.264 1.756-6.132.547-1.742-.179-4.281-.025-4.486.032-2.772.767-4.199 3.349-4.481 5.76-.201 2.023 4.757 4.447 8.811 7.017 6.165 3.939 12.849 10.09 9.565 17.979-3.595 8.639-19.515 9.445-27.172 2.091 0 0-2.324-2.892-1.183-5.593 1.282-3.035 5.572-3.815 8.273-1.469 2.763 2.345 8.079 3.064 10.819 1.098 0 0-.654-2.097-2.513-3.518-6.738-5.151-16.311-8.212-16.598-17.235-.027-.846.052-1.693.228-2.52 1.446-6.818 6.695-13.097 13.974-13.644.8-.061 1.602-.083 2.405-.089h.402zm-465.254 1.582c4.912.366 7.467 9.76-.856 10.005-8.876.336-18.276 7.758-15.801 17.513.715 2.816 2.353 5.313 4.314 7.421 3.176 1.686 9.683.048 12.237-3.162 0 0 1.77-3.141 4.66-3.13 3.633.014 6.256 4.344 3.966 8.199-3.755 6.322-12.567 8.976-20.168 8.383-13.272-1.035-20.215-22.669-10.143-35.131 5.098-6.309 13.115-9.999 21.312-10.102.24-.001.239-.001.479.004zm311.887 3.166c1.413.045 2.785.475 3.925 1.324 0 0 5.537-1.225 7.009 3.99 1.316 4.746 1.495 9.673 1.812 14.426.158 2.487.22 5.003-.202 7.468l1.019 2.103c.84-.032 1.956-.69 1.956-.69 3.515-1.416 7.986 2.123 6.76 6.072-1.568 5.048-10.49 6.085-14.98 2.419 0 0-4.579 4.107-9.206 4.794-6.562.975-13.734-2.859-16.58-8.573-5.569-11.176 1.78-27.683 11.827-31.76 2.134-.866 4.36-1.606 6.66-1.573zm87.329.245c.902.066 1.17.168 1.668.373 4.165 1.721 3.092 8.78 3.276 15.01.203 6.61.484 13.241.497 19.816.002 1.057-1.496 5.669-5.24 5.489-2.538-.122-4.694-2.434-4.759-4.989a371.424 371.424 0 0 0-.184-10.449c-.203-6.593-.484-13.17-.498-19.764-.002-1.043.958-5.388 4.995-5.491l.245.005zm34.061-3.75c6.546.293 11.964 7.837 9.959 14.707-2.394 8.198-11.214 14.631-19.432 13.442.592 3.067 2.74 5.782 6.613 5.753 5.391-.041 12.267-2.723 13.665 2.988.757 3.092-1.924 5.957-5.467 6.218-8.401.701-18.055 1.842-22.956-8.018-4.887-9.83-1.173-22.469 6.571-29.278 3.281-2.926 6.191-5.916 11.047-5.812zm-285.232-3.754c1.823.139 3.224.851 4.241 2.79 0 0 3.428 1.263 3.886 4.325 1.136 9.265-.133 18.88 2.651 27.819 0 0 2.026 1.638 2.154 3.887.15 2.645-2.04 5.197-4.841 5.281-1.867.057-3.717-.892-4.952-2.375 0 0-4.286 4.452-9.83 4.599-6 .159-11.992-2.734-14.701-8.005-4.131-8.036-1.72-18.591 2.482-26.078 3.818-6.805 10.154-12.441 18.91-12.243zm-58.111-1.29c9.483.25 19.518 11.969 7.482 22.294-4.291 3.682-10.061 5.312-15.62 5.363 0 0-2.677-.201-4.012-1.801-.376 3.882.858 7.981 4.353 10.24 2.721 1.759 7.255-.59 12.162-.699 0 0 3.344.222 4.65 2.555 1.729 3.087-.844 7.304-4.657 7.449-6.628.303-13.348 2.759-19.492-2.3-11.851-9.756-7.591-33.247 7.905-41.297 2.091-1.087 4.386-1.76 6.784-1.805.222-.001.222-.001.445.001zm-48.413-.078c2.125.119 2.305.563 2.951 1.073 2.953 2.331 1.863 7.345 1.437 11.54-.923 9.078-1.762 18.845-6.333 26.255-4.315 6.995-15.488 8.613-21.631 2.571-7.306-7.187-4.118-20.716-4.083-32.363 0 0 .445-3.499 3.069-4.597 3.09-1.293 6.95 1.432 6.929 4.993a78.14 78.14 0 0 1-.025 1.532c-.186 7.122-1.793 14.34-.002 21.286.846 3.276 5.867 4.421 7.7.431 3.851-8.384 4.817-18.565 4.841-27.736 0 0 .736-4.776 4.88-4.986l.267.001zm133.3 37.486c1.336.835 2.202 1.652 2.499 3.768 1.821 1.694 4.711 2.565 7.116.651 7.06-5.621 8.775-18.952 1.167-23.313-2.95-1.691-7.565 1.336-10.325 4.404 0 0-.361 4.93-.549 8.487a77.246 77.246 0 0 0-.1 3.537v2.368l.192.098zm135.657-18.559c-.44.14-.875.295-1.305.465-6.825 2.691-9.871 15.512-6.015 19.152 2.97 2.803 8.587 2.375 10.888-2.789 0 0-.496-2.905-.734-5.269-.369-3.676-.77-7.295-.616-10.949 0 0-2.044-.664-2.218-.61zm-164.284-7.425c-6.146 1.122-9.273 7.716-10.707 12.778-1.468 5.179-2.442 12.589 4.711 13.376 4.535.499 5.973-6.531 6.011-13.349 0 0 .357-12.87-.015-12.805zm286.596 3.77c-3.469 1.837-6.276 4.87-7.685 8.07 2.616.935 8.488-3.135 8.636-6.895.025-.626-.837-1.234-.951-1.175zm-343.187-5.196c-3.713.071-6.926 3.859-9.157 7.761 0 0 9.758.241 12.432-5.598.036-.079.069-.16.096-.242.34-1.025-1.63-1.928-3.371-1.921zm256.197-23.04c4.085.045 6.807 6.479 2.715 9.175a5.01 5.01 0 0 1-1.799.733c-4.271.83-8.856-4.508-5.286-8.324 1.09-1.165 2.713-1.59 4.37-1.584zm52.53-5.457c3.085.034 5.461 3.204 4.892 6.526-.585 3.415-5.307 5.377-8.152 2.978-3.227-2.721-1.4-9.454 3.187-9.504h.073z" fill="url(#_Linear1)" fill-rule="nonzero" transform="translate(-302.447 34.657)" serif:id="cutelab faries"/><path d="M393.688 143.33c.878.07 1.118.163 1.58.346 1.863.742 3.084 2.24 3.15 4.644.002 8.793.069 17.51 1.376 26.3.452 3.145.715 6.267 1.09 9.444.173 1.468.662-.142.186 2.82-.141.877-1.024 2.288-1.024 2.288-2.025 2.421-2.338 1.735-3.308 1.854-2.415.297-2.98-.3-4.182-1.463l-.867-1.195c-.316-.633-.128.108-.435-1.143-1.24-5.068-1.425-10.672-1.986-15.725-.852-7.676-.848-15.435-.85-23.177 0 0 .78-4.886 4.999-5l.271.006zM221.605 84.656c3.598.322 5.854 4.465 3.983 7.69-.709 1.01-.021 11.698-.734 19.696-1.033 11.96-.343 24.033 0 35.973 0 0-.349.784.403.406 5.352-2.634 11.394-3.377 16.664.42 12.172 8.765 10.32 32.12-4.004 40.427-5.597 3.246-13.6 1.278-18.082-3.19 0 0-5.318-.739-5.505-5.012 0-8.329-2.158-16.762.682-23.126.034-15.833-1.56-31.449-.05-47.546.592-6.304-.126-12.65.683-19.138.349-2.792 1.662-5.998 4.864-6.537.361-.06.729-.064 1.096-.063zm-56.219 4.811a5.261 5.261 0 0 1 4.368 4.957c.013 27.24.772 54.565.681 82.051-.03 3.204-.351 6.405-.679 9.603 0 0-1.007 4.053-4.005 4.663-2.612.532-5.475-1.409-5.926-4.059-.063-.37-.056-.466-.071-.84v-2.729c.059-1.409.059-1.102.419-1.999.714-8.67.274-17.663.261-26.54-.049-19.74-.65-39.469-.68-59.172 0 0-.128-2.85 1.388-4.434 1.072-1.119 2.624-1.639 4.244-1.5zm265.26 56.375c3.852.06 8.544 2.618 7.128 7.33-.866 2.883-4.653 4.52-7.417 2.812-.944-.582-1.903-.014-2.914.14-2.101.321-4.204.74-6.175 1.503 0 0-4.045 3.554-4.621 7.023-.974 5.87 1.644 12.948 3.245 16.92 0 0 2.178 1.562 2.383 3.82.36 3.973-5.02 7.308-8.983 3.942-3.985-3.387-4.19-9.437-5.212-13.61-1.386-5.759-2.384-11.963.116-17.12 1.41-2.91 3.554-5.388 5.74-7.81 1.132-1.254 9.327-4.987 16.71-4.95zM299.06 164.251c-.731-4.846-1.023-9.687.294-14.364 2.584-9.172 14.012-15.302 22.174-15.439.893-.015 1.786-.038 2.681-.038.609.003 1.217.013 1.824.042.405.02.809.046 1.213.084 3.475.32 7.588 1.895 8.308 5.832.781 4.27-5.196 8.938-8.872 4.163-6.504-.783-12.851 1.311-16.81 6.481-1.878 2.453-1.608 6.296-1.056 10.216 5.074-.816 10.038-2.294 15.197-2.212 4.903.275 7.476 9.721-.586 10.005-4.383.185-8.711 1.283-13.082 2.026.625 3.591 1.368 7.171 2.381 10.727.276.951.7 1.328.886 1.944.335 1.113.44 1.783-.123 3.42 0 0-.065.484-.859 1.488l-1.439 1.19c-1.267.662-.756.423-1.766.581l-1.772-.08c-1.573-.398-.942-.207-1.87-.852l-.538-.454c-.22-.224-.048.102-.665-.783-2.939-4.217-3.123-10.308-3.976-15.262a290.23 290.23 0 0 0-.548-3.007c-1.153-.975-2.033-2.4-1.548-4.398a4.44 4.44 0 0 1 .552-1.31zm-197.105-43.11c-.05-7.48-.174-14.958-.188-22.423 0 0-.109-2.71 1.318-4.264 1.021-1.11 2.509-1.663 4.091-1.599 2.506.311 4.483 2.431 4.59 4.98.005 8.071.113 16.091.138 24.102 1.997.135 3.963.23 5.794.236 0 0 4.571.9 4.955 4.465.348 3.233-2.688 5.632-6.606 5.51a66.21 66.21 0 0 1-4.168-.279c-.076 8.036-.313 16.082-.899 24.181-.419 6.05-.573 12.125-.578 18.197l.025 9.237c.129 2.99-.028 2.323-.185 2.93-.883 3.41-5.994 4.883-8.524 2.128-.882-.96-1.316-2.154-1.316-3.59 0 0-1.141-2.98 0-5.035 0-14.23 1.179-28.493 1.473-42.488.045-2.178.073-4.357.088-6.537a47.802 47.802 0 0 0-2.449-.082c-3.51-.025-7.664 1.002-10.239-2.317-2.273-2.929-.634-8.232 3.807-8.366l.221.003c1.156.067 2.247.844 3.051.823 1.533-.056 3.46.035 5.601.188zm413 20.604c.481.004.961.013 1.441.034.417.02.833.044 1.248.081 2.443.217 5.057.84 6.397 3.358.474.89.193.296.424 1.131 0 0 .494 3.147-1.422 4.94-1.619 1.516-4.264 1.756-6.132.547-1.742-.179-4.281-.025-4.486.032-2.772.767-4.199 3.35-4.481 5.76-.201 2.023 4.757 4.447 8.811 7.017 6.165 3.94 12.849 10.09 9.565 17.98-3.595 8.638-19.515 9.444-27.172 2.09 0 0-2.324-2.892-1.183-5.593 1.282-3.035 5.572-3.815 8.273-1.469 2.763 2.345 8.079 3.064 10.819 1.098 0 0-.654-2.097-2.513-3.518-6.738-5.15-16.311-8.212-16.598-17.235-.027-.846.052-1.693.228-2.52 1.446-6.818 6.695-13.097 13.974-13.644.8-.06 1.602-.083 2.405-.089h.402zm-465.254 1.582c4.912.366 7.467 9.76-.856 10.005-8.876.336-18.276 7.758-15.801 17.513.715 2.816 2.353 5.313 4.314 7.421 3.176 1.686 9.683.048 12.237-3.162 0 0 1.77-3.14 4.66-3.13 3.633.014 6.256 4.344 3.966 8.2-3.755 6.321-12.567 8.975-20.168 8.382-13.272-1.035-20.215-22.669-10.143-35.13 5.098-6.31 13.115-10 21.312-10.103.24 0 .239 0 .479.004zm311.887 3.166c1.413.045 2.785.475 3.925 1.324 0 0 5.537-1.225 7.009 3.99 1.316 4.746 1.495 9.673 1.812 14.426.158 2.487.22 5.003-.202 7.468l1.019 2.103c.84-.032 1.956-.69 1.956-.69 3.515-1.416 7.986 2.123 6.76 6.072-1.568 5.048-10.49 6.085-14.98 2.42 0 0-4.579 4.106-9.206 4.793-6.562.975-13.734-2.859-16.58-8.573-5.569-11.176 1.78-27.683 11.827-31.76 2.134-.866 4.36-1.606 6.66-1.573zm87.329.245c.902.066 1.17.168 1.668.373 4.165 1.721 3.092 8.78 3.276 15.01.203 6.61.484 13.241.497 19.816.002 1.057-1.496 5.67-5.24 5.49-2.538-.123-4.694-2.435-4.759-4.99a371.424 371.424 0 0 0-.184-10.449c-.203-6.593-.484-13.17-.498-19.764-.002-1.043.958-5.388 4.995-5.49l.245.004zm34.061-3.75c6.546.293 11.964 7.837 9.959 14.707-2.394 8.198-11.214 14.631-19.432 13.442.592 3.067 2.74 5.782 6.613 5.753 5.391-.04 12.267-2.723 13.665 2.988.757 3.092-1.924 5.957-5.467 6.218-8.401.701-18.055 1.842-22.956-8.018-4.887-9.83-1.173-22.469 6.571-29.278 3.281-2.926 6.191-5.916 11.047-5.812zm-285.232-3.754c1.823.14 3.224.851 4.241 2.79 0 0 3.428 1.263 3.886 4.325 1.136 9.265-.133 18.88 2.651 27.82 0 0 2.026 1.637 2.154 3.886.15 2.645-2.04 5.197-4.841 5.281-1.867.057-3.717-.892-4.952-2.375 0 0-4.286 4.452-9.83 4.6-6 .158-11.992-2.735-14.701-8.006-4.131-8.036-1.72-18.59 2.482-26.078 3.818-6.805 10.154-12.44 18.91-12.243zm-58.111-1.29c9.483.25 19.518 11.97 7.482 22.294-4.291 3.682-10.061 5.312-15.62 5.363 0 0-2.677-.2-4.012-1.8-.376 3.881.858 7.98 4.353 10.24 2.721 1.758 7.255-.59 12.162-.7 0 0 3.344.222 4.65 2.555 1.729 3.087-.844 7.304-4.657 7.45-6.628.302-13.348 2.758-19.492-2.3-11.851-9.757-7.591-33.248 7.905-41.298 2.091-1.087 4.386-1.76 6.784-1.805l.445.001zm-48.413-.078c2.125.12 2.305.563 2.951 1.073 2.953 2.331 1.863 7.345 1.437 11.54-.923 9.078-1.762 18.845-6.333 26.255-4.315 6.995-15.488 8.613-21.631 2.571-7.306-7.187-4.118-20.716-4.083-32.363 0 0 .445-3.499 3.069-4.597 3.09-1.293 6.95 1.432 6.929 4.993a78.14 78.14 0 0 1-.025 1.532c-.186 7.122-1.793 14.34-.002 21.286.846 3.276 5.867 4.421 7.7.431 3.851-8.384 4.817-18.565 4.841-27.736 0 0 .736-4.776 4.88-4.986l.267.001zm133.3 37.486c1.336.835 2.202 1.652 2.499 3.768 1.821 1.694 4.711 2.565 7.116.651 7.06-5.62 8.775-18.952 1.167-23.313-2.95-1.69-7.565 1.336-10.325 4.404 0 0-.361 4.93-.549 8.487a77.246 77.246 0 0 0-.1 3.537v2.368l.192.098zm135.657-18.559c-.44.14-.875.295-1.305.465-6.825 2.691-9.871 15.512-6.015 19.152 2.97 2.803 8.587 2.375 10.888-2.789 0 0-.496-2.905-.734-5.269-.369-3.676-.77-7.295-.616-10.949 0 0-2.044-.664-2.218-.61zm-164.284-7.425c-6.146 1.122-9.273 7.716-10.707 12.778-1.468 5.18-2.442 12.59 4.711 13.376 4.535.5 5.973-6.53 6.011-13.349 0 0 .357-12.87-.015-12.805zm286.596 3.77c-3.469 1.837-6.276 4.87-7.685 8.07 2.616.935 8.488-3.135 8.636-6.895.025-.626-.837-1.234-.951-1.175zm-343.187-5.196c-3.713.071-6.926 3.86-9.157 7.761 0 0 9.758.241 12.432-5.598.036-.079.069-.16.096-.242.34-1.025-1.63-1.928-3.371-1.92zm256.197-23.04c4.085.045 6.807 6.48 2.715 9.175a5.01 5.01 0 0 1-1.799.733c-4.271.83-8.856-4.508-5.286-8.324 1.09-1.165 2.713-1.59 4.37-1.584zm52.53-5.457c3.085.034 5.461 3.204 4.892 6.526-.585 3.415-5.307 5.377-8.152 2.978-3.227-2.72-1.4-9.454 3.187-9.504h.073z" fill="#fff" fill-opacity=".4" fill-rule="nonzero" serif:id="cutelab faries overlay"/><path d="M47.996 37.72c3.376.473 4.054 5.468 3.901 9.94-.089 3.438.424 6.807.144 10.384-.792 10.352-1.212 21.21-6.374 29.873-3.343 5.61-12.103 7.186-16.379 1.741-1.677-2.136-2.374-4.94-2.18-7.696 0 0 .886-3.382 3.506-3.55 2.16-.14 4.136 1.815 3.97 4.162-.09 1.494.558 3.888 2.844 3.159 1.83-.583 2.62-2.955 3.46-5.076 2.683-6.778 3.021-14.313 3.563-21.696-.414.269-.451.274-.655.379-3.631 1.864-8.596 1.065-11.218-2.294-3.333-4.27-3.03-10.18-2.623-15.288 0 0 .267-1.886 1.331-2.789 2.05-1.739 5.985-.378 6.168 2.633.051.837-.045 1.033-.077 1.466a47.71 47.71 0 0 0-.103 2.146 32.1 32.1 0 0 0 .004 1.742c.014.433.037.867.074 1.3.027.323.062.645.106.966.036.26.078.518.128.775.038.199.081.396.13.593.294 1.173.38 2.564 2.444 2.129 2.41-.508 2.148-4.66 3.104-8.278.356-1.404.625-3.484.625-3.484.315-1.87 1.577-3.252 3.844-3.254l.263.018zm46.39-17.345v-13.5s.776-3.866 4.045-3.737c1.883.222 3.38 1.815 3.456 3.738 0 4.4-.006 8.806-.01 13.211 1.38-.042 2.763-.07 4.146-.076.231 0 .231-.002.461.004 3.23.21 4.93 5.29 1.598 7.058-.86.457-1.885.435-2.885.443-1.11.012-2.22.039-3.33.073-.01 8.911-.01 17.814.038 26.67l.003 1.12c-.003 3.18.08 6.365-.46 9.528-.415 2.434-2.462 5.25-5.369 4.416-2.242-.644-3.446-3.593-2.074-5.703.142-.218.106-.351.126-.517.44-3.766.277-7.593.256-11.408V27.879c-2.065.078-4.128.139-6.186.144-2.217.005-4.183-1.798-4.04-3.994.123-1.877 1.801-3.46 3.738-3.506 2.164-.003 4.326-.066 6.487-.148zm67.717 15.496c7.215.105 10.929 11.2 6.381 16.345-2.803 3.173-7.438 3.781-11.373 4.037-.977.057-.321.144-2.031-.012 0 0 2.138 3.368 5.505 4.22 1.24.313 2.712-.04 2.712-.04 3.389-1.835 8.58 3.988 3.446 6.863-3.837 2.15-8.503.73-11.797-1.105-4.385-2.445-7.79-6.768-7.584-11.89.305-7.571 5.341-15.463 11.928-17.908a8.065 8.065 0 0 1 2.813-.51zM6.101 2.286c3.157.279 2.158.443 3.052 1.871l.316.706c.285.948.197.995.212 1.347.304 6.959-.384 13.852-.347 20.669.018 3.311.174 6.62.35 9.927 1.01-.433 1.28-.504 1.93-.682 6.295-1.722 14.098 2.198 14.573 9.649.443 6.942-3.05 14.446-8.289 18.605-2.722 2.16-6.842 2.257-10.24.996 0 0-1.452.728-2.861.323C1.99 64.89.92 61.019.397 58.308c-.99-5.144-.073-11.134 2.09-15.046l.03-.052c-.422-8.394-.912-16.853-.358-25.23.21-3.647.13-7.345.043-11.004 0 0-.25-1.235.294-2.512l.901-1.223c.72-.6 1.196-.98 2.704-.955zM117.247.06l.743.108c.6.16.344-1.11 2.254 1.529 1.836 2.539 1.197 6.17 1.187 9.426-.03 9.009.228 17.972.68 27.027 0 0-.27 1.011.237.612 7.167-5.468 20.602-.429 20.978 10.663.108 5.27 1.163 11.892-3.814 13.652-.714.253-1.69.244-1.69.244-1.897-.187-2.021-.647-2.533-1.202-1.24-1.346-1.272-3.61-.082-4.99.593-.688.432-.581.454-.74.351-2.551.52-4.905.083-7.708-.218-1.407-.937-2.74-2.114-3.577-2.878-2.044-7.089-1.37-9.01 2.91-1.446 3.22-1.196 6.949-.78 10.422 0 0-.41 4.387-3.709 4.38-2.962-.006-4.133-3.696-4.259-8.092-.118-3.001-.996-5.866-1.025-9.17-.124-10.712-1.076-21.305-.935-32.164.028-2.532.105-5.08-.116-7.578-.062-.664-.224-.461-.387-1.186-.435-1.944.933-4.13 2.98-4.508.543-.1.68-.06.858-.058zM14.978 43.154c-1.825.044-3.554.99-4.837 2.3 0 0 .18 4.278.068 7.851A91.005 91.005 0 0 1 10 57.221s.264.15.882 1.275c1.017.155 2.463-.104 2.463-.104 3.546-3.4 5.856-8.715 5.314-12.561-.22-1.574-1.716-2.693-3.68-2.677zm147.019.228c-2.04.533-3.783 2.914-5.17 5.273 0 0 4.244.454 5.99-1.355.881-.914.202-3.176-.814-3.919h-.006z" fill="#ccc" fill-rule="nonzero" serif:id="by the"/><defs><linearGradient id="_Linear1" x2="1" gradientUnits="userSpaceOnUse" gradientTransform="matrix(504.072 0 0 106.444 325.561 103.222)"><stop offset="0" stop-color="red"/><stop offset=".1" stop-color="#f90"/><stop offset=".2" stop-color="#cf0"/><stop offset=".3" stop-color="#3f0"/><stop offset=".4" stop-color="#0f6"/><stop offset=".5" stop-color="#0ff"/><stop offset=".6" stop-color="#06f"/><stop offset=".7" stop-color="#30f"/><stop offset=".8" stop-color="#c0f"/><stop offset=".9" stop-color="#f09"/><stop offset="1" stop-color="red"/></linearGradient></defs></svg>