<svg viewBox="0 0 1896 322" xmlns="http://www.w3.org/2000/svg" fill="#fff"><path d="M22.583 131.226c6.511-11.8 14.751-21.193 24.725-28.178 9.96-6.985 21.39-10.478 34.28-10.478 38.38 0 58.05 25.567 59 76.701V316.77h-22.38V171.712c-.14-19.667-3.6-34.179-10.38-43.538-6.78-9.359-17.43-14.038-31.94-14.038-11.8 0-22.41 4.442-31.84 13.326-9.427 8.884-16.582 21.057-21.465 36.519V316.77H0V4.273h22.583v126.953zM204.798 316.77h-22.79V96.639h22.79V316.77zm-26.05-283.607c0-4.612 1.29-8.545 3.87-11.801 2.58-3.255 6.24-4.882 10.99-4.882 4.74 0 8.44 1.627 11.08 4.882 2.65 3.256 3.97 7.189 3.97 11.801 0 4.611-1.32 8.511-3.97 11.698-2.64 3.187-6.34 4.781-11.08 4.781-4.75 0-8.41-1.594-10.99-4.781-2.58-3.187-3.87-7.087-3.87-11.698zM258.418 316.77V116.984h-30.51V96.639h30.51V71.411c.41-22.515 6.14-40.046 17.2-52.592C286.668 6.273 301.828 0 321.088 0c15.05 0 30.85 4.001 47.4 12.004l-3.86 21.362c-13.84-7.053-27.81-10.579-41.91-10.579-26.99 0-40.83 16.208-41.51 48.624v25.228h42.12v20.345h-42.12V316.77h-22.79zm122.08 0h-22.79V96.639h22.79V316.77zM502.488 320.84c-29.57 0-52.63-8.81-69.18-26.45-16.55-17.63-24.82-42.86-24.82-75.681v-17.496c0-34.723 7.6-61.51 22.79-80.363s36.96-28.28 65.3-28.28c27.67 0 48.49 8.837 62.46 26.511 13.97 17.673 21.09 43.845 21.37 78.514v28.235h-114.55c.82 16.346 4.41 28.3 10.79 35.86 6.37 7.56 16.21 11.34 29.5 11.34 19.26 0 35.33-6.58 48.21-19.73l22.59 34.79c-7.06 9.76-17.3 17.66-30.72 23.7-13.43 6.03-28.01 9.05-43.74 9.05zm-36.22-135.09h57.58v-5.289c-.27-13.157-2.45-23.126-6.51-29.907-4.07-6.782-11.13-10.173-21.16-10.173-10.04 0-17.33 3.594-21.87 10.783-4.55 7.188-7.23 18.717-8.04 34.586zM689.578 257.77c0-4.88-2.34-9.39-7.02-13.528-4.68-4.136-15.09-9.731-31.23-16.784-23.74-9.63-40.05-19.599-48.93-29.907-8.88-10.309-13.33-23.126-13.33-38.453 0-19.26 6.95-35.163 20.86-47.709 13.9-12.546 32.31-18.819 55.23-18.819 24.15 0 43.47 6.239 57.99 18.718 14.51 12.478 21.77 29.229 21.77 50.252h-57.58c0-17.904-7.46-26.856-22.38-26.856-6.1 0-11.12 1.899-15.06 5.697-3.93 3.798-5.89 9.087-5.89 15.869 0 4.883 2.16 9.189 6.51 12.919 4.34 3.73 14.58 9.054 30.72 15.971 23.46 8.681 40.04 18.345 49.74 28.992 9.7 10.647 14.55 24.448 14.55 41.398 0 19.67-7.4 35.47-22.18 47.41-14.78 11.93-34.18 17.9-58.19 17.9-16.14 0-30.38-3.15-42.72-9.46-12.34-6.31-22.01-15.09-28.99-26.35-6.99-11.25-10.48-23.39-10.48-36.41h54.73c.27 10.03 2.61 17.56 7.02 22.58 4.4 5.02 11.63 7.53 21.66 7.53 15.47 0 23.2-6.99 23.2-20.96zM857.948 257.77c0-4.88-2.34-9.39-7.02-13.528-4.67-4.136-15.08-9.731-31.22-16.784-23.74-9.63-40.05-19.599-48.93-29.907-8.89-10.309-13.33-23.126-13.33-38.453 0-19.26 6.95-35.163 20.85-47.709 13.91-12.546 32.32-18.819 55.24-18.819 24.14 0 43.47 6.239 57.98 18.718 14.52 12.478 21.77 29.229 21.77 50.252h-57.57c0-17.904-7.46-26.856-22.38-26.856-6.11 0-11.13 1.899-15.06 5.697-3.93 3.798-5.9 9.087-5.9 15.869 0 4.883 2.17 9.189 6.51 12.919 4.34 3.73 14.58 9.054 30.72 15.971 23.47 8.681 40.05 18.345 49.75 28.992 9.69 10.647 14.54 24.448 14.54 41.398 0 19.67-7.39 35.47-22.17 47.41-14.79 11.93-34.18 17.9-58.19 17.9-16.14 0-30.38-3.15-42.72-9.46-12.35-6.31-22.01-15.09-29-26.35-6.98-11.25-10.47-23.39-10.47-36.41h54.72c.28 10.03 2.61 17.56 7.02 22.58s11.63 7.53 21.67 7.53c15.46 0 23.19-6.99 23.19-20.96zM1017.778 320.84c-29.56 0-52.62-8.81-69.17-26.45-16.55-17.63-24.82-42.86-24.82-75.681v-17.496c0-34.723 7.59-61.51 22.79-80.363 15.19-18.853 36.96-28.28 65.3-28.28 27.67 0 48.49 8.837 62.46 26.511 13.97 17.673 21.09 43.845 21.37 78.514v28.235h-114.55c.82 16.346 4.41 28.3 10.79 35.86 6.37 7.56 16.2 11.34 29.5 11.34 19.26 0 35.33-6.58 48.21-19.73l22.59 34.79c-7.06 9.76-17.3 17.66-30.72 23.7-13.43 6.03-28.01 9.05-43.75 9.05zm-36.21-135.09h57.58v-5.289c-.28-13.157-2.44-23.126-6.51-29.907-4.07-6.782-11.13-10.173-21.16-10.173-10.04 0-17.33 3.594-21.87 10.783-4.55 7.188-7.23 18.717-8.04 34.586zM1160.118 96.639l1.63 21.769c13.02-17.225 30.04-25.838 51.06-25.838 37.84 0 57.31 26.517 58.39 79.549V316.77h-57.78V176.392c0-12.479-1.86-21.532-5.59-27.161-3.73-5.629-10.28-8.443-19.64-8.443-10.44 0-18.58 5.357-24.41 16.072v159.91h-57.78V96.639h54.12zM1358.598 42.521v54.118h29.51v43.132h-29.51V249.19c0 8.7 1.19 14.67 3.57 17.93 2.37 3.26 6.95 4.89 13.73 4.89 5.56 0 10.1-.47 13.63-1.42l-.41 44.76c-9.76 3.66-20.34 5.49-31.74 5.49-37.16 0-55.94-21.32-56.35-63.95V139.771h-25.43V96.639h25.43V42.521h57.57zM1459.228 316.77h-57.78V96.639h57.78V316.77zm-60.42-277.097c0-8.952 2.84-16.276 8.54-21.973 5.7-5.696 13.29-8.545 22.79-8.545 9.49 0 17.09 2.849 22.78 8.545 5.7 5.697 8.55 13.021 8.55 21.973 0 8.816-2.82 16.14-8.44 21.973-5.63 5.832-13.26 8.748-22.89 8.748s-17.26-2.916-22.89-8.748c-5.63-5.833-8.44-13.157-8.44-21.973zM1587.528 316.77c-1.63-3.39-3.26-9.08-4.89-17.09-10.3 14.11-24.27 21.16-41.91 21.16-18.44 0-33.74-6.1-45.87-18.31-12.14-12.21-18.21-28.01-18.21-47.4 0-23.061 7.35-40.896 22.07-53.51 14.72-12.614 35.91-19.057 63.58-19.328h17.5v-17.7c0-9.902-1.7-16.887-5.09-20.956-3.39-4.069-8.34-6.103-14.85-6.103-14.38 0-21.57 8.409-21.57 25.228h-57.58c0-20.345 7.64-37.13 22.89-50.354 15.26-13.225 34.56-19.837 57.88-19.837 24.15 0 42.83 6.273 56.06 18.819 13.22 12.546 19.83 30.484 19.83 53.813V268.76c.27 18.99 2.99 33.84 8.14 44.55v3.46h-57.98zm-33.98-41.09c6.37 0 11.8-1.29 16.28-3.87 4.47-2.58 7.8-5.63 9.97-9.15v-45.782h-13.84c-9.77 0-17.46 3.12-23.09 9.359-5.63 6.239-8.44 14.581-8.44 25.023 0 16.28 6.37 24.42 19.12 24.42zM1660.888 4.273h57.78v312.5h-57.78zM1839.848 257.77c0-4.88-2.34-9.39-7.02-13.528-4.68-4.136-15.09-9.731-31.23-16.784-23.74-9.63-40.05-19.599-48.93-29.907-8.89-10.309-13.33-23.126-13.33-38.453 0-19.26 6.95-35.163 20.85-47.709 13.91-12.546 32.32-18.819 55.24-18.819 24.15 0 43.47 6.239 57.99 18.718 14.51 12.478 21.77 29.229 21.77 50.252h-57.58c0-17.904-7.46-26.856-22.38-26.856-6.1 0-11.12 1.899-15.06 5.697-3.93 3.798-5.9 9.087-5.9 15.869 0 4.883 2.17 9.189 6.51 12.919 4.34 3.73 14.58 9.054 30.72 15.971 23.47 8.681 40.05 18.345 49.75 28.992 9.7 10.647 14.54 24.448 14.54 41.398 0 19.67-7.39 35.47-22.17 47.41-14.78 11.93-34.18 17.9-58.19 17.9-16.14 0-30.38-3.15-42.72-9.46-12.34-6.31-22.01-15.09-28.99-26.35-6.99-11.25-10.48-23.39-10.48-36.41h54.73c.27 10.03 2.61 17.56 7.01 22.58 4.41 5.02 11.64 7.53 21.67 7.53 15.47 0 23.2-6.99 23.2-20.96z"/></svg>