<svg viewBox="0 0 324 146" fill="#fff" xmlns="http://www.w3.org/2000/svg"><path d="M208.225 54.834c1.572.142 1.993.326 2.801.689 2.495 1.121 4.327 3.586 4.661 6.328.261 2.134.061 2.926.064 4.328.064 19.736-.345 39.353-5.181 59.105-3.011 12.303-15.023 23.447-27.928 18.628-7.946-2.967-12.108-12.212-12.178-21.173-.051-6.539 9.044-11.148 13.966-5.633 2.715 3.041.93 8.258 3.347 11.419 1.461 1.911 5.839-1.638 6.953-5.839 4.891-19.171 5.038-38.958 5.017-58.713-.001-.651-.026-3.34 1.151-5.288a8.104 8.104 0 0 1 5.88-3.806c.927-.114 1.149-.054 1.447-.045zm-98.878 3.562c4.571.102 8.941 2.193 11.972 5.63 9.922 11.247 5.34 30.993-8.244 38.625-3.085 1.734-6.299 3.295-9.753 4.106l-.032.007c2.036 9.188 5.343 18.219 5.524 27.586.136 7.041-10.89 12.486-15.126 4.153-1.412-2.777-.96-6.145-1.634-9.532-3.413-17.176-10.97-34.743-5.339-52.229 3.109-9.656 11.565-18.05 22.078-18.345.277-.003.277-.003.554-.001zm-40.01-3.271c1.401.1 1.817.253 2.593.564 2.708 1.084 4.711 3.741 4.991 6.666.032.337.028.422.036.761v45.783c-.148 6.189-8.619 10.464-13.521 5.79-1.564-1.492-2.428-3.64-2.479-5.79V63.116c.033-1.404.166-1.827.44-2.617.996-2.879 3.747-5.056 6.799-5.347.736-.07.907-.033 1.141-.027zM18.659 27.887c-.454-6.266-.789-12.538-.822-18.835C17.814 4.716 20.58.526 24.988.057c1.069-.114 1.327-.026 1.673-.002 4.855.676 7.121 5.508 7.195 10.828.077 4.714.311 9.426.625 14.139 3.383-.518 6.799-.883 10.281-.913.336-.001.335-.001.67.006 5.871.362 10.054 8.168 5.761 13.191-2.386 2.791-6.269 2.594-10.962 3.052-1.502.146-3 .346-4.495.581.851 10.106 1.673 20.23 1.712 30.402.016 12.327.725 24.644-1.055 36.867-.227 1.555-.919 3.457-1.043 3.692-.431.818-.452.945-1.586 2.09 0 0-1.623 1.305-3.104 1.823 0 0-2.021.457-3.552.283 0 0-2.064-.382-3.499-1.408-.992-.709-.955-.789-1.213-1.066a8.094 8.094 0 0 1-.662-.815c-.368-.518-.783-1.373-.783-1.373-.702-1.698-.451-.734-.637-2.252-.158-1.293.175-3.155.273-3.472 1.557-10.943.876-22.731.861-34.328-.036-9.203-.718-18.34-1.48-27.462-4.157.702-8.325 1.17-12.527 1.001-6.205-.249-10.272-9.207-5.04-13.931 2.881-2.602 7.359-1.984 11.128-2.394a96.982 96.982 0 0 0 5.13-.709zm233.319 23.717c4.651.283 8.466 4.866 7.536 9.564 0 0 5.944 2.054 6.401 7.126.584 6.49-.028 8.136.041 12.062.087 3.984-.025 8.477 2.791 11.402.69.718 2.147.639 2.147.639 5.973.431 9.827 8.493 5.603 13.282-4.575 5.186-14.738 2.115-19.628-3.198 0 0-6.448 3.677-12.014 4.155-9.069.779-18.502-4.691-20.436-16.125-1.882-11.131 2.586-22.758 10.181-30.721 4.392-4.605 10.262-8.057 16.82-8.19.279-.002.279 0 .558.004zm54.442-.435c8.587.108 17.678 6.628 16.485 16.158-.533 4.255-4.935 7.631-9.277 6.894-3.433-.583-6.176-3.262-6.609-6.99-5.001-.846-9.119 5.184-9.156 11.556-.037 6.651 2.865 13.327 2.032 19.924-.754 5.972-9.641 9.357-14.038 4.173-2.146-2.531-1.826-6.226-2.369-9.737-1.816-11.739-3.327-24.717 5.656-34.454 4.379-4.746 10.851-7.556 17.276-7.524zm-56.441 16.836c-7.908 3.45-12.22 15.68-8.986 22.416 2.276 1.161 6.86.148 7.853-2.31 1.026-2.607 1.03-5.593 1.094-8.5l.007-.391V69.011c.006-.27.079-1.026.032-1.006zm-140.89 6.391c-3.974.244-7.546 6.43-8.037 11.921a35.015 35.015 0 0 0-.125 3.707l.887.39c2.55-1.107 5.118-2.329 6.747-4.408 2.472-3.158 3.162-8.142.919-11.196-.13-.178-.347-.416-.391-.414zM69.027 24.995c4.145.055 7.874 3.723 7.929 7.93.024 5.394-4.615 10.464-10.07 9.002-5.733-1.536-7.863-10.387-3.537-14.638a8.102 8.102 0 0 1 5.678-2.294zm137.722-4.688a8.152 8.152 0 0 1 6.088 2.867s2.355 2.05 2.811 4.927c.859 5.428-4.72 10.668-10.962 8.915a8.302 8.302 0 0 1-3.925-2.432 8.682 8.682 0 0 1-.506-.624c-.505-.687-.678-1.055-.867-1.472-2.154-4.76.949-11.834 6.89-12.17.157-.008.314-.012.471-.011z"/></svg>