<svg viewBox="0 0 1102 166" xmlns="http://www.w3.org/2000/svg" fill-rule="evenodd" clip-rule="evenodd" stroke-linejoin="round" stroke-miterlimit="1.414"><path d="M680.737 78.978c1.928.227 2.536.554 3.561 1.2 3.197 2.014 4.604 6.474 3.06 9.987-.389.887-.385.954-.42 1.269-.639 6.209-2 12.465-.611 19.044.052.244.109.487.173.728.61 2.283 2.306 4.337 4.635 5.006 0 0 2.68-1.461 4.677-3.78 3.545-4.118 6.476-9.184 7.236-14.143.61-3.81 1.37-7.592 2.15-11.367 0 0 1.56-5.801 6.02-6.938 4.53-1.153 9.68 2.397 9.97 7.283.48 8.197-.57 16.356-2.81 24.484-3.69 13.814-1.41 29.184-9.19 41.996-8.04 13.236-30.523 15.948-40.665 2.717-5.438-7.093-6.567-19.439 1.924-21.276 4.709-1.018 9.551 2.96 9.697 8.14.263 6.73 12.593 8.341 16.066.723 1.988-4.364 2.829-9.146 3.424-13.883 0 0 .493-.481-.771.162-9.557 4.745-22.113-.863-26.6-11.426-2.774-6.532-2.756-13.96-1.749-21.092.454-6.317-.838-13.719 5.001-17.522a8.345 8.345 0 0 1 2.002-.953c1.377-.441 2.486-.402 3.22-.359zm400.511-3.792c3.33.076 6.45 1.619 9.47 2.859 1.02.402 1.22.193 1.76.366 6.88 2.204 7.88 16.507-3.38 15.581-2.53-.209-4.87-1.333-7.21-2.382 0 0-3.84 3.918-3.28 7.958.1.706.95.89 1.58 1.242 6.96 3.832 14.49 6.326 18.74 14.746 2.29 4.525 3.36 10.421-.11 14.771-3.93 4.913-8.47 9.713-14.62 11.269-9.78 2.475-21.28-.952-26.63-9.823-3.85-6.388-4.95-15.735 1.16-18.896 4.64-2.403 11.35.966 11.66 6.678.1 1.758.33 3.566 1.59 4.874 2.2 2.288 5.85 2.353 8.67 1.553 0 0 2.11-1.864 3.77-3.641-1.52-2.772-3.72-3.459-5.81-4.473-6.69-3.234-13.68-6.814-15.51-14.299-3.07-12.631 6.05-28.053 17.7-28.382.22-.002.22-.002.45-.001zm-154.84-.004c6.25.129 12.22 3.659 14.94 9.577 5.59 12.19-3.59 28.914-18.69 29.398-2.04.039-4.07.146-6.08-.097l.06.612c.08.661.17 1.319.29 1.974.68 3.743 2.22 7.849 6.11 8.688 4.79 1.036 9.92-1.016 15.19-.237 6.03.893 9.2 10.068 3.67 14.278-3.16 2.412-7.99 1.793-12.44 2.086-8.27.507-16.88-1.52-22.29-8.031-9.83-11.804-7.98-30.843-2.75-42.622 3.68-8.285 11.06-15.375 21.41-15.625.29-.003.29-.003.58-.001zm46.49-1.287c11.19.176 22.52 6.702 24.94 18.7 1.1 5.46.71 11.309 1.49 16.416 1.04 7.203.93 14.756-.4 21.66-.93 4.834-4.13 10.486-9.96 9.906-5.2-.518-8.97-7.055-6.14-11.958.59-1.027.47-1.372.56-2.049.7-5.034.89-10.278.11-15.246-.22-1.438-.26-1.437-.35-2.054-.66-4.841.26-9.989-1.26-14.557-1.3-3.907-6.78-5.152-10.64-4.75-1.17.121-2.82.653-2.88.725-1.7 2.119-1.79 3.553-2.27 5.154-2.91 9.735-3.86 20.77-1.07 29.887.55 1.778 1.06 1.945 1.44 2.537 3.05 4.699-.53 12.341-6.7 12.35-6.56.01-10.28-8.321-11.43-16.827-1.76-13.03-.75-26.911 4.55-38.197 2.02-4.292 5.1-8.077 10.06-9.98 2.95-1.133 6.11-1.66 9.29-1.716.33-.002.33-.002.66-.001zm-85.98 5.717c1.38.066 1.79.206 2.56.49 2.82 1.037 4.92 3.76 5.2 6.768.12 1.208.04 1.548.03 2.228-.15 14.271-2.27 28.472-2.36 42.847l-.01 1.056c-.43 5.996-8.49 9.883-13.31 5.587-3.91-3.48-2.71-10.184-2.38-16.302.61-11.347 2-22.634 2.07-34.009l.01-1.052c.1-1.379.25-1.789.55-2.556 1.05-2.671 3.64-4.671 6.51-5.006.73-.084.9-.051 1.13-.051zM262.51 68.288c14.14.299 28.715 10.766 27.662 25.689-.778 11.034-10.86 20.257-22.754 20.941-2.666.153-5.377-.194-7.862-1.165 0 0 2.922 5.695 4.566 7.033 2.888 2.352 7.454.011 10.744-3.193 0 0 3.342-3.04 7.05-2.502 4.196.609 7.465 5.019 6.735 9.27-.587 3.425-3.654 5.922-6.665 8.186-6.656 5.006-15.772 7.168-23.41 3.544-14.814-7.029-19.737-27.661-17.201-44.06 1.173-7.59 4.089-15.191 9.837-20.229 2.883-2.527 6.885-3.462 10.658-3.516.32-.001.32-.001.64.002zm245.442 2.531c2.175.023 5.257.239 5.257.239 6.601.229 12.894 4.263 14.975 11.044 4.206 13.703-7.208 30.406-22.572 30.989-2.925.111-5.914.296-8.573-.802.722 3.39 2.203 7.001 5.493 8.393 4.316 1.826 9.099-.338 12.866-2.21 0 0 2.562-1.049 4.654-.76 4.932.681 8.404 6.79 6.069 11.486-1.646 3.311-5.701 4.799-9.575 6.13-10.342 3.554-23.205 1.847-30.212-8.048-12.811-18.092-4.51-49.56 16.197-55.7a19.04 19.04 0 0 1 5.421-.761zm538.716-39.111c.23 1.788.51 3.898.74 5.727 1.05 7.704 2.32 15.35 3.6 23.067 2.69 16.477 3.43 33.358 1 49.926-1.57 10.726-5.68 23.018-16.2 25.524-5.9 1.403-12.03-1.044-17.34-4.197-5.96-3.534-10.25-9.58-11.82-16.463-3.21-14.131 4.22-31.454 18.09-33.126 4.14-.499 8.4.584 12.43.602-.53-14.534-3.55-28.674-5.59-43.011-.26-1.891-.29-2.553-.4-3.836-.23-2.453-.45-4.694-.45-4.694-.02-.71.12-1.947.12-1.947.26-1.214 1.12-2.865 1.12-2.865a8.393 8.393 0 0 1 7.39-3.679c2.91.335 2.64.548 4.03 1.478 0 0 2.01 1.841 2.73 3.468 0 0 .24 1.744.54 4.008-.01.081-.02.168-.03.227.15-.836.02-.218 0 0l.04-.209-.01-.018c.04-.189.07-.338.01.018zm-246.23 85.569c.26 1.755.68 3.499 1.21 5.203 0 0 2.74 3.094 2.43 6.526-.56 6.086-9.2 10.093-14.53 4.313-5.5-5.965-5.23-15.398-5.45-21.043-.05-1.332-.11-2.664-.17-3.996-.34-9.084.14-19.382 8.56-25.606 6.71-4.959 15.98-7.482 23.79-7.673.3-.002.3-.002.6 0 5.82.115 11.92 4.851 10.8 11.225-.9 5.164-7.74 8.52-12.52 5.136-.49-.348-.53-.126-.72-.09-4.24.834-8.46 2.215-12.21 4.135-1.82.949-2.52 3.102-2.7 5.794 2.13-.108 4.25-.285 6.35-.591 0 0 1.39-.891 3.85-.864 4.3.159 7.99 4.013 7.8 8.396-.01.216-.03.431-.06.646-.29 2.16-1.38 4.545-4.18 6.143-3.75 2.133-8.35 2.308-12.85 2.346zm55.43-40.036c6.32.024 13.96.809 15.7 7.597 1.52 5.953-5.8 12.529-11.91 8.817-.89-.547-1.57-.364-2.39-.392-3.39-.115-7.22.134-8.68 2.916-3.04 5.785-2.09 13.484-2.03 19.76.04 2.19.1 4.382.39 6.547 0 0 4.92 11.24-4.36 13.217-3.42.73-7.13-.942-9.12-3.882-4.28-6.292-3.03-15.142-2.88-23.164.02-1.151.05-2.302.11-3.452.05-.936.11-1.871.19-2.805.7-8.117 3.39-16.83 10.58-21.51 4.2-2.738 9.35-3.655 14.4-3.649zM13.096 64.219c1.568.088 2.035.269 2.896.635 7.094 3.019 4.67 14.962 3.04 24.39-1.527 8.831-3.652 17.6-2.76 26.757.156 1.605.694 3.441.996 3.555 3.653 1.303 7.186-4.134 8.91-8.431.458-1.141 1.016-2.845 1.016-2.845.006-.333.014-.665.022-.998.168-5.853.508-11.758 1.338-17.567 0 0-.502-4.653-.594-7.51-.128-3.972.906-8.426 4.644-10.659 1.319-.788.405-.31 1.737-.751l.873-.214c1.379-.233.43-.177 1.912-.13l1.957.34c1.219.393.325.007 1.619.689 0 0 3.883 2.89 4.423 7.261.691 5.602.212 11.422.212 17.18-.023 4.976-.868 9.926-2.168 14.732 0 .417.003.833.008 1.249.027 1.702.07 3.408.333 5.088l.926.903c3.831-1.405 6.009-7.185 7.059-11.111.393-1.47.76-2.947 1.111-4.427a322.77 322.77 0 0 0 1.039-4.557c1.768-7.967 3.258-16.024 3.325-24.159l.014-1.073c.565-6.91 11.698-10.78 15.279-2.855 1.255 2.779.725 6.188.531 9.514-.681 11.713-3.18 23.333-6.62 34.462-3.373 10.911-12.08 22.157-24.424 20.019-3.151-.546-6.09-2.121-8.472-4.275-.129.13-.261.256-.392.383-6.186 5.847-16.001 7.952-23.633 3.604-3.688-2.101-6.371-5.752-7.699-9.814-2.126-6.502-1.679-13.504-.949-20.287C1.728 92.87 4.828 82.653 4.859 72.191c0 0 .352-3.707 2.436-5.724a8.063 8.063 0 0 1 4.526-2.184c.818-.107 1.013-.065 1.275-.064zM397.2 70.423c2.83.054 5.599.998 7.847 2.753l.699.329c1.419.767.595.054 2.142 1.592 0 0 1.716 2.349 2.507 4.837 2.37 7.454 3.1 15.458 2.775 23.171-.188 4.472-.7 8.955-1.883 13.281 0 0 .01 1.461 2.524 1.199 0 0 4.435-3.426 8.634-1.743 5.749 2.303 6.808 11.01-.207 15.402-6.014 3.764-14.349 3.255-19.794-.761-8.069 6.043-16.775 4.498-24.136 1.062-6.881-3.21-12.027-9.672-13.672-17.153-3.029-13.771 4.677-28.275 15.474-36.113 5.076-3.719 10.385-7.628 16.458-7.85.211-.005.421-.007.632-.006zM91.072 0c3.733.29 7.029 3.107 7.593 6.78.303 1.974.091 2.544.088 3.665-.045 9.873-.287 19.757-.569 29.642-.3 10.31-.633 20.622-.838 30.94 0 0-.447.488.393.007 0 0 5.852-3.148 10.501-2.707 1.085.103 2.157.345 3.177.732 15.09 5.725 22.52 26.574 20.078 42.959-.825 5.535-1.446 11.917-3.883 15.674-.515.793-.041.279-1.223 1.508 0 0-.13.207-1.175.942l-1.215.658c-.454.178-1.732.53-1.732.53-3.52.526-2.177.401-4.523-.471 0 0-.367-.007-1.821-1.049l-1.252-1.195c-1.052-1.32-.518-.32-1.33-2.228l-.562-3.625c.245-2.39.383-1.052 1.131-4.171 1.476-6.245 2.536-12.475 1.376-19.294-.996-5.854-3.646-11.703-8.735-14.789 0 0-2.973 1.488-5.006 3.852-2.209 2.57-3.727 5.684-4.608 8.963l-.035.135c-.224 5.184-.505 10.368-.513 15.557v12.627c-.199 5.19-5.831 9.28-10.704 7.529-2.696-.968-4.766-3.482-5.202-6.307-.286-1.853-.088-2.23-.096-3.125-.123-9.192-1.524-18.675.593-28.475.329-8.197.211-16.365.369-24.546.403-20.879 1.389-41.763 1.409-62.732 0 0 .407-3.946 2.683-5.97C86.96.665 88.944-.002 91.072 0zm71.505 67.29c9.236.123 18.979 5.521 20.882 14.558 2.139 10.158-2.144 21.487-11.139 27.124-5.096 3.194-11.257 4.407-17.271 4.352l1.219 1.658c3.485 1.455 7.765 1.566 11.68.655 0 0 2.196-4.033 5.674-4.865 4.546-1.087 9.666 2.536 9.855 7.473.148 3.837-1.854 7.664-5.102 10.025-7.527 5.473-18.077 4.816-26.442 2.145-7.289-2.328-12.379-10.05-14.443-17.745-4.659-17.366 2.054-39.098 19.598-44.547a18.365 18.365 0 0 1 5.001-.83c.244-.003.244-.003.488-.003zm58.47 4.432c1.334.012 2.668.081 3.992.245 6.147.761 13.529 4.491 12.915 12.197-.497 6.243-10.123 10.187-14.516 3.971-.372-.527-.449-.299-.629-.319-3.04-.303-6.3-.11-8.926 1.008l-.012.006c-8.607 8.441-5.409 23.364-5.904 34.533a7.89 7.89 0 0 1-.067.736c-.868 6.309-11.18 9.478-14.907 2.815a8.02 8.02 0 0 1-.939-2.785c-2.125-15.025-1.677-34.17 10.055-46.163 4.704-4.809 11.968-6.252 18.938-6.244zm398.338 1.033c5.076.104 9.906 2.565 13.346 6.352 5.285-4.489 12.766-6.703 19.325-4.095 4.4 1.749 8.031 5.258 9.991 9.561 5.292 11.616.837 25.894-3.139 37.43-.681 1.977-1.279 3.823-2.828 5.513-1.022 1.115-.258.414-1.513 1.27l-.825.474c-.765.361-.296.205-1.449.557l-.983.208c-1.434.179-.595.187-2.181.023l-1.265-.264c-1.385-.441-.592-.04-2.106-.967l-1.479-1.232c-.341-.38-.035.294-1.091-1.441-.855-1.405-.385-.252-.849-2.007-.604-2.288-.317-4.763.938-6.738.349-.55.56-.771.56-.771 2.74-8 5.935-16.857 4.019-24.34-.885-3.459-2.466-2.498-3.322-2.014-1.575.889-2.84 2.27-3.935 3.728l.536 1.775c.262.938.259 1.057.32 1.493.533 3.782-.295 7.756-1.356 11.269-1.028 3.404-3.071 6.772-7.079 7.638-5.195 1.122-10.327-3.591-11.591-9.893-.878-4.374-.041-8.939 1.505-13.058 0 0-1.865-6.45-6.845-3.406-8.205 5.016-10.628 20.134-4.587 26.244 0 0 3.566 5.141 1.418 9.297-2.213 4.282-8.67 5.725-12.494 2.242-14.701-13.39-8.981-46.644 12.328-53.772 2.132-.713 4.38-1.097 6.631-1.076zm-162.89-6.378c9.996.116 20.168 7.108 20.695 18.012.227 4.69-3.761 9.277-8.509 8.961-4.064-.271-7.241-3.921-7.475-8.235-.182-2.698-4.523-3.115-7.269-2.46-6.033 1.439-8.304 9.578-8.437 17.671-.119 7.247 1.246 14.432.911 21.729-.296 6.452-10.089 10.326-14.452 4.352-1.354-1.855-1.49-4.039-1.576-6.863-.478-14.282-2.991-29.347 4.857-41.834 4.465-7.106 12.81-11.364 21.255-11.333zm571.143 31.62c-3.83.035-5.82 6.607-5.71 11.027.12 4.986 3.35 9.448 9.85 11.128 4.46-5.183 4.74-13.235 5.22-21.235 0 0 .9-.093-1.08-.179-2.81-.14-5.4-.746-8.28-.741zm-634.022-9.741c-1.879 1.262-3.285 2.398-5.563 3.989-7.47 5.318-11.621 17.608-5.217 23.349 3.602 3.23 9.451 4.155 11.71-.023 0 0-.795-6.661-.732-12.055.059-4.978.275-9.821-.114-15.138 0 0 .08-.23-.084-.122zm-131.614-3.971c-1.59.023-2.239 2.123-2.961 3.712-1.363 3.003-1.982 6.305-2.184 9.603 0 0 1.231-.519 2.194-.664a8.07 8.07 0 0 1 5.859 1.418c.636.458-.273.829 2.036.55 4.37-.53 9.426-4.219 6.468-9.344-2.158-3.739-7.026-5.284-11.412-5.275zm664.086 6.896c-3.4.082-5.89 3.272-7.35 6.839 0 0 3.96.816 6.11-.573 1.98-1.289 3.13-4.4 1.85-6.201 0 0-.28-.068-.61-.065zm-418.336-4.362c-.079.001-.159.002-.238.006-3.161.158-7.097 4.535-9.052 9.466 0 0 2.067-.061 3.71.592 1.383.549.068.453 3.168.198 4.883-.465 8.213-6.214 7.609-10.013 0 0-3.4-.26-5.197-.249zM162.384 83.29c-1.615.04-2.853 1.022-4.045 1.988-3.413 2.765-5.158 7.266-5.894 11.711 0 0 14.203 2.138 15.524-8.115.179-1.388-.112-3.453-.112-3.453-1.477-1.326-3.455-2.155-5.473-2.131zm723.794-42.436c3.85.262 4.81 1.117 5.99 2.208 3.92 3.646 2.67 11.32-2.63 13.344 0 0-4.89 2.331-8.51.167-4.7-2.811-5.31-11.205.24-14.535 1.47-.882 3.19-1.25 4.91-1.184z" fill="#fff" fill-rule="nonzero"/></svg>