<svg viewBox="0 0 5 3" xmlns="http://www.w3.org/2000/svg" fill="red"><path d="M.913 2.476l-.011-.015-.009-.014-.007-.015-.006-.016-.005-.018-.003-.02-.002-.024v-.062l.002-.039.002-.045.003-.052.005-.08.006-.078.005-.077.006-.075.005-.072.005-.069.006-.065.005-.062.005-.057.005-.052.004-.047.005-.04.003-.033.003-.028.002-.024.001-.02.001-.016v-.014l-.001-.01-.002-.008-.003-.005L.94 1.22l-.005-.002H.928l-.002-.001-.002-.001-.002-.001-.002-.001-.002-.002-.002-.002-.003-.003-.002-.002-.002-.003L.908 1.2l-.002-.003-.002-.004-.002-.004-.003-.006-.003-.006-.004-.007-.004-.008-.005-.008-.004-.008-.005-.009-.005-.009-.005-.01-.005-.009-.005-.01-.005-.01-.006-.011-.006-.012-.006-.013-.006-.012-.005-.013-.006-.013-.006-.012L.803.991.798.98.794.969.79.959.785.949.78.938.775.927.769.917.764.906.758.896.753.887.748.878.742.87.738.863.733.857.724.845.716.832.708.819.701.804.695.789.69.773.685.756.681.737.677.717.673.695.67.671.668.645.667.634.665.623.664.613.663.604.661.595.66.587.658.58.657.574.655.57.654.566.653.564.652.563H.65L.646.562.642.56.636.558.629.555.621.552.612.548.603.544.593.54.582.535.571.53.56.525.548.519.534.513.518.506.501.5.483.492.465.485.446.478.427.471.408.464.389.457.371.451.353.445.331.437.311.43.293.423.276.417.262.411.249.405.237.399.226.393.217.387.209.38.201.374.194.368.188.361.182.355.176.35.17.346.164.342.157.339.151.336.145.334.138.333.13.332.122.331.113.33.093.328.074.324.057.318.041.309.028.299.017.288.009.276.003.262 0 .248V.233L.003.218.01.203.014.197.017.192.021.188.025.184.029.181.035.178.041.176.048.175.057.173.066.172.078.171H.09L.11.17l.02.001.02.002.02.003.02.004.02.004.019.006.018.007.018.008.016.008.016.009.014.01.005.004.013.008.015.009.016.008.015.007.015.006.022.007.016.005.016.006.016.006.016.006.016.006.015.007.016.007.016.008.016.007.015.008.023.012.014.007.019.009.015.006.007.001.002.001.001-.001.002-.001.002-.002.001-.003.002-.004L.66.368.661.364.663.358.664.353.666.347.667.34.668.334.67.325.672.317.674.309.676.301.68.294.683.287.687.28.692.273.697.266.703.259.71.252.717.245.732.232.748.219.765.206.784.193.803.181.823.17.844.159l.021-.01L.887.14.909.131.93.124.951.118l.01-.003.011-.003.012-.003.012-.004.013-.003.013-.004.014-.004.013-.003.013-.004.013-.003.012-.004.011-.003.019-.005.019-.005.022-.005.023-.005.025-.005.027-.006.028-.005.031-.006.033-.006.035-.006.037-.006.04-.007.04-.003.078-.002.108-.002.131-.002L1.938 0h.302l.142.001.125.001.102.002.07.002.03.003.011.005.009.008.008.01.007.014.006.018.005.023.004.027.003.034.003.04.003.047.002.054.002.075.005.233h.137l.063-.001.078-.002.089-.003.096-.003.101-.005.102-.004.098-.005.092-.005.081-.005.068-.005.051-.004.03-.003.01-.002.011-.003.011-.003.012-.003.012-.004.013-.004.012-.004.012-.004.012-.005.012-.005.011-.004.01-.005.019-.01.019-.01.017-.012.016-.012.015-.014.015-.015.014-.017.014-.018.014-.02.014-.022.014-.024.014-.026.006-.012.007-.012.006-.01.006-.01.007-.009.006-.008.007-.008.007-.007.007-.007.007-.006.007-.006.008-.005.006-.004.006-.004.006-.005.006-.005.005-.005.006-.006.004-.005.005-.006.004-.005.003-.005.003-.005.001-.004.003-.007.004-.007.004-.006.004-.006.005-.005.006-.005.007-.005.008-.005.008-.004.01-.004.011-.004.011-.004.009-.001.009.001.01.004.01.006.01.007.01.01.009.01.008.012.007.013.006.013.004.014.003.014.002.01v.01l.001.008L4.5.223 4.498.23l-.002.006-.004.007-.006.007-.007.008-.008.009-.011.01-.013.012-.008.008-.009.009-.009.01-.009.011-.01.011-.01.011-.009.012-.01.012-.009.011-.008.012-.008.011-.008.01-.016.024-.018.023-.018.023-.019.023-.019.021-.019.021-.019.019-.019.018-.018.016-.017.013-.015.011-.014.008-.039.018-.045.015-.052.014-.06.013-.068.011-.077.01L3.7.726l-.099.008-.11.006-.123.005-.136.004-.15.003-.083.002-.069.001-.058.001-.046.002-.036.001-.028.002-.02.002-.015.003-.01.003-.007.004-.004.005-.004.006-.006.007-.008.008-.012.009-.016.01-.02.013-.025.015-.031.017-.037.02-.043.023-.051.027-.058.03-.066.035-.05.026-.045.024-.039.022-.034.02-.029.019-.026.017-.021.017-.019.017-.016.016-.013.017-.012.017-.01.019-.004.008-.005.009-.005.008-.004.009-.005.008-.005.008-.005.007-.004.007-.005.006-.004.006-.003.005-.004.003-.004.005-.003.004-.003.004-.002.003-.002.004-.001.003v.004l.001.007.003.008.002.004.002.005.002.007.002.01.002.013.002.014.002.017.002.018.001.02.002.02.002.022.001.023.003.047.001.026.002.028.003.057.004.058.004.056.002.026.002.024.002.023.003.039.002.037.002.034v.062l-.001.028L2 2.101l-.004.026-.004.026-.005.026-.006.027-.008.028-.006.022-.006.021-.006.018-.005.016-.005.014-.004.011-.005.011-.004.008-.004.007-.004.006-.003.004-.004.003-.005.002h-.006l-.007-.002-.008-.003-.008-.004-.009-.006-.008-.007-.009-.007-.009-.009-.008-.009-.007-.01-.007-.011-.005-.008-.004-.01-.003-.011-.003-.015-.002-.02-.002-.026-.001-.033V1.952l.001-.091.001-.056v-.054l.001-.051v-.049l.001-.045.001-.041.001-.036v-.032l.001-.025.001-.02.001-.013v-.006l.001-.003v-.005l-.001-.002-.001-.002-.002-.001-.002-.001h-.017l-.006.001h-.005l-.005.001-.005.001-.005.001-.005.001-.005.001-.005.002-.004.001-.004.001-.004.002-.003.001-.003.002-.005.001-.007.001-.011.001-.014.002-.016.001-.019.001-.021.001h-.022l-.024.001h-.026l-.026.001h-.027l-.05-.001-.046-.001-.044-.002-.04-.002-.036-.004-.034-.004-.03-.004-.028-.006-.024-.006-.022-.008-.018-.007-.015-.009-.004-.002-.003-.003-.004-.001-.003-.002-.003-.002-.003-.001-.002-.001-.003-.001h-.005l-.003.01-.003.023-.003.035-.003.044-.003.052-.003.058-.003.06-.003.063-.002.061-.002.059-.002.054v.047l-.001.069-.001.063-.003.058-.003.052-.004.047-.004.043-.006.039-.007.035-.008.032-.009.029-.01.026-.011.024-.007.013-.007.01-.007.008-.007.006-.007.004-.007.002-.008.001-.007-.002-.008-.004-.008-.005-.008-.008-.008-.009zM1.768.14l-.079.002-.07.004-.063.004L1.5.156l-.053.008-.048.009-.047.011-.045.012-.02.006-.02.005-.021.006-.022.005-.02.005-.021.005-.02.004-.019.005-.018.003-.016.003-.014.003-.013.002-.017.002-.016.002-.013.003-.013.003-.012.004-.011.004L.99.271.979.277.967.285.953.294l-.014.01-.017.012-.001.001-.003.002-.004.004-.006.004-.007.005-.008.006-.008.006-.009.007-.009.006-.008.006-.008.006-.007.006v.138l.001.019V.55l.001.017.001.015.002.015.002.014.002.014.003.012.003.013.003.012.004.012.009.025.01.027.011.027.012.027.012.026.012.024.011.023.011.02.01.017.009.012L.98.91l.005.003.007.001.007.003.007.004.006.005.005.006.005.008.004.008.004.009.002.01.001.01.001.01-.001.01-.001.012.001.013.003.013.006.015.008.015.01.016.013.017.017.019.019.02.022.022.025.025.038.034.073.067h.356l.03-.001.024-.001.019-.001.016-.002.012-.002.01-.003.008-.003.007-.004.006-.005.004-.003.004-.003.005-.003.004-.002.004-.003.003-.002.004-.002.003-.001.004-.002.002-.001h.005l.002-.001.002-.001.002-.003.003-.003.003-.004.002-.004.003-.005.003-.006.003-.006.003-.007.003-.007.003-.007.007-.017.01-.018.012-.02.014-.02.015-.021.017-.02.017-.019.018-.018.017-.017.016-.014.015-.011.014-.007.005-.003.006-.003.006-.003.008-.004.007-.004.009-.005.008-.005.008-.004.009-.005.008-.005.009-.005.007-.005.01-.006.012-.007.014-.008.016-.009.018-.01.02-.01.021-.011.022-.012.023-.012.023-.012.024-.012.023-.012.043-.022.039-.021.035-.02.031-.019.027-.018.023-.018.02-.017.017-.017.013-.016.01-.016.007-.017.005-.016.001-.007v-.01l.001-.013V.55L2.59.531V.487L2.589.463V.437L2.588.41 2.587.383V.355L2.586.352v-.02L2.585.317V.298l-.001-.02-.001-.022L2.581.21V.188L2.58.168 2.579.149 2.194.142 2.068.14 1.956.139h-.099L1.768.14z"/><path d="M1.851.843H1.778L1.753.84h-.065l-.02-.002h-.033L1.622.836h-.019L1.595.834h-.008L1.58.832 1.571.831h-.007L1.557.828 1.551.827 1.546.825h-.004L1.538.821 1.536.82 1.531.816 1.527.81 1.524.803V.797L1.521.79V.782l.001-.008.002-.008.003-.007.004-.007.004-.007.006-.005.01-.006.016-.006.022-.006.026-.005.03-.004L1.68.71l.036-.004.038-.003.04-.002H1.907l.025.001.021.001.017.002.015.001.012.002.01.002.01.002.006.004.006.004.006.004.005.006.007.007.007.01.006.008.005.007.004.008.002.007.001.006V.79l-.002.006-.003.007-.004.006-.005.007-.007.007-.005.005-.006.004-.006.004-.008.002-.01.003-.012.001-.015.001-.018.001h-.121zM1.554.491l-.007.006-.008.006-.008.005-.01.003-.009.003-.01.002-.01.001H1.47L1.456.512 1.447.51 1.433.506 1.427.502 1.421.497 1.416.491 1.413.484 1.41.476V.467L1.407.458 1.41.45 1.411.44l.003-.009.005-.009.005-.009.008-.008L1.443.4l.012-.004.013-.002h.014l.015.002.014.003.014.005.013.007.012.01.01.01.007.01.004.01.001.003.001.004v.007L1.57.468 1.57.472l-.003.004-.003.004-.004.005-.005.006zM2.205.465l-.007.008-.006.006-.005.005-.005.004-.005.002-.005.002h-.019L2.145.488l-.01-.003-.013-.004h-.005L2.112.478 2.107.476 2.101.473 2.096.47 2.091.467 2.086.463 2.081.46 2.077.455 2.073.451 2.07.447 2.067.443 2.063.437 2.06.431 2.057.427 2.055.422V.415l.001-.004.002-.004.003-.004.004-.005.005-.006.007-.006.01-.009.011-.007.012-.006.012-.005.013-.002.013-.002.012.001.012.002.011.003.011.005.01.007.007.008.007.008.005.008.004.007.002.006.002.007V.43l-.004.006-.003.007L2.22.45l-.007.008-.007.008z"/></svg>