<svg viewBox="0 0 3459 694" xmlns="http://www.w3.org/2000/svg" fill-rule="evenodd" clip-rule="evenodd" stroke-linejoin="round" stroke-miterlimit="1.414"><path d="M252.757 685.46l-3.046-4.152-2.491-3.876-1.938-4.152-1.661-4.43-1.384-4.983-.83-5.537-.554-6.644v-17.164l.553-10.797.554-12.458.83-14.396 1.385-22.147 1.66-21.594 1.385-21.317 1.661-20.763 1.384-19.932 1.384-19.102 1.661-17.995 1.385-17.164 1.384-15.78 1.384-14.396 1.107-13.012 1.385-11.073.83-9.136.83-7.752.554-6.644.277-5.537.277-4.43v-3.875l-.277-2.768-.553-2.215-.831-1.384-.83-1.108-1.385-.553h-1.938l-.553-.277-.554-.277-.554-.277-.553-.277-.554-.553-.554-.554-.83-.83-.554-.554-.554-.83-.276-.555-.554-.83-.554-1.107-.554-1.108-.83-1.66-.83-1.662-1.108-1.938-1.107-2.215-1.385-2.214-1.107-2.215-1.384-2.492-1.384-2.491-1.385-2.769-1.384-2.491-1.384-2.769-1.384-2.768-1.661-3.045-1.661-3.322-1.661-3.6-1.661-3.321-1.385-3.6-1.66-3.598-1.662-3.322-1.384-3.323-1.384-3.045-1.107-3.045-1.108-2.769-1.384-2.768-1.384-3.045-1.384-3.045-1.662-2.769-1.384-3.045-1.66-2.769-1.385-2.491-1.384-2.492-1.661-2.214-1.108-1.938-1.384-1.661-2.491-3.323-2.215-3.598-2.215-3.6-1.938-4.152-1.66-4.153-1.385-4.43-1.384-4.705-1.108-5.26-1.107-5.537-1.107-6.09-.83-6.645-.555-7.198-.276-3.045-.554-3.045-.277-2.769-.277-2.491-.553-2.492-.277-2.215-.554-1.938-.277-1.66-.553-1.108-.277-1.107-.277-.554-.277-.277h-.554l-1.107-.277-1.107-.553-1.661-.554-1.938-.83-2.215-.831-2.492-1.108-2.491-1.107-2.769-1.107-3.045-1.385-3.045-1.384-3.045-1.384-3.323-1.661-3.875-1.661-4.43-1.938-4.706-1.661-4.983-2.215-4.983-1.938-5.26-1.938-5.26-1.937-5.26-1.938-5.26-1.938-4.984-1.661-4.983-1.661-6.09-2.215-5.537-1.938-4.983-1.938-4.707-1.66-3.875-1.662-3.6-1.661-3.321-1.661-3.046-1.661-2.491-1.661-2.215-1.938-2.215-1.661-1.938-1.661-1.66-1.938-1.662-1.661-1.66-1.384-1.662-1.108-1.66-1.107-1.939-.83-1.66-.831-1.662-.554-1.938-.277-2.215-.276-2.214-.277-2.492-.277-5.537-.554-5.26-1.107-4.706-1.661-4.43-2.492-3.598-2.768-3.046-3.046-2.214-3.322L.83 72.533 0 68.657v-4.153l.83-4.152 1.938-4.153 1.108-1.661.83-1.384 1.108-1.108L6.92 50.94l1.107-.83 1.661-.831 1.662-.554 1.937-.277 2.492-.553 2.492-.277 3.322-.277h3.322l5.537-.277 5.536.277 5.537.554 5.537.83 11.074 2.215 5.26 1.661 4.983 1.938 4.983 2.215 4.43 2.214 4.43 2.492 3.875 2.768 1.384 1.108 3.599 2.214 4.153 2.492 4.43 2.215 4.152 1.938 4.152 1.66 6.09 1.939 4.43 1.384 17.718 6.644 4.153 1.938 4.43 1.938 4.429 2.215 4.43 1.937 4.152 2.215 6.367 3.322 3.876 1.938 5.26 2.492 4.153 1.66 1.938.278.553.276.277-.276.554-.277.554-.554.276-.83.554-1.108.554-1.107.277-1.108.553-1.66.277-1.385.554-1.66.277-1.939.276-1.66.554-2.492.554-2.215.554-2.215.553-2.215 1.108-1.937.83-1.938 1.107-1.938 1.385-1.938 1.384-1.938 1.66-1.938 1.939-1.938 1.938-1.938 4.152-3.599 4.43-3.599 4.706-3.599 5.26-3.598 5.26-3.323 5.537-3.045 5.814-3.045 5.813-2.769 6.09-2.491 6.091-2.492 5.814-1.938 5.814-1.66 2.768-.831 3.045-.83 3.323-.831 3.322-1.108 3.599-.83 3.599-1.107 3.875-1.108 3.6-.83 3.598-1.108 3.6-.83 3.321-1.108 3.046-.83 5.26-1.384 5.26-1.385 6.09-1.384 6.367-1.384 6.921-1.384 7.475-1.661 7.752-1.384 8.582-1.662 9.136-1.66 9.69-1.662 10.242-1.66 11.074-1.939 11.074-.83 21.593-.554 29.9-.553 36.266-.554L536.52 0h83.606l39.312.277 34.605.277 28.238.553 19.379.554 8.305.83 3.045 1.385 2.492 2.215 2.215 2.768 1.937 3.876 1.662 4.983 1.384 6.367 1.107 7.475.83 9.413.831 11.073.83 13.012.554 14.95.554 20.762 1.384 64.505h37.928l17.44-.277 21.594-.554 24.64-.83 26.576-.83 27.961-1.385 28.238-1.107 27.13-1.385 25.47-1.384 22.424-1.384 18.825-1.384 14.12-1.108 8.305-.83 2.768-.554 3.045-.83 3.046-.831 3.322-.83 3.322-1.108 3.599-1.107 3.322-1.108 3.322-1.107 3.322-1.384 3.322-1.384 3.045-1.108 2.769-1.384 5.26-2.768 5.26-2.769 4.706-3.322 4.43-3.322 4.152-3.876 4.153-4.152 3.876-4.707 3.875-4.983 3.876-5.537 3.876-6.09 3.876-6.644 3.876-7.198 1.66-3.322 1.939-3.323 1.66-2.768 1.662-2.768 1.938-2.492 1.66-2.215 1.939-2.214 1.937-1.938 1.938-1.938 1.938-1.661 1.938-1.661 2.215-1.385 1.66-1.107 1.662-1.107 1.661-1.384 1.661-1.385 1.384-1.384 1.661-1.661 1.108-1.384 1.384-1.661 1.107-1.384.83-1.385.831-1.384.277-1.107.83-1.938 1.108-1.938 1.107-1.661 1.108-1.661 1.384-1.384 1.661-1.385 1.938-1.384 2.215-1.384 2.214-1.107 2.769-1.108 3.045-1.107 3.045-1.107 2.492-.277 2.491.277 2.769 1.107 2.768 1.661 2.769 1.938 2.768 2.768 2.492 2.769 2.214 3.322 1.938 3.599 1.661 3.599 1.108 3.876.83 3.875.554 2.769v2.768l.277 2.215-.277 1.938-.554 1.938-.553 1.66-1.108 1.939-1.66 1.938-1.939 2.214-2.214 2.492-3.046 2.768-3.599 3.322-2.214 2.215-2.492 2.492-2.492 2.768-2.491 3.045-2.769 3.046-2.768 3.045-2.492 3.322-2.768 3.322-2.492 3.045-2.214 3.322-2.215 3.046-2.215 2.768-4.43 6.644-4.982 6.368-4.984 6.367-5.26 6.367-5.26 5.814-5.26 5.814-5.26 5.26-5.26 4.983-4.983 4.43-4.706 3.598-4.153 3.046-3.875 2.214-10.797 4.984-12.458 4.152-14.396 3.876-16.61 3.599-18.826 3.045-21.317 2.769-24.362 2.214-27.407 2.215-30.453 1.661-34.051 1.384-37.65 1.108-41.527.83-22.978.554-19.102.277-16.057.277-12.735.553-9.966.277-7.751.554-5.537.553-4.153.831-2.768.83-1.938 1.108-1.108 1.384-1.107 1.661-1.661 1.938-2.215 2.215-3.322 2.491-4.43 2.769-5.536 3.599-6.921 4.152-8.582 4.707-10.243 5.536-11.905 6.368-14.119 7.475-16.056 8.305-18.272 9.69-13.842 7.197-12.458 6.644-10.797 6.09-9.412 5.538-8.029 5.26-7.198 4.706-5.813 4.706-5.26 4.707-4.43 4.43-3.599 4.706-3.322 4.706-2.768 5.26-1.108 2.215-1.384 2.491-1.384 2.215-1.108 2.491-1.384 2.215-1.384 2.215-1.384 1.938-1.108 1.938-1.384 1.66-1.107 1.662-.83 1.384-1.108.83-1.107 1.385-.83 1.107-.831 1.107-.554.831-.554 1.107-.277.83v1.108l.277 1.938.83 2.215 1.108 2.491.554 1.938.553 2.769 1.108 7.475 1.107 9.689.277 5.537.554 5.537.553 6.09.277 6.368.83 13.011.278 7.198.553 7.752.83 15.78 1.108 16.056 1.108 15.504.553 7.197.554 6.645.554 6.367.83 10.797.554 10.243.554 9.413v17.164l-.277 7.751-.554 7.752-1.107 7.198-1.108 7.198-1.384 7.198-1.661 7.474-2.215 7.752-1.66 6.09-1.662 5.814-1.66 4.983-1.385 4.43-1.384 3.876-1.108 3.045-1.384 3.045-1.107 2.215-1.108 1.938-1.107 1.66-.83 1.108-1.108.83-1.384.554h-1.661l-1.938-.553-2.215-.83-2.215-1.108-2.491-1.661-2.215-1.938-2.491-1.938-2.492-2.492-2.215-2.491-1.938-2.769-1.938-3.045-1.384-2.215-1.107-2.768-.83-3.045-.831-4.153-.554-5.537-.554-7.198-.276-9.135v-64.781l.276-25.193.277-15.503v-14.95l.277-14.119v-13.565l.277-12.458.277-11.35.277-9.967v-8.859l.277-6.92.276-5.537.277-3.6v-1.66l.277-.83V394.5l-.277-.554-.277-.554-.553-.276-.554-.277h-4.706l-1.661.277h-1.385l-1.384.276-1.384.277-1.384.277-1.384.277-1.385.277-1.384.554-1.107.276-1.108.277-1.107.554-.83.277-.831.553-1.384.277-1.938.277-3.045.277-3.876.554-4.43.276-5.26.277-5.813.277h-6.09l-6.645.277h-7.198l-7.198.277h-7.475l-13.842-.277-12.734-.277-12.181-.554-11.074-.553-9.966-1.108-9.413-1.107-8.305-1.107-7.752-1.661-6.644-1.661-6.09-2.215-4.984-1.938-4.152-2.492-1.108-.553-.83-.83-1.108-.278-.83-.553-.83-.554-.831-.277-.554-.277-.83-.277h-1.385l-.83 2.769-.83 6.367-.831 9.69-.83 12.18-.831 14.397-.83 16.056-.831 16.61-.83 17.442-.555 16.887-.553 16.334-.554 14.95v13.011l-.277 19.102-.277 17.441-.83 16.057-.83 14.396-1.108 13.011-1.107 11.905-1.661 10.796-1.938 9.69-2.215 8.859-2.492 8.028-2.768 7.198-3.045 6.644-1.938 3.6-1.938 2.768-1.938 2.214-1.938 1.661-1.938 1.108-1.938.554-2.214.276-1.938-.553-2.215-1.108-2.215-1.384-2.215-2.215-2.214-2.491zm236.7-646.702l-21.87.554-19.38 1.107-17.44 1.107-15.504 1.661-14.673 2.215-13.288 2.492-13.012 3.045-12.458 3.322-5.536 1.661-5.537 1.384-5.814 1.661-6.09 1.385-5.537 1.384-5.814 1.384-5.537 1.107-5.26 1.385-4.983.83-4.43.83-3.875.831-3.6.554-4.705.553-4.43.554-3.599.83-3.599.831-3.322 1.108-3.045 1.107-3.045 1.384-3.046 1.661-3.322 2.215-3.876 2.492-3.875 2.768-4.707 3.322-.277.277-.83.554-1.107 1.107-1.661 1.107-1.938 1.385-2.215 1.66-2.215 1.662-2.491 1.938-2.492 1.66-2.215 1.662-2.214 1.66-1.938 1.662v38.204l.276 5.26v4.983l.277 4.706.277 4.153.554 4.153 1.107 7.751.83 3.322.831 3.6.83 3.321 1.108 3.323 2.492 6.92 2.768 7.475 3.045 7.475 3.323 7.475 3.322 7.198 3.322 6.644 3.045 6.367 3.045 5.537 2.769 4.706 2.491 3.322 1.938 2.215 1.384.83 1.938.278 1.938.83 1.938 1.107 1.661 1.385 1.384 1.66 1.385 2.215 1.107 2.215 1.107 2.492.554 2.768.554 5.537-.277 2.768-.277 3.323.277 3.599.83 3.598 1.661 4.153 2.215 4.153 2.769 4.43 3.598 4.706 4.707 5.26 5.26 5.536 13.011 13.012 10.52 9.413 20.21 18.548h98.556l8.305-.277 6.644-.277 5.26-.277 4.43-.553 3.322-.554 2.768-.83 2.215-.831 1.938-1.107 1.66-1.385 1.108-.83 1.107-.83 1.385-.831 1.107-.554 1.107-.83.83-.554 1.108-.554.83-.277 1.108-.553.554-.277h1.384l.554-.277.553-.277.554-.83.83-.83.831-1.108.554-1.108.83-1.384.83-1.66.831-1.662.831-1.938.83-1.938.831-1.938 1.938-4.706 2.768-4.983 3.322-5.537 3.876-5.537 4.153-5.813 4.706-5.537 4.706-5.26 4.984-4.983 4.706-4.707 4.43-3.875 4.152-3.046 3.876-1.938 1.384-.83 1.661-.83 1.661-.831 2.215-1.108 1.938-1.107 2.491-1.384 2.215-1.384 2.215-1.108 2.491-1.384 2.215-1.384 2.492-1.384 1.938-1.385 2.768-1.66 3.322-1.939 3.876-2.214 4.43-2.492 4.983-2.768 5.536-2.769 5.814-3.045 6.09-3.322 6.368-3.322 6.367-3.322 6.645-3.322 6.367-3.322 11.904-6.091 10.797-5.814 9.69-5.537 8.582-5.26 7.474-4.983 6.368-4.983 5.536-4.706 4.707-4.706 3.599-4.43 2.768-4.43 1.938-4.706 1.384-4.43.277-1.937v-2.768l.277-3.6v-4.429l.277-5.26v-12.18l-.277-6.645v-7.198l-.277-7.475-.277-7.475V98.28l-.277-.83v-5.537l-.276-4.153v-5.26l-.277-5.537-.277-6.09-.554-12.735v-6.09l-.277-5.538-.276-5.26-106.585-1.937-34.882-.554-31.006-.277h-27.407l-24.64.277z" fill="red" fill-rule="nonzero"/><path d="M512.435 233.378h-20.21l-6.921-.83h-17.995l-5.537-.554h-9.135l-3.6-.554h-5.26l-2.214-.554h-2.215l-1.938-.553-2.491-.277h-1.938l-1.938-.83-1.661-.278-1.384-.553h-1.108l-1.107-1.108-.554-.277-1.384-1.107-1.107-1.661-.83-1.938v-1.66l-.831-1.939v-2.215l.277-2.214.553-2.215.83-1.938 1.108-1.938 1.107-1.938 1.662-1.384 2.768-1.661 4.43-1.661 6.09-1.661 7.198-1.384 8.305-1.108 9.69-.83 9.966-1.108 10.52-.83 11.074-.554h31.283l6.92.277 5.814.277 4.707.554 4.152.276 3.322.554 5.537 1.108 4.983 3.322 1.385 1.66 1.938 1.939 1.937 2.768 1.662 2.215 1.384 1.938 1.107 2.214.554 1.938.277 1.661v1.938l-.554 1.661-.83 1.938-1.108 1.661-1.384 1.938-1.938 1.938-1.384 1.384-1.661 1.108-1.661 1.107-2.215.554-2.769.83-3.322.277-4.152.277-4.983.277h-33.498l.277-.277zm-82.223-97.449l-1.937 1.661-2.215 1.662-2.215 1.384-2.768.83-2.492.83-2.768.554-2.769.277h-6.09l-3.876-1.384-2.492-.554-3.875-1.107-1.661-1.107-1.662-1.385-1.384-1.66-.83-1.938-.83-2.215v-2.492l-.831-2.491.83-2.215.277-2.769.83-2.491 1.385-2.492 1.384-2.491 2.215-2.215 3.045-1.384 3.322-1.108 3.6-.553h3.875l4.152.553 3.876.831 3.876 1.384 3.599 1.938 3.322 2.768 2.769 2.769 1.937 2.768 1.108 2.769.553 1.938v1.938l-.83.83v1.107l-.83 1.108-.831 1.107-1.107 1.384-1.385 1.661h-.277zm180.225-7.197l-1.938 2.214-1.661 1.661-1.385 1.385-1.384 1.107-1.384.554-1.384.553h-5.26l-2.215-1.107-2.768-.83-3.6-1.108h-1.383l-1.385-.83-1.384-.554-1.661-.83-1.384-.831-1.384-.83-1.385-1.108-1.384-.83-1.107-1.385-1.108-1.107-.83-1.108-.83-1.107-1.108-1.661-.83-1.661-.831-1.107-.554-1.385v-1.938l.277-1.107.554-1.107.83-1.108 1.108-1.384 1.384-1.66L575 106.86l2.768-2.492 3.046-1.937 3.322-1.662 3.322-1.384 3.599-.553 3.599-.554 3.322.277 3.322.553 3.045.831 3.045 1.384 2.769 1.938 3.876 4.43 1.384 2.214 1.107 1.938.554 1.661.554 1.938v3.6l-1.108 1.66-.83 1.938-1.108 1.938-1.938 2.215-1.938 2.214-.276-.276z" fill="red" fill-rule="nonzero"/><g fill="#ffc400" fill-rule="nonzero"><path d="M795.409 429.234c-1.78 0-3.88-.08-6.29-.25-2.41-.17-4.51-.25-6.28-.25-1.95 0-7.7.63-17.27 1.9l2.41 75.03.13 5.58.13 6.48c.34 18.53-4.11 27.8-13.33 27.8-3.39 0-6.33-1.1-8.83-3.3-2.49-2.2-3.74-4.95-3.74-8.25 0-3.22.13-8.04.38-14.47.25-6.43.38-11.26.38-14.48l-2.54-74.14c-6.18-.25-15.57-.97-28.18-2.15-7.54-1.02-11.3-5.21-11.3-12.57 0-3.73 1.14-6.82 3.43-9.27 2.28-2.45 5.2-3.68 8.76-3.68l26.66 2.16c0-4.32-.19-10.1-.58-17.33-.38-7.24-.57-12.46-.57-15.68 0-3.56 1.23-6.5 3.69-8.83 2.45-2.32 5.46-3.49 9.01-3.49 7.62 0 12.06 6.22 13.33 18.67.25 3.13.38 6.89.38 11.29l-.25 7.37-.13 7.87c10.49-1.35 16.5-2.03 18.03-2.03 8.8 0 14.55.42 17.26 1.27 5.17 1.69 7.75 5.67 7.75 11.93 0 3.73-1.17 6.79-3.5 9.21-2.32 2.41-5.31 3.61-8.94 3.61zM939.239 545.274c-6.01 0-9.94-3.22-11.8-9.65-1.95-6.94-3.73-16.8-5.34-29.58-1.52-12.27-2.28-22.34-2.28-30.21 0-2.2.11-5.55.32-10.03.21-4.49.31-7.83.31-10.03 0-15.91-3.97-23.87-11.93-23.87-10.75 0-20.35 4.87-28.82 14.6-4.31 4.99-10.24 14.51-17.77 28.56 0 32.25-1.36 51.34-4.06 57.26-2.37 5.25-6.06 7.87-11.05 7.87-3.47 0-6.52-1.18-9.14-3.55-2.62-2.37-3.93-5.25-3.93-8.64 0-1.18.38-3.04 1.14-5.58.67-2.12 1.14-8.3 1.39-18.54l.39-18.79.38-93.31c.59-10.49.88-17.56.88-21.2 0-4.32-.4-8.4-1.2-12.25-.81-3.85-1.21-7.85-1.21-12 0-3.55 1.23-6.49 3.68-8.82 2.46-2.33 5.46-3.49 9.02-3.49 6.94 0 11 3.72 12.19 11.17 1.35 8.21 2.03 15.62 2.03 22.22 0 8.88-.3 18.15-.89 27.8-.51 9.23-.72 18.49-.64 27.8l.13 11.18c6.94-9.31 14.37-16.28 22.28-20.89 7.91-4.61 16.31-6.92 25.2-6.92 14.05 0 23.7 4.57 28.95 13.71 3.72 6.43 5.83 17.27 6.34 32.5l1.02 24.25 2.54 26.41c1.18 9.9 2.62 18.62 4.31 26.15.34 1.44.51 2.67.51 3.68 0 3.47-1.27 6.37-3.81 8.7-2.54 2.33-5.58 3.49-9.14 3.49zM1042.459 543.244c-19.13 0-34.62-4.78-46.47-14.35-12.95-10.58-19.42-25.39-19.42-44.43 0-22.01 5.33-40.46 15.99-55.35 11.6-16.25 27.09-24.38 46.47-24.38 14.05 0 25.52 2.37 34.4 7.11 10.92 5.84 16.38 14.81 16.38 26.91 0 8.47-4.78 16.17-14.35 23.11-4.23 3.05-13.2 7.79-26.91 14.22l-48.5 22.98c4.74 7.02 10.65 12.31 17.71 15.87 7.07 3.55 15.3 5.33 24.7 5.33 5.84 0 12.69-1.1 20.56-3.3 9.99-2.79 16.42-6.46 19.3-10.98 2.88-4.53 5.97-6.79 9.27-6.79 2.96 0 5.6 1.12 7.93 3.36 2.33 2.24 3.49 4.84 3.49 7.81 0 9.39-7.57 17.47-22.72 24.25-12.95 5.75-25.56 8.63-37.83 8.63zm-3.43-115.66c-10.33 0-18.92 4-25.77 12-6.86 8-11.98 20.04-15.36 36.12l38.97-18.54c15.32-7.45 26.24-13.92 32.75-19.42-7.28-6.77-17.47-10.16-30.59-10.16zM1258.909 542.734c-11.85 0-23.11-2.07-33.77-6.22-3.13 3.13-6.94 4.7-11.42 4.7-4.57 0-8.49-1.53-11.75-4.57-3.26-3.05-4.89-6.86-4.89-11.43 0-2.03.13-5.14.39-9.33.25-4.19.38-7.3.38-9.33v-143.84c0-6.09 1.35-11.51 4.06-16.25 3.38-6.01 8.21-9.01 14.47-9.01 9.06 0 13.59 4.91 13.59 14.72 0 1.1-.15 2.86-.45 5.27-.29 2.41-.44 4.17-.44 5.27v48.62c6.26-3.47 12.27-6.07 18.02-7.81 5.76-1.73 11.3-2.6 16.64-2.6 19.88 0 35.97 7.24 48.24 21.71 11.42 13.54 17.14 29.96 17.14 49.26 0 19.63-6.65 36.27-19.94 49.89-13.54 13.97-30.29 20.95-50.27 20.95zm4.83-109.31c-4.41 0-9.48 1.27-15.24 3.81-5.75 2.54-12.23 6.35-19.42 11.43-.09 8.04-.09 26.02 0 53.95 11.59 5 21.54 7.49 29.83 7.49 10.75 0 19.59-3.62 26.53-10.85 6.94-7.24 10.41-16.36 10.41-27.36s-2.83-20.1-8.5-27.29c-5.93-7.45-13.8-11.18-23.61-11.18zM1381.799 384.804c-5.41 0-10.11-1.82-14.09-5.46-3.98-3.64-5.97-8.08-5.97-13.33s1.99-9.69 5.97-13.33c3.98-3.64 8.68-5.46 14.09-5.46 5.42 0 10.09 1.82 14.03 5.46 3.94 3.64 5.9 8.08 5.9 13.33s-1.96 9.69-5.9 13.33c-3.94 3.64-8.61 5.46-14.03 5.46zm10.79 93.06c0 4.82.15 12.57.45 23.23.29 10.66.44 18.41.44 23.23 0 4.91-1.65 8.95-4.95 12.13-3.3 3.17-7.49 4.76-12.57 4.76s-9.27-1.59-12.57-4.76c-3.3-3.18-4.95-7.22-4.95-12.13 0-4.82-.15-12.57-.44-23.23-.3-10.66-.45-18.41-.45-23.23 0-7.54.43-16.97 1.27-28.31.85-11.34 1.27-20.78 1.27-28.32 0-4.9 1.65-8.95 4.95-12.12 3.3-3.17 7.49-4.76 12.57-4.76s9.27 1.59 12.57 4.76c3.3 3.17 4.95 7.22 4.95 12.12 0 7.54-.42 16.98-1.27 28.32-.84 11.34-1.27 20.77-1.27 28.31zM1543.409 461.734c-3.55 19.89-5.67 40.88-6.34 62.97-.85 27.34-5.42 47.19-13.72 59.54-11.08 16.51-30.72 24.76-58.9 24.76-32.92 0-49.39-6.52-49.39-19.55 0-4.66 1.48-8.42 4.45-11.3 2.96-2.88 6.85-4.32 11.68-4.32 3.81 0 9.26.72 16.37 2.16 7.11 1.44 13.42 2.16 18.92 2.16 12.61 0 21.92-3.85 27.93-11.55 5.75-7.54 9.14-19.51 10.15-35.93-4.31 4.4-9.18 7.7-14.59 9.9-5.42 2.2-11.35 3.3-17.78 3.3-16.84 0-30.53-5.48-41.07-16.44-10.53-10.96-15.8-24.99-15.8-42.08 0-23.02 7.02-41.64 21.07-55.86 14.56-14.73 34.24-22.09 59.04-22.09 7.95 0 14.81.97 20.56 2.92 5.76 1.94 10.41 4.91 13.97 8.88 10.75 1.27 16.12 7.62 16.12 19.05 0 5.67-.89 13.5-2.67 23.48zm-49.25-25.39c-14.31 0-25.44 4.7-33.39 14.1-7.11 8.54-10.67 19.63-10.67 33.26 0 10.07 1.91 17.64 5.71 22.72 3.81 5.08 9.53 7.62 17.14 7.62 6.94 0 13.93-4.02 20.95-12.06 6.6-7.62 10.37-15.15 11.3-22.6 1.61-8.13 3.47-20.78 5.59-37.96-2.88-1.69-5.72-2.96-8.51-3.81-2.79-.84-5.5-1.27-8.12-1.27zM1653.349 435.204c-1.77 0-3.87-.06-6.28-.19s-4.51-.19-6.28-.19c-3.47 0-7.49.34-12.06 1.02 1.52 34.19 2.28 56.53 2.28 67.03 0 1.1.04 3.15.13 6.15.08 3.01.12 5.44.12 7.3 0 19.47-6.13 29.2-18.4 29.2-4.66 0-8.68-1.44-12.06-4.31-3.73-3.05-5.59-6.86-5.59-11.43 0-3.05.13-7.62.38-13.71.25-6.09.38-10.66.38-13.71 0-10.24-.76-32.16-2.28-65.76-5.25-.26-13.19-.95-23.81-2.1-10.62-1.14-15.93-6.62-15.93-16.44 0-4.74 1.61-8.76 4.82-12.06 3.22-3.3 7.37-4.95 12.45-4.95 3.13 0 10.32.51 21.58 1.52-.09-2.7-.3-7.19-.64-13.45-.34-5.42-.51-9.61-.51-12.57 0-4.74 1.74-8.68 5.21-11.81 3.47-3.13 7.66-4.7 12.57-4.7 12.53 0 18.79 10.54 18.79 31.62l-.26 10.41c5.25-.77 9.52-1.15 12.83-1.15 9.73 0 16.37.64 19.93 1.91 6.77 2.37 10.15 7.53 10.15 15.49 0 4.82-1.65 8.84-4.95 12.06-3.3 3.21-7.49 4.82-12.57 4.82zM1715.179 384.804c-5.42 0-10.11-1.82-14.09-5.46-3.98-3.64-5.97-8.08-5.97-13.33s1.99-9.69 5.97-13.33c3.98-3.64 8.67-5.46 14.09-5.46s10.09 1.82 14.03 5.46c3.93 3.64 5.9 8.08 5.9 13.33s-1.97 9.69-5.9 13.33c-3.94 3.64-8.61 5.46-14.03 5.46zm10.79 93.06c0 4.82.15 12.57.45 23.23.29 10.66.44 18.41.44 23.23 0 4.91-1.65 8.95-4.95 12.13-3.3 3.17-7.49 4.76-12.57 4.76s-9.27-1.59-12.57-4.76c-3.3-3.18-4.95-7.22-4.95-12.13 0-4.82-.15-12.57-.44-23.23-.3-10.66-.45-18.41-.45-23.23 0-7.54.43-16.97 1.27-28.31.85-11.34 1.27-20.78 1.27-28.32 0-4.9 1.65-8.95 4.95-12.12 3.3-3.17 7.49-4.76 12.57-4.76s9.27 1.59 12.57 4.76c3.3 3.17 4.95 7.22 4.95 12.12 0 7.54-.42 16.98-1.27 28.32-.84 11.34-1.27 20.77-1.27 28.31zM1859.149 546.414c-10.41 0-16.21-5.12-17.4-15.36-1.18-8.72-2.37-17.48-3.55-26.28-1.27-9.31-1.91-18.07-1.91-26.28 0-2.2.15-5.97.45-11.3.29-5.33.44-9.1.44-11.3 0-.59.09-2.09.26-4.5.17-2.42.25-4.38.25-5.91 0-7.02-1.69-10.53-5.08-10.53-7.25 0-14.36 4.66-21.34 13.98-6.97 9.32-12.43 21.13-16.37 35.44-.15 2.86-.51 6.68-1.06 11.45-.47 3.9-.71 7.71-.71 11.44 0 2.43-.27 6.09-.83 10.99-.55 4.9-.82 8.57-.82 10.99 0 4.95-1.67 9.04-5.02 12.29-3.34 3.25-7.55 4.88-12.63 4.88-5.07 0-9.26-1.62-12.57-4.85-3.3-3.23-4.95-7.3-4.95-12.21 0-2.42-.25-6.06-.76-10.93s-.76-8.51-.76-10.92c0-8.28.59-19.79 1.78-34.52 1.18-14.74 1.77-26.25 1.77-34.52 0-2.59-.14-6.45-.44-11.57-.3-5.13-.44-8.95-.44-11.45 0-4.82 1.71-8.81 5.14-11.96 3.43-3.14 7.64-4.72 12.63-4.72 11.09 0 17.01 6.65 17.77 19.94l.13 1.39c12.36-12.44 25.39-18.66 39.1-18.66 16 0 27.04 6.69 33.14 20.06 4.06 8.97 6.09 22.39 6.09 40.24v9.02c-.08 3.89-.13 6.64-.13 8.25 0 6.6.91 15.11 2.73 25.52 1.82 10.41 2.73 18.87 2.73 25.39 0 4.74-1.69 8.67-5.08 11.8-3.38 3.14-7.57 4.7-12.56 4.7zM2076.739 545.784c-1.61 0-4.53-1.87-8.76-5.59-3.81-3.47-6.64-6.56-8.5-9.27-8.13 4.4-15.28 7.73-21.46 9.97-6.18 2.24-11.34 3.36-15.49 3.36-19.8 0-34.23-5.58-43.29-16.76-8.55-10.49-12.82-26.57-12.82-48.24 0-20.48 7.05-38 21.14-52.56 14.09-14.55 30.91-21.83 50.46-21.83 7.37 0 15.62 1.9 24.76 5.71 11.51 4.74 17.26 10.45 17.26 17.14 0 2.28-.84 4.32-2.53 6.09-.85 3.22-1.51 8.51-1.97 15.87-.47 7.37-.74 16.8-.83 28.31-.08 10.5.64 18.79 2.16 24.89.85 3.72 3.51 11.17 8 22.34.59 1.52 1.56 3.77 2.92 6.73l.76 2.16c0 3.38-1.19 6.17-3.55 8.38-2.37 2.2-5.13 3.3-8.26 3.3zm-26.4-88.24c0-3.63.23-7.59.7-11.87.46-4.27 1.16-8.82 2.09-13.64-3.13-1.61-5.82-2.8-8.06-3.56-2.25-.76-4.04-1.14-5.4-1.14-13.12 0-24.44 5.35-33.96 16.06-9.52 10.71-14.28 23.04-14.28 37.01 0 13.88 2.45 24.29 7.36 31.23 4.91 6.94 12.28 10.41 22.09 10.41 8.13 0 15.03-1.48 20.7-4.45 3.04-1.61 7.32-4.82 12.82-9.65-2.71-22.42-4.06-39.22-4.06-50.4zM2169.169 530.804c-.26 7.78-4.11 11.68-11.56 11.68-6.18 0-10.66-3.64-13.46-10.92l-19.42-51.55-22.6-58.27c-.84-2.2-1.27-4.14-1.27-5.84 0-3.47 1.32-6.43 3.94-8.88 2.62-2.46 5.67-3.68 9.14-3.68 5.08 0 8.72 2.58 10.92 7.74l32.24 88.74c6.35-13.54 14.35-33.18 24-58.91 2.28-6.77 5.88-16.33 10.79-28.69 2.62-5.41 6.35-8.12 11.17-8.12 3.47 0 6.52 1.22 9.14 3.68 2.63 2.45 3.94 5.37 3.94 8.76 0 3.21-6.99 21.33-20.95 54.33l-26.02 59.93zM2336.239 545.784c-1.61 0-4.53-1.87-8.76-5.59-3.81-3.47-6.65-6.56-8.51-9.27-8.13 4.4-15.28 7.73-21.46 9.97-6.17 2.24-11.34 3.36-15.48 3.36-19.81 0-34.24-5.58-43.29-16.76-8.55-10.49-12.83-26.57-12.83-48.24 0-20.48 7.05-38 21.14-52.56 14.09-14.55 30.91-21.83 50.46-21.83 7.37 0 15.62 1.9 24.76 5.71 11.51 4.74 17.27 10.45 17.27 17.14 0 2.28-.85 4.32-2.54 6.09-.85 3.22-1.5 8.51-1.97 15.87-.47 7.37-.74 16.8-.83 28.31-.08 10.5.64 18.79 2.16 24.89.85 3.72 3.51 11.17 8 22.34.59 1.52 1.57 3.77 2.92 6.73l.76 2.16c0 3.38-1.18 6.17-3.55 8.38-2.37 2.2-5.12 3.3-8.25 3.3zm-26.41-88.24c0-3.63.23-7.59.7-11.87.46-4.27 1.16-8.82 2.09-13.64-3.13-1.61-5.82-2.8-8.06-3.56-2.24-.76-4.04-1.14-5.39-1.14-13.12 0-24.44 5.35-33.96 16.06-9.53 10.71-14.29 23.04-14.29 37.01 0 13.88 2.46 24.29 7.37 31.23 4.9 6.94 12.27 10.41 22.09 10.41 8.12 0 15.02-1.48 20.69-4.45 3.05-1.61 7.32-4.82 12.82-9.65-2.71-22.42-4.06-39.22-4.06-50.4zM2455.059 429.234c-1.77 0-3.87-.08-6.28-.25-2.41-.17-4.51-.25-6.28-.25-1.95 0-7.71.63-17.27 1.9l2.41 75.03.13 5.58.13 6.48c.33 18.53-4.11 27.8-13.33 27.8-3.39 0-6.33-1.1-8.83-3.3-2.49-2.2-3.74-4.95-3.74-8.25 0-3.22.12-8.04.38-14.47.25-6.43.38-11.26.38-14.48l-2.54-74.14c-6.18-.25-15.57-.97-28.18-2.15-7.54-1.02-11.3-5.21-11.3-12.57 0-3.73 1.14-6.82 3.43-9.27 2.28-2.45 5.2-3.68 8.75-3.68l26.67 2.16c0-4.32-.2-10.1-.58-17.33-.38-7.24-.57-12.46-.57-15.68 0-3.56 1.23-6.5 3.68-8.83 2.46-2.32 5.46-3.49 9.02-3.49 7.62 0 12.06 6.22 13.33 18.67.25 3.13.38 6.89.38 11.29l-.26 7.37-.12 7.87c10.49-1.35 16.5-2.03 18.03-2.03 8.8 0 14.55.42 17.26 1.27 5.16 1.69 7.75 5.67 7.75 11.93 0 3.73-1.17 6.79-3.5 9.21-2.32 2.41-5.31 3.61-8.95 3.61zM2591.789 545.784c-1.61 0-4.53-1.87-8.76-5.59-3.81-3.47-6.64-6.56-8.5-9.27-8.13 4.4-15.28 7.73-21.46 9.97-6.18 2.24-11.34 3.36-15.49 3.36-19.8 0-34.23-5.58-43.29-16.76-8.55-10.49-12.82-26.57-12.82-48.24 0-20.48 7.05-38 21.14-52.56 14.09-14.55 30.91-21.83 50.46-21.83 7.36 0 15.62 1.9 24.76 5.71 11.51 4.74 17.26 10.45 17.26 17.14 0 2.28-.84 4.32-2.54 6.09-.84 3.22-1.5 8.51-1.96 15.87-.47 7.37-.75 16.8-.83 28.31-.08 10.5.64 18.79 2.16 24.89.85 3.72 3.51 11.17 8 22.34.59 1.52 1.56 3.77 2.92 6.73l.76 2.16c0 3.38-1.19 6.17-3.56 8.38-2.37 2.2-5.12 3.3-8.25 3.3zm-26.4-88.24c0-3.63.23-7.59.69-11.87.47-4.27 1.17-8.82 2.1-13.64-3.13-1.61-5.82-2.8-8.06-3.56-2.25-.76-4.04-1.14-5.4-1.14-13.12 0-24.44 5.35-33.96 16.06-9.52 10.71-14.28 23.04-14.28 37.01 0 13.88 2.45 24.29 7.36 31.23 4.91 6.94 12.27 10.41 22.09 10.41 8.13 0 15.03-1.48 20.7-4.45 3.04-1.61 7.32-4.82 12.82-9.65-2.71-22.42-4.06-39.22-4.06-50.4zM2724.459 443.584c-.6 10.58-4.83 15.87-12.7 15.87-7.28 0-10.92-4.19-10.92-12.57 0-1.61-.12-4.57-.38-8.89l-.38-10.66c-13.37 1.61-24.08 5.37-32.12 11.3-7.53 5.5-13.79 13.79-18.79 24.88l.26 69.57c0 8.55-4.19 12.82-12.57 12.82-7.45 0-11.17-4.27-11.17-12.82v-89.12c0-2.79.1-6.98.32-12.57.21-5.58.31-9.77.31-12.57 0-8.55 3.73-12.82 11.18-12.82 8.29 0 12.48 7.03 12.56 21.08 16.25-15.66 34.28-23.49 54.09-23.49 6.85 0 11.97 2.58 15.36 7.74 3.38 5.17 5.08 12.95 5.08 23.36 0 4.4-.05 7.37-.13 8.89zM2913.999 439.644c-4.66 0-7.91-1.56-9.78-4.69-1.27-2.2-2.37-6.77-3.3-13.72-6.35 1.61-16.12 4.58-29.32 8.89-13.63 5.42-20.49 12.1-20.57 20.06 2.54.93 5.04 1.61 7.49 2.03 19.47 3.47 33.94 8.25 43.42 14.35 13.79 8.88 20.69 21.75 20.69 38.59 0 13.8-5.96 24.21-17.9 31.23-9.9 5.76-22.43 8.63-37.58 8.63-11.08 0-21.66-1.86-31.73-5.58-13.04-4.74-19.56-11.34-19.56-19.81 0-3.38 1.34-6.34 4-8.88 2.67-2.54 5.69-3.81 9.08-3.81 2.62 0 6.01 2.03 10.16 6.09 2.03 1.95 6.6 3.56 13.71 4.83 5.67 1.01 10.45 1.52 14.34 1.52 7.11 0 13.38-.85 18.79-2.54 7.87-2.45 11.81-6.35 11.81-11.68 0-11.51-8.04-19.29-24.12-23.36l-13.21-2.92c-11.25-2.45-19.25-5.33-23.99-8.63-6.86-4.74-10.28-11.89-10.28-21.46 0-17.68 8.33-30.3 25.01-37.83 5.08-2.28 13.2-5.01 24.37-8.19 11.17-3.17 19.17-5.86 24-8.06 3.47-1.52 7.23-2.28 11.29-2.28 3.64 0 6.63 1.18 8.96 3.55 2.32 2.37 3.49 5.46 3.49 9.27 0 2.45.53 6.05 1.58 10.79 1.06 4.74 1.59 8.34 1.59 10.79 0 3.81-1.16 6.9-3.49 9.27-2.33 2.37-5.31 3.55-8.95 3.55zM3039.809 429.234c-1.78 0-3.87-.08-6.28-.25-2.42-.17-4.51-.25-6.29-.25-1.95 0-7.7.63-17.26 1.9l2.41 75.03.12 5.58.13 6.48c.34 18.53-4.1 27.8-13.33 27.8-3.38 0-6.32-1.1-8.82-3.3-2.5-2.2-3.75-4.95-3.75-8.25 0-3.22.13-8.04.38-14.47.26-6.43.39-11.26.39-14.48l-2.54-74.14c-6.18-.25-15.58-.97-28.19-2.15-7.53-1.02-11.3-5.21-11.3-12.57 0-3.73 1.15-6.82 3.43-9.27 2.29-2.45 5.21-3.68 8.76-3.68l26.66 2.16c0-4.32-.19-10.1-.57-17.33-.38-7.24-.57-12.46-.57-15.68 0-3.56 1.23-6.5 3.68-8.83 2.45-2.32 5.46-3.49 9.01-3.49 7.62 0 12.06 6.22 13.33 18.67.26 3.13.38 6.89.38 11.29l-.25 7.37-.13 7.87c10.5-1.35 16.51-2.03 18.03-2.03 8.8 0 14.56.42 17.27 1.27 5.16 1.69 7.74 5.67 7.74 11.93 0 3.73-1.16 6.79-3.49 9.21-2.33 2.41-5.31 3.61-8.95 3.61zM3124.999 544.894c-14.22 0-26.45-5.25-36.7-15.74-11.42-11.68-17.43-27.38-18.02-47.1-.51-19.13 4.31-35.97 14.47-50.53 11.85-17.18 28.35-25.77 49.51-25.77 16.93 0 29.75 7.74 38.47 23.23 6.94 12.53 10.28 27.59 10.03 45.2-.25 18.78-5.16 34.82-14.73 48.11-10.83 15.07-25.18 22.6-43.03 22.6zm7.61-113.37c-12.44-.09-22.13 5.84-29.07 17.77-5.5 9.57-8.25 20.48-8.25 32.76 0 12.27 3.34 21.83 10.03 28.69 5.58 5.67 12.14 8.5 19.68 8.5 8.8 0 16.37-3.21 22.72-9.64 7.19-7.12 11-16.72 11.43-28.82 1.18-32.76-7.66-49.18-26.54-49.26zM3312.889 443.584c-.6 10.58-4.83 15.87-12.7 15.87-7.28 0-10.92-4.19-10.92-12.57 0-1.61-.12-4.57-.38-8.89l-.38-10.66c-13.37 1.61-24.08 5.37-32.12 11.3-7.53 5.5-13.79 13.79-18.79 24.88l.26 69.57c0 8.55-4.19 12.82-12.57 12.82-7.45 0-11.17-4.27-11.17-12.82v-89.12c0-2.79.1-6.98.31-12.57.22-5.58.32-9.77.32-12.57 0-8.55 3.73-12.82 11.17-12.82 8.3 0 12.49 7.03 12.57 21.08 16.25-15.66 34.28-23.49 54.08-23.49 6.86 0 11.98 2.58 15.36 7.74 3.39 5.17 5.08 12.95 5.08 23.36 0 4.4-.04 7.37-.12 8.89zM3398.319 543.244c-19.12 0-34.61-4.78-46.46-14.35-12.95-10.58-19.42-25.39-19.42-44.43 0-22.01 5.33-40.46 15.99-55.35 11.6-16.25 27.09-24.38 46.47-24.38 14.05 0 25.52 2.37 34.4 7.11 10.92 5.84 16.38 14.81 16.38 26.91 0 8.47-4.78 16.17-14.35 23.11-4.23 3.05-13.2 7.79-26.91 14.22l-48.5 22.98c4.74 7.02 10.65 12.31 17.71 15.87 7.07 3.55 15.3 5.33 24.69 5.33 5.85 0 12.7-1.1 20.57-3.3 9.99-2.79 16.42-6.46 19.3-10.98 2.88-4.53 5.96-6.79 9.27-6.79 2.96 0 5.6 1.12 7.93 3.36 2.33 2.24 3.49 4.84 3.49 7.81 0 9.39-7.57 17.47-22.72 24.25-12.95 5.75-25.56 8.63-37.84 8.63zm-3.42-115.66c-10.33 0-18.92 4-25.77 12-6.86 8-11.98 20.04-15.37 36.12l38.98-18.54c15.32-7.45 26.24-13.92 32.75-19.42-7.28-6.77-17.47-10.16-30.59-10.16z"/></g></svg>