<svg viewBox="0 0 652 211" xmlns="http://www.w3.org/2000/svg" fill-rule="evenodd" clip-rule="evenodd" stroke-linejoin="round" stroke-miterlimit="1.414"><path fill="#da2727" d="M0 0h651.34v210.932H0z"/><g fill="#fff" fill-rule="nonzero"><path d="M152.147 181.535h29.576l1.999-154.775H162.54l-51.393 99.375-21.4-99.375h-20.8l-50 154.775h29.6l28.2-93.6h.4l17.8 95.6h10.2l49.4-95.6h.399l-2.799 93.6zM288.124 136.935l.599-3.395c4.599-29.6-5.994-53.38-38.184-53.38-31.813 0-51.196 23.38-55.992 53.18-4.6 29.82 10.391 51.395 40.783 51.395 20.612 0 39.607-10.987 49.597-30.584l-25.182-4.204c-5.004 7.808-11.808 13.413-21.013 13.413-14.609 0-17.008-14.013-15.21-26.425h64.602zm-60.999-17.375c3.001-10.213 10.806-19.825 22.013-19.825 10.807 0 15.609 9.812 15.409 19.825h-37.422zM337.747 83.36h-28l-15.6 98.175h28l7.6-48.2c1.6-10.4 4.2-30.8 19.8-30.8 14.6 0 10.2 19.6 8.6 29.2l-7.8 49.8h28l7.6-48.2c1.6-10.2 4.8-30.8 20-30.8 13.797 0 10.2 17.8 8.8 27.4l-8.2 51.6h27.985l9.592-61.2c3.398-21.396.199-40.175-24.779-40.175-11.398 0-23.398 5.793-30.998 15.383-4.8-10.389-13.6-15.383-25.8-15.383-9 0-19.2 4.195-25.8 11.987h-.4l1.4-8.787zM548.724 136.935l.599-3.395c4.599-29.6-5.994-53.38-38.184-53.38-31.813 0-51.196 23.38-55.992 53.18-4.6 29.82 10.391 51.395 40.783 51.395 20.612 0 39.607-10.987 49.597-30.584l-25.182-4.204c-5.004 7.808-11.808 13.413-21.013 13.413-14.609 0-17.008-14.013-15.21-26.425h64.602zm-60.999-17.375c3.001-10.213 10.806-19.825 22.013-19.825 10.807 0 15.609 9.812 15.409 19.825h-37.422zM631.52 90.347c-6.79-6.991-19.591-10.187-29.988-10.187-18.394 0-33.19 13.383-36.189 31.78-2.399 15.806 6.398 21.608 15.595 25.81 8.997 4.202 18.595 6.202 17.195 14.806-1 6.402-6.598 10.604-12.796 10.604-8.198 0-14.596-5.402-18.994-11.405l-15.596 16.599c6.998 10.388 18.795 16.381 31.991 16.381 20.593 0 40.392-12.985 43.782-34.78 2.6-17.007-6.19-23.81-15.791-28.211-9.197-4.402-19.194-6.403-17.994-13.606.799-4.802 5.998-8.403 10.596-8.403 5.599 0 10.199 3.001 13.599 6.803l14.59-16.191z"/></g></svg>