<svg viewBox="0 0 1343 328" xmlns="http://www.w3.org/2000/svg"><path fill="#000" d="M-.004 0h1342.197v327.778H-.004z"/><path fill="#fff" d="M11.018 10.917h620.007v306.007H11.018z"/><path fill="#fff" d="M835.298 156.936l-46.201 6.52c-1.547-7.21-5.081-12.642-10.587-16.294-5.505-3.652-12.642-5.471-21.427-5.471-11.673 0-20.985 3.147-27.935 9.442-6.95 6.308-10.433 16.839-10.433 31.606 0 16.427 3.534 28.02 10.603 34.806 7.052 6.773 16.533 10.16 28.428 10.16 8.887 0 16.176-1.98 21.852-5.924 5.658-3.957 9.668-10.756 11.996-20.397l46.032 6.122c-4.775 16.507-13.95 28.976-27.51 37.409-13.56 8.42-31.742 12.642-54.545 12.642-25.896 0-46.542-6.387-61.954-19.162-15.395-12.776-23.092-30.451-23.092-53.04 0-22.855 7.731-40.65 23.177-53.385 15.463-12.722 36.364-19.083 62.719-19.083 21.563 0 38.708 3.626 51.435 10.876 12.727 7.264 21.886 18.313 27.442 33.173zM842.894 183.27c0-12.177 3.84-23.943 11.504-35.324 7.68-11.381 18.555-20.08 32.608-26.068 14.07-5.99 29.77-8.99 47.119-8.99 26.797 0 48.75 6.798 65.862 20.397 17.128 13.598 25.692 30.782 25.692 51.539 0 20.942-8.65 38.299-25.93 52.07-17.298 13.771-39.065 20.663-65.301 20.663-16.228 0-31.708-2.868-46.44-8.605s-25.93-14.143-33.61-25.218c-7.664-11.076-11.504-24.568-11.504-40.464zm48.037 1.952c0 13.732 4.163 24.236 12.506 31.54 8.343 7.304 18.623 10.942 30.84 10.942 12.235 0 22.499-3.638 30.774-10.942 8.292-7.304 12.438-17.901 12.438-31.805 0-13.56-4.146-23.984-12.438-31.274-8.275-7.304-18.539-10.956-30.773-10.956-12.218 0-22.498 3.652-30.841 10.956-8.343 7.29-12.506 17.808-12.506 31.54zM1041.788 116.008h43.194v18.897c15.446-14.674 33.848-22.018 55.207-22.018 11.334 0 21.173 1.82 29.516 5.471 8.326 3.652 15.174 9.163 20.51 16.547 7.782-7.384 16.176-12.895 25.182-16.547 9.006-3.652 18.623-5.47 28.853-5.47 12.999 0 24.01 2.058 33.015 6.188 9.006 4.13 15.735 10.185 20.187 18.18 3.212 5.91 4.826 15.47 4.826 28.67v88.497h-46.865v-79.108c0-13.73-1.614-22.588-4.825-26.586-4.333-5.219-11.011-7.821-20.017-7.821-6.56 0-12.727 1.567-18.505 4.687-5.794 3.134-9.957 7.716-12.523 13.758-2.549 6.03-3.823 15.564-3.823 28.605v66.465h-46.865V178.57c0-13.466-.832-22.15-2.497-26.068-1.666-3.904-4.266-6.813-7.766-8.725s-8.258-2.868-14.256-2.868c-7.222 0-13.73 1.513-19.507 4.554-5.778 3.042-9.924 7.437-12.422 13.174-2.515 5.724-3.755 15.245-3.755 28.538v67.25h-46.864V116.007z"/><path fill="#000" d="M52.14 216.524l45.935-5.393c1.959 6.863 5.926 12.064 11.902 15.617 5.96 3.553 14.327 5.33 25.084 5.33 11.836 0 20.75-1.662 26.727-5.01 4.017-2.339 6.026-5.483 6.026-9.407 0-2.683-1.095-4.894-3.27-6.645-2.274-1.675-7.37-3.22-15.306-4.652-36.937-6.263-60.344-11.988-70.221-17.177-13.696-7.195-20.535-17.19-20.535-29.983 0-11.54 5.926-21.24 17.763-29.1 11.836-7.86 30.196-11.784 55.064-11.784 23.69 0 41.286 2.965 52.79 8.908 11.521 5.93 19.44 14.71 23.79 26.34l-43.18 6.135c-1.842-5.176-5.345-9.15-10.507-11.911-5.163-2.761-12.517-4.141-22.08-4.141-12.051 0-20.684 1.303-25.896 3.885-3.47 1.84-5.213 4.23-5.213 7.157 0 2.505 1.51 4.64 4.565 6.403 4.117 2.339 18.377 5.636 42.764 9.905 24.386 4.268 41.402 9.483 51.08 15.681 9.562 6.262 14.326 15.004 14.326 26.212 0 12.206-6.623 22.698-19.87 31.478-13.248 8.78-32.854 13.177-58.817 13.177-23.573 0-42.232-3.681-55.961-11.042-13.745-7.362-22.726-17.356-26.96-29.983zM351.036 254.533v-19.938c-6.292 7.106-14.575 12.704-24.851 16.806-10.26 4.09-21.1 6.148-32.504 6.148-11.62 0-22.046-1.968-31.276-5.892-9.23-3.936-15.92-9.457-20.037-16.563-4.134-7.106-6.192-16.934-6.192-29.472v-84.298h45.785v61.217c0 18.723.83 30.2 2.523 34.43 1.677 4.218 4.748 7.566 9.197 10.033 4.465 2.466 10.11 3.706 16.949 3.706 7.819 0 14.824-1.661 21.016-4.959 6.193-3.31 10.426-7.4 12.717-12.294 2.274-4.895 3.42-16.87 3.42-35.938v-56.195h45.784v133.209h-42.53zM422.336 254.533V70.65h45.785v66.227c14.11-12.371 30.844-18.557 50.184-18.557 21.066 0 38.497 5.866 52.292 17.624 13.795 11.745 20.684 28.615 20.684 50.61 0 22.75-7.022 40.258-21.1 52.553-14.06 12.294-31.142 18.442-51.229 18.442-9.894 0-19.638-1.904-29.25-5.713-9.612-3.796-17.896-9.432-24.851-16.87v19.567h-42.515zm45.453-69.487c0 13.803 2.822 24.002 8.466 30.609 7.935 9.368 18.477 14.045 31.608 14.045 10.11 0 18.709-3.322 25.83-9.968 7.122-6.646 10.675-17.126 10.675-31.427 0-15.221-3.586-26.187-10.757-32.922-7.172-6.735-16.352-10.096-27.524-10.096-10.973 0-20.104 3.284-27.375 9.84-7.288 6.57-10.923 16.538-10.923 29.92z"/></svg>