<svg fill="#FFF" viewBox="0 0 485 97" xmlns="http://www.w3.org/2000/svg" fill-rule="evenodd" clip-rule="evenodd" stroke-linejoin="round" stroke-miterlimit="1.414"><g fill-rule="nonzero"><path d="M36.084 75c-.586-1.66-.96-4.118-1.123-7.373-2.051 2.669-4.663 4.728-7.837 6.177-3.173 1.448-6.534 2.173-10.083 2.173-5.078 0-9.187-1.416-12.329-4.249C1.571 68.896 0 65.316 0 60.986c0-5.143 2.141-9.212 6.421-12.207 4.281-2.995 10.246-4.492 17.896-4.492h10.595v-6.006c0-3.776-1.163-6.746-3.491-8.911-2.327-2.165-5.721-3.247-10.18-3.247-4.069 0-7.439 1.042-10.108 3.125-2.669 2.083-4.004 4.59-4.004 7.52l-5.859-.049c0-4.199 1.953-7.837 5.859-10.913 3.906-3.077 8.708-4.615 14.405-4.615 5.891 0 10.538 1.473 13.94 4.419 3.402 2.946 5.151 7.056 5.249 12.329v25c0 5.111.537 8.936 1.611 11.475V75h-6.25zm-18.359-4.199c3.906 0 7.397-.944 10.474-2.832 3.076-1.888 5.314-4.411 6.713-7.569V48.779H24.463c-5.827.065-10.384 1.131-13.672 3.199-3.287 2.067-4.931 4.907-4.931 8.52 0 2.962 1.098 5.42 3.296 7.373 2.197 1.953 5.053 2.93 8.569 2.93zM82.94 61.572c0-2.897-1.164-5.224-3.491-6.982-2.328-1.758-5.835-3.133-10.523-4.126-4.687-.993-8.325-2.132-10.913-3.418-2.588-1.286-4.508-2.857-5.762-4.712-1.253-1.856-1.88-4.102-1.88-6.738 0-4.167 1.742-7.609 5.225-10.327 3.483-2.719 7.943-4.078 13.379-4.078 5.892 0 10.62 1.457 14.184 4.371 3.565 2.913 5.347 6.713 5.347 11.401h-5.859c0-3.093-1.294-5.664-3.882-7.715s-5.851-3.076-9.79-3.076c-3.841 0-6.926.854-9.253 2.563s-3.491 3.931-3.491 6.665c0 2.637.968 4.68 2.905 6.128 1.937 1.449 5.469 2.775 10.596 3.98 5.127 1.204 8.968 2.49 11.523 3.857 2.556 1.367 4.452 3.011 5.689 4.932 1.237 1.92 1.855 4.248 1.855 6.982 0 4.46-1.798 8.024-5.395 10.694-3.597 2.669-8.293 4.004-14.087 4.004-6.153 0-11.141-1.49-14.966-4.468-3.825-2.979-5.737-6.747-5.737-11.304h5.859c.228 3.418 1.668 6.079 4.321 7.983 2.653 1.905 6.161 2.857 10.523 2.857 4.069 0 7.356-.895 9.863-2.686 2.507-1.79 3.76-4.052 3.76-6.787zM106.016 8.643v13.525h10.937v4.785h-10.937v35.244c0 2.933.529 5.117 1.587 6.551 1.058 1.434 2.824 2.15 5.298 2.15.976 0 2.555-.162 4.736-.488l.244 4.744c-1.53.548-3.613.823-6.25.823-4.004 0-6.917-1.164-8.74-3.492-1.823-2.327-2.734-5.753-2.734-10.278V26.953H90.44v-4.785h9.717V8.643h5.859zM148.477 27.148a21.9 21.9 0 0 0-3.955-.341c-3.646 0-6.73 1.017-9.253 3.051-2.523 2.035-4.321 4.989-5.396 8.863V75h-5.81V22.168h5.713l.097 8.398c3.093-6.25 8.057-9.375 14.893-9.375 1.628 0 2.913.212 3.857.635l-.146 5.322zM184.102 75c-.586-1.66-.96-4.118-1.123-7.373-2.051 2.669-4.663 4.728-7.837 6.177-3.174 1.448-6.535 2.173-10.083 2.173-5.078 0-9.188-1.416-12.329-4.249-3.141-2.832-4.712-6.412-4.712-10.742 0-5.143 2.14-9.212 6.421-12.207 4.28-2.995 10.246-4.492 17.895-4.492h10.596v-6.006c0-3.776-1.164-6.746-3.491-8.911-2.328-2.165-5.721-3.247-10.181-3.247-4.069 0-7.438 1.042-10.107 3.125-2.67 2.083-4.004 4.59-4.004 7.52l-5.86-.049c0-4.199 1.954-7.837 5.86-10.913 3.906-3.077 8.707-4.615 14.404-4.615 5.892 0 10.539 1.473 13.941 4.419 3.401 2.946 5.151 7.056 5.249 12.329v25c0 5.111.537 8.936 1.611 11.475V75h-6.25zm-18.359-4.199c3.906 0 7.397-.944 10.473-2.832 3.076-1.888 5.314-4.411 6.714-7.569V48.779h-10.449c-5.827.065-10.384 1.131-13.672 3.199-3.288 2.067-4.932 4.907-4.932 8.52 0 2.962 1.099 5.42 3.296 7.373 2.197 1.953 5.054 2.93 8.57 2.93zM200 0h5.859v75H200zM233.701 48.096c0-8.269 1.832-14.82 5.494-19.654s8.634-7.251 14.917-7.251c7.194 0 12.662 2.865 16.406 8.594l.293-7.617h5.469v51.758c0 6.803-1.905 12.191-5.713 16.162-3.809 3.971-8.968 5.957-15.479 5.957-3.678 0-7.186-.822-10.522-2.466-3.337-1.644-5.965-3.833-7.886-6.567l3.271-3.516c4.135 5.078 9.05 7.617 14.747 7.617 4.882 0 8.691-1.44 11.425-4.321 2.735-2.881 4.151-6.877 4.248-11.987v-6.641c-3.743 5.208-9.196 7.813-16.357 7.813-6.12 0-11.035-2.442-14.746-7.325-3.711-4.882-5.567-11.474-5.567-19.775v-.781zm5.909 1.025c0 6.738 1.351 12.052 4.052 15.942 2.702 3.89 6.511 5.835 11.426 5.835 7.194 0 12.289-3.222 15.283-9.668V36.67c-1.367-3.386-3.336-5.965-5.908-7.739-2.571-1.774-5.664-2.661-9.277-2.661-4.916 0-8.74 1.928-11.475 5.786-2.734 3.857-4.101 9.546-4.101 17.065zM319.864 75c-.586-1.66-.961-4.118-1.123-7.373-2.051 2.669-4.664 4.728-7.837 6.177-3.174 1.448-6.535 2.173-10.083 2.173-5.078 0-9.188-1.416-12.329-4.249-3.142-2.832-4.712-6.412-4.712-10.742 0-5.143 2.14-9.212 6.421-12.207 4.28-2.995 10.245-4.492 17.895-4.492h10.596v-6.006c0-3.776-1.164-6.746-3.491-8.911-2.328-2.165-5.722-3.247-10.181-3.247-4.069 0-7.438 1.042-10.108 3.125-2.669 2.083-4.003 4.59-4.003 7.52l-5.86-.049c0-4.199 1.953-7.837 5.86-10.913 3.906-3.077 8.707-4.615 14.404-4.615 5.892 0 10.539 1.473 13.94 4.419 3.402 2.946 5.152 7.056 5.249 12.329v25c0 5.111.537 8.936 1.612 11.475V75h-6.25zm-18.36-4.199c3.906 0 7.398-.944 10.474-2.832 3.076-1.888 5.314-4.411 6.714-7.569V48.779h-10.449c-5.827.065-10.385 1.131-13.672 3.199-3.288 2.067-4.932 4.907-4.932 8.52 0 2.962 1.099 5.42 3.296 7.373 2.197 1.953 5.054 2.93 8.569 2.93zM335.762 0h5.859v75h-5.859zM353.174 0h5.859v75h-5.859zM390.362 75.977c-4.493 0-8.553-1.107-12.183-3.321-3.63-2.213-6.453-5.298-8.472-9.253-2.018-3.955-3.027-8.39-3.027-13.305v-2.1c0-5.078.985-9.652 2.954-13.721 1.97-4.069 4.712-7.267 8.228-9.594 3.515-2.328 7.324-3.492 11.425-3.492 6.413 0 11.499 2.19 15.259 6.568s5.64 10.359 5.64 17.944v3.272h-37.695v1.123c0 5.989 1.717 10.978 5.151 14.965 3.434 3.988 7.755 5.982 12.964 5.982 3.125 0 5.884-.57 8.276-1.709 2.393-1.139 4.566-2.962 6.519-5.469l3.662 2.783c-4.297 6.218-10.531 9.327-18.701 9.327zm-1.075-49.805c-4.394 0-8.097 1.611-11.108 4.834-3.011 3.222-4.842 7.552-5.493 12.988h31.689v-.635c-.162-5.078-1.611-9.212-4.345-12.402-2.735-3.19-6.315-4.785-10.743-4.785zM440.977 27.148a21.9 21.9 0 0 0-3.955-.341c-3.646 0-6.73 1.017-9.253 3.051-2.523 2.035-4.321 4.989-5.396 8.863V75h-5.81V22.168h5.713l.097 8.398c3.093-6.25 8.057-9.375 14.893-9.375 1.628 0 2.913.212 3.857.635l-.146 5.322z"/><path d="M462.832 66.602l15.43-44.434h6.299l-22.559 61.816-1.172 2.735c-2.897 6.412-7.373 9.619-13.427 9.619-1.4 0-2.897-.228-4.493-.684l-.048-4.834 3.027.293c2.865 0 5.184-.708 6.958-2.124 1.774-1.416 3.28-3.849 4.517-7.3l2.587-7.128-19.921-52.393h6.396l16.406 44.434z"/></g></svg>