<svg viewBox="0 0 1068 247" xmlns="http://www.w3.org/2000/svg" fill="#fff" fill-rule="evenodd" clip-rule="evenodd" stroke-linejoin="round" stroke-miterlimit="1.414"><g fill-rule="nonzero"><path d="M222.262 20.062L248.664 0h-86.969l-34.211 113.08L93.573 0H0l26.4 20.062V219.3L0 239.962h89.071L62.362 219.3V77.974l55.219 168.588L173.1 77.974V219.3l-26.41 20.662h101.974L222.262 219.3V20.062zm-150.297 0l21.608 49.21-3.902 11.102-9.303-7.501-8.403-52.811zm21.007 70.214l10.504 8.702-4.502 12.602-9.903-8.101 3.901-13.203zm5.102 41.708l3.901-11.402 9.304 7.501 8.702 53.11-21.907-49.209z"/><path d="M458.664 239.962l-26.4-20.664L376.474 0h-78.88l26.39 20.062-56.09 199.236-26.394 20.664h76.484l-19.49-18.263 15.89-56.437h47.1l13.19 56.138-24.29 18.562h108.28zM356.384 23.364l21.89 59.718-3.9 12.904-9.89-9.603-8.1-63.019zm-35.1 117.336l19.5-66.921 15.3 66.921h-34.8zm50.99-18.306l5.1-12.904 10.2 9.303-5.1 12.304-10.2-8.703zm31.5 94.803l-22.2-59.723 4.2-13.18 9.6 9.586 8.4 63.317z"/><path d="M672.264 239.962l-26.7-20.363-66.9-115.521 51-82.215L658.464 0h-80.4l18.3 15.862-63.6 99.318V20.062L559.464 0h-108.26l27 20.062V219.3l-27 20.662h108.26l-26.7-20.662v-93.917l57 96.617-19.5 17.962h102zm-167.08-219.9l7.49 63.012-7.49 11.703-6.9-11.703 6.9-63.012zm0 110.421l-7.5-10.802 7.5-11.102 7.79 11.102-7.79 10.802zm.3 89.116l-7.2-63.611 7.2-11.702 7.19 11.702-7.19 63.611z"/><path d="M793.504 24.862l40.46 74.135V0h-165.56l27 20.07v199.224l-27 20.668h165.56v-98.994l-40.46 74.432h-43.54v-86.438h16.84l29.06 37.817V69.884l-29.06 35.716h-16.84V24.862h43.54zm-63.93 58.228l-7.19 11.705-6.9-11.705 6.6-60.924h.6l6.89 60.924zm-7.19 47.374l-7.5-10.787 7.5-11.082 7.79 11.082-7.79 10.787zm0 89.13l-6.9-63.619 6.9-11.705 7.19 11.705-7.19 63.619zM998.094 239.962h69.27l-25.5-24.563-55.77-87.917c37.48-6.902 59.97-27.906 59.97-62.713 0-41.105-33.58-64.769-99.29-64.769h-93.57l27 20.07V219.3l-27 20.662h108.28l-26.72-20.662v-86.417l63.33 107.079zm-83.42-156.889l-7.49 11.702-6.9-11.702 6.9-63.003 7.49 63.003zm78.33-20.104c0 24.005-16.51 39.608-54.04 39.608h-4.2V24.862h4.5c36.32 0 53.74 13.802 53.74 38.107zm-85.82 67.513l-7.5-10.802 7.5-11.102 7.79 11.102-7.79 10.802zm.3 89.117l-7.2-63.612 7.2-11.702 7.19 11.702-7.19 63.612z"/></g></svg>