<svg viewBox="0 0 880 491" xmlns="http://www.w3.org/2000/svg" xmlns:serif="http://www.serif.com/" fill-rule="evenodd" clip-rule="evenodd" stroke-linejoin="round" stroke-miterlimit="1.414"><path d="M1239.36 217.981c4.35.038 8.71.73 12.4 3.232 5.97 4.049 9.51 10.871 12.4 17.05 5.36 11.426 5.74 24.641 5.06 37.47-.13 2.442-.29 4.882-.44 7.323l-.02.251c2.7-7.457 7.8-14.325 15.36-17.459a19.237 19.237 0 0 1 7.87-1.432c3.18-1.316 6.95-1.475 10.33.589 3.47 2.121 5.26 6.218 6.05 10.45.79 4.203.91 8.426 1.02 12.692.06 2.291.15 4.609.88 6.754 0 0 .9.403 1.62.852.54.337 1.04.723 1.52 1.145l.02.018c-.04-.335-.07-.67-.11-1.005-.97-9.261-2.25-18.786 1.41-27.45l.02-.05c-.27-13.245-.2-26.58-.41-39.871l-.01-.602c-.07-1.988-.31-3.967-.53-5.945l-.06-1.616-.08-.4c-.03-.234-.04-.267-.06-.5-.21-2.532 1.3-4.931 2.96-6.89 2.07-2.458 5.15-3.837 8.47-3.832l.58.002c3.41.265 6.64 1.866 8.73 4.614 0 0 1.05-2.569 2.48-4.42 3.42-4.435 9.01-7.107 14.67-7.191 3.77-.057 7.58 1.028 10.83 2.947 0 0 .75-.512 1.39-.925 4.92-3.156 10.78-4.794 16.57-4.84 10.05-.08 19.86 6.871 21.85 17.003.92 4.69.2 9.615-1.6 14.118-3.28 8.23-9.46 14.907-15.29 21.548-4.07 4.651-8.59 9.337-14.38 11.176 2.95 1.176 5.27 3.603 6.4 6.73 1.58 4.364 1.05 9.219 1.22 13.509.2 5.025.43 10.035.44 15.046v11.032a11.073 11.073 0 0 1-2.83 7.03c-3.47 3.846-9.56 5.288-14.28 2.809a10.857 10.857 0 0 1-3-2.343c-1.9 2.208-4.71 3.56-7.61 3.862-.97.107-1.45.22-1.98.213-1.42-.021-2.8-.525-3.97-1.358-.73-.451-1.52-.846-2.23-1.359-2-1.446-3.63-3.346-5.1-5.345 0 0 .02-.183-.08.095 0 0-.27.816-.6 1.489-1.93 4.009-6.5 6.742-11.05 6.147-4.65-.608-8.39-4.614-10.17-9.06 0 0-.83 1.374-1.78 2.342-2.98 3.043-7.62 4.026-11.99 3.01 0 0-1.03.698-1.86 1.196-8.11 4.867-19.49 3.295-26.54-3.661-3.45-3.404-5.65-7.959-6.61-12.792 0 0-.21.997-.41 1.928-.84 3.94-1.82 7.872-1.84 11.881l-.05.816c-.46 3.487-2.24 6.893-5.16 8.744-5.11 3.24-12.85 1.583-16.14-3.785-1.02-1.653-1.55-3.57-1.62-5.513l-.01-.185v-2.999c.06-1.346.36-2.678.55-3.998 1-6.72 2.73-13.345 2.9-20.152.29-10.453 2.01-20.954.45-31.322-.73-4.846-2.6-9.45-5.23-13.711-.41-.667-.85-1.32-1.34-1.934-1.93-.04-3.95-.014-5.72.757-1.7.745-2.24 3.06-2.7 5.167-.06.27.11 1.872.17 3.21.11 2.684-.18 5.388-.21 8.061v.089l-.01 2.589-.06.782c-.56 4.361-3.59 8.307-8.05 9.546-6.29 1.748-13.8-2.154-14.84-9.515-.05-.388-.08-.779-.1-1.171 0 0-.17-1.451-.28-2.69-.3-3.421-.35-6.872.01-10.295v-.01c-.51-2.611-1.3-5.233-2.73-7.419 0 0-.94 1.074-1.59 2.058-3.18 4.778-4.42 10.616-5.14 16.417-1.55 12.406-.79 24.994.67 37.461.61 4.616 2.66 8.829 2.78 13.737l-.05 1.036c-.62 4.514-3.51 8.887-7.89 10.332-4.18 1.381-9.08-.122-12.01-3.615-1.8-2.152-2.72-4.883-3.07-7.714-.54-4.32-2.27-8.423-2.76-12.636-1.81-16.351-2.99-33.091.99-49.072 1.93-7.769 4.95-15.434 9.71-21.694 4.35-5.709 10.8-9.923 18.06-10.147.4-.012.87-.007 1.05-.003 5.45.145 10.67 2.77 14.63 6.663 5.61-3.56 12.31-5.128 19.16-5.092zm98 23.245c.01 3.969.03 7.937.07 11.906l.22.003c9.21.246 16.45 9.345 17.35 18.817.62 6.493-1.44 13.369-6.53 17.823 0 0 .98 1.057 1.87 1.985 1.86 1.954 3.67 3.972 5.4 6.051l.05.061c-.19-7.964-.5-15.94-.53-23.925l.06-.912c.54-3.948 2.75-7.73 6.25-9.668-.39-.081-.42-.093-.6-.141-3.62-.949-6.14-4.045-8.81-6.589-5.18-4.925-10.87-9.449-14.74-15.508 0 0-.06-.328-.06.097zm-129.8 6.313l.1-.778c-.04.259-.07.518-.1.778zm106.25-29.222c-.02.146-.04.177-.07.549 0 0 .11-.742.07-.549z" fill="url(#_Linear1)" fill-rule="nonzero" transform="translate(-4521.77 -766.186) scale(3.85132)"/><path d="M251.402 73.328c16.753.147 33.545 2.812 47.756 12.448 22.993 15.594 36.626 41.868 47.757 65.665 20.643 44.005 22.106 94.9 19.487 144.309-.5 9.405-1.117 18.802-1.694 28.203l-.077.967c10.398-28.72 30.04-55.17 59.156-67.24 9.551-3.96 19.988-5.804 30.31-5.516 12.247-5.068 26.767-5.68 39.784 2.269 13.364 8.169 20.258 23.947 23.3 40.246 3.043 16.187 3.505 32.451 3.929 48.881.231 8.824.578 17.75 3.39 26.012 0 0 3.465 1.552 6.238 3.281 2.08 1.298 4.006 2.785 5.854 4.41l.077.07c-.154-1.29-.27-2.581-.423-3.871-3.736-35.667-8.666-72.351 5.43-105.719l.077-.192c-1.04-51.011-.77-102.369-1.58-153.556l-.038-2.319c-.27-7.656-1.193-15.278-2.04-22.896l-.232-6.224-.308-1.54c-.116-.902-.154-1.029-.231-1.926-.809-9.752 5.007-18.99 11.4-26.536 7.972-9.466 19.834-14.777 32.62-14.758l2.234.008c13.133 1.02 25.573 7.186 33.622 17.77 0 0 4.044-9.894 9.552-17.023 13.171-17.08 34.7-27.371 56.498-27.695 14.52-.22 29.193 3.96 41.71 11.35 0 0 2.889-1.972 5.354-3.562C749.262 6.489 771.83.18 794.13.004c38.706-.309 76.487 26.462 84.151 65.483 3.544 18.063.77 37.03-6.162 54.373-12.632 31.696-36.433 57.412-58.886 82.988-15.675 17.913-33.083 35.96-55.382 43.043 11.36 4.529 20.296 13.876 24.648 25.92 6.085 16.806 4.044 35.504 4.699 52.027.77 19.352 1.656 38.648 1.694 57.947v42.487c-.308 10.01-4.236 19.665-10.9 27.075-13.363 14.812-36.818 20.366-54.996 10.818-4.352-2.283-8.242-5.36-11.554-9.023-7.317 8.503-18.14 13.71-29.308 14.874-3.736.412-5.585.847-7.626.82-5.469-.081-10.784-2.022-15.29-5.23-2.811-1.737-5.854-3.258-8.588-5.234-7.703-5.57-13.98-12.887-19.642-20.585 0 0 .077-.705-.308.365 0 0-1.04 3.143-2.31 5.735-7.434 15.44-25.034 25.966-42.558 23.674-17.909-2.341-32.313-17.77-39.168-34.893 0 0-3.196 5.292-6.855 9.02-11.477 11.72-29.347 15.505-46.178 11.592 0 0-3.966 2.689-7.163 4.607-31.234 18.744-75.062 12.69-102.214-14.1-13.287-13.11-21.76-30.653-25.457-49.266 0 0-.809 3.84-1.58 7.425-3.234 15.174-7.009 30.318-7.086 45.758l-.192 3.142c-1.772 13.43-8.627 26.548-19.873 33.676-19.68 12.479-49.49 6.097-62.16-14.577-3.929-6.366-5.97-13.75-6.24-21.232l-.038-.713v-11.55c.231-5.184 1.386-10.314 2.118-15.397 3.851-25.881 10.514-51.396 11.169-77.612 1.117-40.258 7.741-80.7 1.733-120.631-2.811-18.664-10.013-36.395-20.142-52.806-1.58-2.569-3.274-5.083-5.161-7.448-7.433-.154-15.213-.054-22.03 2.915-6.547 2.87-8.627 11.785-10.398 19.9-.231 1.04.423 7.21.655 12.363.423 10.337-.694 20.75-.81 31.045v.343l-.038 9.971-.23 3.012c-2.158 16.795-13.827 31.993-31.004 36.765-24.225 6.732-53.148-8.296-57.154-36.646-.192-1.494-.308-3-.385-4.51 0 0-.654-5.588-1.078-10.36-1.155-13.175-1.348-26.466.038-39.65v-.038c-1.964-10.055-5.006-20.154-10.514-28.573 0 0-3.62 4.137-6.123 7.927-12.247 18.401-17.023 40.885-19.796 63.227-5.97 47.78-3.043 96.26 2.58 144.274 2.35 17.778 10.245 34.003 10.707 52.906l-.193 3.99c-2.387 17.384-13.518 34.226-30.386 39.791-16.099 5.319-34.97-.47-46.255-13.922-6.932-8.288-10.475-18.806-11.823-29.71-2.08-16.637-8.743-32.439-10.63-48.665-6.97-62.973-11.515-127.444 3.813-188.992 7.433-29.92 19.064-59.44 37.396-83.55 16.753-21.987 41.594-38.217 69.555-39.08 1.54-.046 3.35-.026 4.044-.011 20.99.558 41.093 10.668 56.345 25.661 21.606-13.71 47.41-19.75 73.791-19.61zm377.43 89.524c.038 15.286.115 30.568.269 45.854.462.004.462.004.847.012 35.47.947 63.354 35.99 66.82 72.47 2.388 25.007-5.545 51.488-25.149 68.642 0 0 3.775 4.071 7.202 7.645 7.164 7.525 14.135 15.297 20.798 23.304l.192.235c-.732-30.672-1.926-61.39-2.041-92.143l.231-3.512c2.08-15.205 10.591-29.77 24.07-37.235-1.501-.312-1.617-.358-2.31-.543-13.942-3.654-23.647-15.578-33.93-25.376-19.95-18.968-41.864-36.391-56.769-59.726 0 0-.23-1.263-.23.373zM128.93 187.166s.193-1.525.385-2.997c-.154.998-.27 1.995-.385 2.997zM538.133 74.622c-.077.563-.154.682-.27 2.115 0 0 .424-2.858.27-2.115z" fill="#fff" fill-opacity=".2" fill-rule="nonzero"/><path d="M120.072 92.262c22.53.346 42.557 16.722 54.111 36.887 20.682-27.255 67.822-35.089 97.207-28.753 24.264 5.237 39.938 36.187 50.53 56.814 32.39 63.262 16.907 141.347 16.33 200.05-.463 30.46-13.018 59.706-13.134 90.317 0 0-1.155 9.455-6.239 14.13-9.898 9.07-29.54 3.697-32.004-11.038-.231-1.394-.193-1.756-.27-3.166v-10.51c.27-6.17 1.194-7.556 1.502-9.763 3.774-27.144 11.207-53.175 11.747-81.028 1.348-59.383 13.556-121.867-12.517-172.015-6.894-13.253-14.327-27.229-25.034-36.126 0 0-14.673-1.232-25.38.039-16.06 1.91-31.234 8.01-37.858 25.88-2.504 6.822-4.275 13.908-5.623 21.052 0 0 1.27 10.472 1.232 18.417-.039 8.504-.847 16.984-.924 25.484l-.039 9.987c-.693 5.21-1.54 6.566-3.158 9.027-7.857 11.87-29.963 9.582-34.43-4.94-1.464-4.7-1.04-5.77-1.349-8.108-1.925-15.914-2.734-32.004-.616-47.914 0 0-4.891-34.916-22.915-51.173-6.894-6.212-18.101-6.778-26.767 1.618-30.81 29.828-37.627 79.256-39.746 126.088-1.694 38.097 1.04 76.345 5.508 114.092 2.195 17.034 10.167 33.098 10.552 50.44 0 0-2.156 16.534-14.442 19.708-12.132 3.127-23.03-7.734-24.225-21.302-1.656-16.911-8.896-32.44-10.86-50.776-8.358-78.717-13.942-160.831 22.953-232.596 13.172-25.604 32.89-49.71 63.74-50.803a77.682 77.682 0 0 1 2.118-.02zM472.237 273.25c3.273.228 4.16.551 5.892 1.194 11.862 4.426 13.98 21.002 16.099 34.782 4.12 26.37-2.388 55.87 11.592 79.264 2.234 3.712 4.352 2.95 6.509 3.431 13.056 2.885 20.027 22.022 9.359 32.532-8.396 8.25-23.455 6.274-34.2-.489 0 0-3.543 4.576-7.395 7.826-28.692 24.152-78.451 11.585-93.24-29.274-16.099-44.552 5.777-102.075 44.097-120.646 8.512-4.144 18.371-5.585 27.846-4.26 0 0 7.664-4.46 13.44-4.36zM600.87 84.49c1.27 7.336 2.619 17.019 2.773 26.189.308 42.86 0 85.753 1.001 128.653 12.17-4.938 25.419-8.315 37.589-2.754 37.743 17.254 43.52 89.193-4.275 103.82-4.082 1.244-9.936 2.373-9.936 2.373 19.295 18.186 37.82 35.813 55.69 58.062 11.207 13.861 8.935 9.297 10.36 11.1 8.357 10.606 1.386 29.782-13.403 31.107-9.397.835-2.965 1.968-11.053-2.246-13.826-7.21-21.452-23.766-32.736-36.98-8.666-9.975-19.45-18.42-29.425-27.587l-1.193-1.113c0 14.974.115 29.848 2.31 45.207 0 0 .463 15.401-10.398 20.79-14.75 7.313-28.423-8.79-32.043-31.485-3.659-22.858-5.854-45.981-7.857-69.081-2.003-22.985-1.887-46.825 8.435-67.43l.154-.307c-1.194-54.03-.848-107.895-1.734-161.744-.27-8.065-1.193-16.118-2.118-24.152l-.27-7.914c.54-2.781-3.157.177 3.813-8.785 6.047-7.73 8.936-7.43 16.022-7.414 2.157.177 3.043-.03 7.394 1.818 0 0 4.545 1.587 8.473 7.76 0 0 1.194 4.93 2.427 12.105 0 .088-.039.185-.039.25l.039-.242v-.008c.038-.25.077-.474 0 .008zm142.653 183.546c3.312.35 4.236.72 5.97 1.448 14.788 6.231 11.746 29.836 12.477 49.482.81 20.924 1.888 41.863 1.926 62.842v42.048c-.462 16.992-28.346 26.59-36.78 7.957-1.078-2.384-1.618-3.759-1.733-7.957 0-45.287-2.465-90.933-2.619-135.092 0 0 2.811-21.664 20.759-20.728zM449.629 315.93c-3.196.705-4.852 2.619-6.778 4.375-22.838 20.635-32.929 62.645-11.554 81.482 8.666 7.622 24.957 5.392 27.152-5.854 2.003-10.144 1.54-20.681 1.001-31.145 0 0-1.617-22.315-4.621-41.429-.54-3.813.462-1.421-2.119-3.944-1.309-1.278-2.618-3.574-3.08-3.485zm232.389 88.911c3.967.813 1.695.35 1.695.35-5.43-1.143-2.465-.438-1.695-.35zm-55.035-132.67c-7.78 2.777-15.637 5.585-21.221 11.546 0 0 .077 10.36.231 21.745 0 0-4.12 2.87 4.968 1.202 8.704-1.545 19.834-1.098 22.107-12.013 1.771-8.31-.193-18.648-5.893-22.51 0 0-.115 0-.192.03zm98.94-216.744c16.445-19.927 43.443-30.557 69.632-30.43 25.842.324 51.338 16.773 57.654 42.761 10.553 43.543-30.656 86.39-60.157 120.208-15.637 17.285-37.05 38.567-54.882 35.031-7.356 2.465-16.368.886-22.53-6.092-.616-.701-.616-.701-1.232-1.395-23.262-25.126-53.688-44.467-69.209-75.131-12.054-23.905-14.365-53.514-3.697-78.062 7.048-16.26 24.803-26.52 42.98-26.47 15.791.28 31.235 7.228 41.441 19.58zm9.205 125.34c2.734-.55 5.738-.53 8.935.178 24.84-19.249 47.756-43.813 63.7-70.448 7.665-12.802 14.405-30.68 4.122-41.487-7.202-7.59-19.296-6.185-28.27-4.22-16.483 3.608-30.116 13.432-35.662 32.485 0 0 7.125 29.405-16.908 29.266-10.09-.061-19.564-7.595-21.952-18.344-.27-1.39-.5-2.784-.655-4.182-1.117-3.578-1.579-7.048-2.542-8.708-6.624-11.146-14.827-28.065-27.498-19.642-2.927 1.957-3.043 6.82-3.813 11.215-5.084 28.723 17.215 55.556 37.32 73.653 7.432 6.69 16.02 13.41 23.223 20.235z" fill="#fff" fill-rule="nonzero" serif:id="caitlyn and maki"/><defs><linearGradient id="_Linear1" x2="1" gradientUnits="userSpaceOnUse" gradientTransform="matrix(228.45 0 0 127.46 1174.08 262.671)"><stop offset="0" stop-color="red"/><stop offset=".1" stop-color="#f90"/><stop offset=".2" stop-color="#cf0"/><stop offset=".3" stop-color="#3f0"/><stop offset=".4" stop-color="#0f6"/><stop offset=".5" stop-color="#0ff"/><stop offset=".6" stop-color="#06f"/><stop offset=".7" stop-color="#30f"/><stop offset=".8" stop-color="#c0f"/><stop offset=".9" stop-color="#f09"/><stop offset="1" stop-color="red"/></linearGradient></defs></svg>