<svg viewBox="0 0 1519 166" xmlns="http://www.w3.org/2000/svg" fill="#fff" fill-rule="evenodd" clip-rule="evenodd" stroke-linejoin="round" stroke-miterlimit="1.414"><path d="M192.18 138.659c-5.7-3.24-10.85-7.5-15.44-12.78-11.82-13.61-17.73-30.83-17.73-51.66v-2.15c0-20.7 5.89-37.89 17.68-51.562C188.47 6.836 203.97 0 223.17 0c19.27 0 34.88 6.836 46.83 20.507 11.95 13.672 17.92 30.862 17.92 51.562v2.15c0 20.83-5.96 38.05-17.87 51.66-4.63 5.28-9.81 9.54-15.55 12.78h44.84v-11.51l15.14-2.93V22.168l-15.14-2.93V2.05h63.87c16.15 0 28.81 3.695 37.99 11.084 9.18 7.39 13.77 17.595 13.77 30.615 0 7.16-1.92 13.38-5.76 18.65-3.84 5.28-9.47 9.54-16.9 12.8 8.4 2.47 14.44 6.59 18.12 12.35 3.68 5.76 5.52 12.91 5.52 21.43v7.23c0 3.13.61 5.55 1.85 7.28 1.24 1.72 3.29 2.75 6.15 3.07l3.52.49v11.61h36.72v-11.51l15.23-2.93V24.023h-26.07l-1.17 15.916H430.4V2.05h126.76v37.889h-21.88l-1.17-15.916h-26.17v100.196l15.23 2.93v11.51h24.22v-11.51l10.16-1.47L600.81 2.05h29.2l42.97 123.629 10.15 1.47v11.51h9.38v-11.51l15.14-2.93V22.168l-15.14-2.93V2.05h58.89v17.188l-15.24 2.93v100.191h40.14l1.36-17.87h21.78v34.17h8.79v-11.51l10.16-1.47L861.65 2.05h29.2l42.97 123.629 10.15 1.47v11.51h9.38v-11.51l15.13-2.93V22.168l-15.13-2.93V2.05h63.86c16.15 0 28.81 3.695 37.99 11.084 9.18 7.39 13.77 17.595 13.77 30.615 0 7.16-1.92 13.38-5.76 18.65-3.84 5.28-9.47 9.54-16.89 12.8 8.39 2.47 14.43 6.59 18.11 12.35 3.68 5.76 5.52 12.91 5.52 21.43v7.23c0 3.13.62 5.55 1.86 7.28 1.23 1.72 3.28 2.75 6.15 3.07l3.51.49v11.61h9.28v-11.51l15.23-2.93V22.168l-15.23-2.93V2.05h58.89v17.188l-15.24 2.93v102.051l15.24 2.93v11.51h47.84c-2.8-1.55-5.41-3.34-7.85-5.36-10.45-8.66-15.68-20.96-15.68-36.91V22.168l-15.13-2.93V2.05h58.88v17.188l-15.23 2.93v74.221c0 9.37 2.52 16.39 7.57 21.04 5.04 4.66 11.96 6.98 20.75 6.98 8.92 0 15.92-2.31 21-6.93 5.07-4.62 7.61-11.65 7.61-21.09V22.168l-15.13-2.93V2.05h58.88v17.188l-15.23 2.93v74.221c0 15.95-5.26 28.25-15.77 36.91a52.002 52.002 0 0 1-7.9 5.36h47.3v-11.51l15.14-2.93V22.168l-15.14-2.93V2.05h52.35l36.23 104.789h.58L1437.23 2.05h52.54v17.188l-15.23 2.93v102.051l15.23 2.93v11.51h29.2v27.11H0v-27.11h28.54v-11.51l15.14-2.93V22.168l-15.14-2.93V2.05h67.68c16.28 0 29.12 4.183 38.53 12.549 9.4 8.366 14.11 19.32 14.11 32.86 0 13.61-4.71 24.55-14.11 32.81-9.41 8.27-22.25 12.41-38.53 12.41H72.2v31.54l15.23 2.93v11.51h104.75zm174.16-51.94H343v37.5l15.23 2.93v11.51h36.59c-.63-.6-1.2-1.25-1.73-1.94-3.77-5.01-5.66-11.49-5.66-19.43v-8.11c0-6.9-1.84-12.32-5.52-16.26-3.68-3.94-8.87-6.01-15.57-6.2zm268.36 51.94v-11.51l9.86-1.76-6.25-19.53h-46.09l-6.25 19.53 9.86 1.76v11.51h38.87zm264.45-32.8h-46.09l-6.25 19.53 9.86 1.76v11.51h38.87v-11.51l9.86-1.76-6.25-19.53zm121.19-19.14H997v37.5l15.23 2.93v11.51h36.59c-.62-.6-1.2-1.25-1.72-1.94-3.78-5.01-5.67-11.49-5.67-19.43v-8.11c0-6.9-1.84-12.32-5.51-16.26-3.68-3.94-8.87-6.01-15.58-6.2zm368.59 51.94l-35.87-99.3-.59.09 2.73 62.41v22.36l15.24 2.93v11.51h18.49zm23.18 0h18.78v-11.51l15.13-2.93v-22.36l2.74-62.8-.59-.09-36.06 99.69zM259.5 71.879c0-14.72-3.06-26.66-9.18-35.84-6.12-9.184-15.17-13.774-27.15-13.774-11.98 0-20.91 4.558-26.8 13.674-5.9 9.11-8.84 21.09-8.84 35.94v2.34c0 14.97 2.98 27.03 8.93 36.18 5.96 9.15 14.9 13.72 26.81 13.72 12.04 0 21.09-4.57 27.15-13.72 6.05-9.15 9.08-21.21 9.08-36.18v-2.34zm616.9-37.11h-.59l-16.02 50.09h32.62l-16.01-50.09zm-277.45 50.09h32.62l-16.01-50.09h-.59l-16.02 50.09zM96.22 24.023H72.2v46.676h24.02c7.94 0 13.95-2.16 18.02-6.49s6.1-9.85 6.1-16.55c0-6.84-2.03-12.49-6.1-16.946-4.07-4.46-10.08-6.69-18.02-6.69zm266.99 0H343v40.726h19.72c7.95 0 13.9-1.7 17.87-5.08 3.97-3.39 5.96-8.27 5.96-14.65 0-6.38-1.97-11.47-5.91-15.283-3.94-3.809-9.75-5.713-17.43-5.713zm654 0H997v40.726h19.73c7.94 0 13.9-1.7 17.87-5.08 3.97-3.39 5.96-8.27 5.96-14.65 0-6.38-1.97-11.47-5.91-15.283-3.94-3.809-9.75-5.713-17.44-5.713z" fill-rule="nonzero"/></svg>