<svg viewBox="0 0 2311 732" xmlns="http://www.w3.org/2000/svg" fill-rule="evenodd" clip-rule="evenodd" stroke-linejoin="round" stroke-miterlimit="1.414"><path d="M184.126 392.83l152.493 32.982-46.69 139.643-142.213 47.547 36.41-220.173zM2.076 651.126L-.065 389.402l128.934 227.455L2.076 651.126zM453.988 287.026L352.04 403.966 251.377 286.17l34.697-142.213 167.914 143.07zM325.482.03l227.455 129.363-262.151-4.712L325.482.03zM415.008 566.74l-48.832-142.213 150.78-29.984 105.802 99.806-207.75 72.391zM735.415 595.44l-223.6 136.216L640.75 504.629l94.666 90.81zM1004.005 395.671c0-17.382-6.99-31.347-20.95-41.894-13.97-10.547-35.01-18.799-63.14-24.756-28.12-5.957-49.95-12.793-65.47-20.508-15.53-7.715-27.06-17.139-34.58-28.271-7.52-11.133-11.28-24.61-11.28-40.43 0-25 10.46-45.654 31.35-61.963 20.9-16.309 47.66-24.463 80.28-24.463 35.35 0 63.72 8.74 85.1 26.221 21.39 17.48 32.08 40.283 32.08 68.408h-35.15c0-18.555-7.77-33.984-23.29-46.289-15.53-12.305-35.11-18.457-58.74-18.457-23.05 0-41.56 5.127-55.52 15.381-13.97 10.254-20.95 23.584-20.95 39.99 0 15.82 5.81 28.076 17.43 36.768 11.62 8.691 32.82 16.65 63.58 23.877 30.76 7.226 53.81 14.941 69.14 23.144 15.33 8.203 26.71 18.067 34.13 29.59 7.42 11.523 11.13 25.488 11.13 41.895 0 26.757-10.79 48.144-32.37 64.16-21.58 16.015-49.76 24.023-84.52 24.023-36.92 0-66.85-8.935-89.8-26.807-22.95-17.871-34.42-40.478-34.42-67.822h35.16c1.36 20.508 10.01 36.475 25.92 47.901 15.92 11.425 36.96 17.138 63.14 17.138 24.41 0 44.14-5.371 59.18-16.113 15.04-10.742 22.56-24.316 22.56-40.723zM1068.625 313.054c0-30.469 5.91-57.91 17.73-82.324s28.51-43.408 50.1-56.982c21.58-13.575 46.04-20.362 73.38-20.362 42.19 0 76.37 14.795 102.54 44.385 26.18 29.59 39.26 68.799 39.26 117.627v7.324c0 30.664-5.91 58.252-17.72 82.764-11.82 24.512-28.47 43.408-49.95 56.689-21.49 13.282-46 19.922-73.54 19.922-41.99 0-76.12-14.795-102.39-44.385-26.27-29.589-39.41-68.798-39.41-117.627v-7.031zm35.16 9.668c0 37.891 9.81 68.994 29.44 93.311 19.63 24.316 45.36 36.474 77.2 36.474 31.64 0 57.28-12.158 76.91-36.474 19.63-24.317 29.44-56.397 29.44-96.241v-6.738c0-24.219-4.49-46.387-13.48-66.504-8.98-20.117-21.58-35.693-37.79-46.728-16.21-11.035-34.77-16.553-55.67-16.553-31.25 0-56.73 12.256-76.46 36.768-19.73 24.511-29.59 56.591-29.59 96.24v6.445zM1398.105 26.238h35.156v450h-35.156zM1698.575 476.238c-3.52-9.961-5.77-24.707-6.74-44.239-12.31 16.016-27.98 28.37-47.02 37.061-19.05 8.691-39.21 13.037-60.5 13.037-30.47 0-55.13-8.496-73.98-25.488-18.84-16.992-28.27-38.477-28.27-64.453 0-30.86 12.84-55.274 38.53-73.242 25.68-17.969 61.47-26.954 107.37-26.954h63.58v-36.035c0-22.656-6.99-40.478-20.95-53.467-13.97-12.988-34.33-19.482-61.09-19.482-24.41 0-44.63 6.25-60.64 18.75-16.02 12.5-24.03 27.539-24.03 45.117l-35.15-.293c0-25.195 11.72-47.021 35.15-65.478 23.44-18.457 52.25-27.686 86.43-27.686 35.35 0 63.23 8.838 83.64 26.514 20.41 17.676 30.91 42.334 31.5 73.974v150c0 30.665 3.22 53.614 9.67 68.848v3.516h-37.5zm-110.16-25.196c23.44 0 44.38-5.664 62.84-16.992 18.46-11.328 31.89-26.465 40.29-45.41v-69.726h-62.7c-34.96.39-62.3 6.787-82.03 19.189-19.73 12.402-29.59 29.443-29.59 51.123 0 17.773 6.59 32.52 19.77 44.238 13.19 11.719 30.33 17.578 51.42 17.578zM1907.045 452.507c24.42 0 44.88-6.884 61.38-20.654s25.44-31.592 26.81-53.467h33.69c-.98 19.336-7.03 36.963-18.17 52.881-11.13 15.918-25.92 28.369-44.38 37.354-18.46 8.984-38.23 13.476-59.33 13.476-41.6 0-74.56-14.453-98.87-43.359-24.32-28.906-36.48-67.774-36.48-116.602v-10.547c0-31.25 5.47-58.886 16.41-82.91 10.94-24.023 26.61-42.578 47.02-55.664 20.41-13.086 44.29-19.629 71.63-19.629 34.77 0 63.43 10.352 85.99 31.055 22.55 20.703 34.62 47.949 36.18 81.738h-33.69c-1.57-24.805-10.5-44.824-26.81-60.058-16.31-15.235-36.87-22.852-61.67-22.852-31.64 0-56.2 11.426-73.68 34.277-17.48 22.852-26.22 54.883-26.22 96.094v10.254c0 40.43 8.74 71.973 26.22 94.629 17.48 22.656 42.14 33.984 73.97 33.984zM2191.695 482.097c-26.95 0-51.32-6.64-73.1-19.922-21.77-13.281-38.72-31.787-50.82-55.517-12.11-23.731-18.17-50.342-18.17-79.834v-12.598c0-30.469 5.91-57.91 17.73-82.324 11.81-24.414 28.27-43.604 49.36-57.569 21.1-13.964 43.95-20.947 68.56-20.947 38.47 0 68.99 13.135 91.55 39.404 22.56 26.27 33.84 62.159 33.84 107.667v19.628h-226.18v6.739c0 35.937 10.31 65.869 30.91 89.795 20.61 23.925 46.54 35.888 77.79 35.888 18.75 0 35.3-3.418 49.65-10.254 14.36-6.836 27.4-17.773 39.11-32.812l21.98 16.699c-25.78 37.305-63.19 55.957-112.21 55.957zm-6.44-298.828c-26.37 0-48.59 9.668-66.66 29.004-18.06 19.336-29.05 45.312-32.95 77.93h190.13v-3.809c-.97-30.469-9.66-55.273-26.07-74.414s-37.89-28.711-64.45-28.711z" fill="#fff" fill-rule="nonzero"/></svg>