<svg viewBox="0 0 780 106" xmlns="http://www.w3.org/2000/svg" fill-rule="evenodd" clip-rule="evenodd" stroke-linejoin="round" stroke-miterlimit="1.414"><g fill="red" fill-rule="nonzero"><path d="M87.337 18.775H52.402v86.519H34.787V18.775H-.002V.002h87.34v18.773zM108.915.002h17.615v105.292h-17.615zM254.236 105.294H242.2l-55.633-65.093a68.105 68.105 0 0 1-6.312-8.57c.49 6.801.734 12.175.734 16.12v57.543h-15.853V.002h12.036l53.285 62.033c3.816 4.489 6.703 8.298 8.66 11.427-.49-9.795-.734-15.849-.734-18.161V.002h15.853v105.292zM424.071 105.294h-74.422V.002h17.615v85.499h56.807v19.793zM535.924 105.294h-19.816l-9.101-23.058h-48l-8.808 23.058h-17.614L475.447.002h17.028l43.449 105.292zm-36.257-42.035l-16.293-42.851-16.881 42.85h33.174zM649.245 105.294h-12.037l-55.633-65.093a68.105 68.105 0 0 1-6.312-8.57c.49 6.801.734 12.175.734 16.12v57.543h-15.853V.002h12.037l53.284 62.033c3.817 4.489 6.704 8.298 8.66 11.427-.489-9.795-.733-15.849-.733-18.161V.002h15.853v105.292zM779.887 52.036c0 20.405-5.578 35.437-16.734 45.096-6.36 5.441-16.734 8.162-31.12 8.162H687.85V.002h48.734c13.113 0 23.389 4.081 30.826 12.243 8.318 8.979 12.477 22.242 12.477 39.79zm-18.202-.408c0-21.902-8.318-32.853-24.954-32.853h-31.266v66.726h22.752c10.765 0 18.594-1.905 23.487-5.714 6.654-5.17 9.981-14.556 9.981-28.16z"/></g></svg>