<svg viewBox="0 0 1920 1080" xmlns="http://www.w3.org/2000/svg" fill-rule="evenodd" clip-rule="evenodd" stroke-linecap="round" stroke-linejoin="round" stroke-miterlimit="1.5"><g fill="red" fill-rule="nonzero"><path d="M603.652 103.237h-34.935v172.491h-17.615V103.237h-34.789V65.809h87.34v37.428zM625.23 65.81h17.615v209.918H625.23zM770.551 275.728h-12.036l-55.633-129.775c-2.349-5.425-4.453-11.12-6.312-17.087.49 13.56.734 24.274.734 32.139v114.723H681.45V65.81h12.036l53.285 123.673c3.816 8.95 6.703 16.545 8.66 22.782-.49-19.527-.734-31.596-.734-36.207V65.81h15.853v209.92zM940.386 275.728h-74.422V65.81h17.615v170.458h56.807v39.461zM1052.239 275.728h-19.816l-9.101-45.97h-48l-8.808 45.97H948.9L991.762 65.81h17.028l43.449 209.92zm-36.257-83.805l-16.293-85.432-16.881 85.432h33.174zM1165.56 275.728h-12.037l-55.633-129.775c-2.348-5.425-4.452-11.12-6.312-17.087.49 13.56.734 24.274.734 32.139v114.723h-15.853V65.81h12.037l53.284 123.673c3.817 8.95 6.704 16.545 8.66 22.782-.489-19.527-.733-31.596-.733-36.207V65.81h15.853v209.92zM1296.202 169.548c0 40.682-5.578 70.651-16.734 89.908-6.36 10.848-16.734 16.272-31.12 16.272h-44.183V65.81h48.734c13.113 0 23.389 8.136 30.826 24.41 8.318 17.9 12.477 44.343 12.477 79.33zm-18.202-.813c0-43.666-8.318-65.498-24.954-65.498h-31.266v133.03h22.752c10.765 0 18.594-3.797 23.487-11.391 6.654-10.306 9.981-29.02 9.981-56.141z"/></g><path d="M496.313 790.5c-3.799-15.196-4.501-26.072-4.501-42" fill="none" stroke="#000"/><text x="143.812" y="371.7" font-family="'BankGothicBold','BankGothic'" font-weight="700" font-size="96">t<tspan x="201.892px 231.268px 301.06px 339.652px 394.084px 457.54px 527.332px" y="371.7px 371.7px 371.7px 371.7px 371.7px 371.7px 371.7px">in land</tspan></text></svg>