<?xml version="1.0" encoding="UTF-8" standalone="no"?>
<!DOCTYPE svg PUBLIC "-//W3C//DTD SVG 1.1//EN" "http://www.w3.org/Graphics/SVG/1.1/DTD/svg11.dtd">
<svg width="100%" height="100%" viewBox="0 0 780 106" version="1.1" xmlns="http://www.w3.org/2000/svg" xmlns:xlink="http://www.w3.org/1999/xlink" xml:space="preserve" xmlns:serif="http://www.serif.com/" style="fill-rule:evenodd;clip-rule:evenodd;stroke-linejoin:round;stroke-miterlimit:1.41421;">
    <g transform="matrix(12.2324,0,0,17.0045,-1100.82,-4179.84)">
        <path d="M97.132,246.912L94.276,246.912L94.276,252L92.836,252L92.836,246.912L89.992,246.912L89.992,245.808L97.132,245.808L97.132,246.912Z" style="fill:rgb(255,0,0);fill-rule:nonzero;"/>
        <rect x="98.896" y="245.808" width="1.44" height="6.192" style="fill:rgb(255,0,0);fill-rule:nonzero;"/>
        <path d="M110.776,252L109.792,252L105.244,248.172C105.052,248.012 104.88,247.844 104.728,247.668C104.768,248.068 104.788,248.384 104.788,248.616L104.788,252L103.492,252L103.492,245.808L104.476,245.808L108.832,249.456C109.144,249.72 109.38,249.944 109.54,250.128C109.5,249.552 109.48,249.196 109.48,249.06L109.48,245.808L110.776,245.808L110.776,252Z" style="fill:rgb(255,0,0);fill-rule:nonzero;"/>
        <path d="M124.66,252L118.576,252L118.576,245.808L120.016,245.808L120.016,250.836L124.66,250.836L124.66,252Z" style="fill:rgb(255,0,0);fill-rule:nonzero;"/>
        <path d="M133.804,252L132.184,252L131.44,250.644L127.516,250.644L126.796,252L125.356,252L128.86,245.808L130.252,245.808L133.804,252ZM130.84,249.528L129.508,247.008L128.128,249.528L130.84,249.528Z" style="fill:rgb(255,0,0);fill-rule:nonzero;"/>
        <path d="M143.068,252L142.084,252L137.536,248.172C137.344,248.012 137.172,247.844 137.02,247.668C137.06,248.068 137.08,248.384 137.08,248.616L137.08,252L135.784,252L135.784,245.808L136.768,245.808L141.124,249.456C141.436,249.72 141.672,249.944 141.832,250.128C141.792,249.552 141.772,249.196 141.772,249.06L141.772,245.808L143.068,245.808L143.068,252Z" style="fill:rgb(255,0,0);fill-rule:nonzero;"/>
        <path d="M153.748,248.868C153.748,250.068 153.292,250.952 152.38,251.52C151.86,251.84 151.012,252 149.836,252L146.224,252L146.224,245.808L150.208,245.808C151.28,245.808 152.12,246.048 152.728,246.528C153.408,247.056 153.748,247.836 153.748,248.868ZM152.26,248.844C152.26,247.556 151.58,246.912 150.22,246.912L147.664,246.912L147.664,250.836L149.524,250.836C150.404,250.836 151.044,250.724 151.444,250.5C151.988,250.196 152.26,249.644 152.26,248.844Z" style="fill:rgb(255,0,0);fill-rule:nonzero;"/>
    </g>
</svg>
