<svg viewBox="0 0 1019 527" xmlns="http://www.w3.org/2000/svg"><path d="M249.853 120.417c8.75.416 17.084 2.916 24.584 7.916s13.333 12.084 17.916 20.834c5.834 12.5 5 22.916-2.5 31.25-6.25 6.666-13.333 8.75-22.083 6.666-5-1.25-9.167-3.75-12.5-8.333s-4.583-9.167-4.167-14.583c-.416-.417-.833-.834-1.25-.834-4.583-.416-8.75 1.25-12.5 5-4.166 3.75-6.666 7.5-7.083 11.667-.417 2.5.833 4.583 2.917 6.667 2.083 2.083 6.25 5 12.083 8.75 6.667 3.333 10.417 5.416 11.667 6.25 22.5 15 33.75 32.083 34.166 51.25 0 12.916-4.166 24.166-12.916 34.166-8.75 10.417-20 16.25-32.917 17.917-10.417 1.25-20.833-.417-31.25-5-10.417-4.583-19.167-11.25-26.667-20.417-6.666-9.166-10.833-19.583-11.25-30.833-.416-8.333 2.5-15.417 9.167-20.833 6.667-5.417 13.75-6.667 21.25-2.917 7.083 3.333 11.25 10.417 12.5 21.25.417 6.25 3.75 10.833 10 14.167 6.25 3.333 11.667 3.333 16.667 0 2.083-1.25 2.916-3.334 2.5-6.667-.417-2.917-2.084-5.833-4.584-8.333-4.166-3.75-10.833-8.75-19.583-14.167-8.75-5.417-16.25-11.25-22.5-17.083-6.25-5.417-10.417-12.5-12.5-20.417-5-17.083-1.25-33.333 11.667-49.167 12.916-15.833 28.75-23.75 47.5-24.166h1.666zm78.751 15.833l6.25 1.25c3.75 1.25 7.083 3.75 9.583 7.083 2.5 3.75 4.167 7.5 4.583 11.25v98.75c-.416 7.917-4.583 14.167-12.5 18.334-7.916 4.166-15.416 3.75-22.083-1.25-5.417-4.167-8.333-10-8.333-17.084V157.5c0-2.5.416-5 .833-7.083 1.25-3.75 3.75-7.084 7.5-10 3.75-2.5 7.5-3.75 11.667-4.167h2.5zm7.083-80.834c7.083.417 12.917 3.75 17.5 10.834 4.583 7.083 5 13.75 1.25 20.833-4.167 7.917-11.25 12.5-20.833 12.917-10 .417-17.084-3.333-20.834-12.083l-1.666-8.334c-.417-6.25 1.666-11.667 5.416-16.25.834-.417 2.084-1.25 3.334-2.083 1.25-.834 3.333-2.084 6.666-3.75 3.334-1.25 6.25-2.084 9.167-2.084zM405.27 81.25c-.417-23.75-.417-42.917-.417-57.084V21.25c0-2.5.417-4.584 1.25-6.667 1.25-3.75 3.333-7.083 6.667-10 3.333-2.5 7.083-4.167 11.25-4.583h4.166c5 .416 9.167 2.5 12.917 5.833 3.75 3.75 5.833 7.917 6.667 12.917v10.833c0 14.583.416 33.333.833 55.417 8.75.417 16.25.833 23.333.833l5 2.084c2.084.833 3.75 1.666 5 2.5 1.25 1.25 2.917 2.5 5 3.75 2.084 1.666 3.334 3.333 4.167 5 .833 2.083 1.667 4.166 2.5 6.666.417 2.5.417 5-.833 7.5-1.25 5-4.167 8.75-8.75 11.667-4.584 2.917-9.584 4.167-15 3.75-5.834 0-12.5-.417-19.584-.833.417 27.916.834 50.416.834 68.333 0 17.083-.834 42.083-2.5 74.167v.416-2.5l-.417-.416.417.416v3.334c0 2.083-.417 3.75-.834 5 0 .416-.416 1.25-.833 1.666-.417.834-1.667 2.084-2.917 4.167-1.25 2.083-2.916 4.167-4.583 5.417-1.667 1.25-3.75 2.5-6.25 3.75-2.917 1.25-5.417 1.666-7.917 1.25-8.75-.834-14.583-5-17.916-12.917-1.25-2.083-1.667-5-1.667-7.917 0-2.916 0-5.833.417-7.916 1.25-34.584 1.666-81.25.833-139.584-8.75-.416-16.25-.833-22.917-.833-7.083-.417-12.5-2.917-16.25-7.5-5.416-5.833-6.25-13.333-2.5-22.083 3.334-8.334 9.167-13.334 17.917-13.75h2.5c6.25.416 12.917.416 20.417.833zm-.417 186.667zm263.493-141.484c10 0 19.583 2.083 28.75 5.833 9.166 4.167 16.666 10 22.5 17.5 9.583 11.25 15.416 25 17.916 40.417 2.084 15.417.417 30.417-5.833 44.583-6.25 14.167-16.667 24.584-30.833 31.25-22.917 10.417-42.917 12.917-59.584 7.917-3.75-1.25-7.5-2.917-11.25-5.833-2.916-2.5-5.833-5.834-7.916-9.584-2.5-3.75-4.167-7.5-5-10.416-1.25-2.5-2.5-7.084-3.75-12.917-1.667-5.833-2.5-9.583-2.917-10.833-2.917-11.25-4.167-22.084-4.167-32.5 0-10.417 2.5-20.834 7.084-31.25 5-10 12.083-18.334 21.666-24.584 9.584-6.666 20.417-10 33.334-9.583zm-.834 42.917c-5.416 0-9.583 2.5-12.5 7.5-3.333 5-5 10.416-5.416 16.25-.417 2.083-.417 3.75 0 5.833 0 2.083 0 4.583.416 7.083.417.834 2.084 7.084 5.417 19.167l1.667 2.083c.416 1.25.416 2.917.833 5 .417.417.833.417 1.667.417 11.666-1.25 20-3.333 25.416-7.083 5.834-3.75 9.167-10 10-18.334.834-7.916-.416-15.833-4.166-23.333-3.75-7.083-8.334-11.667-14.584-13.333a31.688 31.688 0 0 0-8.75-1.25zm151.668-45.417c10.416.417 20 4.167 29.166 11.25 8.75 7.5 15.417 16.25 20 26.667 3.75 8.75 6.25 19.583 7.084 32.5.416 12.916.416 24.583-.417 35 0 10.416-2.083 20.833-5.833 32.083-.417 5.833-1.667 10.833-4.167 15.417l-4.167 5c-1.25 1.666-2.916 2.916-5 4.166l-4.583 1.667-5.833.417s-2.084-.417-6.667-.834l-5-2.5c-1.25-.833-2.5-1.666-3.333-2.916l-2.5-2.917c-1.667-2.5-2.917-5.833-3.334-10-.416-3.75 0-8.333 1.25-12.917.417-.416.834-2.083 2.084-5.833 3.75-12.083 5.416-30.417 4.166-54.583-.416-10-2.5-17.084-5.833-21.25-.833-1.25-2.083-2.084-3.333-3.334-1.667-1.25-2.917-2.083-4.167-2.916l-1.667-.834c-8.75 1.25-15.416 6.25-20.833 15-5.417 8.75-7.917 18.334-7.917 29.584 0 4.166 0 10.416.417 18.333.417 7.917.417 13.75.417 17.5 0 6.667-2.084 12.083-6.667 16.25-5.417 5.833-12.917 7.083-22.083 3.75-9.167-2.917-13.75-9.167-14.167-17.917-.417-11.25-.833-22.5-1.25-33.333-.417-11.25.833-22.5 3.75-34.583 2.917-12.084 8.333-22.084 15.417-30.417 6.666-7.917 15-14.583 24.583-19.583 9.583-5 19.167-7.5 29.167-7.917h1.25zM73.814 341.999c8.75.416 17.084 2.916 24.584 7.916S111.73 362 116.314 370.75c5.834 12.5 5 22.916-2.5 31.25-6.25 6.666-13.333 8.75-22.083 6.666-5-1.25-9.167-3.75-12.5-8.333-3.334-4.583-4.584-9.167-4.167-14.583-.417-.417-.833-.834-1.25-.834-4.583-.416-8.75 1.25-12.5 5-4.167 3.75-6.667 7.5-7.083 11.667-.417 2.5.833 4.583 2.916 6.667 2.084 2.083 6.25 5 12.084 8.75 6.666 3.333 10.417 5.416 11.667 6.25 22.5 15 33.75 32.083 34.166 51.25 0 12.916-4.166 24.166-12.916 34.166-8.75 10.417-20 16.25-32.917 17.917-10.417 1.25-20.834-.417-31.25-5-10.417-4.583-19.167-11.25-26.667-20.417C4.647 492 .481 481.582.064 470.332c-.417-8.333 2.5-15.417 9.167-20.833 6.666-5.417 13.75-6.667 21.25-2.917 7.083 3.333 11.25 10.417 12.5 21.25.416 6.25 3.75 10.833 10 14.167 6.25 3.333 11.666 3.333 16.666 0 2.084-1.25 2.917-3.334 2.5-6.667-.416-2.917-2.083-5.833-4.583-8.333-4.167-3.75-10.833-8.75-19.583-14.167-8.75-5.417-16.25-11.25-22.5-17.083-6.25-5.417-10.417-12.5-12.5-20.417-5-17.083-1.25-33.333 11.666-49.167 12.917-15.833 28.75-23.75 47.5-24.166h1.667zm117.5 12.083c10 0 19.583 2.083 28.75 5.833 9.166 4.167 16.666 10 22.5 17.5 9.583 11.25 15.416 25 17.916 40.417 2.084 15.417.417 30.417-5.833 44.583-6.25 14.167-16.667 24.584-30.833 31.25-22.917 10.417-42.917 12.917-59.584 7.917-3.75-1.25-7.5-2.917-11.25-5.833-2.916-2.5-5.833-5.834-7.916-9.584-2.5-3.75-4.167-7.5-5-10.416-1.25-2.5-2.5-7.084-3.75-12.917-1.667-5.833-2.5-9.583-2.917-10.833-2.917-11.25-4.167-22.084-4.167-32.5 0-10.417 2.5-20.834 7.084-31.25 5-10 12.083-18.334 21.666-24.584 9.584-6.666 20.417-10 33.334-9.583zm-.834 42.917c-5.416 0-9.583 2.5-12.5 7.5-3.333 5-5 10.416-5.416 16.25-.417 2.083-.417 3.75 0 5.833 0 2.083 0 4.583.416 7.083.417.834 2.084 7.084 5.417 19.167l1.667 2.083c.416 1.25.416 2.917.833 5 .417.417.833.417 1.667.417 11.666-1.25 20-3.333 25.416-7.083 5.834-3.75 9.167-10 10-18.334.834-7.916-.416-15.833-4.166-23.333-3.75-7.083-8.334-11.667-14.584-13.333a31.688 31.688 0 0 0-8.75-1.25zm130.834-43.334c2.917 0 5.834.417 8.75.834 2.917.833 5.834 2.083 9.167 3.75 2.917 1.666 5.417 2.916 7.5 4.166 2.083 1.25 5 2.917 8.75 5.417s5.833 4.167 7.083 5l5.834 3.75c4.583-4.583 10.833-7.5 18.75-9.583 7.916-2.084 16.25-1.667 25.416.416 10 3.334 18.75 9.167 26.667 17.5 7.917 7.917 13.333 17.5 16.667 27.917 6.666 22.083 6.25 46.667-.834 74.583-1.25 4.584-2.916 8.334-5.833 11.25l-3.75 3.334-5.417 2.5c-2.083.416-3.75.833-5.416.833l-6.25-.417-5.417-2.5-5.417-4.166-3.333-5c-1.25-2.084-1.667-4.167-2.083-6.25 0-1.25 0-3.334.416-5.417.417-2.083.417-3.75.834-5l.416-2.083c4.584-20.834 5-37.5.417-49.584-2.917-8.75-8.333-14.583-16.25-17.083-2.917-.833-6.25 5.417-10 18.75v32.5c-.417 3.333-.833 6.25-2.083 8.75-2.084 5.417-6.25 8.75-11.667 10.833-5.833 2.084-11.667 1.667-17.5-.416-6.25-2.5-10.417-7.084-12.917-13.334-3.75-9.583-3.333-23.333.834-42.083-1.25-7.917-2.5-12.083-2.917-12.083l-.833-.834c-1.667-1.25-4.584-3.333-8.75-6.25-4.584-3.333-7.917-5.416-10.834-6.666-3.333 4.583-5.833 8.75-7.083 12.916-7.083 20-7.5 37.084-1.25 50.834.417 1.25.833 1.666 1.25 2.083l1.25 1.25c.417.417 1.25 1.25 1.667 2.5 5 7.5 4.166 15.417-2.084 24.167-6.666 8.75-14.583 11.25-23.75 7.5-10.416-4.167-17.5-13.75-21.25-28.75-3.75-14.584-4.583-30-2.5-45.417 2.084-15.417 5.417-28.75 10.417-39.167 4.167-8.75 10-16.25 17.5-22.083 7.083-5.833 15.417-8.75 24.583-9.167h1.25zm215.834-19.166c9.583.416 17.916 3.333 25.416 8.75 7.917 5.416 12.917 12.916 15.834 22.083 5.833 18.333 2.5 36.25-10.417 53.75-12.917 17.917-29.583 27.917-50.833 30h-2.917c.833 1.25 2.083 2.5 3.333 3.333 1.25 1.25 2.5 2.084 4.584 2.5 2.083.417 3.333.834 4.583 1.25 1.25.417 2.917.834 5.833 1.25 2.917.417 4.584.834 5.417 1.25 14.583 2.5 25.417 2.084 32.5-1.666 10.417-2.917 18.333-1.667 24.167 3.75 5 4.583 7.083 10.416 6.25 17.916-.834 7.5-4.167 12.917-10.417 16.667-5 2.917-11.667 5-20.417 6.667-8.75 1.666-17.916 2.083-26.666.833-33.75-3.75-55.834-14.167-66.25-31.667-8.334-15.416-12.084-32.083-11.25-49.583.416-17.083 4.583-33.333 12.5-48.333 5.833-11.25 13.75-20.417 23.75-27.5 9.583-7.084 20.833-10.834 33.333-11.25h1.667zm-1.25 42.916c-5.417 0-10.417 2.917-14.584 8.334-4.583 5.833-7.5 12.5-9.583 20.416h-.417c7.917-.416 14.584-3.75 20.417-9.166 5.417-5.417 7.5-11.667 5.833-18.334v-.416c0-.417-.416-.834-1.666-.834zm132.916-23.333c10 0 19.583 2.083 28.75 5.833 9.166 4.167 16.666 10 22.5 17.5 9.583 11.25 15.416 25 17.916 40.417 2.084 15.417.417 30.417-5.833 44.583-6.25 14.167-16.667 24.584-30.833 31.25-22.917 10.417-42.917 12.917-59.584 7.917-3.75-1.25-7.5-2.917-11.25-5.833-2.916-2.5-5.833-5.834-7.916-9.584-2.5-3.75-4.167-7.5-5-10.416-1.25-2.5-2.5-7.084-3.75-12.917-1.667-5.833-2.5-9.583-2.917-10.833-2.917-11.25-4.167-22.084-4.167-32.5 0-10.417 2.5-20.834 7.084-31.25 5-10 12.083-18.334 21.666-24.584 9.584-6.666 20.417-10 33.334-9.583zm-.834 42.917c-5.416 0-9.583 2.5-12.5 7.5-3.333 5-5 10.416-5.416 16.25-.417 2.083-.417 3.75 0 5.833 0 2.083 0 4.583.416 7.083.417.834 2.084 7.084 5.417 19.167l1.667 2.083c.416 1.25.416 2.917.833 5 .417.417.833.417 1.667.417 11.666-1.25 20-3.333 25.416-7.083 5.834-3.75 9.167-10 10-18.334.834-7.916-.416-15.833-4.166-23.333-3.75-7.083-8.334-11.667-14.584-13.333a31.688 31.688 0 0 0-8.75-1.25zm151.668-45.417c10.416.417 20 4.167 29.166 11.25 8.75 7.5 15.417 16.25 20 26.667 3.75 8.75 6.25 19.583 7.084 32.5.416 12.916.416 24.583-.417 35 0 10.416-2.083 20.833-5.833 32.083-.417 5.833-1.667 10.833-4.167 15.417l-4.167 5c-1.25 1.666-2.916 2.916-5 4.166l-4.583 1.667-5.833.417s-2.084-.417-6.667-.834l-5-2.5c-1.25-.833-2.5-1.666-3.333-2.916l-2.5-2.917c-1.667-2.5-2.917-5.833-3.334-10-.416-3.75 0-8.333 1.25-12.917.417-.416.834-2.083 2.084-5.833 3.75-12.083 5.416-30.417 4.166-54.583-.416-10-2.5-17.084-5.833-21.25-.833-1.25-2.083-2.084-3.333-3.334-1.667-1.25-2.917-2.083-4.167-2.916l-1.667-.834c-8.75 1.25-15.416 6.25-20.833 15-5.417 8.75-7.917 18.334-7.917 29.584 0 4.166 0 10.416.417 18.333.417 7.917.417 13.75.417 17.5 0 6.667-2.084 12.083-6.667 16.25-5.417 5.833-12.917 7.083-22.083 3.75-9.167-2.917-13.75-9.167-14.167-17.917-.417-11.25-.833-22.5-1.25-33.333-.417-11.25.833-22.5 3.75-34.583 2.917-12.084 8.333-22.084 15.417-30.417 6.666-7.917 15-14.583 24.583-19.583 9.583-5 19.167-7.5 29.167-7.917h1.25zm135-17.083c9.583.416 17.916 3.333 25.416 8.75 7.917 5.416 12.917 12.916 15.834 22.083 5.833 18.333 2.5 36.25-10.417 53.75-12.917 17.917-29.583 27.917-50.833 30h-2.917c.833 1.25 2.083 2.5 3.333 3.333 1.25 1.25 2.5 2.084 4.584 2.5 2.083.417 3.333.834 4.583 1.25 1.25.417 2.917.834 5.833 1.25 2.917.417 4.584.834 5.417 1.25 14.583 2.5 25.417 2.084 32.5-1.666 10.417-2.917 18.333-1.667 24.167 3.75 5 4.583 7.083 10.416 6.25 17.916-.834 7.5-4.167 12.917-10.417 16.667-5 2.917-11.667 5-20.417 6.667-8.75 1.666-17.916 2.083-26.666.833-33.75-3.75-55.834-14.167-66.25-31.667-8.334-15.416-12.084-32.083-11.25-49.583.416-17.083 4.583-33.333 12.5-48.333 5.833-11.25 13.75-20.417 23.75-27.5 9.583-7.084 20.833-10.834 33.333-11.25h1.667zm-1.25 42.916c-5.417 0-10.417 2.917-14.584 8.334-4.583 5.833-7.5 12.5-9.583 20.416h-.417c7.917-.416 14.584-3.75 20.417-9.166 5.417-5.417 7.5-11.667 5.833-18.334v-.416c0-.417-.416-.834-1.666-.834z"/></svg>