<svg viewBox="0 0 132 132" xmlns="http://www.w3.org/2000/svg"><path d="M111.735 131.452H19.718C8.836 131.452 0 122.617 0 111.734V19.718C0 8.835 8.835 0 19.718 0h92.017c10.883 0 19.718 8.835 19.718 19.718v92.016c0 10.883-8.835 19.718-19.718 19.718zm-1.307-48.953v-7.484c-.072-9.192-1.959-16.13-5.663-20.814-3.704-4.686-9.224-7.029-16.558-7.029-7.516 0-13.286 2.499-17.314 7.497-4.027 4.998-6.041 12.1-6.041 21.304v4.639c0 8.702 2.194 15.39 6.58 20.065 4.388 4.673 10.5 7.011 18.339 7.011 4.171 0 8.036-.8 11.596-2.401 3.56-1.599 6.274-3.693 8.144-6.283l-5.987-9.223c-3.415 3.488-7.677 5.232-12.782 5.232-3.524 0-6.131-1.002-7.821-3.006-1.69-2.005-2.643-5.174-2.858-9.508h30.365zM27.011 23.764h-5.986v82.846h5.986V66.104c1.294-4.099 3.191-7.327 5.691-9.682 2.498-2.355 5.312-3.533 8.44-3.533 3.847 0 6.671 1.241 8.468 3.722 1.798 2.481 2.715 6.328 2.751 11.542v38.457h5.933V67.506c-.252-13.556-5.465-20.334-15.641-20.334-3.417 0-6.445.926-9.089 2.778-2.643 1.851-4.827 4.341-6.553 7.469V23.764zm53.159 48.11h15.264v-1.401c-.072-3.489-.647-6.131-1.726-7.929-1.078-1.799-2.948-2.697-5.609-2.697s-4.593.953-5.798 2.859c-1.204 1.905-1.915 4.962-2.131 9.168z"/></svg>