<?xml version="1.0" encoding="UTF-8" standalone="no"?>
<!DOCTYPE svg PUBLIC "-//W3C//DTD SVG 1.1//EN" "http://www.w3.org/Graphics/SVG/1.1/DTD/svg11.dtd">
<svg width="100%" height="100%" viewBox="0 0 1000 500" version="1.1" xmlns="http://www.w3.org/2000/svg" xmlns:xlink="http://www.w3.org/1999/xlink" xml:space="preserve" xmlns:serif="http://www.serif.com/" style="fill-rule:evenodd;clip-rule:evenodd;stroke-linejoin:round;stroke-miterlimit:1.41421;">
    <path d="M783.329,313.155C796.069,313.275 807.675,324.294 807.886,337.554C808.182,368.437 808.182,399.325 807.886,430.208C807.685,442.892 796.753,454.395 783.488,454.605C752.605,454.901 721.718,454.902 690.835,454.605C678.15,454.404 666.648,443.488 666.437,430.208C666.141,399.325 666.141,368.437 666.437,337.554C666.638,324.872 677.585,313.37 690.835,313.157C721.665,312.869 752.498,313.052 783.329,313.155ZM236.476,430.27L230.139,430.27L228.045,429.811L226.336,428.516C226.336,428.516 226.327,427.278 225.288,427.917C214.715,434.307 198.458,431.514 193.707,419.335C191.005,412.41 191.476,404.137 195.285,397.846C200.018,390.029 209.918,386.519 219,386.438L224.011,386.438C224.011,381.818 225.551,376.798 217.172,376.678C213.553,376.626 209.375,378.751 209.257,383.014L208.862,385.164L207.765,386.782L206.131,387.856L204.21,388.221L198.249,388.167C196.238,387.749 194.39,386.843 193.662,385.05C192.508,382.212 193.411,379.214 194.37,376.338C197.482,367.001 207.499,360.972 217.766,361.095C226.642,361.273 235.791,365.816 238.685,374.772C239.543,377.427 239.882,380.226 239.917,383.024C239.958,392.798 239.878,402.572 239.92,412.345C239.941,415.305 240.055,418.28 240.678,421.163C240.678,421.163 240.691,367.164 240.691,367.164L241.072,365.251L242.156,363.629L243.778,362.545C247.122,361.88 247.146,361.956 251.384,362.164C253.311,362.259 254.587,363.158 255.559,364.579C264.012,358.854 277.164,360.213 283.167,368.764C285.538,372.141 286.749,376.195 287.348,380.321C289.238,372.281 294.312,364.77 302.267,362.22C307.95,360.398 314.336,360.617 319.719,363.236L319.719,342.784C320.097,340.884 320.107,340.859 321.184,339.248L322.806,338.164L324.719,337.784L330.68,337.784C332.581,338.162 332.605,338.172 334.216,339.248L335.3,340.87L335.68,342.784L335.68,425.27C335.302,427.17 335.292,427.194 334.216,428.806L332.594,429.89C329.283,430.548 329.259,430.473 325.095,430.27C323.347,430.185 321.323,428.44 321.323,428.44C321.157,428.538 320.989,428.632 320.82,428.725C312.14,433.433 300.303,431.917 293.637,424.541C290.824,421.428 288.97,417.551 287.799,413.525L287.799,425.27C287.421,427.17 287.412,427.194 286.335,428.806L284.713,429.89L282.799,430.27L276.892,430.27C274.992,429.892 274.968,429.882 273.357,428.806L272.273,427.184L271.892,425.27L271.892,387.004C271.86,383.636 271.802,379.629 269.483,377.761C266.884,375.668 262.975,376.754 260.584,379.096C258.78,380.862 257.589,383.145 256.739,385.498L256.652,385.744L256.652,425.27C256.274,427.171 256.264,427.195 255.188,428.806L253.566,429.89L251.652,430.27L245.691,430.27C243.791,429.892 243.767,429.882 242.156,428.806L241.084,427.201L240.012,428.806L238.389,429.89L236.476,430.27ZM367.155,430.27L361.14,430.27C359.24,429.892 359.216,429.882 357.605,428.806L356.521,427.184L356.14,425.27L356.14,342.784C356.518,340.884 356.528,340.859 357.605,339.248L359.227,338.164L361.14,337.784L367.155,337.784C369.055,338.162 369.079,338.172 370.69,339.248L371.774,340.87L372.155,342.784L372.155,381.944C372.217,381.688 372.284,381.434 372.352,381.18C374.774,372.289 381.046,364.456 389.901,362.019C397.341,359.971 405.744,361.136 411.863,365.613C416.421,368.947 419.605,373.928 421.372,379.343C424.078,371.154 430.347,364.227 438.372,362.019C446.186,359.869 455.088,361.294 461.286,366.348C465.554,369.829 468.466,374.774 470.078,380.093C470.078,380.093 470.085,342.784 470.085,342.784L470.466,340.87L471.55,339.248L473.172,338.164L475.085,337.784L481.1,337.784L483.013,338.164C483.554,338.526 484.095,338.887 484.635,339.248C485.712,340.859 485.722,340.884 486.1,342.784L486.1,381.062L500.232,363.978L501.955,362.64L504.084,362.164L511.495,362.164C512.736,362.401 514.019,362.674 514.921,363.522C516.318,364.836 516.826,366.951 516.247,368.719C516.053,369.314 515.642,369.814 515.34,370.361L497.315,392.038L517.591,422.5L518.368,424.495L518.239,426.632L517.228,428.52L515.52,429.812L513.428,430.27L506.34,430.27L504.724,430.002C503.288,429.229 503.276,429.22 502.167,428.024L486.564,404.38L486.1,404.897L486.1,425.27C485.722,427.17 485.712,427.194 484.635,428.806L483.013,429.89L481.1,430.27L475.085,430.27C473.185,429.892 473.161,429.882 471.55,428.806L470.466,427.184L470.085,425.27L470.085,412.462C470.02,412.678 469.953,412.892 469.885,413.106C467.247,421.207 460.906,428.24 452.803,430.437C445.026,432.546 436.197,431.123 430.018,426.146C425.935,422.856 423.053,418.232 421.385,413.231C421.385,413.231 420.225,416.712 418.486,419.562C411.573,430.888 394.54,435.067 383.043,427.254C377.442,423.448 373.809,417.225 372.155,410.595L372.155,425.27C371.777,427.17 371.767,427.194 370.69,428.806L369.068,429.89L367.155,430.27ZM546.412,430.27L540.398,430.27C538.497,429.892 538.473,429.882 536.862,428.806L535.778,427.184L535.398,425.27L535.398,377.535L532.396,377.535L530.483,377.154L528.861,376.07L527.777,374.448C527.137,371.234 527.185,371.212 527.396,367.164C527.43,366.515 527.65,365.889 527.777,365.251L528.861,363.629C529.401,363.268 529.882,362.794 530.483,362.545C531.873,361.969 534.061,362.164 535.398,362.164L535.398,359.499C535.519,351.875 538.121,344.039 543.953,339.948C549.218,336.255 556.443,335.764 562.524,337.836L564.387,338.974L565.588,340.798L565.897,342.96C565.598,346.768 565.953,346.839 564.842,350.494L563.411,352.099L561.439,352.954L559.289,352.902C555.888,352.067 552.318,352.849 551.635,356.996C551.469,357.999 551.416,359.015 551.412,360.03L551.412,362.164L557.797,362.164L559.711,362.545L561.333,363.629L562.417,365.251C563.006,368.214 562.797,368.24 562.797,371.261C570.16,360.943 586.208,357.819 597.024,365.12C602.168,368.592 605.667,374.142 607.47,380.093C607.47,380.093 607.477,367.164 607.477,367.164L607.857,365.251L608.941,363.629L610.563,362.545L612.477,362.164L618.33,362.164L620.229,362.539C620.768,362.895 621.306,363.251 621.844,363.607C621.844,363.607 620.745,364.328 623.376,363.001C627.853,360.742 633.49,360.064 637.758,362.404L639.156,363.541C640.055,365.091 640.062,365.111 640.353,366.879L640.246,372.84L639.752,374.918L638.436,376.6L636.538,377.58L634.405,377.678C632.534,377.359 632.456,377.387 631.619,377.375C627.459,377.315 624.518,381.651 623.459,385.669C623.459,385.669 623.438,425.27 623.438,425.27L623.057,427.184L621.973,428.806L620.351,429.89L618.438,430.27L612.477,430.27C610.576,429.892 610.552,429.882 608.941,428.806L607.857,427.184L607.477,425.27L607.477,412.462C607.412,412.678 607.345,412.892 607.276,413.106C603.918,423.425 594.341,431.216 583.43,431.342C568.965,431.509 557.134,418.366 556.75,400.19L556.75,393.255C556.769,387.81 557.49,382.353 559.506,377.31L557.797,377.535L551.412,377.535L551.412,425.27L551.032,427.184L549.948,428.806L548.326,429.89L546.412,430.27ZM445.419,376.676C439.218,376.796 436.049,384.213 435.531,389.726C434.647,399.136 434.119,411.461 441.802,414.998C444.705,416.333 448.368,416.111 450.893,414.342C456.497,410.413 455.902,401.342 455.875,392.96C455.815,386.724 454.691,378.891 448.337,377.039C447.39,376.763 446.402,376.67 445.419,376.676ZM582.81,376.676C576.678,376.794 573.448,384.135 572.922,389.726C572.037,399.156 571.481,411.522 579.247,415.022C582.124,416.318 585.73,416.101 588.238,414.374C593.882,410.486 593.294,401.342 593.266,392.96C593.202,386.318 591.351,378.678 585.728,377.039C584.781,376.763 583.794,376.67 582.81,376.676ZM396.947,376.676C390.747,376.796 387.577,384.213 387.059,389.726C386.174,399.155 385.622,411.525 393.384,415.022C396.262,416.318 399.868,416.101 402.374,414.374C408.019,410.485 407.429,401.342 407.403,392.96C407.33,385.391 404.819,376.822 397.258,376.677C397.102,376.676 397.103,376.675 396.947,376.676ZM310.962,376.838C309.081,376.869 307.088,377.228 305.671,378.549C301.788,382.166 302.123,388.122 302.065,392.866C302.014,399.855 301.03,407.7 304.859,413.032C308.071,417.505 316.323,416.379 319.611,410.677L319.719,410.485L319.719,382.612C318.201,379.419 315.039,376.912 311.35,376.838C311.221,376.837 311.091,376.837 310.962,376.838ZM224.011,401.432L219.601,401.432C215.394,401.501 210.605,402.08 208.78,406.103C206.897,410.256 207.673,415.807 214.248,415.59C218.272,415.458 222.136,413.138 223.981,409.541L224.011,401.432ZM375.755,319.987L369.848,319.987C367.947,319.609 367.923,319.599 366.312,318.522L365.228,316.9L364.848,314.987L364.848,279.839C364.783,280.054 364.715,280.269 364.647,280.483C362.023,288.541 355.747,295.534 347.731,297.768C337.415,300.643 325.589,297.06 319.413,287.507C315.656,281.695 314.269,274.593 314.121,267.567L314.121,260.631C314.167,247.709 319.259,233.213 333.135,229.395C340.624,227.335 349.081,228.518 355.234,233.091C359.932,236.582 363.128,241.82 364.841,247.469C364.841,247.469 364.848,234.541 364.848,234.541L365.228,232.628C366.305,231.017 366.323,230.998 367.934,229.922L369.848,229.541C373.541,229.541 373.574,229.2 377.2,229.906C377.733,230.252 378.267,230.599 378.801,230.946C378.801,230.946 378.799,231.765 379.694,231.246C387.74,226.681 398.84,227.647 405.612,233.621C409.005,236.614 411.216,240.754 412.534,245.116C412.534,245.116 413.744,242.175 415.058,240.034C421.873,228.926 438.513,224.148 450.288,232.678C453.574,235.059 456.057,238.45 457.647,242.209C457.647,242.209 457.656,234.541 457.656,234.541L458.036,232.628C459.113,231.017 459.131,230.998 460.742,229.922L462.656,229.541C463.238,229.541 468.436,229.175 470.241,229.913C471.384,230.381 472.167,232.184 472.887,231.716C481.352,226.327 494.019,227.692 499.972,235.918C503.571,240.89 504.628,247.361 504.764,253.659L504.764,292.647C504.386,294.547 504.376,294.571 503.299,296.182L501.677,297.266L499.764,297.647L493.856,297.647C491.956,297.269 491.932,297.259 490.321,296.182L489.237,294.56L488.856,292.647L488.856,254.381C488.824,251.011 488.765,247.005 486.447,245.138C483.847,243.044 479.939,244.131 477.549,246.472C475.747,248.236 474.551,250.528 473.703,252.875L473.616,253.121L473.616,292.647C473.238,294.547 473.228,294.571 472.152,296.182L470.53,297.266L468.616,297.647L462.656,297.647C460.755,297.269 460.731,297.259 459.12,296.182L458.036,294.56C457.566,292.197 457.656,292.181 457.656,289.772C449.951,299.431 433.598,301.659 422.744,295.027C417.989,292.123 414.449,287.468 412.449,282.247C412.449,282.247 411.273,285.58 409.926,287.957C404.501,297.53 391.256,301.416 380.781,296.668C380.781,296.668 380.755,314.987 380.755,314.987L380.374,316.9L379.29,318.522L377.668,319.606L375.755,319.987ZM686.035,229.541L687.948,229.922L689.57,231.005L690.654,232.628C691.24,235.573 691.035,235.598 691.035,238.602C698.808,227.21 718.312,224.229 728.394,234.678C732.336,238.764 733.955,244.669 734.028,250.401C734.068,260.174 733.987,269.948 734.03,279.722C734.052,282.682 734.166,285.656 734.788,288.539C734.788,288.539 734.801,210.16 734.801,210.16L735.182,208.247L736.266,206.625L737.888,205.541L739.801,205.16L745.709,205.16C747.609,205.538 747.633,205.548 749.244,206.625L750.328,208.247L750.709,210.16L750.709,230.707C750.881,230.619 751.056,230.536 751.231,230.453C759.793,226.498 770.98,228.286 777.197,235.202C780.541,238.922 782.369,243.739 783.391,248.621L783.434,248.834L783.434,210.16L783.815,208.247L784.898,206.625L786.521,205.541L788.434,205.16L794.449,205.16C796.349,205.538 796.373,205.548 797.984,206.625L799.068,208.247L799.449,210.16L799.449,247.279C799.516,247.059 799.584,246.84 799.655,246.621C802.949,236.56 811.906,228.568 823.406,228.467C823.582,228.467 823.757,228.467 823.933,228.469C829.525,228.54 835.102,230.146 839.374,233.864C839.374,233.864 839.676,232.628 839.676,232.628L840.759,231.005C841.3,230.644 841.781,230.17 842.382,229.922C843.923,229.283 847.039,229.541 848.263,229.541L848.263,219.719L848.644,217.806L849.728,216.184C851.339,215.107 851.363,215.097 853.263,214.719L859.224,214.719C861.125,215.097 861.149,215.107 862.76,216.184L863.844,217.806L864.224,219.719L864.224,229.541L869.159,229.541L871.072,229.922L872.695,231.005L873.778,232.628C873.905,233.265 874.125,233.892 874.159,234.541C874.37,238.588 874.418,238.611 873.778,241.825L872.695,243.447C872.154,243.808 871.673,244.282 871.072,244.531C869.379,245.232 865.172,244.911 864.224,244.911C864.224,256.198 864.172,267.485 864.225,278.772C864.25,280.501 864.859,282.93 864.859,282.93C866.088,283.173 867.449,282.769 868.783,282.522L870.921,282.59L872.835,283.545L874.174,285.213C874.347,285.905 874.629,286.578 874.694,287.288C875.069,291.39 875.066,291.411 874.527,294.593L873.48,296.253L871.875,297.383C871.109,297.72 870.831,297.802 870.289,297.961C863.622,299.92 855.766,298.554 851.704,292.593C849.078,288.738 848.361,283.915 848.263,279.382L848.263,244.911L846.227,244.911C847.582,249.263 848.029,253.911 848.081,258.517L848.081,264.131L847.701,266.044L846.617,267.666C845.006,268.743 844.982,268.753 843.081,269.131L813.589,269.131C813.618,269.769 813.662,270.406 813.728,271.041C813.785,271.581 813.855,272.12 813.944,272.656C814.014,273.083 814.096,273.509 814.19,273.932C815.25,278.675 818.898,283.053 824.321,283.234C828.308,283.367 832.305,281.857 834.978,278.719L836.339,277.599C837.787,277.097 838.189,276.742 839.766,277.057C841.023,277.309 841.897,277.919 842.72,278.875C845.201,281.759 845.293,281.723 846.767,284.787L846.798,286.937L845.924,288.901C838.095,299.519 820.951,301.838 809.911,294.756C804.854,291.512 801.279,286.267 799.452,280.524C799.452,280.524 799.449,292.647 799.449,292.647L799.068,294.56L797.984,296.182L796.362,297.266L794.449,297.647L788.434,297.647C786.533,297.269 786.509,297.259 784.898,296.182L783.815,294.56L783.434,292.647C783.434,292.647 784.432,273.738 783.185,279.269C781.259,287.461 776.181,295.165 768.129,297.67C761.907,299.606 754.869,299.075 749.194,295.732C749.194,295.732 748.807,296.243 748.807,296.243L747.206,297.282C743.966,297.912 743.944,297.858 739.801,297.647C738.505,297.58 737.349,296.906 736.266,296.182L735.194,294.578L734.122,296.182L732.5,297.266L730.586,297.647L724.249,297.647L722.156,297.187L720.447,295.893C720.447,295.893 720.437,294.655 719.398,295.294C710.73,300.531 698.542,299.864 691.701,292.835L691.403,294.593L690.356,296.253L688.751,297.383C681.691,300.496 672.827,298.828 668.579,292.592C665.951,288.732 665.236,283.885 665.139,279.382L665.139,244.911L661.171,244.911L659.257,244.531L657.635,243.447L656.551,241.825C656.425,241.187 656.205,240.561 656.171,239.911C655.959,235.864 655.912,235.842 656.551,232.628L657.635,231.005C658.176,230.644 658.657,230.17 659.257,229.922C660.799,229.283 663.915,229.541 665.139,229.541L665.139,219.719L665.52,217.806L666.603,216.184C668.214,215.107 668.238,215.097 670.139,214.719L676.1,214.719C678.001,215.097 678.025,215.107 679.635,216.184L680.719,217.806L681.1,219.719L681.1,229.541L686.035,229.541ZM155.007,229.541L156.92,229.922L157.504,230.311L157.504,210.16C157.882,208.26 157.892,208.236 158.968,206.625L160.59,205.541L162.504,205.16L168.465,205.16C170.365,205.538 170.389,205.548 172,206.625L173.084,208.247L173.465,210.16L173.465,231.271C174.87,230.449 175.021,230.426 175.731,230.121C183.443,226.808 193.385,228.401 198.803,234.635C201.729,238.002 203.267,242.356 204.022,246.796C204.022,246.796 207.558,235.946 216.117,231.309C227.812,224.974 244.203,229.184 249.713,242.208C249.713,242.208 249.721,234.541 249.721,234.541L250.102,232.628L251.185,231.005L252.808,229.922C256.152,229.256 256.176,229.333 260.413,229.541C262.341,229.636 263.617,230.534 264.589,231.955C272.929,226.307 286.005,227.583 292.038,235.918C295.637,240.89 296.694,247.361 296.829,253.659L296.829,292.647C296.451,294.547 296.441,294.571 295.365,296.182L293.743,297.266L291.829,297.647L285.922,297.647C284.021,297.269 283.997,297.259 282.386,296.182L281.303,294.56L280.922,292.647L280.922,254.381C280.89,251.011 280.831,247.005 278.513,245.138C275.913,243.044 272.005,244.131 269.614,246.472C267.812,248.236 266.617,250.527 265.768,252.875L265.682,253.121L265.682,292.647C265.304,294.547 265.294,294.571 264.217,296.182L262.595,297.266L260.682,297.647L254.721,297.647C252.821,297.269 252.797,297.259 251.185,296.182L250.102,294.56C249.632,292.197 249.721,292.181 249.721,289.772C242.043,299.396 225.811,301.638 214.955,295.116C210.282,292.308 206.759,287.827 204.711,282.753L204.612,282.501L204.612,292.647C204.234,294.547 204.224,294.571 203.147,296.182L201.525,297.266L199.612,297.647L193.705,297.647C191.805,297.269 191.78,297.259 190.169,296.182L189.085,294.56L188.705,292.647L188.705,254.381C188.672,251.012 188.614,247.006 186.295,245.138C183.698,243.045 179.778,244.141 177.397,246.472C175.595,248.236 174.399,250.527 173.551,252.875L173.465,253.121L173.465,292.647C173.087,294.547 173.077,294.571 172,296.182L170.378,297.266L168.465,297.647L162.504,297.647C160.742,297.296 160.699,297.338 159.205,296.34L157.723,297.383C150.663,300.496 141.799,298.828 137.552,292.592C134.923,288.732 134.208,283.885 134.111,279.382L134.111,244.911L130.143,244.911L128.229,244.531L126.607,243.447L125.523,241.825C124.884,238.611 124.931,238.588 125.143,234.541C125.211,233.245 125.883,232.089 126.607,231.005L128.229,229.922C131.13,229.345 131.154,229.541 134.111,229.541L134.111,219.719C134.489,217.819 134.499,217.795 135.576,216.184L137.198,215.1L139.111,214.719L145.072,214.719L146.985,215.1C147.526,215.461 148.067,215.822 148.608,216.184C149.684,217.795 149.694,217.819 150.072,219.719L150.072,229.541L155.007,229.541ZM548.214,229.541L550.127,229.922L550.711,230.311L550.711,210.16L551.091,208.247L552.175,206.625C553.786,205.548 553.81,205.538 555.711,205.16L561.672,205.16C563.572,205.538 563.596,205.548 565.207,206.625L566.291,208.247L566.672,210.16L566.672,231.271C568.076,230.45 568.227,230.426 568.938,230.121C571.547,229 574.389,228.479 577.248,228.467C577.535,228.468 577.535,228.468 577.822,228.473C584.761,228.657 591.41,232.298 594.61,238.501C595.944,241.088 596.739,243.917 597.229,246.796C597.229,246.796 598.527,243.091 600.055,240.492C607.577,227.69 628.478,222.71 639.575,236.509C644.527,242.668 645.665,250.923 645.753,258.517L645.753,264.131L645.373,266.044L644.289,267.666C642.678,268.743 642.654,268.753 640.753,269.131L611.261,269.131C611.29,269.77 611.334,270.407 611.4,271.042C611.456,271.582 611.527,272.121 611.616,272.656C611.686,273.084 611.768,273.509 611.862,273.932C612.922,278.675 616.57,283.053 621.993,283.234C625.976,283.367 629.969,281.867 632.65,278.719L634.011,277.599C635.459,277.097 635.86,276.742 637.438,277.057C638.695,277.309 639.569,277.919 640.392,278.875C642.873,281.759 642.965,281.723 644.438,284.787L644.47,286.936L643.597,288.9C635.938,299.295 619.35,301.726 608.308,295.203C603.569,292.403 599.986,287.877 597.918,282.753L597.819,282.501L597.819,292.647L597.438,294.56L596.354,296.182C594.744,297.258 594.719,297.269 592.819,297.647L586.911,297.647C585.011,297.269 584.987,297.259 583.376,296.182L582.292,294.56L581.911,292.647L581.911,254.381C581.879,251.011 581.818,247.002 579.503,245.138C576.903,243.045 572.985,244.141 570.603,246.472C568.799,248.238 567.608,250.522 566.758,252.875L566.672,253.121L566.672,292.647L566.291,294.56L565.207,296.182C563.596,297.258 563.572,297.269 561.672,297.647L555.711,297.647C553.948,297.296 553.905,297.338 552.412,296.34L550.93,297.383C543.87,300.496 535.005,298.825 530.759,292.593C528.133,288.738 527.415,283.915 527.318,279.382L527.318,244.911L523.35,244.911L521.436,244.531L519.814,243.447L518.73,241.825C518.091,238.611 518.138,238.588 518.35,234.541C518.384,233.892 518.603,233.265 518.73,232.628L519.814,231.005C520.355,230.644 520.835,230.17 521.436,229.922C522.978,229.283 526.094,229.541 527.318,229.541L527.318,219.719L527.699,217.806L528.782,216.184C530.393,215.107 530.417,215.097 532.318,214.719L538.279,214.719C540.179,215.097 540.204,215.107 541.814,216.184L542.898,217.806L543.279,219.719L543.279,229.541L548.214,229.541ZM218.054,269.131C218.083,269.769 218.128,270.406 218.194,271.042C218.25,271.582 218.321,272.12 218.409,272.656C218.479,273.084 218.561,273.509 218.656,273.932C219.719,278.693 223.4,283.054 228.786,283.234C232.772,283.367 236.769,281.859 239.444,278.718L240.805,277.599C242.507,277.008 244.413,276.804 245.871,277.702C247.226,278.536 249.112,281.334 249.721,282.11L249.721,268.576C249.634,268.634 249.547,268.692 249.46,268.75L247.546,269.131L218.054,269.131ZM455.481,269.131L425.988,269.131C425.999,269.356 426.011,269.581 426.025,269.805C426.1,270.907 426.22,272.006 426.42,273.093C427.339,278.097 430.918,283.04 436.721,283.234C440.706,283.367 444.704,281.859 447.378,278.719L448.739,277.599C450.394,277.025 450.413,277.022 452.166,277.057C452.712,277.272 453.259,277.487 453.806,277.702C455.995,279.657 455.845,279.8 457.656,282.11L457.656,268.576L455.481,269.131ZM340.181,244.053C334.058,244.171 330.815,251.551 330.293,257.102C329.409,266.511 328.882,278.837 336.565,282.374C339.468,283.711 343.131,283.488 345.655,281.718C351.26,277.789 350.664,268.719 350.637,260.336C350.565,252.78 347.77,244.284 340.648,244.056C340.493,244.053 340.337,244.052 340.181,244.053ZM759.396,244.214C757.572,244.236 755.723,244.646 754.244,245.718C752.61,246.903 751.529,248.71 750.753,250.524C750.753,250.524 750.709,277.433 750.709,277.433C752.905,282.122 759.334,284.799 763.982,282.042C769.439,278.806 768.545,269.071 768.526,260.588C768.482,254.491 767.757,247.202 763.886,245.115C762.521,244.378 760.909,244.207 759.396,244.214ZM389.127,244.214C387.329,244.235 385.507,244.64 384.039,245.686C382.582,246.725 381.556,248.246 380.778,249.835C380.778,249.835 380.755,278.214 380.755,278.214C383.946,284.033 393.777,285.239 396.678,278.525C400.691,269.237 399.944,256.609 396.784,248.962C396.069,247.233 394.856,245.605 393.093,244.872C391.842,244.351 390.466,244.208 389.127,244.214ZM550.127,244.531C546.752,245.202 546.721,244.911 543.279,244.911C543.279,256.198 543.227,267.485 543.28,278.772C543.305,280.501 543.914,282.93 543.914,282.93C545.143,283.173 546.503,282.769 547.838,282.522L549.976,282.59L550.711,282.957L550.711,244.141C550.516,244.271 550.322,244.401 550.127,244.531ZM156.92,244.531C153.545,245.202 153.514,244.911 150.072,244.911C150.072,256.198 150.02,267.485 150.073,278.772C150.098,280.498 150.707,282.93 150.707,282.93C151.936,283.173 153.297,282.769 154.631,282.522L156.769,282.59L157.504,282.957L157.504,244.141C157.309,244.271 157.115,244.401 156.92,244.531ZM686.626,282.371C685.583,276.121 686.474,269.404 690.049,264.211C695.001,257.016 704.32,253.894 713.11,253.814L718.122,253.814C718.122,249.19 719.663,244.175 711.282,244.054C707.664,244.002 703.485,246.127 703.367,250.39L702.972,252.542L701.874,254.159L700.24,255.233L698.32,255.598L692.359,255.544C690.348,255.126 688.5,254.219 687.772,252.426C686.699,249.786 687.492,247.011 688.295,244.299L687.948,244.531C684.573,245.202 684.542,244.911 681.1,244.911C681.1,256.198 681.048,267.485 681.101,278.772C681.126,280.496 681.735,282.93 681.735,282.93C682.959,283.172 684.322,282.77 685.659,282.522C685.659,282.522 686.707,282.825 686.626,282.371ZM718.122,268.809L713.711,268.809C709.504,268.878 704.715,269.455 702.89,273.479C700.999,277.651 701.741,283.242 708.478,282.962C712.459,282.797 716.258,280.489 718.091,276.918L718.122,268.809ZM621.096,244.053C619.194,244.085 617.251,244.499 615.766,245.665C613.393,247.526 612.411,250.619 611.846,253.469C611.846,253.469 629.543,253.546 629.543,253.546C629.521,253.366 629.496,253.187 629.471,253.008C629.396,252.493 629.309,251.98 629.202,251.47C629.117,251.067 629.021,250.666 628.911,250.27C628.825,249.96 628.73,249.654 628.626,249.35C627.876,247.17 626.355,245.05 624.031,244.394C623.077,244.125 622.084,244.047 621.096,244.053ZM435.824,244.053C433.922,244.085 431.979,244.499 430.493,245.665C428.121,247.526 427.139,250.62 426.574,253.469C426.574,253.469 444.271,253.546 444.271,253.546C444.248,253.367 444.224,253.188 444.199,253.009C444.123,252.493 444.037,251.98 443.929,251.47C443.845,251.067 443.749,250.667 443.638,250.27C443.553,249.961 443.458,249.654 443.354,249.35C442.307,246.307 439.319,244.034 435.824,244.053ZM227.889,244.053C225.987,244.085 224.045,244.499 222.559,245.665C220.186,247.526 219.204,250.62 218.64,253.469C218.64,253.469 236.336,253.546 236.336,253.546C236.314,253.367 236.29,253.188 236.265,253.009C236.189,252.493 236.102,251.98 235.995,251.47C235.91,251.067 235.814,250.667 235.704,250.27C235.618,249.961 235.524,249.654 235.419,249.35C234.372,246.307 231.384,244.034 227.889,244.053ZM823.424,244.053C821.522,244.085 819.579,244.499 818.094,245.664C815.722,247.526 814.739,250.62 814.174,253.469C814.174,253.469 831.871,253.546 831.871,253.546C831.849,253.366 831.824,253.187 831.799,253.008C831.724,252.493 831.637,251.98 831.53,251.47C831.445,251.067 831.349,250.667 831.239,250.27C831.153,249.961 831.058,249.654 830.954,249.35C829.908,246.309 826.919,244.034 823.424,244.053Z" style="fill-rule:nonzero;"/>
    <path d="M134.759,163.712L115.656,163.712C114.626,163.548 113.557,163.544 112.565,163.222C109.815,162.328 108.039,160.518 106.828,158.142C106.671,158.26 106.514,158.376 106.356,158.492C89.068,170.962 61.084,165.349 51.189,145.554C47.436,138.046 46.162,129.522 46.026,121.227C46.026,121.227 46.006,117.126 46.021,114.164C46.132,100.926 49.387,86.799 59.817,77.921C72.202,67.379 92.51,66.617 105.656,75.479L105.656,50.393C105.984,48.32 106.347,46.192 107.565,44.515C108.807,42.806 110.557,41.535 112.565,40.882C113.557,40.56 114.626,40.556 115.656,40.393L134.759,40.393C137.473,40.823 138.326,40.631 140.637,42.303C141.631,43.022 142.181,44.771 143.11,44.283C149.279,41.147 157.011,41.184 163.04,44.402C172.824,49.627 176.633,64.095 169.631,74.014L170.67,75.053L172.072,77.805C178.822,72.104 188.082,69.608 196.992,69.586C197.149,69.586 197.307,69.587 197.464,69.588C204.268,69.671 211.094,71.287 216.85,74.876C216.85,74.876 216.898,50.393 216.898,50.393L217.388,47.303C217.861,46.373 218.195,45.359 218.808,44.515C220.049,42.806 221.8,41.535 223.808,40.882C224.8,40.56 225.868,40.556 226.898,40.393L245.934,40.393C248.007,40.721 250.135,41.084 251.812,42.303C253.52,43.544 254.792,45.294 255.445,47.303C255.767,48.295 255.771,49.363 255.934,50.393L255.934,72.689L256.561,72.22L258.933,71.259L261.472,70.931L284.141,70.931C286.824,71.353 287.696,71.168 289.984,72.816C293.333,75.228 294.94,79.878 293.69,83.9C293.382,84.889 292.775,85.758 292.317,86.688L274.762,111.623L294.954,148.954L295.958,151.719C296.062,153.689 296.149,155.709 295.408,157.512C294.273,160.274 291.86,162.43 289.068,163.279C288.13,163.564 287.129,163.567 286.158,163.712L264.365,163.712C261.512,163.307 258.74,162.442 256.881,160.344C255.898,159.235 255.091,157.495 255.091,157.495L254.024,159.589L251.812,161.802C249.037,163.216 249.011,163.224 245.934,163.712L226.898,163.712C225.868,163.548 224.8,163.544 223.808,163.222C221.184,162.37 219.65,161.243 218.309,158.61C205.133,168.114 184.802,167.339 172.136,156.851C172.136,156.851 170.67,159.589 170.67,159.589L168.457,161.802C165.682,163.216 165.656,163.224 162.58,163.712L143.476,163.712C141.232,163.356 141.142,163.607 139.118,162.576L137.849,163.222L134.759,163.712ZM686.115,163.712L674.209,163.712C673.179,163.548 672.111,163.544 671.119,163.222C668.09,162.238 665.655,159.745 664.699,156.802C664.376,155.81 664.372,154.742 664.209,153.712L664.209,80.931C664.659,78.09 664.428,77.491 666.119,75.053C666.758,74.132 668.498,74.423 666.924,72.294C661.583,65.068 662.559,53.45 670.001,47.725C676.969,42.365 688.298,43.557 693.7,51.021C698.01,56.975 698.159,65.695 694.014,71.81C694.014,71.81 694.837,71.42 694.837,71.42L697.927,70.931L709.16,70.931L712.169,71.394L714.12,72.357C714.299,72.275 714.48,72.195 714.661,72.115C728.017,66.374 745.196,70.632 752.262,84.034C752.262,84.034 756.701,77.704 762.634,74.211C768.043,71.026 774.384,69.615 780.691,69.586C780.836,69.586 780.981,69.587 781.125,69.588C787.352,69.659 793.617,71.062 798.984,74.215L800.359,72.841C801.288,72.367 802.154,71.743 803.146,71.42C804.829,70.874 805.815,70.931 807.335,70.931L807.335,63.308C807.663,61.235 808.026,59.107 809.245,57.43C810.486,55.721 812.237,54.45 814.245,53.797C815.237,53.475 816.305,53.471 817.335,53.308L829.174,53.308C833.384,53.974 837.411,56.297 838.684,60.217C839.571,62.947 839.174,69.258 839.174,70.931C839.174,70.931 841.415,70.831 843.228,71.42C846.089,72.35 847.988,74.582 849.336,77.227C850.538,76.275 850.889,76.045 851.691,75.514C865.608,66.285 886.574,67.402 897.405,79.476C897.405,79.476 897.416,50.393 897.416,50.393L897.906,47.303C898.379,46.373 898.713,45.359 899.326,44.515C900.567,42.806 902.318,41.535 904.326,40.882C905.318,40.56 906.386,40.556 907.416,40.393L919.322,40.393C922.399,40.88 922.425,40.889 925.2,42.303L925.699,42.802L926.198,42.303L928.985,40.882L932.076,40.393L943.981,40.393C946.054,40.721 948.182,41.084 949.859,42.303C951.568,43.544 952.839,45.294 953.492,47.303C953.814,48.295 953.818,49.363 953.981,50.393L953.981,153.712C953.653,155.784 953.29,157.912 952.072,159.589C950.83,161.298 949.08,162.57 947.072,163.222C946.08,163.544 945.012,163.548 943.981,163.712L932.076,163.712C928.999,163.224 928.973,163.216 926.198,161.802L925.699,161.303L925.2,161.802L922.412,163.222L919.322,163.712L907.416,163.712C904.768,163.292 904.706,163.416 902.318,162.199L900.309,163.222L897.219,163.712L884.842,163.712C882.125,163.319 882.098,163.342 879.603,162.197C869.788,167.058 857.253,165.85 848.325,159.664L845.926,161.826L843.168,163.228C842.846,163.333 842.846,163.333 842.522,163.435C830.325,167.145 815.782,163.965 810.173,151.056C799.254,167.69 771.862,169.955 756.388,156.447C756.388,156.447 754.851,159.589 754.851,159.589C754.114,160.327 753.483,161.189 752.639,161.802C750.342,163.471 749.462,163.284 746.761,163.712L734.922,163.712C733.892,163.548 732.824,163.544 731.832,163.222C728.803,162.238 726.368,159.745 725.412,156.802C725.09,155.81 725.086,154.742 724.922,153.712C724.922,137.629 725.047,121.546 724.92,105.463C724.896,103.662 724.876,101.968 724.283,100.195C722.441,99.922 720.89,101.559 719.834,103.267C719.834,103.267 719.833,153.712 719.833,153.712L719.343,156.802C718.87,157.731 718.536,158.746 717.923,159.589C716.681,161.298 714.931,162.57 712.923,163.222C711.931,163.544 710.863,163.548 709.833,163.712L697.927,163.712C694.85,163.224 694.824,163.216 692.049,161.802C692.049,161.802 689.205,163.222 689.205,163.222L686.115,163.712ZM329.356,163.712L310.32,163.712C308.247,163.383 306.119,163.02 304.442,161.802C302.734,160.56 301.462,158.81 300.809,156.802C300.487,155.81 300.483,154.742 300.32,153.712L300.32,50.393C300.648,48.32 301.011,46.192 302.23,44.515C303.471,42.806 305.221,41.535 307.23,40.882C308.222,40.56 309.29,40.556 310.32,40.393L329.356,40.393C331.428,40.721 333.556,41.084 335.234,42.303C336.942,43.544 338.214,45.294 338.866,47.303C339.189,48.295 339.193,49.363 339.356,50.393L339.356,70.042C339.571,70.003 339.787,69.968 340.002,69.934C341.651,69.683 343.315,69.574 344.978,69.588C354.749,69.723 364.213,74.522 369.353,83.071C369.353,83.071 372.507,79.231 376.067,76.593C389.197,66.865 409.261,67.112 421.774,76.412C421.774,76.412 422.58,75.053 422.58,75.053L424.792,72.841C427.568,71.427 427.593,71.418 430.67,70.931L448.63,70.931L451.59,71.379C451.59,71.379 451.75,71.86 452.916,71.35C458.532,68.96 465.164,68.888 470.751,71.249L473.265,72.781L475.142,74.888C492.259,64.418 518.415,69.45 527.943,88.025C532.072,96.076 533.318,105.287 533.401,114.262L533.401,123.644C533.238,124.674 533.234,125.743 532.912,126.734C531.969,129.636 529.602,131.57 526.868,132.963L530.646,138.783C531.059,139.695 531.613,140.555 531.884,141.519C532.433,143.469 532.376,145.54 531.722,147.457C530.64,150.626 528.551,152.55 526.448,154.514C509.312,170.522 477.852,168.099 464.505,149.543C462.541,146.813 460.967,143.814 459.773,140.671L459.773,153.712C459.445,155.784 459.082,157.912 457.864,159.589C456.622,161.298 454.872,162.57 452.864,163.222C451.872,163.544 450.804,163.548 449.773,163.712L430.67,163.712C427.947,163.28 427.112,163.474 424.792,161.802C423.832,161.109 423.423,159.299 422.011,160.045C407.042,167.815 387.378,166.862 374.503,156.477C374.503,156.477 373.029,159.589 373.029,159.589C371.096,161.523 370.73,162.345 368.029,163.222C367.038,163.544 365.97,163.548 364.939,163.712L345.836,163.712C344.806,163.548 343.737,163.544 342.746,163.222C340.045,162.345 339.679,161.523 337.746,159.589L337.596,159.295L335.234,161.802C332.459,163.216 332.433,163.224 329.356,163.712ZM580.455,70.931L583.546,71.42C584.475,71.894 585.404,72.367 586.333,72.841C588.185,74.692 588.323,74.616 589.512,76.949C604.201,65.463 628.39,67.725 640.657,83.069C647.295,91.371 650,102.36 650.16,113.077C650.16,123.515 649.981,134.14 645.702,143.441C637.176,161.972 611.885,172.17 592.082,159.544C590.993,158.849 589.458,157.692 589.458,157.692L588.441,159.649L586.244,161.826L583.486,163.228C582.339,163.602 582.282,163.606 581.795,163.742C570.224,166.951 556.607,164.082 550.772,151.674C548.458,146.753 547.67,141.248 547.653,135.768L547.653,100.55L546.554,100.55L543.464,100.06C542.535,99.587 541.52,99.253 540.676,98.64C538.968,97.399 537.696,95.649 537.043,93.64C536.721,92.648 536.717,91.58 536.554,90.55L536.554,80.931C536.882,78.858 537.245,76.731 538.464,75.053C540.362,72.441 543.259,70.931 547.653,70.931L547.653,63.308C547.981,61.235 548.344,59.107 549.562,57.43C550.804,55.721 552.554,54.45 554.562,53.797C555.554,53.475 556.623,53.471 557.653,53.308L569.491,53.308C573.701,53.974 577.728,56.297 579.002,60.217C579.889,62.947 579.491,69.256 579.491,70.931L580.455,70.931ZM611.863,99.81C608.219,99.848 606.784,104.821 606.233,107.951C606.087,108.779 605.982,109.613 605.908,110.45C605.216,118.304 604.5,127.557 608.618,133.1C610.324,135.397 614.775,136.049 616.537,132.134C617.897,129.113 618.151,125.639 618.249,122.256L618.254,122.047C618.254,115.693 619.044,109.144 616.465,103.556C615.593,101.667 614.114,99.875 612.097,99.813C612.019,99.811 611.941,99.81 611.863,99.81ZM777.497,132.392C777.526,132.652 777.564,132.91 777.621,133.166C777.946,134.622 780.001,135.023 782.085,134.856L782.099,134.855C780.653,133.922 779.115,133.136 777.571,132.382C777.571,132.382 777.485,132.281 777.497,132.392ZM873.076,128.688C870.458,129.14 867.625,129.428 868.159,134.178C868.159,134.178 871.087,134.197 873.024,132.62C873.024,132.62 873.292,128.653 873.076,128.688ZM197.239,120.004C197.241,121.407 197.257,122.376 197.257,122.376L199.304,120.361C202.059,118.973 202.084,118.965 205.131,118.487L216.898,118.487L216.898,118.106L205.131,118.106C202.418,117.68 201.617,117.875 199.297,116.228C198.511,115.67 197.925,114.874 197.239,114.197C197.239,116.133 197.239,118.068 197.239,120.004ZM85.122,120.004C85.124,121.407 85.14,122.376 85.14,122.376L87.187,120.361C89.942,118.973 89.967,118.965 93.014,118.487L105.656,118.487L105.656,118.106L93.014,118.106C90.301,117.68 89.5,117.875 87.18,116.228C86.394,115.67 85.808,114.874 85.122,114.197C85.122,116.133 85.122,118.068 85.122,120.004ZM756.761,121.985C756.761,121.985 758.913,122.957 756.872,121.154C756.872,121.154 756.761,121.675 756.761,121.985ZM839.174,119.259C839.248,119.097 839.324,118.937 839.4,118.776C840.805,115.869 842.677,113.174 844.909,110.821C844.909,110.821 842.363,109.763 842.363,109.763C840.602,108.407 840.522,108.471 839.174,106.705C839.174,110.889 839.174,115.074 839.174,119.259ZM806.838,111.307C806.838,111.307 803.403,111.184 804.296,111.877C804.296,111.877 805.897,113.121 807.335,114.592L807.335,111.1C807.17,111.169 807.004,111.238 806.838,111.307ZM780.902,99.818C781.509,100.136 783.111,99.971 780.989,99.819C780.947,99.817 780.875,99.803 780.902,99.818Z" style="fill-rule:nonzero;"/>
    <path d="M783.17,449.607L691.153,449.607C680.271,449.607 671.435,440.772 671.435,429.889L671.435,337.873C671.435,326.99 680.27,318.155 691.153,318.155L783.17,318.155C794.053,318.155 802.888,326.99 802.888,337.873L802.888,429.889C802.888,440.772 794.052,449.607 783.17,449.607ZM236.476,425.27L230.139,425.27C229.602,423.408 229.244,420.723 229.065,417.215C227.275,420.115 224.975,422.361 222.164,423.954C219.354,425.548 216.302,426.344 213.008,426.344C207.996,426.344 204.094,424.93 201.301,422.102C198.509,419.273 197.112,415.246 197.112,410.019C197.112,404.326 199.055,399.815 202.939,396.486C206.823,393.156 212.185,391.474 219.023,391.438L229.011,391.438L229.011,383.329C229.011,379.176 227.982,376.195 225.924,374.387C223.865,372.579 220.849,371.675 216.875,371.675C213.187,371.675 210.162,372.749 207.799,374.898C205.436,377.046 204.255,379.82 204.255,383.221L198.294,383.168C198.294,378.406 200.084,374.369 203.664,371.058C207.244,367.746 211.737,366.09 217.143,366.09C222.979,366.09 227.4,367.558 230.408,370.494C233.415,373.43 234.919,377.708 234.919,383.329L234.919,411.845C234.919,417.537 235.438,421.797 236.476,424.626L236.476,425.27ZM330.68,425.27L325.095,425.27L324.827,417.806C321.569,423.498 316.592,426.344 309.898,426.344C303.775,426.344 299.112,424.017 295.908,419.363C292.704,414.709 291.066,408.103 290.994,399.547L290.994,393.532C290.994,384.439 292.588,377.592 295.774,372.991C298.96,368.391 303.686,366.09 309.951,366.09C316.539,366.09 321.461,369.044 324.719,374.951L324.719,342.784L330.68,342.784L330.68,425.27ZM375.887,393.264C375.887,384.886 377.784,378.263 381.579,373.394C385.374,368.525 390.547,366.09 397.099,366.09C403.686,366.09 408.869,368.489 412.646,373.286C416.423,378.084 418.329,384.689 418.365,393.103L418.365,399.278C418.365,407.799 416.459,414.44 412.646,419.202C408.833,423.963 403.686,426.344 397.206,426.344C390.726,426.344 385.589,424.017 381.794,419.363C377.999,414.709 376.03,408.3 375.887,400.138L375.887,393.264ZM424.358,393.264C424.358,384.886 426.256,378.263 430.051,373.394C433.846,368.525 439.019,366.09 445.571,366.09C452.158,366.09 457.34,368.489 461.117,373.286C464.894,378.084 466.801,384.689 466.837,393.103L466.837,399.278C466.837,407.799 464.93,414.44 461.117,419.202C457.304,423.963 452.158,426.344 445.678,426.344C439.198,426.344 434.06,424.017 430.265,419.363C426.47,414.709 424.501,408.3 424.358,400.138L424.358,393.264ZM561.75,393.264C561.75,384.886 563.647,378.263 567.442,373.394C571.237,368.525 576.41,366.09 582.962,366.09C589.549,366.09 594.732,368.489 598.509,373.286C602.286,378.084 604.192,384.689 604.228,393.103L604.228,399.278C604.228,407.799 602.322,414.44 598.509,419.202C594.696,423.963 589.549,426.344 583.069,426.344C576.589,426.344 571.452,424.017 567.657,419.363C563.862,414.709 561.893,408.3 561.75,400.138L561.75,393.264ZM781.863,400.654L781.863,393.17C781.791,383.978 779.904,377.04 776.2,372.356C772.496,367.67 766.976,365.327 759.642,365.327C752.126,365.327 746.356,367.826 742.328,372.824C738.301,377.822 736.287,384.924 736.287,394.128L736.287,398.767C736.287,407.469 738.481,414.157 742.867,418.832C747.255,423.505 753.367,425.843 761.206,425.843C765.377,425.843 769.242,425.043 772.802,423.442C776.362,421.843 779.076,419.749 780.946,417.159L774.959,407.936C771.544,411.424 767.282,413.168 762.177,413.168C758.653,413.168 756.046,412.166 754.356,410.162C752.666,408.157 751.713,404.988 751.498,400.654L781.863,400.654ZM618.438,425.27L612.477,425.27L612.477,367.164L618.33,367.164L618.438,375.864C621.266,369.348 625.705,366.09 631.756,366.09C633.331,366.09 634.53,366.323 635.354,366.789L635.246,372.749C633.814,372.499 632.561,372.374 631.487,372.374C628.193,372.374 625.428,373.501 623.19,375.757C620.953,378.012 619.368,381.145 618.438,385.155L618.438,425.27ZM367.155,425.27L361.14,425.27L361.14,342.784L367.155,342.784L367.155,425.27ZM546.412,425.27L540.398,425.27L540.398,372.535L532.396,372.535L532.396,367.164L540.398,367.164L540.398,359.539C540.469,353.775 541.803,349.353 544.398,346.274C546.994,343.195 550.583,341.656 555.166,341.656C557.242,341.656 559.158,341.96 560.912,342.569L560.482,348.046C558.907,347.653 557.296,347.456 555.649,347.456C552.749,347.456 550.485,348.539 548.856,350.705C547.227,352.871 546.412,355.977 546.412,360.022L546.412,367.164L557.797,367.164L557.797,372.535L546.412,372.535L546.412,425.27ZM481.1,425.27L475.085,425.27L475.085,342.784L481.1,342.784L481.1,395.251L486.094,388.914L504.084,367.164L511.495,367.164L491.088,391.706L513.428,425.27L506.34,425.27L487.168,396.217L481.1,402.984L481.1,425.27ZM251.652,425.27L245.691,425.27L245.691,367.164L251.384,367.164L251.545,376.401C253.263,373.251 255.456,370.745 258.123,368.883C260.791,367.021 263.825,366.09 267.226,366.09C277.358,366.09 282.549,372.839 282.799,386.336L282.799,425.27L276.892,425.27L276.892,386.981C276.856,381.789 275.943,377.959 274.153,375.488C272.363,373.018 269.553,371.783 265.722,371.783C262.607,371.783 259.806,372.955 257.318,375.3C254.83,377.645 252.941,380.858 251.652,384.94L251.652,425.27ZM698.446,341.919L692.46,341.919L692.46,424.765L698.446,424.765L698.446,384.259C699.74,380.16 701.637,376.932 704.137,374.577C706.635,372.222 709.449,371.044 712.577,371.044C716.424,371.044 719.248,372.285 721.045,374.766C722.843,377.247 723.76,381.094 723.796,386.308L723.796,424.765L729.729,424.765L729.729,385.661C729.477,372.105 724.264,365.327 714.088,365.327C710.671,365.327 707.643,366.253 704.999,368.105C702.356,369.956 700.172,372.446 698.446,375.574L698.446,341.919ZM381.901,399.248C381.901,405.936 383.253,411.193 385.956,415.019C388.659,418.846 392.409,420.759 397.206,420.759C402.111,420.759 405.861,418.917 408.457,415.234C411.053,411.55 412.368,406.275 412.404,399.409L412.404,393.24C412.404,386.553 411.044,381.287 408.323,377.442C405.602,373.598 401.861,371.675 397.099,371.675C392.481,371.675 388.811,373.553 386.09,377.308C383.369,381.063 381.973,386.23 381.901,392.811L381.901,399.248ZM430.373,399.248C430.373,405.936 431.724,411.193 434.427,415.019C437.13,418.846 440.881,420.759 445.678,420.759C450.583,420.759 454.333,418.917 456.929,415.234C459.524,411.55 460.84,406.275 460.876,399.409L460.876,393.24C460.876,386.553 459.515,381.287 456.794,377.442C454.073,373.598 450.332,371.675 445.571,371.675C440.952,371.675 437.282,373.553 434.562,377.308C431.841,381.063 430.444,386.23 430.373,392.811L430.373,399.248ZM567.764,399.248C567.764,405.936 569.116,411.193 571.819,415.019C574.522,418.846 578.272,420.759 583.069,420.759C587.974,420.759 591.724,418.917 594.32,415.234C596.916,411.55 598.231,406.275 598.267,399.409L598.267,393.24C598.267,386.553 596.907,381.287 594.186,377.442C591.465,373.598 587.724,371.675 582.962,371.675C578.344,371.675 574.674,373.553 571.953,377.308C569.232,381.063 567.836,386.23 567.764,392.811L567.764,399.248ZM297.063,398.956C297.063,406.403 298.182,411.88 300.419,415.389C302.657,418.897 306.21,420.652 311.079,420.652C317.344,420.652 321.891,417.662 324.719,411.683L324.719,381.557C322.034,375.077 317.505,371.837 311.133,371.837C306.264,371.837 302.71,373.573 300.473,377.046C298.235,380.518 297.099,385.889 297.063,393.156L297.063,398.956ZM229.011,396.432L219.56,396.432C214.118,396.504 210.019,397.712 207.262,400.057C204.505,402.402 203.127,405.561 203.127,409.535C203.127,416.91 206.671,420.598 213.76,420.598C217.269,420.598 220.374,419.685 223.077,417.859C225.78,416.033 227.758,413.599 229.011,410.556L229.011,396.432ZM751.605,390.029L766.869,390.029L766.869,388.628C766.797,385.139 766.222,382.497 765.143,380.699C764.065,378.9 762.195,378.002 759.534,378.002C756.873,378.002 754.941,378.955 753.736,380.861C752.532,382.766 751.821,385.823 751.605,390.029ZM375.755,314.987L369.848,314.987L369.848,234.541L375.325,234.541L375.594,242.489C379.031,236.474 384.061,233.467 390.684,233.467C396.949,233.467 401.639,235.687 404.754,240.126C407.869,244.565 409.444,251.35 409.48,260.479L409.48,266.333C409.48,275.283 407.922,282.085 404.808,286.739C401.693,291.394 397.039,293.721 390.845,293.721C384.114,293.721 379.084,291.036 375.755,285.665L375.755,314.987ZM606.223,264.131L606.223,267.407C606.223,274.066 607.646,279.203 610.492,282.819C613.338,286.435 617.357,288.243 622.548,288.243C628.276,288.243 632.913,286.149 636.457,281.96L639.572,285.934C635.777,291.125 630.013,293.721 622.28,293.721C615.442,293.721 610.089,291.483 606.223,287.008C602.356,282.533 600.387,276.16 600.316,267.89L600.316,260.801C600.316,252.281 602.177,245.595 605.901,240.744C609.624,235.892 614.743,233.467 621.259,233.467C627.56,233.467 632.367,235.525 635.678,239.643C638.99,243.76 640.682,250.061 640.753,258.546L640.753,264.131L606.223,264.131ZM420.951,264.131L420.951,267.407C420.951,274.066 422.374,279.203 425.22,282.819C428.066,286.435 432.085,288.243 437.276,288.243C443.004,288.243 447.64,286.149 451.185,281.96L454.3,285.934C450.505,291.125 444.741,293.721 437.007,293.721C430.169,293.721 424.817,291.483 420.951,287.008C417.084,282.533 415.115,276.16 415.043,267.89L415.043,260.801C415.043,252.281 416.905,245.595 420.628,240.744C424.352,235.892 429.471,233.467 435.987,233.467C442.288,233.467 447.094,235.525 450.406,239.643C453.718,243.76 455.409,250.061 455.481,258.546L455.481,264.131L420.951,264.131ZM145.072,234.541L155.007,234.541L155.007,239.911L145.072,239.911L145.072,278.523C145.072,281.709 145.546,284.081 146.495,285.639C147.444,287.196 149.028,287.975 151.248,287.975C152.214,287.975 153.646,287.796 155.544,287.438L155.705,292.808C154.345,293.416 152.393,293.721 149.852,293.721C142.87,293.721 139.29,288.923 139.111,279.329L139.111,239.911L130.143,239.911L130.143,234.541L139.111,234.541L139.111,219.719L145.072,219.719L145.072,234.541ZM859.224,234.541L869.159,234.541L869.159,239.911L859.224,239.911L859.224,278.523C859.224,281.709 859.698,284.081 860.647,285.639C861.596,287.196 863.18,287.975 865.4,287.975C866.366,287.975 867.799,287.796 869.696,287.438L869.857,292.808C868.497,293.416 866.545,293.721 864.004,293.721C857.022,293.721 853.442,288.923 853.263,279.329L853.263,239.911L844.295,239.911L844.295,234.541L853.263,234.541L853.263,219.719L859.224,219.719L859.224,234.541ZM676.1,234.541L686.035,234.541L686.035,239.911L676.1,239.911L676.1,278.523C676.1,281.709 676.574,284.081 677.523,285.639C678.472,287.196 680.056,287.975 682.276,287.975C683.242,287.975 684.674,287.796 686.572,287.438L686.733,292.808C685.373,293.416 683.421,293.721 680.879,293.721C673.898,293.721 670.318,288.923 670.139,279.329L670.139,239.911L661.171,239.911L661.171,234.541L670.139,234.541L670.139,219.719L676.1,219.719L676.1,234.541ZM213.016,264.131L213.016,267.407C213.016,274.066 214.439,279.203 217.285,282.819C220.131,286.435 224.15,288.243 229.341,288.243C235.07,288.243 239.706,286.149 243.25,281.96L246.365,285.934C242.57,291.125 236.806,293.721 229.073,293.721C222.235,293.721 216.883,291.483 213.016,287.008C209.149,282.533 207.18,276.16 207.109,267.89L207.109,260.801C207.109,252.281 208.97,245.595 212.694,240.744C216.417,235.892 221.537,233.467 228.053,233.467C234.354,233.467 239.16,235.525 242.472,239.643C245.783,243.76 247.475,250.061 247.546,258.546L247.546,264.131L213.016,264.131ZM730.586,292.647L724.249,292.647C723.712,290.785 723.354,288.1 723.175,284.591C721.385,287.491 719.085,289.738 716.274,291.331C713.464,292.924 710.412,293.721 707.118,293.721C702.106,293.721 698.204,292.307 695.411,289.478C692.619,286.65 691.222,282.622 691.222,277.395C691.222,271.703 693.165,267.192 697.049,263.862C700.934,260.533 706.295,258.85 713.133,258.814L723.122,258.814L723.122,250.705C723.122,246.552 722.092,243.572 720.034,241.764C717.975,239.956 714.959,239.052 710.985,239.052C707.297,239.052 704.272,240.126 701.909,242.274C699.546,244.422 698.365,247.197 698.365,250.598L692.404,250.544C692.404,245.783 694.194,241.746 697.774,238.434C701.354,235.123 705.847,233.467 711.253,233.467C717.089,233.467 721.51,234.935 724.518,237.87C727.525,240.806 729.029,245.084 729.029,250.705L729.029,279.221C729.029,284.914 729.548,289.174 730.586,292.002L730.586,292.647ZM538.279,234.541L548.214,234.541L548.214,239.911L538.279,239.911L538.279,278.523C538.279,281.709 538.753,284.081 539.702,285.639C540.651,287.196 542.235,287.975 544.455,287.975C545.421,287.975 546.853,287.796 548.751,287.438L548.912,292.808C547.551,293.416 545.6,293.721 543.058,293.721C536.077,293.721 532.497,288.923 532.318,279.329L532.318,239.911L523.35,239.911L523.35,234.541L532.318,234.541L532.318,219.719L538.279,219.719L538.279,234.541ZM808.551,264.131L808.551,267.407C808.551,274.066 809.974,279.203 812.82,282.819C815.666,286.435 819.685,288.243 824.876,288.243C830.604,288.243 835.241,286.149 838.785,281.96L841.9,285.934C838.105,291.125 832.341,293.721 824.608,293.721C817.77,293.721 812.417,291.483 808.551,287.008C804.684,282.533 802.715,276.16 802.644,267.89L802.644,260.801C802.644,252.281 804.505,245.595 808.229,240.744C811.952,235.892 817.072,233.467 823.587,233.467C829.888,233.467 834.695,235.525 838.006,239.643C841.318,243.76 843.01,250.061 843.081,258.546L843.081,264.131L808.551,264.131ZM745.333,292.647L739.801,292.647L739.801,210.16L745.709,210.16L745.709,242.65C748.967,236.528 753.961,233.467 760.691,233.467C766.957,233.467 771.629,235.678 774.708,240.099C777.787,244.521 779.38,251.117 779.487,259.888L779.487,266.333C779.487,275.283 777.921,282.085 774.788,286.739C771.656,291.394 766.993,293.721 760.799,293.721C753.961,293.721 748.895,290.767 745.601,284.86L745.333,292.647ZM319.121,260.64C319.121,252.263 321.018,245.639 324.813,240.77C328.608,235.901 333.781,233.467 340.333,233.467C346.92,233.467 352.103,235.866 355.88,240.663C359.657,245.46 361.563,252.066 361.599,260.479L361.599,266.655C361.599,275.176 359.693,281.817 355.88,286.578C352.067,291.34 346.92,293.721 340.44,293.721C333.96,293.721 328.823,291.394 325.028,286.739C321.233,282.085 319.264,275.677 319.121,267.514L319.121,260.64ZM168.465,292.647L162.504,292.647L162.504,210.16L168.465,210.16L168.465,243.67C170.183,240.556 172.358,238.076 174.989,236.233C177.621,234.389 180.637,233.467 184.038,233.467C194.17,233.467 199.361,240.215 199.612,253.713L199.612,292.647L193.705,292.647L193.705,254.357C193.669,249.166 192.756,245.335 190.966,242.865C189.176,240.394 186.365,239.159 182.535,239.159C179.42,239.159 176.618,240.332 174.13,242.677C171.642,245.022 169.754,248.235 168.465,252.316L168.465,292.647ZM561.671,292.647L555.711,292.647L555.711,210.16L561.671,210.16L561.671,243.67C563.39,240.556 565.565,238.076 568.196,236.233C570.828,234.389 573.844,233.467 577.245,233.467C587.377,233.467 592.568,240.215 592.819,253.713L592.819,292.647L586.911,292.647L586.911,254.357C586.876,249.166 585.963,245.335 584.173,242.865C582.383,240.394 579.572,239.159 575.741,239.159C572.627,239.159 569.825,240.332 567.337,242.677C564.849,245.022 562.96,248.235 561.671,252.316L561.671,292.647ZM260.682,292.647L254.721,292.647L254.721,234.541L260.413,234.541L260.575,243.778C262.293,240.627 264.486,238.121 267.153,236.259C269.82,234.398 272.854,233.467 276.256,233.467C286.387,233.467 291.579,240.215 291.829,253.713L291.829,292.647L285.922,292.647L285.922,254.357C285.886,249.166 284.973,245.335 283.183,242.865C281.393,240.394 278.583,239.159 274.752,239.159C271.637,239.159 268.836,240.332 266.348,242.677C263.859,245.022 261.971,248.235 260.682,252.316L260.682,292.647ZM468.616,292.647L462.656,292.647L462.656,234.541L468.348,234.541L468.509,243.778C470.228,240.627 472.42,238.121 475.088,236.259C477.755,234.398 480.789,233.467 484.19,233.467C494.322,233.467 499.513,240.215 499.764,253.713L499.764,292.647L493.856,292.647L493.856,254.357C493.821,249.166 492.908,245.335 491.118,242.865C489.328,240.394 486.517,239.159 482.686,239.159C479.572,239.159 476.77,240.332 474.282,242.677C471.794,245.022 469.905,248.235 468.616,252.316L468.616,292.647ZM794.449,292.647L788.434,292.647L788.434,210.16L794.449,210.16L794.449,292.647ZM325.135,266.625C325.135,273.312 326.487,278.569 329.19,282.396C331.893,286.222 335.643,288.136 340.44,288.136C345.345,288.136 349.095,286.294 351.691,282.61C354.287,278.927 355.602,273.652 355.638,266.786L355.638,260.617C355.638,253.929 354.278,248.663 351.557,244.819C348.836,240.974 345.094,239.052 340.333,239.052C335.715,239.052 332.045,240.929 329.324,244.684C326.603,248.439 325.207,253.607 325.135,260.187L325.135,266.625ZM403.519,260.885C403.519,253.446 402.364,247.975 400.055,244.47C397.746,240.965 394.139,239.213 389.234,239.213C382.933,239.213 378.44,242.414 375.755,248.815L375.755,279.391C378.44,285.221 382.969,288.136 389.341,288.136C394.139,288.136 397.692,286.383 400.001,282.879C402.311,279.374 403.483,273.974 403.519,266.678L403.519,260.885ZM773.526,260.909C773.526,253.534 772.434,248.074 770.25,244.53C768.067,240.985 764.486,239.213 759.51,239.213C752.887,239.213 748.286,242.704 745.709,249.685L745.709,278.469C746.926,281.512 748.716,283.866 751.079,285.531C753.442,287.196 756.288,288.028 759.617,288.028C764.379,288.028 767.879,286.301 770.116,282.846C772.354,279.391 773.49,274.012 773.526,266.709L773.526,260.909ZM723.122,263.809L713.67,263.809C708.228,263.88 704.129,265.089 701.372,267.433C698.615,269.778 697.237,272.938 697.237,276.912C697.237,284.287 700.781,287.975 707.87,287.975C711.379,287.975 714.484,287.062 717.187,285.236C719.89,283.41 721.868,280.975 723.122,277.932L723.122,263.809ZM823.587,239.052C818.897,239.052 815.29,240.708 812.766,244.019C810.242,247.331 808.855,252.173 808.605,258.546L837.12,258.546L837.12,256.988C836.834,245.031 832.323,239.052 823.587,239.052ZM621.259,239.052C616.569,239.052 612.962,240.708 610.438,244.019C607.914,247.331 606.527,252.173 606.276,258.546L634.792,258.546L634.792,256.988C634.506,245.031 629.995,239.052 621.259,239.052ZM228.053,239.052C223.363,239.052 219.756,240.708 217.232,244.019C214.708,247.331 213.32,252.173 213.07,258.546L241.585,258.546L241.585,256.988C241.299,245.031 236.788,239.052 228.053,239.052ZM435.987,239.052C431.297,239.052 427.69,240.708 425.166,244.019C422.642,247.331 421.255,252.173 421.004,258.546L449.52,258.546L449.52,256.988C449.234,245.031 444.723,239.052 435.987,239.052Z" style="fill:white;"/>
    <path d="M859.282,101.11L847.376,101.11C847.376,97.389 848.474,93.835 850.672,90.449C852.869,87.063 855.829,84.406 859.551,82.478C863.273,80.55 867.421,79.586 871.995,79.586C879.439,79.586 885.1,81.436 888.979,85.135C892.858,88.835 894.842,94.227 894.932,101.312L894.932,138.039C894.977,143.644 895.739,148.51 897.219,152.635L897.219,153.712L884.842,153.712C884.125,152.142 883.609,149.496 883.295,145.774C879.08,151.963 873.699,155.057 867.152,155.057C860.56,155.057 855.414,153.207 851.714,149.508C848.015,145.808 846.165,140.595 846.165,133.868C846.165,126.469 848.676,120.595 853.699,116.245C858.721,111.895 865.604,109.676 874.349,109.586L883.093,109.586L883.093,101.85C883.093,97.501 882.129,94.406 880.201,92.568C878.273,90.729 875.335,89.81 871.389,89.81C867.802,89.81 864.887,90.875 862.645,93.005C860.403,95.135 859.282,97.837 859.282,101.11ZM569.491,80.931L580.455,80.931L580.455,90.55L569.491,90.55L569.491,135.741C569.491,138.615 569.962,140.792 570.904,142.274C571.846,143.756 573.46,144.496 575.747,144.496C577.316,144.496 578.908,144.227 580.523,143.689L580.388,153.72C577.698,154.611 574.94,155.057 572.115,155.057C567.406,155.057 563.819,153.375 561.352,150.012C558.886,146.649 557.653,141.895 557.653,135.752L557.653,90.55L546.554,90.55L546.554,80.931L557.653,80.931L557.653,63.308L569.491,63.308L569.491,80.931ZM583.859,113.958C583.859,103.375 586.426,95.001 591.561,88.835C596.695,82.669 603.478,79.586 611.908,79.586C620.339,79.586 627.122,82.59 632.256,88.599C637.391,94.608 640.025,102.792 640.16,113.151L640.16,120.819C640.16,131.357 637.604,139.698 632.492,145.842C627.379,151.985 620.563,155.057 612.043,155.057C603.612,155.057 596.852,152.075 591.763,146.111C586.673,140.147 584.038,132.075 583.859,121.895L583.859,113.958ZM829.174,80.931L840.138,80.931L840.138,90.55L829.174,90.55L829.174,135.741C829.174,138.615 829.645,140.792 830.586,142.274C831.528,143.756 833.142,144.496 835.429,144.496C836.999,144.496 838.591,144.227 840.205,143.689L840.071,153.72C837.38,154.611 834.622,155.057 831.797,155.057C827.089,155.057 823.501,153.375 821.035,150.012C818.568,146.649 817.335,141.895 817.335,135.752L817.335,90.55L806.237,90.55L806.237,80.931L817.335,80.931L817.335,63.308L829.174,63.308L829.174,80.931ZM223.024,108.106L205.131,108.106C205.086,104.025 204.414,100.886 203.113,98.689C201.813,96.492 199.66,95.393 196.656,95.393C193.337,95.393 190.961,96.57 189.526,98.924C188.091,101.279 187.328,105.841 187.239,112.613L187.239,120.012C187.239,125.931 187.53,130.068 188.113,132.422C188.696,134.777 189.66,136.503 191.006,137.602C192.351,138.7 194.257,139.25 196.723,139.25C202.239,139.25 205.042,135.662 205.131,128.487L223.024,128.487C222.934,136.425 220.49,142.837 215.692,147.725C210.894,152.613 204.705,155.057 197.127,155.057C187.755,155.057 180.602,152.142 175.669,146.312C170.737,140.483 168.225,131.895 168.136,120.55L168.136,114.765C168.136,103.33 170.568,94.608 175.434,88.599C180.299,82.59 187.485,79.586 196.992,79.586C205.019,79.586 211.342,82.063 215.961,87.019C220.58,91.974 222.934,99.003 223.024,108.106ZM804.245,101.649L792.407,101.649C792.407,98.375 791.308,95.584 789.111,93.274C786.914,90.965 784.111,89.81 780.703,89.81C777.205,89.81 774.458,90.715 772.463,92.526C770.467,94.336 769.47,96.761 769.47,99.801C769.47,102.215 770.198,104.16 771.656,105.636C773.113,107.111 776.622,109.055 782.183,111.469C791.017,114.928 797.026,118.308 800.21,121.608C803.393,124.909 804.985,129.097 804.985,134.172C804.985,140.505 802.81,145.569 798.461,149.364C794.111,153.159 788.281,155.057 780.972,155.057C773.393,155.057 767.25,152.882 762.541,148.532C757.833,144.182 755.478,138.667 755.478,131.985L767.452,131.985C767.586,136.021 768.819,139.182 771.151,141.469C773.483,143.756 776.757,144.9 780.972,144.9C784.918,144.9 787.923,144.014 789.985,142.243C792.048,140.472 793.08,138.084 793.08,135.079C793.08,132.523 792.115,130.326 790.187,128.487C788.259,126.649 784.537,124.496 779.021,122.03C772.609,119.384 768.091,117.12 765.467,115.236C762.844,113.353 760.882,111.211 759.582,108.812C758.281,106.413 757.631,103.554 757.631,100.236C757.631,94.317 759.795,89.395 764.122,85.471C768.449,81.548 773.976,79.586 780.703,79.586C787.788,79.586 793.483,81.649 797.788,85.774C802.093,89.9 804.245,95.191 804.245,101.649ZM485.531,123.644C485.8,129.049 486.989,133.001 489.096,135.5C491.204,138 494.455,139.25 498.85,139.25C505.218,139.25 510.531,137.075 514.792,132.725L522.258,144.227C519.926,147.456 516.54,150.068 512.101,152.064C507.661,154.059 502.841,155.057 497.639,155.057C487.863,155.057 480.24,152.142 474.769,146.312C469.298,140.483 466.563,132.142 466.563,121.29L466.563,115.505C466.563,104.025 469.074,95.169 474.096,88.936C479.119,82.702 486.316,79.586 495.688,79.586C504.836,79.586 511.72,82.507 516.339,88.351C520.957,94.194 523.312,102.847 523.401,114.309L523.401,123.644L485.531,123.644ZM388.993,123.644C389.262,129.049 390.45,133.001 392.558,135.5C394.666,138 397.917,139.25 402.311,139.25C408.679,139.25 413.993,137.075 418.253,132.725L425.719,144.227C423.388,147.456 420.002,150.068 415.562,152.064C411.123,154.059 406.302,155.057 401.101,155.057C391.325,155.057 383.701,152.142 378.231,146.312C372.76,140.483 370.024,132.142 370.024,121.29L370.024,115.505C370.024,104.025 372.535,95.169 377.558,88.936C382.58,82.702 389.778,79.586 399.15,79.586C408.298,79.586 415.181,82.507 419.8,88.351C424.419,94.194 426.773,102.847 426.863,114.309L426.863,123.644L388.993,123.644ZM110.907,108.106L93.014,108.106C92.969,104.025 92.297,100.886 90.996,98.689C89.696,96.492 87.543,95.393 84.539,95.393C81.22,95.393 78.844,96.57 77.409,98.924C75.974,101.279 75.212,105.841 75.122,112.613L75.122,120.012C75.122,125.931 75.413,130.068 75.996,132.422C76.579,134.777 77.543,136.503 78.889,137.602C80.234,138.7 82.14,139.25 84.606,139.25C90.122,139.25 92.925,135.662 93.014,128.487L110.907,128.487C110.817,136.425 108.373,142.837 103.575,147.725C98.777,152.613 92.588,155.057 85.01,155.057C75.638,155.057 68.485,152.142 63.552,146.312C58.62,140.483 56.108,131.895 56.019,120.55L56.019,114.765C56.019,103.33 58.451,94.608 63.317,88.599C68.182,82.59 75.368,79.586 84.875,79.586C92.902,79.586 99.225,82.063 103.844,87.019C108.463,91.974 110.817,99.003 110.907,108.106ZM329.356,153.712L310.32,153.712L310.32,50.393L329.356,50.393L329.356,87.321C333.481,82.164 338.549,79.586 344.558,79.586C351.195,79.586 356.239,81.918 359.692,86.581C363.145,91.245 364.894,98.196 364.939,107.433L364.939,153.712L345.836,153.712L345.836,107.635C345.836,103.375 345.174,100.292 343.851,98.386C342.529,96.48 340.387,95.528 337.428,95.528C333.975,95.528 331.284,97.119 329.356,100.303L329.356,153.712ZM245.934,153.712L226.898,153.712L226.898,50.393L245.934,50.393L245.934,106.223L248.288,102.725L261.472,80.931L284.14,80.931L263.019,110.931L286.158,153.712L264.365,153.712L251.046,125.662L245.934,131.38L245.934,153.712ZM919.322,153.712L907.416,153.712L907.416,50.393L919.322,50.393L919.322,153.712ZM943.981,153.712L932.076,153.712L932.076,50.393L943.981,50.393L943.981,153.712ZM686.115,153.712L674.209,153.712L674.209,80.931L686.115,80.931L686.115,153.712ZM709.833,153.712L697.927,153.712L697.927,80.931L709.16,80.931L709.496,88.801C714.115,82.658 720.012,79.586 727.187,79.586C740.057,79.586 746.582,88.173 746.761,105.348L746.761,153.712L734.922,153.712L734.922,105.886C734.922,100.191 733.969,96.144 732.064,93.745C730.158,91.346 727.299,90.146 723.487,90.146C720.528,90.146 717.871,91.133 715.516,93.106C713.162,95.079 711.268,97.658 709.833,100.841L709.833,153.712ZM134.759,153.712L115.656,153.712L115.656,50.393L134.759,50.393L134.759,153.712ZM162.58,153.712L143.476,153.712L143.476,80.931L162.58,80.931L162.58,153.712ZM449.773,153.712L430.67,153.712L430.67,80.931L448.63,80.931L449.168,88.801C452.172,82.658 456.32,79.586 461.612,79.586C463.764,79.586 465.513,79.877 466.859,80.46L466.657,99.294L460.334,98.756C455.132,98.756 451.612,101.043 449.773,105.617L449.773,153.712ZM595.765,120.819C595.765,128.308 597.234,134.194 600.171,138.476C603.108,142.759 607.065,144.9 612.043,144.9C622.536,144.9 627.94,137.321 628.254,122.164L628.254,113.958C628.254,106.514 626.774,100.628 623.814,96.301C620.855,91.974 616.886,89.81 611.908,89.81C607.021,89.81 603.108,91.974 600.171,96.301C597.234,100.628 595.765,106.492 595.765,113.891L595.765,120.819ZM883.093,118.398L876.367,118.398C870.716,118.487 866.255,119.754 862.981,122.198C859.708,124.642 858.071,128.061 858.071,132.456C858.071,136.581 858.9,139.575 860.56,141.436C862.219,143.297 865.021,144.227 868.968,144.227C871.882,144.227 874.663,143.42 877.309,141.806C879.954,140.191 881.883,138.173 883.093,135.752L883.093,118.398ZM389.127,110.393L408.163,110.393L408.163,108.644C408.074,104.294 407.356,100.998 406.011,98.756C404.666,96.514 402.334,95.393 399.015,95.393C395.697,95.393 393.287,96.581 391.784,98.958C390.282,101.335 389.396,105.146 389.127,110.393ZM485.666,110.393L504.702,110.393L504.702,108.644C504.612,104.294 503.895,100.998 502.549,98.756C501.204,96.514 498.872,95.393 495.554,95.393C492.235,95.393 489.825,96.581 488.323,98.958C486.821,101.335 485.935,105.146 485.666,110.393ZM142.602,62.097C142.602,59.137 143.544,56.716 145.427,54.832C147.31,52.949 149.822,52.007 152.961,52.007C156.1,52.007 158.611,52.949 160.494,54.832C162.378,56.716 163.319,59.137 163.319,62.097C163.319,65.012 162.389,67.433 160.528,69.361C158.667,71.29 156.145,72.254 152.961,72.254C149.777,72.254 147.254,71.29 145.393,69.361C143.532,67.433 142.602,65.012 142.602,62.097ZM687.057,61.626C687.057,63.644 686.496,65.326 685.375,66.671C684.254,68.016 682.55,68.689 680.263,68.689C678.021,68.689 676.339,68.016 675.218,66.671C674.097,65.326 673.536,63.644 673.536,61.626C673.536,59.608 674.097,57.904 675.218,56.514C676.339,55.124 678.021,54.429 680.263,54.429C682.505,54.429 684.198,55.135 685.341,56.548C686.485,57.96 687.057,59.653 687.057,61.626Z" style="fill:white;"/>
</svg>
