<svg viewBox="0 0 43 43" xmlns="http://www.w3.org/2000/svg"><path transform="translate(0 6.5)" fill="#fff" d="M1.49 5.38c2.24-5.22 9.8-6.44 13.99-2.91 3.66 2.96 5.24 7.61 6.33 12.02 1.07-4.28 2.57-8.75 6.01-11.73C31.83-1.09 39.54.03 41.97 5.14c1.81 3.8.09 8.33-2.59 11.25-3.47 3.75-9.08 3.87-12.99 6.93-1.62 2.02-2.28 4.63-3.88 6.68h-.89c-1.66-1.94-2.42-4.46-4-6.45-3.37-2.78-7.98-3.2-11.58-5.58-3.89-2.69-6.23-8-4.55-12.59m3.64 1.7c-.82 3.37 1.52 6.76 4.43 8.26 3.17 1.22 6.44 2.24 9.42 3.94-1.47-4.62-2.12-9.93-5.82-13.41-2.24-2.32-6.58-1.63-8.03 1.21m25.63-1.45c-4.01 3.4-4.71 8.91-6.05 13.67 3.99-2.75 9.75-2.7 12.64-6.94 1.21-1.73 2.08-4.34.51-6.14-1.75-1.89-5.14-2.51-7.1-.59z"/></svg>