<svg viewBox="0 0 81 76" fill="#fff" xmlns="http://www.w3.org/2000/svg"><path d="M5.419 30.468c1.563-2.832 3.54-5.086 5.933-6.762 2.393-1.677 5.135-2.515 8.228-2.515 9.212 0 13.932 6.136 14.16 18.408V75h-5.371V40.185c-.033-4.72-.863-8.203-2.491-10.449-1.627-2.246-4.183-3.369-7.666-3.369-2.832 0-5.379 1.066-7.641 3.198-2.263 2.132-3.98 5.054-5.152 8.765V75H0V0h5.419v30.468zM62.236 75.976c-7.097 0-12.63-2.116-16.602-6.347-3.971-4.232-5.957-10.287-5.957-18.165v-4.199c0-8.333 1.823-14.762 5.469-19.287 3.646-4.525 8.87-6.787 15.674-6.787 6.64 0 11.637 2.121 14.99 6.363 3.353 4.241 5.062 10.522 5.127 18.843v6.776h-27.49c.195 3.923 1.058 6.792 2.588 8.607 1.53 1.814 3.89 2.722 7.08 2.722 4.622 0 8.48-1.579 11.572-4.737l5.42 8.35c-1.693 2.344-4.15 4.24-7.373 5.688-3.223 1.449-6.722 2.173-10.498 2.173zm-8.692-32.422h13.819v-1.269c-.065-3.158-.586-5.55-1.563-7.178-.976-1.628-2.669-2.441-5.078-2.441-2.409 0-4.158.862-5.249 2.588-1.09 1.725-1.733 4.492-1.929 8.3z"/></svg>